G04 #@! TF.GenerationSoftware,KiCad,Pcbnew,5.1.10-88a1d61d58~90~ubuntu20.04.1*
G04 #@! TF.CreationDate,2021-09-05T16:54:04+01:00*
G04 #@! TF.ProjectId,hl2_6xvtr,686c325f-3678-4767-9472-2e6b69636164,1*
G04 #@! TF.SameCoordinates,PX3dfd240PY3473bc0*
G04 #@! TF.FileFunction,Copper,L2,Bot*
G04 #@! TF.FilePolarity,Positive*
%FSLAX46Y46*%
G04 Gerber Fmt 4.6, Leading zero omitted, Abs format (unit mm)*
G04 Created by KiCad (PCBNEW 5.1.10-88a1d61d58~90~ubuntu20.04.1) date 2021-09-05 16:54:04*
%MOMM*%
%LPD*%
G01*
G04 APERTURE LIST*
G04 #@! TA.AperFunction,SMDPad,CuDef*
%ADD10C,0.100000*%
G04 #@! TD*
G04 #@! TA.AperFunction,SMDPad,CuDef*
%ADD11R,1.000000X1.500000*%
G04 #@! TD*
G04 #@! TA.AperFunction,SMDPad,CuDef*
%ADD12R,1.000000X1.800000*%
G04 #@! TD*
G04 #@! TA.AperFunction,SMDPad,CuDef*
%ADD13R,2.200000X1.840000*%
G04 #@! TD*
G04 #@! TA.AperFunction,SMDPad,CuDef*
%ADD14R,0.889000X1.397000*%
G04 #@! TD*
G04 #@! TA.AperFunction,SMDPad,CuDef*
%ADD15R,0.635000X1.143000*%
G04 #@! TD*
G04 #@! TA.AperFunction,ComponentPad*
%ADD16C,1.016000*%
G04 #@! TD*
G04 #@! TA.AperFunction,SMDPad,CuDef*
%ADD17R,1.143000X0.635000*%
G04 #@! TD*
G04 #@! TA.AperFunction,ComponentPad*
%ADD18C,2.000000*%
G04 #@! TD*
G04 #@! TA.AperFunction,ComponentPad*
%ADD19O,1.700000X1.700000*%
G04 #@! TD*
G04 #@! TA.AperFunction,ComponentPad*
%ADD20R,1.700000X1.700000*%
G04 #@! TD*
G04 #@! TA.AperFunction,ComponentPad*
%ADD21R,1.600000X5.200000*%
G04 #@! TD*
G04 #@! TA.AperFunction,ComponentPad*
%ADD22R,4.400000X5.200000*%
G04 #@! TD*
G04 #@! TA.AperFunction,ComponentPad*
%ADD23C,4.200000*%
G04 #@! TD*
G04 #@! TA.AperFunction,ComponentPad*
%ADD24C,3.500000*%
G04 #@! TD*
G04 #@! TA.AperFunction,ViaPad*
%ADD25C,0.600000*%
G04 #@! TD*
G04 #@! TA.AperFunction,Conductor*
%ADD26C,0.400000*%
G04 #@! TD*
G04 #@! TA.AperFunction,Conductor*
%ADD27C,0.800000*%
G04 #@! TD*
G04 #@! TA.AperFunction,Conductor*
%ADD28C,1.000000*%
G04 #@! TD*
G04 #@! TA.AperFunction,Conductor*
%ADD29C,0.350000*%
G04 #@! TD*
G04 #@! TA.AperFunction,Conductor*
%ADD30C,0.500000*%
G04 #@! TD*
G04 #@! TA.AperFunction,Conductor*
%ADD31C,0.200000*%
G04 #@! TD*
G04 #@! TA.AperFunction,Conductor*
%ADD32C,0.100000*%
G04 #@! TD*
G04 APERTURE END LIST*
G04 #@! TA.AperFunction,SMDPad,CuDef*
D10*
G36*
X35465000Y-36674500D02*
G01*
X34865000Y-35824500D01*
X37065000Y-35824500D01*
X36465000Y-36674500D01*
X35465000Y-36674500D01*
G37*
G04 #@! TD.AperFunction*
D11*
X34465000Y-32102500D03*
D12*
X35965000Y-32249000D03*
D11*
X37465000Y-32102500D03*
D13*
X35965000Y-34916000D03*
G04 #@! TA.AperFunction,SMDPad,CuDef*
D10*
G36*
X36365000Y-33006300D02*
G01*
X37065000Y-34006300D01*
X34865000Y-34006300D01*
X35565000Y-33006300D01*
X36365000Y-33006300D01*
G37*
G04 #@! TD.AperFunction*
D14*
X82383500Y-27804000D03*
X80478500Y-27804000D03*
D15*
X58444000Y-14469000D03*
X56920000Y-14469000D03*
D16*
X41553000Y-21200000D03*
X49935000Y-23740000D03*
X49935000Y-26280000D03*
X45744000Y-21200000D03*
X45744000Y-22470000D03*
X45744000Y-23740000D03*
X45744000Y-25010000D03*
X45744000Y-26280000D03*
D15*
X27900500Y-39043500D03*
X29424500Y-39043500D03*
D17*
X32028000Y-40567500D03*
X32028000Y-39043500D03*
X32028000Y-35487500D03*
X32028000Y-37011500D03*
X28662500Y-31423500D03*
X28662500Y-32947500D03*
X32028000Y-33455500D03*
X32028000Y-31931500D03*
D15*
X78065500Y-29836000D03*
X76541500Y-29836000D03*
D17*
X73430000Y-27296000D03*
X73430000Y-25772000D03*
D15*
X68032500Y-29836000D03*
X69556500Y-29836000D03*
D17*
X66445000Y-25772000D03*
X66445000Y-27296000D03*
X64286000Y-25772000D03*
X64286000Y-27296000D03*
D15*
X59904500Y-29836000D03*
X58380500Y-29836000D03*
D17*
X55142000Y-27296000D03*
X55142000Y-25772000D03*
D15*
X50214400Y-29836000D03*
X51738400Y-29836000D03*
D18*
X59642000Y-25336000D03*
X55142000Y-29836000D03*
D19*
X85378000Y-1134000D03*
X87918000Y-1134000D03*
D20*
X90458000Y-1134000D03*
D19*
X57428000Y-1134000D03*
X54888000Y-1134000D03*
X52348000Y-1134000D03*
X49808000Y-1134000D03*
X47268000Y-1134000D03*
X44728000Y-1134000D03*
X42188000Y-1134000D03*
X39648000Y-1134000D03*
X37108000Y-1134000D03*
X34568000Y-1134000D03*
X32028000Y-1134000D03*
X29488000Y-1134000D03*
X26948000Y-1134000D03*
X24408000Y-1134000D03*
X21868000Y-1134000D03*
X19328000Y-1134000D03*
X16788000Y-1134000D03*
X14248000Y-1134000D03*
X11708000Y-1134000D03*
D20*
X9168000Y-1134000D03*
D18*
X35465500Y-39098500D03*
X39965500Y-34598500D03*
X28717500Y-35479000D03*
X24217500Y-30979000D03*
D21*
X64000000Y-45000000D03*
D22*
X60200000Y-45000000D03*
X67800000Y-45000000D03*
D21*
X32000000Y-45000000D03*
D22*
X28200000Y-45000000D03*
X35800000Y-45000000D03*
D18*
X77930000Y-25336000D03*
X73430000Y-29836000D03*
X68786000Y-25336000D03*
X64286000Y-29836000D03*
D21*
X32028000Y-2658000D03*
D22*
X28228000Y-2658000D03*
X35828000Y-2658000D03*
D21*
X21868000Y-2658000D03*
D22*
X18068000Y-2658000D03*
X25668000Y-2658000D03*
D23*
X12000000Y-44400000D03*
D24*
X12000000Y-39900000D03*
D25*
X87400000Y-3420000D03*
X88670000Y-3420000D03*
X89940000Y-3420000D03*
X91210000Y-3420000D03*
X92480000Y-3420000D03*
X93750000Y-3420000D03*
X95020000Y-3420000D03*
X96290000Y-3420000D03*
X97560000Y-3420000D03*
X86130000Y-3420000D03*
X84860000Y-3420000D03*
X84860000Y-4690000D03*
X84860000Y-5960000D03*
X84860000Y-9770000D03*
X83590000Y-9770000D03*
X83590000Y-11040000D03*
X84860000Y-11040000D03*
X84860000Y-14850000D03*
X84860000Y-16120000D03*
X87400000Y-17390000D03*
X88670000Y-17390000D03*
X89940000Y-17390000D03*
X91210000Y-17390000D03*
X92480000Y-17390000D03*
X93750000Y-17390000D03*
X95020000Y-17390000D03*
X96290000Y-17390000D03*
X97560000Y-17390000D03*
X97560000Y-18660000D03*
X96290000Y-18660000D03*
X95020000Y-18660000D03*
X93750000Y-18660000D03*
X92480000Y-18660000D03*
X91210000Y-18660000D03*
X89940000Y-18660000D03*
X88670000Y-18660000D03*
X93750000Y-2150000D03*
X95020000Y-2150000D03*
X97560000Y-2150000D03*
X96290000Y-2150000D03*
X97560000Y-4690000D03*
X97560000Y-5960000D03*
X97560000Y-7230000D03*
X97560000Y-8500000D03*
X97560000Y-9770000D03*
X97560000Y-11040000D03*
X97560000Y-12310000D03*
X97560000Y-13580000D03*
X97560000Y-14850000D03*
X97560000Y-16120000D03*
X86130000Y-17390000D03*
X84860000Y-17390000D03*
X84860000Y-18660000D03*
X86130000Y-18660000D03*
X87400000Y-18660000D03*
X62508000Y-17136000D03*
X62000000Y-18406000D03*
X60984000Y-18914000D03*
X59968000Y-18914000D03*
X58952000Y-18914000D03*
X28726000Y-21200000D03*
X28726000Y-22216000D03*
X28726000Y-23232000D03*
X28218000Y-23994000D03*
X25424000Y-21200000D03*
X25424000Y-22216000D03*
X25678000Y-23232000D03*
X25932000Y-23994000D03*
X26694000Y-24502000D03*
X27710000Y-24502000D03*
X34314000Y-33900000D03*
X34314000Y-34916000D03*
X34314000Y-35932000D03*
X34822000Y-36694000D03*
X37108000Y-36694000D03*
X37616000Y-35932000D03*
X37616000Y-34916000D03*
X37616000Y-33900000D03*
X88670000Y-34154000D03*
X89432000Y-34154000D03*
X90194000Y-34154000D03*
X90956000Y-34408000D03*
X91718000Y-34916000D03*
X91718000Y-35678000D03*
X91718000Y-36440000D03*
X90956000Y-36948000D03*
X90194000Y-37202000D03*
X89432000Y-37202000D03*
X88670000Y-37202000D03*
X62000000Y-16120000D03*
X62000000Y-16120000D03*
X60984000Y-15612000D03*
X59968000Y-15612000D03*
X71652000Y-11929000D03*
X68985000Y-15358000D03*
X59460000Y-14469000D03*
X26821000Y-15129400D03*
X15619600Y-19549000D03*
X47191800Y-37049600D03*
X31875600Y-27550000D03*
X62076200Y-2505600D03*
X79551400Y-29836000D03*
X41172000Y-15637400D03*
X72693400Y-2023000D03*
X91464000Y-25010000D03*
X47344200Y-29836000D03*
X38771700Y-31931500D03*
X12266800Y-8550800D03*
X47532200Y-9373800D03*
X55888800Y-7011600D03*
X52094000Y-5121800D03*
X70077200Y-8550800D03*
D26*
X64286000Y-25772000D02*
X66445000Y-25772000D01*
X24217500Y-30979000D02*
X26744800Y-30979000D01*
X27189300Y-31423500D02*
X28662500Y-31423500D01*
X26744800Y-30979000D02*
X27189300Y-31423500D01*
X29460000Y-45000000D02*
X29460000Y-44870200D01*
X27900500Y-43310700D02*
X27900500Y-39043500D01*
X29460000Y-44870200D02*
X27900500Y-43310700D01*
X39965500Y-44885900D02*
X39965500Y-34598500D01*
X39851400Y-45000000D02*
X39965500Y-44885900D01*
X34540000Y-45000000D02*
X39851400Y-45000000D01*
X55142000Y-27296000D02*
X55142000Y-29836000D01*
X55142000Y-29836000D02*
X58380500Y-29836000D01*
X51713000Y-29836000D02*
X51687600Y-29810600D01*
X55142000Y-29836000D02*
X51713000Y-29836000D01*
X59904500Y-29836000D02*
X64286000Y-29836000D01*
X64286000Y-29836000D02*
X68032500Y-29836000D01*
X64286000Y-29836000D02*
X64286000Y-27296000D01*
X66445000Y-27296000D02*
X64286000Y-27296000D01*
X71652000Y-11929000D02*
X71652000Y-11929000D01*
X59460000Y-14469000D02*
X59460000Y-14469000D01*
X58444000Y-14469000D02*
X59460000Y-14469000D01*
X71652000Y-11504736D02*
X71652000Y-11929000D01*
X71652000Y-2404000D02*
X71652000Y-11504736D01*
X70270999Y-1022999D02*
X71652000Y-2404000D01*
X59609022Y-3143978D02*
X61730001Y-1022999D01*
X61730001Y-1022999D02*
X70270999Y-1022999D01*
X52348000Y-1134000D02*
X54357978Y-3143978D01*
X54357978Y-3143978D02*
X59609022Y-3143978D01*
X68685001Y-15657999D02*
X63315999Y-15657999D01*
X68985000Y-15358000D02*
X68685001Y-15657999D01*
X59460000Y-14469000D02*
X62127000Y-14469000D01*
X63315999Y-15657999D02*
X62127000Y-14469000D01*
X50274601Y-4121799D02*
X57505794Y-4121799D01*
X26821000Y-15129400D02*
X39267000Y-15129400D01*
X60537811Y-4043989D02*
X62076200Y-2505600D01*
X57583604Y-4043989D02*
X60537811Y-4043989D01*
X57505794Y-4121799D02*
X57583604Y-4043989D01*
X39267000Y-15129400D02*
X50274601Y-4121799D01*
X44194600Y-37049600D02*
X47191800Y-37049600D01*
X42848400Y-35703400D02*
X44194600Y-37049600D01*
X40105200Y-28820000D02*
X42848400Y-31563200D01*
X35126800Y-28820000D02*
X40105200Y-28820000D01*
X33856800Y-27550000D02*
X35126800Y-28820000D01*
X27964000Y-27550000D02*
X33856800Y-27550000D01*
X26109800Y-25695800D02*
X27964000Y-27550000D01*
X15619600Y-23486000D02*
X17829400Y-25695800D01*
X42848400Y-31563200D02*
X42848400Y-35703400D01*
X15619600Y-19549000D02*
X15619600Y-23486000D01*
X23646000Y-18304400D02*
X23646000Y-25518000D01*
X26821000Y-15129400D02*
X23646000Y-18304400D01*
X23468200Y-25695800D02*
X26109800Y-25695800D01*
X17829400Y-25695800D02*
X23468200Y-25695800D01*
X78065500Y-29836000D02*
X79551400Y-29836000D01*
X79551400Y-29836000D02*
X80034000Y-29836000D01*
X80478500Y-29391500D02*
X80478500Y-27804000D01*
X80034000Y-29836000D02*
X80478500Y-29391500D01*
X91464000Y-25010000D02*
X91464000Y-23232000D01*
X78510000Y-17136000D02*
X78103600Y-17136000D01*
X75766800Y-17085200D02*
X75716000Y-17136000D01*
X75716000Y-17136000D02*
X78510000Y-17136000D01*
X75766800Y-5096400D02*
X75766800Y-17085200D01*
X72693400Y-2023000D02*
X75766800Y-5096400D01*
X73176000Y-17136000D02*
X75716000Y-17136000D01*
X70636000Y-14596000D02*
X73176000Y-17136000D01*
X70636000Y-10589604D02*
X70636000Y-14596000D01*
X59079000Y-6468000D02*
X66514396Y-6468000D01*
X56666000Y-8881000D02*
X59079000Y-6468000D01*
X66514396Y-6468000D02*
X70636000Y-10589604D01*
X53211600Y-8881000D02*
X56666000Y-8881000D01*
X46455200Y-15637400D02*
X53211600Y-8881000D01*
X41172000Y-15637400D02*
X46455200Y-15637400D01*
X78510000Y-17136000D02*
X79907000Y-17136000D01*
X79907000Y-17136000D02*
X85241000Y-22470000D01*
X90702000Y-22470000D02*
X91464000Y-23232000D01*
X85241000Y-22470000D02*
X90702000Y-22470000D01*
X50214400Y-29836000D02*
X47344200Y-29836000D01*
X38770700Y-31932500D02*
X38771700Y-31931500D01*
X37465000Y-31932500D02*
X38770700Y-31932500D01*
X34464000Y-31931500D02*
X34465000Y-31932500D01*
X32028000Y-31931500D02*
X34464000Y-31931500D01*
X69556500Y-29836000D02*
X73430000Y-29836000D01*
X73430000Y-29836000D02*
X76541500Y-29836000D01*
X73430000Y-27296000D02*
X73430000Y-29836000D01*
X32028000Y-35487500D02*
X32028000Y-33455500D01*
X28726000Y-35487500D02*
X28717500Y-35479000D01*
X32028000Y-35487500D02*
X28726000Y-35487500D01*
X28717500Y-33002500D02*
X28662500Y-32947500D01*
X28717500Y-35479000D02*
X28717500Y-33002500D01*
X32028000Y-39043500D02*
X32028000Y-37011500D01*
X32083000Y-39098500D02*
X32028000Y-39043500D01*
X35465500Y-39098500D02*
X32083000Y-39098500D01*
X32028000Y-39043500D02*
X29424500Y-39043500D01*
D27*
X21800000Y-1202000D02*
X21868000Y-1134000D01*
D28*
X21800000Y-1202000D02*
X21868000Y-1134000D01*
D29*
X32028000Y-46772000D02*
X32000000Y-46800000D01*
X32028000Y-46772000D02*
X32000000Y-46800000D01*
D26*
X32028000Y-44377500D02*
X32028000Y-40567500D01*
X32000000Y-44405500D02*
X32028000Y-44377500D01*
X32000000Y-45000000D02*
X32000000Y-44405500D01*
D30*
X57440000Y-1146000D02*
X57428000Y-1134000D01*
X54900000Y-1146000D02*
X54888000Y-1134000D01*
D28*
X12000000Y-44500000D02*
X13000000Y-44500000D01*
D26*
X35995202Y-8550800D02*
X36020602Y-8576200D01*
X12266800Y-8550800D02*
X35995202Y-8550800D01*
X35995202Y-8550800D02*
X39876600Y-8550800D01*
X44728000Y-3699400D02*
X44728000Y-1134000D01*
X39876600Y-8550800D02*
X44728000Y-3699400D01*
X49894400Y-7011600D02*
X47532200Y-9373800D01*
X52094000Y-6976000D02*
X52058400Y-7011600D01*
X52094000Y-5121800D02*
X52094000Y-6976000D01*
X52058400Y-7011600D02*
X49894400Y-7011600D01*
X55888800Y-7011600D02*
X52058400Y-7011600D01*
X57956400Y-4944000D02*
X66470400Y-4944000D01*
X55888800Y-7011600D02*
X57956400Y-4944000D01*
X66470400Y-4944000D02*
X70077200Y-8550800D01*
D31*
X7918000Y-734000D02*
X8018000Y-834000D01*
X8868000Y-834000D01*
X8868000Y-814000D01*
X9468000Y-814000D01*
X9468000Y-834000D01*
X9488000Y-834000D01*
X9488000Y-1434000D01*
X9468000Y-1434000D01*
X9468000Y-2284000D01*
X9568000Y-2384000D01*
X10018000Y-2385935D01*
X10096414Y-2378212D01*
X10171814Y-2355340D01*
X10241303Y-2318197D01*
X10302211Y-2268211D01*
X10352197Y-2207303D01*
X10389340Y-2137814D01*
X10412212Y-2062414D01*
X10419935Y-1984000D01*
X10419194Y-1811578D01*
X10423027Y-1820833D01*
X10581711Y-2058321D01*
X10783679Y-2260289D01*
X11021167Y-2418973D01*
X11285051Y-2528277D01*
X11565187Y-2584000D01*
X11850813Y-2584000D01*
X12130949Y-2528277D01*
X12394833Y-2418973D01*
X12632321Y-2260289D01*
X12834289Y-2058321D01*
X12992973Y-1820833D01*
X13102277Y-1556949D01*
X13126733Y-1434002D01*
X13134520Y-1434002D01*
X13096390Y-1620137D01*
X13213358Y-1835464D01*
X13370087Y-2023834D01*
X13560554Y-2178008D01*
X13761866Y-2285596D01*
X13948000Y-2244180D01*
X13948000Y-1434000D01*
X13928000Y-1434000D01*
X13928000Y-834000D01*
X13948000Y-834000D01*
X13948000Y-814000D01*
X14548000Y-814000D01*
X14548000Y-834000D01*
X14568000Y-834000D01*
X14568000Y-1434000D01*
X14548000Y-1434000D01*
X14548000Y-2244180D01*
X14734134Y-2285596D01*
X14935446Y-2178008D01*
X15125913Y-2023834D01*
X15282642Y-1835464D01*
X15399610Y-1620137D01*
X15361480Y-1434002D01*
X15467275Y-1434002D01*
X15468000Y-2258000D01*
X15568000Y-2358000D01*
X17768000Y-2358000D01*
X17768000Y-2338000D01*
X18368000Y-2338000D01*
X18368000Y-2358000D01*
X18388000Y-2358000D01*
X18388000Y-2958000D01*
X18368000Y-2958000D01*
X18368000Y-5558000D01*
X18468000Y-5658000D01*
X20268000Y-5659935D01*
X20346414Y-5652212D01*
X20421814Y-5629340D01*
X20491303Y-5592197D01*
X20543432Y-5549416D01*
X20566704Y-5592955D01*
X20641683Y-5684317D01*
X20733045Y-5759296D01*
X20837279Y-5815010D01*
X20950379Y-5849318D01*
X21068000Y-5860903D01*
X22668000Y-5860903D01*
X22785621Y-5849318D01*
X22898721Y-5815010D01*
X23002955Y-5759296D01*
X23094317Y-5684317D01*
X23169296Y-5592955D01*
X23192568Y-5549416D01*
X23244697Y-5592197D01*
X23314186Y-5629340D01*
X23389586Y-5652212D01*
X23468000Y-5659935D01*
X25268000Y-5658000D01*
X25368000Y-5558000D01*
X25368000Y-5258000D01*
X25626065Y-5258000D01*
X25633788Y-5336414D01*
X25656660Y-5411814D01*
X25693803Y-5481303D01*
X25743789Y-5542211D01*
X25804697Y-5592197D01*
X25874186Y-5629340D01*
X25949586Y-5652212D01*
X26028000Y-5659935D01*
X26948000Y-5658946D01*
X27868000Y-5659935D01*
X27946414Y-5652212D01*
X28021814Y-5629340D01*
X28091303Y-5592197D01*
X28152211Y-5542211D01*
X28202197Y-5481303D01*
X28239340Y-5411814D01*
X28262212Y-5336414D01*
X28269935Y-5258000D01*
X28268000Y-3058000D01*
X28168000Y-2958000D01*
X25728000Y-2958000D01*
X25628000Y-3058000D01*
X25626065Y-5258000D01*
X25368000Y-5258000D01*
X25368000Y-2958000D01*
X25348000Y-2958000D01*
X25348000Y-2358000D01*
X25368000Y-2358000D01*
X25368000Y-2338000D01*
X25708000Y-2338000D01*
X25728000Y-2358000D01*
X28168000Y-2358000D01*
X28188000Y-2338000D01*
X28528000Y-2338000D01*
X28528000Y-2358000D01*
X28548000Y-2358000D01*
X28548000Y-2958000D01*
X28528000Y-2958000D01*
X28528000Y-5558000D01*
X28628000Y-5658000D01*
X30428000Y-5659935D01*
X30506414Y-5652212D01*
X30581814Y-5629340D01*
X30651303Y-5592197D01*
X30703432Y-5549416D01*
X30726704Y-5592955D01*
X30801683Y-5684317D01*
X30893045Y-5759296D01*
X30997279Y-5815010D01*
X31110379Y-5849318D01*
X31228000Y-5860903D01*
X32828000Y-5860903D01*
X32945621Y-5849318D01*
X33058721Y-5815010D01*
X33162955Y-5759296D01*
X33254317Y-5684317D01*
X33329296Y-5592955D01*
X33352568Y-5549416D01*
X33404697Y-5592197D01*
X33474186Y-5629340D01*
X33549586Y-5652212D01*
X33628000Y-5659935D01*
X35428000Y-5658000D01*
X35528000Y-5558000D01*
X35528000Y-2958000D01*
X36128000Y-2958000D01*
X36128000Y-5558000D01*
X36228000Y-5658000D01*
X38028000Y-5659935D01*
X38106414Y-5652212D01*
X38181814Y-5629340D01*
X38251303Y-5592197D01*
X38312211Y-5542211D01*
X38362197Y-5481303D01*
X38399340Y-5411814D01*
X38422212Y-5336414D01*
X38429935Y-5258000D01*
X38428000Y-3058000D01*
X38328000Y-2958000D01*
X36128000Y-2958000D01*
X35528000Y-2958000D01*
X35508000Y-2958000D01*
X35508000Y-2358000D01*
X35528000Y-2358000D01*
X35528000Y-2338000D01*
X36128000Y-2338000D01*
X36128000Y-2358000D01*
X38328000Y-2358000D01*
X38428000Y-2258000D01*
X38428299Y-1918519D01*
X38521711Y-2058321D01*
X38723679Y-2260289D01*
X38961167Y-2418973D01*
X39225051Y-2528277D01*
X39505187Y-2584000D01*
X39790813Y-2584000D01*
X40070949Y-2528277D01*
X40334833Y-2418973D01*
X40572321Y-2260289D01*
X40774289Y-2058321D01*
X40918000Y-1843242D01*
X41061711Y-2058321D01*
X41263679Y-2260289D01*
X41501167Y-2418973D01*
X41765051Y-2528277D01*
X42045187Y-2584000D01*
X42330813Y-2584000D01*
X42610949Y-2528277D01*
X42874833Y-2418973D01*
X43112321Y-2260289D01*
X43314289Y-2058321D01*
X43458000Y-1843242D01*
X43601711Y-2058321D01*
X43803679Y-2260289D01*
X43928001Y-2343358D01*
X43928000Y-3368029D01*
X39545230Y-7750800D01*
X36034493Y-7750800D01*
X35995202Y-7746930D01*
X35955911Y-7750800D01*
X12687243Y-7750800D01*
X12529320Y-7685386D01*
X12355442Y-7650800D01*
X12178158Y-7650800D01*
X12004280Y-7685386D01*
X11840490Y-7753230D01*
X11693083Y-7851724D01*
X11567724Y-7977083D01*
X11469230Y-8124490D01*
X11401386Y-8288280D01*
X11366800Y-8462158D01*
X11366800Y-8639442D01*
X11401386Y-8813320D01*
X11469230Y-8977110D01*
X11567724Y-9124517D01*
X11693083Y-9249876D01*
X11840490Y-9348370D01*
X12004280Y-9416214D01*
X12178158Y-9450800D01*
X12355442Y-9450800D01*
X12529320Y-9416214D01*
X12687243Y-9350800D01*
X35818206Y-9350800D01*
X35863775Y-9364623D01*
X36020601Y-9380070D01*
X36177429Y-9364623D01*
X36222998Y-9350800D01*
X39837309Y-9350800D01*
X39876600Y-9354670D01*
X39915891Y-9350800D01*
X39915893Y-9350800D01*
X40033427Y-9339224D01*
X40184228Y-9293479D01*
X40323206Y-9219193D01*
X40445022Y-9119222D01*
X40470073Y-9088697D01*
X45265904Y-4292867D01*
X45296422Y-4267822D01*
X45351412Y-4200816D01*
X45396393Y-4146007D01*
X45470679Y-4007028D01*
X45470679Y-4007027D01*
X45516424Y-3856227D01*
X45528000Y-3738693D01*
X45528000Y-3738691D01*
X45531870Y-3699400D01*
X45528000Y-3660109D01*
X45528000Y-2343357D01*
X45652321Y-2260289D01*
X45854289Y-2058321D01*
X46012973Y-1820833D01*
X46106239Y-1595668D01*
X46160265Y-1726097D01*
X46297062Y-1930828D01*
X46471172Y-2104938D01*
X46675903Y-2241735D01*
X46903389Y-2335963D01*
X47144886Y-2384000D01*
X47391114Y-2384000D01*
X47632611Y-2335963D01*
X47860097Y-2241735D01*
X48064828Y-2104938D01*
X48238938Y-1930828D01*
X48375735Y-1726097D01*
X48469963Y-1498611D01*
X48518000Y-1257114D01*
X48518000Y-1010886D01*
X48469963Y-769389D01*
X48375735Y-541903D01*
X48331032Y-475000D01*
X48744968Y-475000D01*
X48700265Y-541903D01*
X48606037Y-769389D01*
X48558000Y-1010886D01*
X48558000Y-1257114D01*
X48606037Y-1498611D01*
X48700265Y-1726097D01*
X48837062Y-1930828D01*
X49011172Y-2104938D01*
X49215903Y-2241735D01*
X49443389Y-2335963D01*
X49684886Y-2384000D01*
X49931114Y-2384000D01*
X50172611Y-2335963D01*
X50400097Y-2241735D01*
X50604828Y-2104938D01*
X50778938Y-1930828D01*
X50915735Y-1726097D01*
X50969761Y-1595668D01*
X51063027Y-1820833D01*
X51221711Y-2058321D01*
X51423679Y-2260289D01*
X51661167Y-2418973D01*
X51925051Y-2528277D01*
X52205187Y-2584000D01*
X52490813Y-2584000D01*
X52637460Y-2554830D01*
X53404428Y-3321799D01*
X50313892Y-3321799D01*
X50274601Y-3317929D01*
X50235310Y-3321799D01*
X50235308Y-3321799D01*
X50117774Y-3333375D01*
X49993695Y-3371014D01*
X49966973Y-3379120D01*
X49827994Y-3453406D01*
X49800990Y-3475568D01*
X49706179Y-3553377D01*
X49681132Y-3583897D01*
X38935630Y-14329400D01*
X27241443Y-14329400D01*
X27083520Y-14263986D01*
X26909642Y-14229400D01*
X26732358Y-14229400D01*
X26558480Y-14263986D01*
X26394690Y-14331830D01*
X26247283Y-14430324D01*
X26121924Y-14555683D01*
X26023430Y-14703090D01*
X25958016Y-14861013D01*
X23108103Y-17710927D01*
X23077578Y-17735978D01*
X23023151Y-17802299D01*
X22977607Y-17857794D01*
X22903322Y-17996772D01*
X22903321Y-17996773D01*
X22857576Y-18147574D01*
X22846000Y-18265107D01*
X22842130Y-18304400D01*
X22846000Y-18343691D01*
X22846001Y-24895800D01*
X18160771Y-24895800D01*
X16419600Y-23154630D01*
X16419600Y-19969443D01*
X16485014Y-19811520D01*
X16519600Y-19637642D01*
X16519600Y-19460358D01*
X16485014Y-19286480D01*
X16417170Y-19122690D01*
X16318676Y-18975283D01*
X16193317Y-18849924D01*
X16045910Y-18751430D01*
X15882120Y-18683586D01*
X15708242Y-18649000D01*
X15530958Y-18649000D01*
X15357080Y-18683586D01*
X15193290Y-18751430D01*
X15045883Y-18849924D01*
X14920524Y-18975283D01*
X14822030Y-19122690D01*
X14754186Y-19286480D01*
X14719600Y-19460358D01*
X14719600Y-19637642D01*
X14754186Y-19811520D01*
X14819600Y-19969444D01*
X14819601Y-23446700D01*
X14815730Y-23486000D01*
X14831177Y-23642827D01*
X14876921Y-23793627D01*
X14951207Y-23932606D01*
X15023277Y-24020423D01*
X15051179Y-24054422D01*
X15081698Y-24079468D01*
X17235930Y-26233701D01*
X17260978Y-26264222D01*
X17291498Y-26289269D01*
X17382793Y-26364193D01*
X17489988Y-26421490D01*
X17521772Y-26438479D01*
X17672573Y-26484224D01*
X17790107Y-26495800D01*
X17790108Y-26495800D01*
X17829399Y-26499670D01*
X17868690Y-26495800D01*
X25778430Y-26495800D01*
X27370527Y-28087897D01*
X27395578Y-28118422D01*
X27459048Y-28170510D01*
X27517393Y-28218393D01*
X27656372Y-28292679D01*
X27807173Y-28338424D01*
X27924707Y-28350000D01*
X27924709Y-28350000D01*
X27964000Y-28353870D01*
X28003291Y-28350000D01*
X31455157Y-28350000D01*
X31613080Y-28415414D01*
X31786958Y-28450000D01*
X31964242Y-28450000D01*
X32138120Y-28415414D01*
X32296043Y-28350000D01*
X33525430Y-28350000D01*
X34533330Y-29357901D01*
X34558378Y-29388422D01*
X34588898Y-29413469D01*
X34680193Y-29488393D01*
X34792323Y-29548328D01*
X34819172Y-29562679D01*
X34969973Y-29608424D01*
X35087507Y-29620000D01*
X35087516Y-29620000D01*
X35126799Y-29623869D01*
X35166082Y-29620000D01*
X39773830Y-29620000D01*
X42048400Y-31894571D01*
X42048401Y-35664100D01*
X42044530Y-35703400D01*
X42059977Y-35860227D01*
X42105721Y-36011027D01*
X42180007Y-36150006D01*
X42250581Y-36236000D01*
X42279979Y-36271822D01*
X42310498Y-36296868D01*
X43601131Y-37587502D01*
X43626178Y-37618022D01*
X43656698Y-37643069D01*
X43747993Y-37717993D01*
X43796403Y-37743869D01*
X43886972Y-37792279D01*
X44037773Y-37838024D01*
X44155307Y-37849600D01*
X44155316Y-37849600D01*
X44194599Y-37853469D01*
X44233882Y-37849600D01*
X46771357Y-37849600D01*
X46929280Y-37915014D01*
X47103158Y-37949600D01*
X47280442Y-37949600D01*
X47454320Y-37915014D01*
X47618110Y-37847170D01*
X47765517Y-37748676D01*
X47890876Y-37623317D01*
X47989370Y-37475910D01*
X48057214Y-37312120D01*
X48091800Y-37138242D01*
X48091800Y-36960958D01*
X48057214Y-36787080D01*
X47989370Y-36623290D01*
X47890876Y-36475883D01*
X47765517Y-36350524D01*
X47618110Y-36252030D01*
X47454320Y-36184186D01*
X47280442Y-36149600D01*
X47103158Y-36149600D01*
X46929280Y-36184186D01*
X46771357Y-36249600D01*
X44525971Y-36249600D01*
X43648400Y-35372030D01*
X43648400Y-31602491D01*
X43652270Y-31563200D01*
X43648400Y-31523907D01*
X43636824Y-31406373D01*
X43591079Y-31255572D01*
X43530948Y-31143076D01*
X43516793Y-31116593D01*
X43441870Y-31025299D01*
X43441869Y-31025298D01*
X43416822Y-30994778D01*
X43386304Y-30969733D01*
X42163929Y-29747358D01*
X46444200Y-29747358D01*
X46444200Y-29924642D01*
X46478786Y-30098520D01*
X46546630Y-30262310D01*
X46645124Y-30409717D01*
X46770483Y-30535076D01*
X46917890Y-30633570D01*
X47081680Y-30701414D01*
X47255558Y-30736000D01*
X47432842Y-30736000D01*
X47606720Y-30701414D01*
X47764643Y-30636000D01*
X49339216Y-30636000D01*
X49339890Y-30638221D01*
X49395604Y-30742455D01*
X49470583Y-30833817D01*
X49561945Y-30908796D01*
X49666179Y-30964510D01*
X49779279Y-30998818D01*
X49896900Y-31010403D01*
X50531900Y-31010403D01*
X50649521Y-30998818D01*
X50762621Y-30964510D01*
X50866855Y-30908796D01*
X50958217Y-30833817D01*
X50976400Y-30811661D01*
X50994583Y-30833817D01*
X51085945Y-30908796D01*
X51190179Y-30964510D01*
X51303279Y-30998818D01*
X51420900Y-31010403D01*
X52055900Y-31010403D01*
X52173521Y-30998818D01*
X52286621Y-30964510D01*
X52390855Y-30908796D01*
X52482217Y-30833817D01*
X52557196Y-30742455D01*
X52612910Y-30638221D01*
X52613584Y-30636000D01*
X53752239Y-30636000D01*
X53899199Y-30855941D01*
X54122059Y-31078801D01*
X54384116Y-31253902D01*
X54675297Y-31374513D01*
X54984414Y-31436000D01*
X55299586Y-31436000D01*
X55608703Y-31374513D01*
X55899884Y-31253902D01*
X56161941Y-31078801D01*
X56384801Y-30855941D01*
X56531761Y-30636000D01*
X57505316Y-30636000D01*
X57505990Y-30638221D01*
X57561704Y-30742455D01*
X57636683Y-30833817D01*
X57728045Y-30908796D01*
X57832279Y-30964510D01*
X57945379Y-30998818D01*
X58063000Y-31010403D01*
X58698000Y-31010403D01*
X58815621Y-30998818D01*
X58928721Y-30964510D01*
X59032955Y-30908796D01*
X59124317Y-30833817D01*
X59142500Y-30811661D01*
X59160683Y-30833817D01*
X59252045Y-30908796D01*
X59356279Y-30964510D01*
X59469379Y-30998818D01*
X59587000Y-31010403D01*
X60222000Y-31010403D01*
X60339621Y-30998818D01*
X60452721Y-30964510D01*
X60556955Y-30908796D01*
X60648317Y-30833817D01*
X60723296Y-30742455D01*
X60779010Y-30638221D01*
X60779684Y-30636000D01*
X62896239Y-30636000D01*
X63043199Y-30855941D01*
X63266059Y-31078801D01*
X63528116Y-31253902D01*
X63819297Y-31374513D01*
X64128414Y-31436000D01*
X64443586Y-31436000D01*
X64752703Y-31374513D01*
X65043884Y-31253902D01*
X65305941Y-31078801D01*
X65528801Y-30855941D01*
X65675761Y-30636000D01*
X67157316Y-30636000D01*
X67157990Y-30638221D01*
X67213704Y-30742455D01*
X67288683Y-30833817D01*
X67380045Y-30908796D01*
X67484279Y-30964510D01*
X67597379Y-30998818D01*
X67715000Y-31010403D01*
X68350000Y-31010403D01*
X68467621Y-30998818D01*
X68580721Y-30964510D01*
X68684955Y-30908796D01*
X68776317Y-30833817D01*
X68794500Y-30811661D01*
X68812683Y-30833817D01*
X68904045Y-30908796D01*
X69008279Y-30964510D01*
X69121379Y-30998818D01*
X69239000Y-31010403D01*
X69874000Y-31010403D01*
X69991621Y-30998818D01*
X70104721Y-30964510D01*
X70208955Y-30908796D01*
X70300317Y-30833817D01*
X70375296Y-30742455D01*
X70431010Y-30638221D01*
X70431684Y-30636000D01*
X72040239Y-30636000D01*
X72187199Y-30855941D01*
X72410059Y-31078801D01*
X72672116Y-31253902D01*
X72963297Y-31374513D01*
X73272414Y-31436000D01*
X73587586Y-31436000D01*
X73896703Y-31374513D01*
X74187884Y-31253902D01*
X74449941Y-31078801D01*
X74672801Y-30855941D01*
X74819761Y-30636000D01*
X75666316Y-30636000D01*
X75666990Y-30638221D01*
X75722704Y-30742455D01*
X75797683Y-30833817D01*
X75889045Y-30908796D01*
X75993279Y-30964510D01*
X76106379Y-30998818D01*
X76224000Y-31010403D01*
X76859000Y-31010403D01*
X76976621Y-30998818D01*
X77089721Y-30964510D01*
X77193955Y-30908796D01*
X77285317Y-30833817D01*
X77303500Y-30811661D01*
X77321683Y-30833817D01*
X77413045Y-30908796D01*
X77517279Y-30964510D01*
X77630379Y-30998818D01*
X77748000Y-31010403D01*
X78383000Y-31010403D01*
X78500621Y-30998818D01*
X78613721Y-30964510D01*
X78717955Y-30908796D01*
X78809317Y-30833817D01*
X78884296Y-30742455D01*
X78940010Y-30638221D01*
X78940684Y-30636000D01*
X79130957Y-30636000D01*
X79288880Y-30701414D01*
X79462758Y-30736000D01*
X79640042Y-30736000D01*
X79813920Y-30701414D01*
X79971843Y-30636000D01*
X79994709Y-30636000D01*
X80034000Y-30639870D01*
X80073291Y-30636000D01*
X80073293Y-30636000D01*
X80190827Y-30624424D01*
X80341628Y-30578679D01*
X80480606Y-30504393D01*
X80602422Y-30404422D01*
X80627473Y-30373897D01*
X81016398Y-29984972D01*
X81046922Y-29959922D01*
X81146893Y-29838106D01*
X81221179Y-29699128D01*
X81266924Y-29548327D01*
X81278500Y-29430793D01*
X81278500Y-29430791D01*
X81282370Y-29391500D01*
X81278500Y-29352209D01*
X81278500Y-28986935D01*
X81349317Y-28928817D01*
X81424296Y-28837455D01*
X81480010Y-28733221D01*
X81514318Y-28620121D01*
X81525903Y-28502500D01*
X81537065Y-28502500D01*
X81544788Y-28580914D01*
X81567660Y-28656314D01*
X81604803Y-28725803D01*
X81654789Y-28786711D01*
X81715697Y-28836697D01*
X81785186Y-28873840D01*
X81860586Y-28896712D01*
X81939000Y-28904435D01*
X81983500Y-28902500D01*
X82083500Y-28802500D01*
X82083500Y-28104000D01*
X82683500Y-28104000D01*
X82683500Y-28802500D01*
X82783500Y-28902500D01*
X82828000Y-28904435D01*
X82906414Y-28896712D01*
X82981814Y-28873840D01*
X83051303Y-28836697D01*
X83112211Y-28786711D01*
X83162197Y-28725803D01*
X83199340Y-28656314D01*
X83222212Y-28580914D01*
X83229935Y-28502500D01*
X83228000Y-28204000D01*
X83128000Y-28104000D01*
X82683500Y-28104000D01*
X82083500Y-28104000D01*
X81639000Y-28104000D01*
X81539000Y-28204000D01*
X81537065Y-28502500D01*
X81525903Y-28502500D01*
X81525903Y-27105500D01*
X81537065Y-27105500D01*
X81539000Y-27404000D01*
X81639000Y-27504000D01*
X82083500Y-27504000D01*
X82083500Y-26805500D01*
X82683500Y-26805500D01*
X82683500Y-27504000D01*
X83128000Y-27504000D01*
X83228000Y-27404000D01*
X83229935Y-27105500D01*
X83222212Y-27027086D01*
X83199340Y-26951686D01*
X83162197Y-26882197D01*
X83112211Y-26821289D01*
X83051303Y-26771303D01*
X82981814Y-26734160D01*
X82906414Y-26711288D01*
X82828000Y-26703565D01*
X82783500Y-26705500D01*
X82683500Y-26805500D01*
X82083500Y-26805500D01*
X81983500Y-26705500D01*
X81939000Y-26703565D01*
X81860586Y-26711288D01*
X81785186Y-26734160D01*
X81715697Y-26771303D01*
X81654789Y-26821289D01*
X81604803Y-26882197D01*
X81567660Y-26951686D01*
X81544788Y-27027086D01*
X81537065Y-27105500D01*
X81525903Y-27105500D01*
X81514318Y-26987879D01*
X81480010Y-26874779D01*
X81424296Y-26770545D01*
X81349317Y-26679183D01*
X81257955Y-26604204D01*
X81153721Y-26548490D01*
X81040621Y-26514182D01*
X80923000Y-26502597D01*
X80034000Y-26502597D01*
X79916379Y-26514182D01*
X79803279Y-26548490D01*
X79699045Y-26604204D01*
X79607683Y-26679183D01*
X79532704Y-26770545D01*
X79476990Y-26874779D01*
X79442682Y-26987879D01*
X79431097Y-27105500D01*
X79431097Y-28502500D01*
X79442682Y-28620121D01*
X79476990Y-28733221D01*
X79532704Y-28837455D01*
X79607683Y-28928817D01*
X79616435Y-28936000D01*
X79462758Y-28936000D01*
X79288880Y-28970586D01*
X79130957Y-29036000D01*
X78940684Y-29036000D01*
X78940010Y-29033779D01*
X78884296Y-28929545D01*
X78809317Y-28838183D01*
X78717955Y-28763204D01*
X78613721Y-28707490D01*
X78500621Y-28673182D01*
X78383000Y-28661597D01*
X77748000Y-28661597D01*
X77630379Y-28673182D01*
X77517279Y-28707490D01*
X77413045Y-28763204D01*
X77321683Y-28838183D01*
X77303500Y-28860339D01*
X77285317Y-28838183D01*
X77193955Y-28763204D01*
X77089721Y-28707490D01*
X76976621Y-28673182D01*
X76859000Y-28661597D01*
X76224000Y-28661597D01*
X76106379Y-28673182D01*
X75993279Y-28707490D01*
X75889045Y-28763204D01*
X75797683Y-28838183D01*
X75722704Y-28929545D01*
X75666990Y-29033779D01*
X75666316Y-29036000D01*
X74819761Y-29036000D01*
X74672801Y-28816059D01*
X74449941Y-28593199D01*
X74230000Y-28446239D01*
X74230000Y-28171184D01*
X74232221Y-28170510D01*
X74336455Y-28114796D01*
X74427817Y-28039817D01*
X74502796Y-27948455D01*
X74558510Y-27844221D01*
X74592818Y-27731121D01*
X74604403Y-27613500D01*
X74604403Y-26978500D01*
X74592818Y-26860879D01*
X74558510Y-26747779D01*
X74502796Y-26643545D01*
X74427817Y-26552183D01*
X74336455Y-26477204D01*
X74280847Y-26447481D01*
X77242783Y-26447481D01*
X77364845Y-26624259D01*
X77627031Y-26709762D01*
X77900860Y-26742472D01*
X78175809Y-26721132D01*
X78441312Y-26646562D01*
X78495155Y-26624259D01*
X78617217Y-26447481D01*
X77930000Y-25760264D01*
X77242783Y-26447481D01*
X74280847Y-26447481D01*
X74232221Y-26421490D01*
X74228768Y-26420443D01*
X74285711Y-26373711D01*
X74335697Y-26312803D01*
X74372840Y-26243314D01*
X74395712Y-26167914D01*
X74403435Y-26089500D01*
X74401500Y-26089500D01*
X74301500Y-25989500D01*
X73730000Y-25989500D01*
X73730000Y-26089500D01*
X73130000Y-26089500D01*
X73130000Y-25989500D01*
X72558500Y-25989500D01*
X72458500Y-26089500D01*
X72456565Y-26089500D01*
X72464288Y-26167914D01*
X72487160Y-26243314D01*
X72524303Y-26312803D01*
X72574289Y-26373711D01*
X72631232Y-26420443D01*
X72627779Y-26421490D01*
X72523545Y-26477204D01*
X72432183Y-26552183D01*
X72357204Y-26643545D01*
X72301490Y-26747779D01*
X72267182Y-26860879D01*
X72255597Y-26978500D01*
X72255597Y-27613500D01*
X72267182Y-27731121D01*
X72301490Y-27844221D01*
X72357204Y-27948455D01*
X72432183Y-28039817D01*
X72523545Y-28114796D01*
X72627779Y-28170510D01*
X72630000Y-28171184D01*
X72630000Y-28446239D01*
X72410059Y-28593199D01*
X72187199Y-28816059D01*
X72040239Y-29036000D01*
X70431684Y-29036000D01*
X70431010Y-29033779D01*
X70375296Y-28929545D01*
X70300317Y-28838183D01*
X70208955Y-28763204D01*
X70104721Y-28707490D01*
X69991621Y-28673182D01*
X69874000Y-28661597D01*
X69239000Y-28661597D01*
X69121379Y-28673182D01*
X69008279Y-28707490D01*
X68904045Y-28763204D01*
X68812683Y-28838183D01*
X68794500Y-28860339D01*
X68776317Y-28838183D01*
X68684955Y-28763204D01*
X68580721Y-28707490D01*
X68467621Y-28673182D01*
X68350000Y-28661597D01*
X67715000Y-28661597D01*
X67597379Y-28673182D01*
X67484279Y-28707490D01*
X67380045Y-28763204D01*
X67288683Y-28838183D01*
X67213704Y-28929545D01*
X67157990Y-29033779D01*
X67157316Y-29036000D01*
X65675761Y-29036000D01*
X65528801Y-28816059D01*
X65305941Y-28593199D01*
X65086000Y-28446239D01*
X65086000Y-28171184D01*
X65088221Y-28170510D01*
X65192455Y-28114796D01*
X65215358Y-28096000D01*
X65515642Y-28096000D01*
X65538545Y-28114796D01*
X65642779Y-28170510D01*
X65755879Y-28204818D01*
X65873500Y-28216403D01*
X67016500Y-28216403D01*
X67134121Y-28204818D01*
X67247221Y-28170510D01*
X67351455Y-28114796D01*
X67442817Y-28039817D01*
X67517796Y-27948455D01*
X67573510Y-27844221D01*
X67607818Y-27731121D01*
X67619403Y-27613500D01*
X67619403Y-26978500D01*
X67607818Y-26860879D01*
X67573510Y-26747779D01*
X67517796Y-26643545D01*
X67442817Y-26552183D01*
X67351455Y-26477204D01*
X67295847Y-26447481D01*
X68098783Y-26447481D01*
X68220845Y-26624259D01*
X68483031Y-26709762D01*
X68756860Y-26742472D01*
X69031809Y-26721132D01*
X69297312Y-26646562D01*
X69351155Y-26624259D01*
X69473217Y-26447481D01*
X68786000Y-25760264D01*
X68098783Y-26447481D01*
X67295847Y-26447481D01*
X67247221Y-26421490D01*
X67243768Y-26420443D01*
X67300711Y-26373711D01*
X67350697Y-26312803D01*
X67387840Y-26243314D01*
X67410712Y-26167914D01*
X67418435Y-26089500D01*
X67416500Y-26089500D01*
X67316500Y-25989500D01*
X66745000Y-25989500D01*
X66745000Y-26089500D01*
X66145000Y-26089500D01*
X66145000Y-25989500D01*
X65573500Y-25989500D01*
X65473500Y-26089500D01*
X65471565Y-26089500D01*
X65479288Y-26167914D01*
X65502160Y-26243314D01*
X65539303Y-26312803D01*
X65589289Y-26373711D01*
X65646232Y-26420443D01*
X65642779Y-26421490D01*
X65538545Y-26477204D01*
X65515642Y-26496000D01*
X65215358Y-26496000D01*
X65192455Y-26477204D01*
X65088221Y-26421490D01*
X65084768Y-26420443D01*
X65141711Y-26373711D01*
X65191697Y-26312803D01*
X65228840Y-26243314D01*
X65251712Y-26167914D01*
X65259435Y-26089500D01*
X65257500Y-26089500D01*
X65157500Y-25989500D01*
X64586000Y-25989500D01*
X64586000Y-26089500D01*
X63986000Y-26089500D01*
X63986000Y-25989500D01*
X63414500Y-25989500D01*
X63314500Y-26089500D01*
X63312565Y-26089500D01*
X63320288Y-26167914D01*
X63343160Y-26243314D01*
X63380303Y-26312803D01*
X63430289Y-26373711D01*
X63487232Y-26420443D01*
X63483779Y-26421490D01*
X63379545Y-26477204D01*
X63288183Y-26552183D01*
X63213204Y-26643545D01*
X63157490Y-26747779D01*
X63123182Y-26860879D01*
X63111597Y-26978500D01*
X63111597Y-27613500D01*
X63123182Y-27731121D01*
X63157490Y-27844221D01*
X63213204Y-27948455D01*
X63288183Y-28039817D01*
X63379545Y-28114796D01*
X63483779Y-28170510D01*
X63486001Y-28171184D01*
X63486001Y-28446239D01*
X63266059Y-28593199D01*
X63043199Y-28816059D01*
X62896239Y-29036000D01*
X60779684Y-29036000D01*
X60779010Y-29033779D01*
X60723296Y-28929545D01*
X60648317Y-28838183D01*
X60556955Y-28763204D01*
X60452721Y-28707490D01*
X60339621Y-28673182D01*
X60222000Y-28661597D01*
X59587000Y-28661597D01*
X59469379Y-28673182D01*
X59356279Y-28707490D01*
X59252045Y-28763204D01*
X59160683Y-28838183D01*
X59142500Y-28860339D01*
X59124317Y-28838183D01*
X59032955Y-28763204D01*
X58928721Y-28707490D01*
X58815621Y-28673182D01*
X58698000Y-28661597D01*
X58063000Y-28661597D01*
X57945379Y-28673182D01*
X57832279Y-28707490D01*
X57728045Y-28763204D01*
X57636683Y-28838183D01*
X57561704Y-28929545D01*
X57505990Y-29033779D01*
X57505316Y-29036000D01*
X56531761Y-29036000D01*
X56384801Y-28816059D01*
X56161941Y-28593199D01*
X55942000Y-28446239D01*
X55942000Y-28171184D01*
X55944221Y-28170510D01*
X56048455Y-28114796D01*
X56139817Y-28039817D01*
X56214796Y-27948455D01*
X56270510Y-27844221D01*
X56304818Y-27731121D01*
X56316403Y-27613500D01*
X56316403Y-26978500D01*
X56304818Y-26860879D01*
X56270510Y-26747779D01*
X56214796Y-26643545D01*
X56139817Y-26552183D01*
X56048455Y-26477204D01*
X55992847Y-26447481D01*
X58954783Y-26447481D01*
X59076845Y-26624259D01*
X59339031Y-26709762D01*
X59612860Y-26742472D01*
X59887809Y-26721132D01*
X60153312Y-26646562D01*
X60207155Y-26624259D01*
X60329217Y-26447481D01*
X59642000Y-25760264D01*
X58954783Y-26447481D01*
X55992847Y-26447481D01*
X55944221Y-26421490D01*
X55940768Y-26420443D01*
X55997711Y-26373711D01*
X56047697Y-26312803D01*
X56084840Y-26243314D01*
X56107712Y-26167914D01*
X56115435Y-26089500D01*
X56113500Y-26089500D01*
X56013500Y-25989500D01*
X55442000Y-25989500D01*
X55442000Y-26089500D01*
X54842000Y-26089500D01*
X54842000Y-25989500D01*
X54270500Y-25989500D01*
X54170500Y-26089500D01*
X54168565Y-26089500D01*
X54176288Y-26167914D01*
X54199160Y-26243314D01*
X54236303Y-26312803D01*
X54286289Y-26373711D01*
X54343232Y-26420443D01*
X54339779Y-26421490D01*
X54235545Y-26477204D01*
X54144183Y-26552183D01*
X54069204Y-26643545D01*
X54013490Y-26747779D01*
X53979182Y-26860879D01*
X53967597Y-26978500D01*
X53967597Y-27613500D01*
X53979182Y-27731121D01*
X54013490Y-27844221D01*
X54069204Y-27948455D01*
X54144183Y-28039817D01*
X54235545Y-28114796D01*
X54339779Y-28170510D01*
X54342000Y-28171184D01*
X54342000Y-28446239D01*
X54122059Y-28593199D01*
X53899199Y-28816059D01*
X53752239Y-29036000D01*
X52613584Y-29036000D01*
X52612910Y-29033779D01*
X52557196Y-28929545D01*
X52482217Y-28838183D01*
X52390855Y-28763204D01*
X52286621Y-28707490D01*
X52173521Y-28673182D01*
X52055900Y-28661597D01*
X51420900Y-28661597D01*
X51303279Y-28673182D01*
X51190179Y-28707490D01*
X51085945Y-28763204D01*
X50994583Y-28838183D01*
X50976400Y-28860339D01*
X50958217Y-28838183D01*
X50866855Y-28763204D01*
X50762621Y-28707490D01*
X50649521Y-28673182D01*
X50531900Y-28661597D01*
X49896900Y-28661597D01*
X49779279Y-28673182D01*
X49666179Y-28707490D01*
X49561945Y-28763204D01*
X49470583Y-28838183D01*
X49395604Y-28929545D01*
X49339890Y-29033779D01*
X49339216Y-29036000D01*
X47764643Y-29036000D01*
X47606720Y-28970586D01*
X47432842Y-28936000D01*
X47255558Y-28936000D01*
X47081680Y-28970586D01*
X46917890Y-29038430D01*
X46770483Y-29136924D01*
X46645124Y-29262283D01*
X46546630Y-29409690D01*
X46478786Y-29573480D01*
X46444200Y-29747358D01*
X42163929Y-29747358D01*
X40698673Y-28282103D01*
X40673622Y-28251578D01*
X40551806Y-28151607D01*
X40412828Y-28077321D01*
X40262027Y-28031576D01*
X40144493Y-28020000D01*
X40144491Y-28020000D01*
X40105200Y-28016130D01*
X40065909Y-28020000D01*
X35458171Y-28020000D01*
X34450273Y-27012103D01*
X34425222Y-26981578D01*
X34303406Y-26881607D01*
X34164428Y-26807321D01*
X34013627Y-26761576D01*
X33896093Y-26750000D01*
X33896091Y-26750000D01*
X33856800Y-26746130D01*
X33817509Y-26750000D01*
X32296043Y-26750000D01*
X32138120Y-26684586D01*
X31964242Y-26650000D01*
X31786958Y-26650000D01*
X31613080Y-26684586D01*
X31455157Y-26750000D01*
X28295370Y-26750000D01*
X26999870Y-25454500D01*
X54168565Y-25454500D01*
X54170500Y-25454500D01*
X54270500Y-25554500D01*
X54842000Y-25554500D01*
X54842000Y-25154500D01*
X55442000Y-25154500D01*
X55442000Y-25554500D01*
X56013500Y-25554500D01*
X56113500Y-25454500D01*
X56115435Y-25454500D01*
X56107712Y-25376086D01*
X56086713Y-25306860D01*
X58235528Y-25306860D01*
X58256868Y-25581809D01*
X58331438Y-25847312D01*
X58353741Y-25901155D01*
X58530519Y-26023217D01*
X59217736Y-25336000D01*
X60066264Y-25336000D01*
X60753481Y-26023217D01*
X60930259Y-25901155D01*
X61015762Y-25638969D01*
X61037797Y-25454500D01*
X63312565Y-25454500D01*
X63314500Y-25454500D01*
X63414500Y-25554500D01*
X63986000Y-25554500D01*
X63986000Y-25154500D01*
X64586000Y-25154500D01*
X64586000Y-25554500D01*
X65157500Y-25554500D01*
X65257500Y-25454500D01*
X65259435Y-25454500D01*
X65471565Y-25454500D01*
X65473500Y-25454500D01*
X65573500Y-25554500D01*
X66145000Y-25554500D01*
X66145000Y-25154500D01*
X66745000Y-25154500D01*
X66745000Y-25554500D01*
X67316500Y-25554500D01*
X67392825Y-25478175D01*
X67400868Y-25581809D01*
X67475438Y-25847312D01*
X67497741Y-25901155D01*
X67674519Y-26023217D01*
X68361736Y-25336000D01*
X69210264Y-25336000D01*
X69897481Y-26023217D01*
X70074259Y-25901155D01*
X70159762Y-25638969D01*
X70181797Y-25454500D01*
X72456565Y-25454500D01*
X72458500Y-25454500D01*
X72558500Y-25554500D01*
X73130000Y-25554500D01*
X73130000Y-25154500D01*
X73730000Y-25154500D01*
X73730000Y-25554500D01*
X74301500Y-25554500D01*
X74401500Y-25454500D01*
X74403435Y-25454500D01*
X74395712Y-25376086D01*
X74374713Y-25306860D01*
X76523528Y-25306860D01*
X76544868Y-25581809D01*
X76619438Y-25847312D01*
X76641741Y-25901155D01*
X76818519Y-26023217D01*
X77505736Y-25336000D01*
X78354264Y-25336000D01*
X79041481Y-26023217D01*
X79218259Y-25901155D01*
X79303762Y-25638969D01*
X79336472Y-25365140D01*
X79315132Y-25090191D01*
X79240562Y-24824688D01*
X79218259Y-24770845D01*
X79041481Y-24648783D01*
X78354264Y-25336000D01*
X77505736Y-25336000D01*
X76818519Y-24648783D01*
X76641741Y-24770845D01*
X76556238Y-25033031D01*
X76523528Y-25306860D01*
X74374713Y-25306860D01*
X74372840Y-25300686D01*
X74335697Y-25231197D01*
X74285711Y-25170289D01*
X74224803Y-25120303D01*
X74155314Y-25083160D01*
X74079914Y-25060288D01*
X74001500Y-25052565D01*
X73830000Y-25054500D01*
X73730000Y-25154500D01*
X73130000Y-25154500D01*
X73030000Y-25054500D01*
X72858500Y-25052565D01*
X72780086Y-25060288D01*
X72704686Y-25083160D01*
X72635197Y-25120303D01*
X72574289Y-25170289D01*
X72524303Y-25231197D01*
X72487160Y-25300686D01*
X72464288Y-25376086D01*
X72456565Y-25454500D01*
X70181797Y-25454500D01*
X70192472Y-25365140D01*
X70171132Y-25090191D01*
X70096562Y-24824688D01*
X70074259Y-24770845D01*
X69897481Y-24648783D01*
X69210264Y-25336000D01*
X68361736Y-25336000D01*
X67674519Y-24648783D01*
X67497741Y-24770845D01*
X67412238Y-25033031D01*
X67381649Y-25289104D01*
X67350697Y-25231197D01*
X67300711Y-25170289D01*
X67239803Y-25120303D01*
X67170314Y-25083160D01*
X67094914Y-25060288D01*
X67016500Y-25052565D01*
X66845000Y-25054500D01*
X66745000Y-25154500D01*
X66145000Y-25154500D01*
X66045000Y-25054500D01*
X65873500Y-25052565D01*
X65795086Y-25060288D01*
X65719686Y-25083160D01*
X65650197Y-25120303D01*
X65589289Y-25170289D01*
X65539303Y-25231197D01*
X65502160Y-25300686D01*
X65479288Y-25376086D01*
X65471565Y-25454500D01*
X65259435Y-25454500D01*
X65251712Y-25376086D01*
X65228840Y-25300686D01*
X65191697Y-25231197D01*
X65141711Y-25170289D01*
X65080803Y-25120303D01*
X65011314Y-25083160D01*
X64935914Y-25060288D01*
X64857500Y-25052565D01*
X64686000Y-25054500D01*
X64586000Y-25154500D01*
X63986000Y-25154500D01*
X63886000Y-25054500D01*
X63714500Y-25052565D01*
X63636086Y-25060288D01*
X63560686Y-25083160D01*
X63491197Y-25120303D01*
X63430289Y-25170289D01*
X63380303Y-25231197D01*
X63343160Y-25300686D01*
X63320288Y-25376086D01*
X63312565Y-25454500D01*
X61037797Y-25454500D01*
X61048472Y-25365140D01*
X61027132Y-25090191D01*
X60952562Y-24824688D01*
X60930259Y-24770845D01*
X60753481Y-24648783D01*
X60066264Y-25336000D01*
X59217736Y-25336000D01*
X58530519Y-24648783D01*
X58353741Y-24770845D01*
X58268238Y-25033031D01*
X58235528Y-25306860D01*
X56086713Y-25306860D01*
X56084840Y-25300686D01*
X56047697Y-25231197D01*
X55997711Y-25170289D01*
X55936803Y-25120303D01*
X55867314Y-25083160D01*
X55791914Y-25060288D01*
X55713500Y-25052565D01*
X55542000Y-25054500D01*
X55442000Y-25154500D01*
X54842000Y-25154500D01*
X54742000Y-25054500D01*
X54570500Y-25052565D01*
X54492086Y-25060288D01*
X54416686Y-25083160D01*
X54347197Y-25120303D01*
X54286289Y-25170289D01*
X54236303Y-25231197D01*
X54199160Y-25300686D01*
X54176288Y-25376086D01*
X54168565Y-25454500D01*
X26999870Y-25454500D01*
X26703273Y-25157903D01*
X26678222Y-25127378D01*
X26556406Y-25027407D01*
X26417428Y-24953121D01*
X26266627Y-24907376D01*
X26149093Y-24895800D01*
X26149091Y-24895800D01*
X26109800Y-24891930D01*
X26070509Y-24895800D01*
X24446000Y-24895800D01*
X24446000Y-24224519D01*
X58954783Y-24224519D01*
X59642000Y-24911736D01*
X60329217Y-24224519D01*
X68098783Y-24224519D01*
X68786000Y-24911736D01*
X69473217Y-24224519D01*
X77242783Y-24224519D01*
X77930000Y-24911736D01*
X78617217Y-24224519D01*
X78495155Y-24047741D01*
X78232969Y-23962238D01*
X77959140Y-23929528D01*
X77684191Y-23950868D01*
X77418688Y-24025438D01*
X77364845Y-24047741D01*
X77242783Y-24224519D01*
X69473217Y-24224519D01*
X69351155Y-24047741D01*
X69088969Y-23962238D01*
X68815140Y-23929528D01*
X68540191Y-23950868D01*
X68274688Y-24025438D01*
X68220845Y-24047741D01*
X68098783Y-24224519D01*
X60329217Y-24224519D01*
X60207155Y-24047741D01*
X59944969Y-23962238D01*
X59671140Y-23929528D01*
X59396191Y-23950868D01*
X59130688Y-24025438D01*
X59076845Y-24047741D01*
X58954783Y-24224519D01*
X24446000Y-24224519D01*
X24446000Y-18635770D01*
X27089387Y-15992384D01*
X27241443Y-15929400D01*
X39227709Y-15929400D01*
X39267000Y-15933270D01*
X39306291Y-15929400D01*
X39306293Y-15929400D01*
X39423827Y-15917824D01*
X39574628Y-15872079D01*
X39713606Y-15797793D01*
X39835422Y-15697822D01*
X39860473Y-15667297D01*
X50605972Y-4921799D01*
X51420069Y-4921799D01*
X51394000Y-5052856D01*
X51394000Y-5190744D01*
X51420901Y-5325982D01*
X51473668Y-5453374D01*
X51494000Y-5483804D01*
X51494001Y-6411600D01*
X49923873Y-6411600D01*
X49894399Y-6408697D01*
X49776778Y-6420282D01*
X49742470Y-6430689D01*
X49663679Y-6454590D01*
X49559445Y-6510304D01*
X49468083Y-6585283D01*
X49449294Y-6608178D01*
X47363912Y-8693561D01*
X47328018Y-8700701D01*
X47200626Y-8753468D01*
X47085976Y-8830074D01*
X46988474Y-8927576D01*
X46911868Y-9042226D01*
X46859101Y-9169618D01*
X46832200Y-9304856D01*
X46832200Y-9442744D01*
X46859101Y-9577982D01*
X46911868Y-9705374D01*
X46988474Y-9820024D01*
X47085976Y-9917526D01*
X47200626Y-9994132D01*
X47328018Y-10046899D01*
X47463256Y-10073800D01*
X47601144Y-10073800D01*
X47736382Y-10046899D01*
X47863774Y-9994132D01*
X47978424Y-9917526D01*
X48075926Y-9820024D01*
X48152532Y-9705374D01*
X48205299Y-9577982D01*
X48212439Y-9542088D01*
X50142928Y-7611600D01*
X52028926Y-7611600D01*
X52058400Y-7614503D01*
X52087874Y-7611600D01*
X55526797Y-7611600D01*
X55557226Y-7631932D01*
X55684618Y-7684699D01*
X55819856Y-7711600D01*
X55957744Y-7711600D01*
X56092982Y-7684699D01*
X56220374Y-7631932D01*
X56335024Y-7555326D01*
X56432526Y-7457824D01*
X56509132Y-7343174D01*
X56561899Y-7215782D01*
X56569039Y-7179888D01*
X58204928Y-5544000D01*
X66221873Y-5544000D01*
X66345873Y-5668000D01*
X59118282Y-5668000D01*
X59078999Y-5664131D01*
X59039716Y-5668000D01*
X59039707Y-5668000D01*
X58922173Y-5679576D01*
X58771372Y-5725321D01*
X58707810Y-5759296D01*
X58632393Y-5799607D01*
X58571820Y-5849318D01*
X58510578Y-5899578D01*
X58485531Y-5930098D01*
X56334630Y-8081000D01*
X53250891Y-8081000D01*
X53211600Y-8077130D01*
X53172309Y-8081000D01*
X53172307Y-8081000D01*
X53054773Y-8092576D01*
X52903972Y-8138321D01*
X52764993Y-8212607D01*
X52673699Y-8287530D01*
X52643178Y-8312578D01*
X52618131Y-8343098D01*
X46123830Y-14837400D01*
X41592443Y-14837400D01*
X41434520Y-14771986D01*
X41260642Y-14737400D01*
X41083358Y-14737400D01*
X40909480Y-14771986D01*
X40745690Y-14839830D01*
X40598283Y-14938324D01*
X40472924Y-15063683D01*
X40374430Y-15211090D01*
X40306586Y-15374880D01*
X40272000Y-15548758D01*
X40272000Y-15726042D01*
X40306586Y-15899920D01*
X40374430Y-16063710D01*
X40472924Y-16211117D01*
X40598283Y-16336476D01*
X40745690Y-16434970D01*
X40909480Y-16502814D01*
X41083358Y-16537400D01*
X41260642Y-16537400D01*
X41434520Y-16502814D01*
X41592443Y-16437400D01*
X46415909Y-16437400D01*
X46455200Y-16441270D01*
X46494491Y-16437400D01*
X46494493Y-16437400D01*
X46612027Y-16425824D01*
X46762828Y-16380079D01*
X46901806Y-16305793D01*
X47023622Y-16205822D01*
X47048673Y-16175297D01*
X48183470Y-15040500D01*
X56200565Y-15040500D01*
X56208288Y-15118914D01*
X56231160Y-15194314D01*
X56268303Y-15263803D01*
X56318289Y-15324711D01*
X56379197Y-15374697D01*
X56448686Y-15411840D01*
X56524086Y-15434712D01*
X56602500Y-15442435D01*
X56602500Y-15440500D01*
X56702500Y-15340500D01*
X56702500Y-14769000D01*
X56302500Y-14769000D01*
X56202500Y-14869000D01*
X56200565Y-15040500D01*
X48183470Y-15040500D01*
X49326470Y-13897500D01*
X56200565Y-13897500D01*
X56202500Y-14069000D01*
X56302500Y-14169000D01*
X56702500Y-14169000D01*
X56702500Y-13597500D01*
X57137500Y-13597500D01*
X57137500Y-14169000D01*
X57237500Y-14169000D01*
X57237500Y-14769000D01*
X57137500Y-14769000D01*
X57137500Y-15340500D01*
X57237500Y-15440500D01*
X57237500Y-15442435D01*
X57315914Y-15434712D01*
X57391314Y-15411840D01*
X57460803Y-15374697D01*
X57521711Y-15324711D01*
X57568443Y-15267768D01*
X57569490Y-15271221D01*
X57625204Y-15375455D01*
X57700183Y-15466817D01*
X57791545Y-15541796D01*
X57895779Y-15597510D01*
X58008879Y-15631818D01*
X58126500Y-15643403D01*
X58761500Y-15643403D01*
X58879121Y-15631818D01*
X58992221Y-15597510D01*
X59096455Y-15541796D01*
X59187817Y-15466817D01*
X59262796Y-15375455D01*
X59276348Y-15350102D01*
X59371358Y-15369000D01*
X59548642Y-15369000D01*
X59722520Y-15334414D01*
X59880443Y-15269000D01*
X61795630Y-15269000D01*
X62722530Y-16195901D01*
X62747577Y-16226421D01*
X62778097Y-16251468D01*
X62778098Y-16251469D01*
X62869392Y-16326392D01*
X62969833Y-16380079D01*
X63008371Y-16400678D01*
X63159172Y-16446423D01*
X63276706Y-16457999D01*
X63276708Y-16457999D01*
X63315999Y-16461869D01*
X63355290Y-16457999D01*
X68645710Y-16457999D01*
X68685001Y-16461869D01*
X68724292Y-16457999D01*
X68724294Y-16457999D01*
X68841828Y-16446423D01*
X68992629Y-16400678D01*
X69131607Y-16326392D01*
X69253423Y-16226421D01*
X69260202Y-16218161D01*
X69411310Y-16155570D01*
X69558717Y-16057076D01*
X69684076Y-15931717D01*
X69782570Y-15784310D01*
X69850414Y-15620520D01*
X69885000Y-15446642D01*
X69885000Y-15269358D01*
X69850414Y-15095480D01*
X69782570Y-14931690D01*
X69684076Y-14784283D01*
X69558717Y-14658924D01*
X69411310Y-14560430D01*
X69247520Y-14492586D01*
X69073642Y-14458000D01*
X68896358Y-14458000D01*
X68722480Y-14492586D01*
X68558690Y-14560430D01*
X68411283Y-14658924D01*
X68285924Y-14784283D01*
X68236669Y-14857999D01*
X63647370Y-14857999D01*
X62720473Y-13931103D01*
X62695422Y-13900578D01*
X62573606Y-13800607D01*
X62434628Y-13726321D01*
X62283827Y-13680576D01*
X62166293Y-13669000D01*
X62166291Y-13669000D01*
X62127000Y-13665130D01*
X62087709Y-13669000D01*
X59880443Y-13669000D01*
X59722520Y-13603586D01*
X59548642Y-13569000D01*
X59371358Y-13569000D01*
X59276348Y-13587898D01*
X59262796Y-13562545D01*
X59187817Y-13471183D01*
X59096455Y-13396204D01*
X58992221Y-13340490D01*
X58879121Y-13306182D01*
X58761500Y-13294597D01*
X58126500Y-13294597D01*
X58008879Y-13306182D01*
X57895779Y-13340490D01*
X57791545Y-13396204D01*
X57700183Y-13471183D01*
X57625204Y-13562545D01*
X57569490Y-13666779D01*
X57568443Y-13670232D01*
X57521711Y-13613289D01*
X57460803Y-13563303D01*
X57391314Y-13526160D01*
X57315914Y-13503288D01*
X57237500Y-13495565D01*
X57237500Y-13497500D01*
X57137500Y-13597500D01*
X56702500Y-13597500D01*
X56602500Y-13497500D01*
X56602500Y-13495565D01*
X56524086Y-13503288D01*
X56448686Y-13526160D01*
X56379197Y-13563303D01*
X56318289Y-13613289D01*
X56268303Y-13674197D01*
X56231160Y-13743686D01*
X56208288Y-13819086D01*
X56200565Y-13897500D01*
X49326470Y-13897500D01*
X53542971Y-9681000D01*
X56626709Y-9681000D01*
X56666000Y-9684870D01*
X56705291Y-9681000D01*
X56705293Y-9681000D01*
X56822827Y-9669424D01*
X56973628Y-9623679D01*
X57112606Y-9549393D01*
X57234422Y-9449422D01*
X57259473Y-9418897D01*
X59410371Y-7268000D01*
X66183026Y-7268000D01*
X69836000Y-10920975D01*
X69836001Y-14556700D01*
X69832130Y-14596000D01*
X69847577Y-14752827D01*
X69893321Y-14903627D01*
X69967607Y-15042606D01*
X70038837Y-15129400D01*
X70067579Y-15164422D01*
X70098098Y-15189468D01*
X72582530Y-17673901D01*
X72607578Y-17704422D01*
X72638098Y-17729469D01*
X72729393Y-17804393D01*
X72773333Y-17827879D01*
X72868372Y-17878679D01*
X73019173Y-17924424D01*
X73136707Y-17936000D01*
X73136716Y-17936000D01*
X73175999Y-17939869D01*
X73215282Y-17936000D01*
X75676709Y-17936000D01*
X75716000Y-17939870D01*
X75755291Y-17936000D01*
X79575630Y-17936000D01*
X84647530Y-23007901D01*
X84672578Y-23038422D01*
X84703098Y-23063469D01*
X84794393Y-23138393D01*
X84896007Y-23192707D01*
X84933372Y-23212679D01*
X85084173Y-23258424D01*
X85201707Y-23270000D01*
X85201708Y-23270000D01*
X85240999Y-23273870D01*
X85280290Y-23270000D01*
X90370630Y-23270000D01*
X90664001Y-23563371D01*
X90664000Y-24589556D01*
X90598586Y-24747480D01*
X90564000Y-24921358D01*
X90564000Y-25098642D01*
X90598586Y-25272520D01*
X90666430Y-25436310D01*
X90764924Y-25583717D01*
X90890283Y-25709076D01*
X91037690Y-25807570D01*
X91201480Y-25875414D01*
X91375358Y-25910000D01*
X91552642Y-25910000D01*
X91726520Y-25875414D01*
X91890310Y-25807570D01*
X92037717Y-25709076D01*
X92163076Y-25583717D01*
X92261570Y-25436310D01*
X92329414Y-25272520D01*
X92364000Y-25098642D01*
X92364000Y-24921358D01*
X92329414Y-24747480D01*
X92264000Y-24589557D01*
X92264000Y-23271291D01*
X92267870Y-23232000D01*
X92262588Y-23178373D01*
X92252424Y-23075173D01*
X92206679Y-22924372D01*
X92202528Y-22916606D01*
X92132393Y-22785393D01*
X92092869Y-22737233D01*
X92032422Y-22663578D01*
X92001897Y-22638527D01*
X91295473Y-21932103D01*
X91270422Y-21901578D01*
X91148606Y-21801607D01*
X91009628Y-21727321D01*
X90858827Y-21681576D01*
X90741293Y-21670000D01*
X90741291Y-21670000D01*
X90702000Y-21666130D01*
X90662709Y-21670000D01*
X85572371Y-21670000D01*
X80500473Y-16598103D01*
X80475422Y-16567578D01*
X80353606Y-16467607D01*
X80214628Y-16393321D01*
X80063827Y-16347576D01*
X79946293Y-16336000D01*
X79946291Y-16336000D01*
X79907000Y-16332130D01*
X79867709Y-16336000D01*
X76566800Y-16336000D01*
X76566800Y-5135691D01*
X76570670Y-5096400D01*
X76561587Y-5004179D01*
X76555224Y-4939573D01*
X76509479Y-4788772D01*
X76469127Y-4713279D01*
X76435193Y-4649793D01*
X76360269Y-4558498D01*
X76335222Y-4527978D01*
X76304704Y-4502933D01*
X73556384Y-1754614D01*
X73490970Y-1596690D01*
X73392476Y-1449283D01*
X73267117Y-1323924D01*
X73119710Y-1225430D01*
X72955920Y-1157586D01*
X72782042Y-1123000D01*
X72604758Y-1123000D01*
X72430880Y-1157586D01*
X72267090Y-1225430D01*
X72119683Y-1323924D01*
X71994324Y-1449283D01*
X71927966Y-1548595D01*
X70864472Y-485102D01*
X70856182Y-475000D01*
X84314968Y-475000D01*
X84270265Y-541903D01*
X84176037Y-769389D01*
X84128000Y-1010886D01*
X84128000Y-1257114D01*
X84176037Y-1498611D01*
X84270265Y-1726097D01*
X84407062Y-1930828D01*
X84581172Y-2104938D01*
X84785903Y-2241735D01*
X85013389Y-2335963D01*
X85254886Y-2384000D01*
X85501114Y-2384000D01*
X85742611Y-2335963D01*
X85970097Y-2241735D01*
X86174828Y-2104938D01*
X86348938Y-1930828D01*
X86485735Y-1726097D01*
X86579963Y-1498611D01*
X86628000Y-1257114D01*
X86628000Y-1010886D01*
X86579963Y-769389D01*
X86485735Y-541903D01*
X86441032Y-475000D01*
X86854968Y-475000D01*
X86810265Y-541903D01*
X86716037Y-769389D01*
X86668000Y-1010886D01*
X86668000Y-1257114D01*
X86716037Y-1498611D01*
X86810265Y-1726097D01*
X86947062Y-1930828D01*
X87121172Y-2104938D01*
X87325903Y-2241735D01*
X87553389Y-2335963D01*
X87794886Y-2384000D01*
X88041114Y-2384000D01*
X88282611Y-2335963D01*
X88510097Y-2241735D01*
X88714828Y-2104938D01*
X88835766Y-1984000D01*
X89206065Y-1984000D01*
X89213788Y-2062414D01*
X89236660Y-2137814D01*
X89273803Y-2207303D01*
X89323789Y-2268211D01*
X89384697Y-2318197D01*
X89454186Y-2355340D01*
X89529586Y-2378212D01*
X89608000Y-2385935D01*
X90058000Y-2384000D01*
X90158000Y-2284000D01*
X90158000Y-1434000D01*
X90758000Y-1434000D01*
X90758000Y-2284000D01*
X90858000Y-2384000D01*
X91308000Y-2385935D01*
X91386414Y-2378212D01*
X91461814Y-2355340D01*
X91531303Y-2318197D01*
X91592211Y-2268211D01*
X91642197Y-2207303D01*
X91679340Y-2137814D01*
X91702212Y-2062414D01*
X91709935Y-1984000D01*
X91708000Y-1534000D01*
X91608000Y-1434000D01*
X90758000Y-1434000D01*
X90158000Y-1434000D01*
X89308000Y-1434000D01*
X89208000Y-1534000D01*
X89206065Y-1984000D01*
X88835766Y-1984000D01*
X88888938Y-1930828D01*
X89025735Y-1726097D01*
X89119963Y-1498611D01*
X89168000Y-1257114D01*
X89168000Y-1010886D01*
X89119963Y-769389D01*
X89025735Y-541903D01*
X88981032Y-475000D01*
X89206886Y-475000D01*
X89208000Y-734000D01*
X89308000Y-834000D01*
X90158000Y-834000D01*
X90158000Y-814000D01*
X90758000Y-814000D01*
X90758000Y-834000D01*
X91608000Y-834000D01*
X91708000Y-734000D01*
X91709114Y-475000D01*
X99525000Y-475000D01*
X99525001Y-49425000D01*
X70475000Y-49425000D01*
X70475000Y-48023332D01*
X70477298Y-48000000D01*
X70468127Y-47906884D01*
X70440966Y-47817346D01*
X70396859Y-47734827D01*
X70382432Y-47717248D01*
X70394212Y-47678414D01*
X70401935Y-47600000D01*
X70400000Y-45400000D01*
X70300000Y-45300000D01*
X68100000Y-45300000D01*
X68100000Y-45320000D01*
X67500000Y-45320000D01*
X67500000Y-45300000D01*
X67480000Y-45300000D01*
X67480000Y-44700000D01*
X67500000Y-44700000D01*
X67500000Y-42100000D01*
X68100000Y-42100000D01*
X68100000Y-44700000D01*
X70300000Y-44700000D01*
X70400000Y-44600000D01*
X70401935Y-42400000D01*
X70394212Y-42321586D01*
X70371340Y-42246186D01*
X70334197Y-42176697D01*
X70284211Y-42115789D01*
X70223303Y-42065803D01*
X70153814Y-42028660D01*
X70078414Y-42005788D01*
X70000000Y-41998065D01*
X68200000Y-42000000D01*
X68100000Y-42100000D01*
X67500000Y-42100000D01*
X67400000Y-42000000D01*
X65600000Y-41998065D01*
X65521586Y-42005788D01*
X65446186Y-42028660D01*
X65376697Y-42065803D01*
X65324568Y-42108584D01*
X65301296Y-42065045D01*
X65226317Y-41973683D01*
X65134955Y-41898704D01*
X65030721Y-41842990D01*
X64917621Y-41808682D01*
X64800000Y-41797097D01*
X63200000Y-41797097D01*
X63082379Y-41808682D01*
X62969279Y-41842990D01*
X62865045Y-41898704D01*
X62773683Y-41973683D01*
X62698704Y-42065045D01*
X62675432Y-42108584D01*
X62623303Y-42065803D01*
X62553814Y-42028660D01*
X62478414Y-42005788D01*
X62400000Y-41998065D01*
X60600000Y-42000000D01*
X60500000Y-42100000D01*
X60500000Y-44700000D01*
X60520000Y-44700000D01*
X60520000Y-45300000D01*
X60500000Y-45300000D01*
X60500000Y-45320000D01*
X59900000Y-45320000D01*
X59900000Y-45300000D01*
X57700000Y-45300000D01*
X57600000Y-45400000D01*
X57598065Y-47600000D01*
X57605788Y-47678414D01*
X57617568Y-47717248D01*
X57603141Y-47734827D01*
X57559034Y-47817346D01*
X57531873Y-47906884D01*
X57522702Y-48000000D01*
X57525001Y-48023342D01*
X57525000Y-49425000D01*
X38475000Y-49425000D01*
X38475000Y-48023332D01*
X38477298Y-48000000D01*
X38468127Y-47906884D01*
X38440966Y-47817346D01*
X38396859Y-47734827D01*
X38382432Y-47717248D01*
X38394212Y-47678414D01*
X38401935Y-47600000D01*
X38400000Y-45400000D01*
X38300000Y-45300000D01*
X36100000Y-45300000D01*
X36100000Y-45320000D01*
X35500000Y-45320000D01*
X35500000Y-45300000D01*
X35480000Y-45300000D01*
X35480000Y-44700000D01*
X35500000Y-44700000D01*
X35500000Y-42100000D01*
X36100000Y-42100000D01*
X36100000Y-44700000D01*
X38300000Y-44700000D01*
X38400000Y-44600000D01*
X38401935Y-42400000D01*
X57598065Y-42400000D01*
X57600000Y-44600000D01*
X57700000Y-44700000D01*
X59900000Y-44700000D01*
X59900000Y-42100000D01*
X59800000Y-42000000D01*
X58000000Y-41998065D01*
X57921586Y-42005788D01*
X57846186Y-42028660D01*
X57776697Y-42065803D01*
X57715789Y-42115789D01*
X57665803Y-42176697D01*
X57628660Y-42246186D01*
X57605788Y-42321586D01*
X57598065Y-42400000D01*
X38401935Y-42400000D01*
X38394212Y-42321586D01*
X38371340Y-42246186D01*
X38334197Y-42176697D01*
X38284211Y-42115789D01*
X38223303Y-42065803D01*
X38153814Y-42028660D01*
X38078414Y-42005788D01*
X38000000Y-41998065D01*
X36200000Y-42000000D01*
X36100000Y-42100000D01*
X35500000Y-42100000D01*
X35400000Y-42000000D01*
X33600000Y-41998065D01*
X33521586Y-42005788D01*
X33446186Y-42028660D01*
X33376697Y-42065803D01*
X33324568Y-42108584D01*
X33301296Y-42065045D01*
X33226317Y-41973683D01*
X33134955Y-41898704D01*
X33030721Y-41842990D01*
X32917621Y-41808682D01*
X32828000Y-41799855D01*
X32828000Y-41442684D01*
X32830221Y-41442010D01*
X32934455Y-41386296D01*
X33025817Y-41311317D01*
X33100796Y-41219955D01*
X33156510Y-41115721D01*
X33190818Y-41002621D01*
X33202403Y-40885000D01*
X33202403Y-40250000D01*
X33190818Y-40132379D01*
X33156510Y-40019279D01*
X33100796Y-39915045D01*
X33087218Y-39898500D01*
X34075739Y-39898500D01*
X34222699Y-40118441D01*
X34445559Y-40341301D01*
X34707616Y-40516402D01*
X34998797Y-40637013D01*
X35307914Y-40698500D01*
X35623086Y-40698500D01*
X35932203Y-40637013D01*
X36223384Y-40516402D01*
X36485441Y-40341301D01*
X36708301Y-40118441D01*
X36883402Y-39856384D01*
X37004013Y-39565203D01*
X37065500Y-39256086D01*
X37065500Y-38940914D01*
X37004013Y-38631797D01*
X36883402Y-38340616D01*
X36708301Y-38078559D01*
X36485441Y-37855699D01*
X36223384Y-37680598D01*
X35932203Y-37559987D01*
X35623086Y-37498500D01*
X35307914Y-37498500D01*
X34998797Y-37559987D01*
X34707616Y-37680598D01*
X34445559Y-37855699D01*
X34222699Y-38078559D01*
X34075739Y-38298500D01*
X33024376Y-38298500D01*
X32934455Y-38224704D01*
X32830221Y-38168990D01*
X32828000Y-38168316D01*
X32828000Y-37886684D01*
X32830221Y-37886010D01*
X32934455Y-37830296D01*
X33025817Y-37755317D01*
X33100796Y-37663955D01*
X33156510Y-37559721D01*
X33190818Y-37446621D01*
X33202403Y-37329000D01*
X33202403Y-36694000D01*
X33190818Y-36576379D01*
X33182665Y-36549500D01*
X34884781Y-36549500D01*
X35136632Y-36906289D01*
X35180789Y-36958711D01*
X35241697Y-37008697D01*
X35311186Y-37045840D01*
X35386586Y-37068712D01*
X35465000Y-37076435D01*
X35665000Y-37076435D01*
X35665000Y-36549500D01*
X36265000Y-36549500D01*
X36265000Y-37076435D01*
X36465000Y-37076435D01*
X36533292Y-37070591D01*
X36609253Y-37049657D01*
X36679671Y-37014306D01*
X36741839Y-36965897D01*
X36793368Y-36906289D01*
X37045219Y-36549500D01*
X36265000Y-36549500D01*
X35665000Y-36549500D01*
X34884781Y-36549500D01*
X33182665Y-36549500D01*
X33156510Y-36463279D01*
X33100796Y-36359045D01*
X33025817Y-36267683D01*
X33003661Y-36249500D01*
X33025817Y-36231317D01*
X33100796Y-36139955D01*
X33156510Y-36035721D01*
X33190818Y-35922621D01*
X33199349Y-35836000D01*
X34463065Y-35836000D01*
X34470788Y-35914414D01*
X34493660Y-35989814D01*
X34530803Y-36059303D01*
X34580789Y-36120211D01*
X34641697Y-36170197D01*
X34711186Y-36207340D01*
X34786586Y-36230212D01*
X34865000Y-36237935D01*
X35565000Y-36236000D01*
X35665000Y-36136000D01*
X35665000Y-35216000D01*
X36265000Y-35216000D01*
X36265000Y-36136000D01*
X36365000Y-36236000D01*
X37065000Y-36237935D01*
X37143414Y-36230212D01*
X37218814Y-36207340D01*
X37288303Y-36170197D01*
X37349211Y-36120211D01*
X37399197Y-36059303D01*
X37436340Y-35989814D01*
X37459212Y-35914414D01*
X37466935Y-35836000D01*
X37466894Y-35824919D01*
X37466935Y-35824500D01*
X37466891Y-35824048D01*
X37466467Y-35709981D01*
X39278283Y-35709981D01*
X39400345Y-35886759D01*
X39662531Y-35972262D01*
X39936360Y-36004972D01*
X40211309Y-35983632D01*
X40476812Y-35909062D01*
X40530655Y-35886759D01*
X40652717Y-35709981D01*
X39965500Y-35022764D01*
X39278283Y-35709981D01*
X37466467Y-35709981D01*
X37465000Y-35316000D01*
X37365000Y-35216000D01*
X36265000Y-35216000D01*
X35665000Y-35216000D01*
X34565000Y-35216000D01*
X34465000Y-35316000D01*
X34463065Y-35836000D01*
X33199349Y-35836000D01*
X33202403Y-35805000D01*
X33202403Y-35170000D01*
X33190818Y-35052379D01*
X33156510Y-34939279D01*
X33100796Y-34835045D01*
X33025817Y-34743683D01*
X32934455Y-34668704D01*
X32830221Y-34612990D01*
X32828000Y-34612316D01*
X32828000Y-34330684D01*
X32830221Y-34330010D01*
X32934455Y-34274296D01*
X33025817Y-34199317D01*
X33100796Y-34107955D01*
X33156510Y-34003721D01*
X33158852Y-33996000D01*
X34463065Y-33996000D01*
X34463102Y-34005925D01*
X34463065Y-34006300D01*
X34463105Y-34006704D01*
X34465000Y-34516000D01*
X34565000Y-34616000D01*
X35665000Y-34616000D01*
X35665000Y-33696000D01*
X36265000Y-33696000D01*
X36265000Y-34616000D01*
X37365000Y-34616000D01*
X37411640Y-34569360D01*
X38559028Y-34569360D01*
X38580368Y-34844309D01*
X38654938Y-35109812D01*
X38677241Y-35163655D01*
X38854019Y-35285717D01*
X39541236Y-34598500D01*
X40389764Y-34598500D01*
X41076981Y-35285717D01*
X41253759Y-35163655D01*
X41339262Y-34901469D01*
X41371972Y-34627640D01*
X41350632Y-34352691D01*
X41276062Y-34087188D01*
X41253759Y-34033345D01*
X41076981Y-33911283D01*
X40389764Y-34598500D01*
X39541236Y-34598500D01*
X38854019Y-33911283D01*
X38677241Y-34033345D01*
X38591738Y-34295531D01*
X38559028Y-34569360D01*
X37411640Y-34569360D01*
X37465000Y-34516000D01*
X37466935Y-33996000D01*
X37459212Y-33917586D01*
X37436340Y-33842186D01*
X37399197Y-33772697D01*
X37349211Y-33711789D01*
X37288303Y-33661803D01*
X37218814Y-33624660D01*
X37143414Y-33601788D01*
X37065000Y-33594065D01*
X36365000Y-33596000D01*
X36265000Y-33696000D01*
X35665000Y-33696000D01*
X35565000Y-33596000D01*
X34865000Y-33594065D01*
X34786586Y-33601788D01*
X34711186Y-33624660D01*
X34641697Y-33661803D01*
X34580789Y-33711789D01*
X34530803Y-33772697D01*
X34493660Y-33842186D01*
X34470788Y-33917586D01*
X34463065Y-33996000D01*
X33158852Y-33996000D01*
X33190818Y-33890621D01*
X33202403Y-33773000D01*
X33202403Y-33138000D01*
X33190818Y-33020379D01*
X33156510Y-32907279D01*
X33100796Y-32803045D01*
X33042080Y-32731500D01*
X33362097Y-32731500D01*
X33362097Y-32852500D01*
X33373682Y-32970121D01*
X33407990Y-33083221D01*
X33463704Y-33187455D01*
X33538683Y-33278817D01*
X33630045Y-33353796D01*
X33734279Y-33409510D01*
X33847379Y-33443818D01*
X33965000Y-33455403D01*
X34965000Y-33455403D01*
X35082621Y-33443818D01*
X35168191Y-33417861D01*
X35180789Y-33433211D01*
X35241697Y-33483197D01*
X35311186Y-33520340D01*
X35386586Y-33543212D01*
X35465000Y-33550935D01*
X35565000Y-33549000D01*
X35665000Y-33449000D01*
X35665000Y-32549000D01*
X35645000Y-32549000D01*
X35645000Y-31949000D01*
X35665000Y-31949000D01*
X35665000Y-31049000D01*
X36265000Y-31049000D01*
X36265000Y-31949000D01*
X36285000Y-31949000D01*
X36285000Y-32549000D01*
X36265000Y-32549000D01*
X36265000Y-33449000D01*
X36365000Y-33549000D01*
X36465000Y-33550935D01*
X36543414Y-33543212D01*
X36618814Y-33520340D01*
X36681152Y-33487019D01*
X39278283Y-33487019D01*
X39965500Y-34174236D01*
X40652717Y-33487019D01*
X40530655Y-33310241D01*
X40268469Y-33224738D01*
X39994640Y-33192028D01*
X39719691Y-33213368D01*
X39454188Y-33287938D01*
X39400345Y-33310241D01*
X39278283Y-33487019D01*
X36681152Y-33487019D01*
X36688303Y-33483197D01*
X36749211Y-33433211D01*
X36761809Y-33417861D01*
X36847379Y-33443818D01*
X36965000Y-33455403D01*
X37965000Y-33455403D01*
X38082621Y-33443818D01*
X38195721Y-33409510D01*
X38299955Y-33353796D01*
X38391317Y-33278817D01*
X38466296Y-33187455D01*
X38522010Y-33083221D01*
X38556318Y-32970121D01*
X38567903Y-32852500D01*
X38567903Y-32808595D01*
X38683058Y-32831500D01*
X38860342Y-32831500D01*
X39034220Y-32796914D01*
X39198010Y-32729070D01*
X39345417Y-32630576D01*
X39470776Y-32505217D01*
X39569270Y-32357810D01*
X39637114Y-32194020D01*
X39671700Y-32020142D01*
X39671700Y-31842858D01*
X39637114Y-31668980D01*
X39569270Y-31505190D01*
X39470776Y-31357783D01*
X39345417Y-31232424D01*
X39198010Y-31133930D01*
X39034220Y-31066086D01*
X38860342Y-31031500D01*
X38683058Y-31031500D01*
X38509180Y-31066086D01*
X38495312Y-31071830D01*
X38466296Y-31017545D01*
X38391317Y-30926183D01*
X38299955Y-30851204D01*
X38195721Y-30795490D01*
X38082621Y-30761182D01*
X37965000Y-30749597D01*
X36965000Y-30749597D01*
X36847379Y-30761182D01*
X36734279Y-30795490D01*
X36630045Y-30851204D01*
X36538683Y-30926183D01*
X36517317Y-30952218D01*
X36465000Y-30947065D01*
X36365000Y-30949000D01*
X36265000Y-31049000D01*
X35665000Y-31049000D01*
X35565000Y-30949000D01*
X35465000Y-30947065D01*
X35412683Y-30952218D01*
X35391317Y-30926183D01*
X35299955Y-30851204D01*
X35195721Y-30795490D01*
X35082621Y-30761182D01*
X34965000Y-30749597D01*
X33965000Y-30749597D01*
X33847379Y-30761182D01*
X33734279Y-30795490D01*
X33630045Y-30851204D01*
X33538683Y-30926183D01*
X33463704Y-31017545D01*
X33407990Y-31121779D01*
X33405041Y-31131500D01*
X32957358Y-31131500D01*
X32934455Y-31112704D01*
X32830221Y-31056990D01*
X32717121Y-31022682D01*
X32599500Y-31011097D01*
X31456500Y-31011097D01*
X31338879Y-31022682D01*
X31225779Y-31056990D01*
X31121545Y-31112704D01*
X31030183Y-31187683D01*
X30955204Y-31279045D01*
X30899490Y-31383279D01*
X30865182Y-31496379D01*
X30853597Y-31614000D01*
X30853597Y-32249000D01*
X30865182Y-32366621D01*
X30899490Y-32479721D01*
X30955204Y-32583955D01*
X31030183Y-32675317D01*
X31052339Y-32693500D01*
X31030183Y-32711683D01*
X30955204Y-32803045D01*
X30899490Y-32907279D01*
X30865182Y-33020379D01*
X30853597Y-33138000D01*
X30853597Y-33773000D01*
X30865182Y-33890621D01*
X30899490Y-34003721D01*
X30955204Y-34107955D01*
X31030183Y-34199317D01*
X31121545Y-34274296D01*
X31225779Y-34330010D01*
X31228001Y-34330684D01*
X31228000Y-34612316D01*
X31225779Y-34612990D01*
X31121545Y-34668704D01*
X31098642Y-34687500D01*
X30112940Y-34687500D01*
X29960301Y-34459059D01*
X29737441Y-34236199D01*
X29517500Y-34089239D01*
X29517500Y-33793799D01*
X29568955Y-33766296D01*
X29660317Y-33691317D01*
X29735296Y-33599955D01*
X29791010Y-33495721D01*
X29825318Y-33382621D01*
X29836903Y-33265000D01*
X29836903Y-32630000D01*
X29825318Y-32512379D01*
X29791010Y-32399279D01*
X29735296Y-32295045D01*
X29660317Y-32203683D01*
X29568955Y-32128704D01*
X29464721Y-32072990D01*
X29461268Y-32071943D01*
X29518211Y-32025211D01*
X29568197Y-31964303D01*
X29605340Y-31894814D01*
X29628212Y-31819414D01*
X29635935Y-31741000D01*
X29634000Y-31741000D01*
X29534000Y-31641000D01*
X28962500Y-31641000D01*
X28962500Y-31741000D01*
X28362500Y-31741000D01*
X28362500Y-31641000D01*
X27791000Y-31641000D01*
X27691000Y-31741000D01*
X27689065Y-31741000D01*
X27696788Y-31819414D01*
X27719660Y-31894814D01*
X27756803Y-31964303D01*
X27806789Y-32025211D01*
X27863732Y-32071943D01*
X27860279Y-32072990D01*
X27756045Y-32128704D01*
X27664683Y-32203683D01*
X27589704Y-32295045D01*
X27533990Y-32399279D01*
X27499682Y-32512379D01*
X27488097Y-32630000D01*
X27488097Y-33265000D01*
X27499682Y-33382621D01*
X27533990Y-33495721D01*
X27589704Y-33599955D01*
X27664683Y-33691317D01*
X27756045Y-33766296D01*
X27860279Y-33822010D01*
X27917501Y-33839368D01*
X27917501Y-34089239D01*
X27697559Y-34236199D01*
X27474699Y-34459059D01*
X27299598Y-34721116D01*
X27178987Y-35012297D01*
X27117500Y-35321414D01*
X27117500Y-35636586D01*
X27178987Y-35945703D01*
X27299598Y-36236884D01*
X27474699Y-36498941D01*
X27697559Y-36721801D01*
X27959616Y-36896902D01*
X28250797Y-37017513D01*
X28559914Y-37079000D01*
X28875086Y-37079000D01*
X29184203Y-37017513D01*
X29475384Y-36896902D01*
X29737441Y-36721801D01*
X29960301Y-36498941D01*
X30101581Y-36287500D01*
X31013920Y-36287500D01*
X30955204Y-36359045D01*
X30899490Y-36463279D01*
X30865182Y-36576379D01*
X30853597Y-36694000D01*
X30853597Y-37329000D01*
X30865182Y-37446621D01*
X30899490Y-37559721D01*
X30955204Y-37663955D01*
X31030183Y-37755317D01*
X31121545Y-37830296D01*
X31225779Y-37886010D01*
X31228001Y-37886684D01*
X31228000Y-38168316D01*
X31225779Y-38168990D01*
X31121545Y-38224704D01*
X31098642Y-38243500D01*
X30299684Y-38243500D01*
X30299010Y-38241279D01*
X30243296Y-38137045D01*
X30168317Y-38045683D01*
X30076955Y-37970704D01*
X29972721Y-37914990D01*
X29859621Y-37880682D01*
X29742000Y-37869097D01*
X29107000Y-37869097D01*
X28989379Y-37880682D01*
X28876279Y-37914990D01*
X28772045Y-37970704D01*
X28680683Y-38045683D01*
X28605704Y-38137045D01*
X28549990Y-38241279D01*
X28548943Y-38244732D01*
X28502211Y-38187789D01*
X28441303Y-38137803D01*
X28371814Y-38100660D01*
X28296414Y-38077788D01*
X28218000Y-38070065D01*
X28218000Y-38072000D01*
X28118000Y-38172000D01*
X28118000Y-38743500D01*
X28218000Y-38743500D01*
X28218000Y-39343500D01*
X28118000Y-39343500D01*
X28118000Y-39915000D01*
X28218000Y-40015000D01*
X28218000Y-40016935D01*
X28296414Y-40009212D01*
X28371814Y-39986340D01*
X28441303Y-39949197D01*
X28502211Y-39899211D01*
X28548943Y-39842268D01*
X28549990Y-39845721D01*
X28605704Y-39949955D01*
X28680683Y-40041317D01*
X28772045Y-40116296D01*
X28876279Y-40172010D01*
X28989379Y-40206318D01*
X29107000Y-40217903D01*
X29742000Y-40217903D01*
X29859621Y-40206318D01*
X29972721Y-40172010D01*
X30076955Y-40116296D01*
X30168317Y-40041317D01*
X30243296Y-39949955D01*
X30299010Y-39845721D01*
X30299684Y-39843500D01*
X31013920Y-39843500D01*
X30955204Y-39915045D01*
X30899490Y-40019279D01*
X30865182Y-40132379D01*
X30853597Y-40250000D01*
X30853597Y-40885000D01*
X30865182Y-41002621D01*
X30899490Y-41115721D01*
X30955204Y-41219955D01*
X31030183Y-41311317D01*
X31121545Y-41386296D01*
X31225779Y-41442010D01*
X31228001Y-41442684D01*
X31228001Y-41797097D01*
X31200000Y-41797097D01*
X31082379Y-41808682D01*
X30969279Y-41842990D01*
X30865045Y-41898704D01*
X30773683Y-41973683D01*
X30698704Y-42065045D01*
X30675432Y-42108584D01*
X30623303Y-42065803D01*
X30553814Y-42028660D01*
X30478414Y-42005788D01*
X30400000Y-41998065D01*
X28600000Y-42000000D01*
X28500000Y-42100000D01*
X28500000Y-44700000D01*
X28520000Y-44700000D01*
X28520000Y-45300000D01*
X28500000Y-45300000D01*
X28500000Y-45320000D01*
X27900000Y-45320000D01*
X27900000Y-45300000D01*
X25700000Y-45300000D01*
X25600000Y-45400000D01*
X25598065Y-47600000D01*
X25605788Y-47678414D01*
X25617568Y-47717248D01*
X25603141Y-47734827D01*
X25559034Y-47817346D01*
X25531873Y-47906884D01*
X25522702Y-48000000D01*
X25525001Y-48023342D01*
X25525000Y-49425000D01*
X475000Y-49425000D01*
X475000Y-47392414D01*
X6150000Y-47392414D01*
X6150000Y-47707586D01*
X6211487Y-48016703D01*
X6332098Y-48307884D01*
X6507199Y-48569941D01*
X6730059Y-48792801D01*
X6992116Y-48967902D01*
X7283297Y-49088513D01*
X7592414Y-49150000D01*
X7907586Y-49150000D01*
X8216703Y-49088513D01*
X8507884Y-48967902D01*
X8769941Y-48792801D01*
X8992801Y-48569941D01*
X9167902Y-48307884D01*
X9288513Y-48016703D01*
X9350000Y-47707586D01*
X9350000Y-47392414D01*
X9349217Y-47388474D01*
X14610000Y-47388474D01*
X14610000Y-47711526D01*
X14673025Y-48028370D01*
X14796651Y-48326831D01*
X14976129Y-48595439D01*
X15204561Y-48823871D01*
X15473169Y-49003349D01*
X15771630Y-49126975D01*
X16088474Y-49190000D01*
X16411526Y-49190000D01*
X16728370Y-49126975D01*
X17026831Y-49003349D01*
X17295439Y-48823871D01*
X17523871Y-48595439D01*
X17703349Y-48326831D01*
X17826975Y-48028370D01*
X17890000Y-47711526D01*
X17890000Y-47388474D01*
X17826975Y-47071630D01*
X17703349Y-46773169D01*
X17523871Y-46504561D01*
X17295439Y-46276129D01*
X17026831Y-46096651D01*
X16728370Y-45973025D01*
X16411526Y-45910000D01*
X16088474Y-45910000D01*
X15771630Y-45973025D01*
X15473169Y-46096651D01*
X15204561Y-46276129D01*
X14976129Y-46504561D01*
X14796651Y-46773169D01*
X14673025Y-47071630D01*
X14610000Y-47388474D01*
X9349217Y-47388474D01*
X9288513Y-47083297D01*
X9167902Y-46792116D01*
X8992801Y-46530059D01*
X8769941Y-46307199D01*
X8507884Y-46132098D01*
X8216703Y-46011487D01*
X7907586Y-45950000D01*
X7592414Y-45950000D01*
X7283297Y-46011487D01*
X6992116Y-46132098D01*
X6730059Y-46307199D01*
X6507199Y-46530059D01*
X6332098Y-46792116D01*
X6211487Y-47083297D01*
X6150000Y-47392414D01*
X475000Y-47392414D01*
X475000Y-44134073D01*
X9300000Y-44134073D01*
X9300000Y-44665927D01*
X9403760Y-45187561D01*
X9607291Y-45678930D01*
X9902773Y-46121150D01*
X10278850Y-46497227D01*
X10721070Y-46792709D01*
X11212439Y-46996240D01*
X11734073Y-47100000D01*
X12265927Y-47100000D01*
X12787561Y-46996240D01*
X13278930Y-46792709D01*
X13721150Y-46497227D01*
X14097227Y-46121150D01*
X14392709Y-45678930D01*
X14596240Y-45187561D01*
X14700000Y-44665927D01*
X14700000Y-44134073D01*
X14596240Y-43612439D01*
X14392709Y-43121070D01*
X14097227Y-42678850D01*
X13818377Y-42400000D01*
X25598065Y-42400000D01*
X25600000Y-44600000D01*
X25700000Y-44700000D01*
X27900000Y-44700000D01*
X27900000Y-42100000D01*
X27800000Y-42000000D01*
X26000000Y-41998065D01*
X25921586Y-42005788D01*
X25846186Y-42028660D01*
X25776697Y-42065803D01*
X25715789Y-42115789D01*
X25665803Y-42176697D01*
X25628660Y-42246186D01*
X25605788Y-42321586D01*
X25598065Y-42400000D01*
X13818377Y-42400000D01*
X13721150Y-42302773D01*
X13278930Y-42007291D01*
X12905362Y-41852554D01*
X13014845Y-41807205D01*
X13229267Y-41553531D01*
X12000000Y-40324264D01*
X10770733Y-41553531D01*
X10985155Y-41807205D01*
X11094928Y-41852434D01*
X10721070Y-42007291D01*
X10278850Y-42302773D01*
X9902773Y-42678850D01*
X9607291Y-43121070D01*
X9403760Y-43612439D01*
X9300000Y-44134073D01*
X475000Y-44134073D01*
X475000Y-39692261D01*
X9849608Y-39692261D01*
X9850400Y-40115774D01*
X9933799Y-40530994D01*
X10092795Y-40914845D01*
X10346469Y-41129267D01*
X11575736Y-39900000D01*
X12424264Y-39900000D01*
X13653531Y-41129267D01*
X13907205Y-40914845D01*
X14068545Y-40523268D01*
X14150392Y-40107739D01*
X14149600Y-39684226D01*
X14135696Y-39615000D01*
X27181065Y-39615000D01*
X27188788Y-39693414D01*
X27211660Y-39768814D01*
X27248803Y-39838303D01*
X27298789Y-39899211D01*
X27359697Y-39949197D01*
X27429186Y-39986340D01*
X27504586Y-40009212D01*
X27583000Y-40016935D01*
X27583000Y-40015000D01*
X27683000Y-39915000D01*
X27683000Y-39343500D01*
X27283000Y-39343500D01*
X27183000Y-39443500D01*
X27181065Y-39615000D01*
X14135696Y-39615000D01*
X14066201Y-39269006D01*
X13907205Y-38885155D01*
X13653531Y-38670733D01*
X12424264Y-39900000D01*
X11575736Y-39900000D01*
X10346469Y-38670733D01*
X10092795Y-38885155D01*
X9931455Y-39276732D01*
X9849608Y-39692261D01*
X475000Y-39692261D01*
X475000Y-38246469D01*
X10770733Y-38246469D01*
X12000000Y-39475736D01*
X13003736Y-38472000D01*
X27181065Y-38472000D01*
X27183000Y-38643500D01*
X27283000Y-38743500D01*
X27683000Y-38743500D01*
X27683000Y-38172000D01*
X27583000Y-38072000D01*
X27583000Y-38070065D01*
X27504586Y-38077788D01*
X27429186Y-38100660D01*
X27359697Y-38137803D01*
X27298789Y-38187789D01*
X27248803Y-38248697D01*
X27211660Y-38318186D01*
X27188788Y-38393586D01*
X27181065Y-38472000D01*
X13003736Y-38472000D01*
X13229267Y-38246469D01*
X13014845Y-37992795D01*
X12623268Y-37831455D01*
X12207739Y-37749608D01*
X11784226Y-37750400D01*
X11369006Y-37833799D01*
X10985155Y-37992795D01*
X10770733Y-38246469D01*
X475000Y-38246469D01*
X475000Y-32090481D01*
X23530283Y-32090481D01*
X23652345Y-32267259D01*
X23914531Y-32352762D01*
X24188360Y-32385472D01*
X24463309Y-32364132D01*
X24728812Y-32289562D01*
X24782655Y-32267259D01*
X24904717Y-32090481D01*
X24217500Y-31403264D01*
X23530283Y-32090481D01*
X475000Y-32090481D01*
X475000Y-30949860D01*
X22811028Y-30949860D01*
X22832368Y-31224809D01*
X22906938Y-31490312D01*
X22929241Y-31544155D01*
X23106019Y-31666217D01*
X23793236Y-30979000D01*
X24641764Y-30979000D01*
X25328981Y-31666217D01*
X25505759Y-31544155D01*
X25591262Y-31281969D01*
X25612282Y-31106000D01*
X27689065Y-31106000D01*
X27691000Y-31106000D01*
X27791000Y-31206000D01*
X28362500Y-31206000D01*
X28362500Y-30806000D01*
X28962500Y-30806000D01*
X28962500Y-31206000D01*
X29534000Y-31206000D01*
X29634000Y-31106000D01*
X29635935Y-31106000D01*
X29628212Y-31027586D01*
X29605340Y-30952186D01*
X29568197Y-30882697D01*
X29518211Y-30821789D01*
X29457303Y-30771803D01*
X29387814Y-30734660D01*
X29312414Y-30711788D01*
X29234000Y-30704065D01*
X29062500Y-30706000D01*
X28962500Y-30806000D01*
X28362500Y-30806000D01*
X28262500Y-30706000D01*
X28091000Y-30704065D01*
X28012586Y-30711788D01*
X27937186Y-30734660D01*
X27867697Y-30771803D01*
X27806789Y-30821789D01*
X27756803Y-30882697D01*
X27719660Y-30952186D01*
X27696788Y-31027586D01*
X27689065Y-31106000D01*
X25612282Y-31106000D01*
X25623972Y-31008140D01*
X25602632Y-30733191D01*
X25528062Y-30467688D01*
X25505759Y-30413845D01*
X25328981Y-30291783D01*
X24641764Y-30979000D01*
X23793236Y-30979000D01*
X23106019Y-30291783D01*
X22929241Y-30413845D01*
X22843738Y-30676031D01*
X22811028Y-30949860D01*
X475000Y-30949860D01*
X475000Y-29867519D01*
X23530283Y-29867519D01*
X24217500Y-30554736D01*
X24904717Y-29867519D01*
X24782655Y-29690741D01*
X24520469Y-29605238D01*
X24246640Y-29572528D01*
X23971691Y-29593868D01*
X23706188Y-29668438D01*
X23652345Y-29690741D01*
X23530283Y-29867519D01*
X475000Y-29867519D01*
X475000Y-5258000D01*
X15466065Y-5258000D01*
X15473788Y-5336414D01*
X15496660Y-5411814D01*
X15533803Y-5481303D01*
X15583789Y-5542211D01*
X15644697Y-5592197D01*
X15714186Y-5629340D01*
X15789586Y-5652212D01*
X15868000Y-5659935D01*
X17668000Y-5658000D01*
X17768000Y-5558000D01*
X17768000Y-2958000D01*
X15568000Y-2958000D01*
X15468000Y-3058000D01*
X15466065Y-5258000D01*
X475000Y-5258000D01*
X475000Y-1984000D01*
X7916065Y-1984000D01*
X7923788Y-2062414D01*
X7946660Y-2137814D01*
X7983803Y-2207303D01*
X8033789Y-2268211D01*
X8094697Y-2318197D01*
X8164186Y-2355340D01*
X8239586Y-2378212D01*
X8318000Y-2385935D01*
X8768000Y-2384000D01*
X8868000Y-2284000D01*
X8868000Y-1434000D01*
X8018000Y-1434000D01*
X7918000Y-1534000D01*
X7916065Y-1984000D01*
X475000Y-1984000D01*
X475000Y-475000D01*
X7916886Y-475000D01*
X7918000Y-734000D01*
G04 #@! TA.AperFunction,Conductor*
D32*
G36*
X7918000Y-734000D02*
G01*
X8018000Y-834000D01*
X8868000Y-834000D01*
X8868000Y-814000D01*
X9468000Y-814000D01*
X9468000Y-834000D01*
X9488000Y-834000D01*
X9488000Y-1434000D01*
X9468000Y-1434000D01*
X9468000Y-2284000D01*
X9568000Y-2384000D01*
X10018000Y-2385935D01*
X10096414Y-2378212D01*
X10171814Y-2355340D01*
X10241303Y-2318197D01*
X10302211Y-2268211D01*
X10352197Y-2207303D01*
X10389340Y-2137814D01*
X10412212Y-2062414D01*
X10419935Y-1984000D01*
X10419194Y-1811578D01*
X10423027Y-1820833D01*
X10581711Y-2058321D01*
X10783679Y-2260289D01*
X11021167Y-2418973D01*
X11285051Y-2528277D01*
X11565187Y-2584000D01*
X11850813Y-2584000D01*
X12130949Y-2528277D01*
X12394833Y-2418973D01*
X12632321Y-2260289D01*
X12834289Y-2058321D01*
X12992973Y-1820833D01*
X13102277Y-1556949D01*
X13126733Y-1434002D01*
X13134520Y-1434002D01*
X13096390Y-1620137D01*
X13213358Y-1835464D01*
X13370087Y-2023834D01*
X13560554Y-2178008D01*
X13761866Y-2285596D01*
X13948000Y-2244180D01*
X13948000Y-1434000D01*
X13928000Y-1434000D01*
X13928000Y-834000D01*
X13948000Y-834000D01*
X13948000Y-814000D01*
X14548000Y-814000D01*
X14548000Y-834000D01*
X14568000Y-834000D01*
X14568000Y-1434000D01*
X14548000Y-1434000D01*
X14548000Y-2244180D01*
X14734134Y-2285596D01*
X14935446Y-2178008D01*
X15125913Y-2023834D01*
X15282642Y-1835464D01*
X15399610Y-1620137D01*
X15361480Y-1434002D01*
X15467275Y-1434002D01*
X15468000Y-2258000D01*
X15568000Y-2358000D01*
X17768000Y-2358000D01*
X17768000Y-2338000D01*
X18368000Y-2338000D01*
X18368000Y-2358000D01*
X18388000Y-2358000D01*
X18388000Y-2958000D01*
X18368000Y-2958000D01*
X18368000Y-5558000D01*
X18468000Y-5658000D01*
X20268000Y-5659935D01*
X20346414Y-5652212D01*
X20421814Y-5629340D01*
X20491303Y-5592197D01*
X20543432Y-5549416D01*
X20566704Y-5592955D01*
X20641683Y-5684317D01*
X20733045Y-5759296D01*
X20837279Y-5815010D01*
X20950379Y-5849318D01*
X21068000Y-5860903D01*
X22668000Y-5860903D01*
X22785621Y-5849318D01*
X22898721Y-5815010D01*
X23002955Y-5759296D01*
X23094317Y-5684317D01*
X23169296Y-5592955D01*
X23192568Y-5549416D01*
X23244697Y-5592197D01*
X23314186Y-5629340D01*
X23389586Y-5652212D01*
X23468000Y-5659935D01*
X25268000Y-5658000D01*
X25368000Y-5558000D01*
X25368000Y-5258000D01*
X25626065Y-5258000D01*
X25633788Y-5336414D01*
X25656660Y-5411814D01*
X25693803Y-5481303D01*
X25743789Y-5542211D01*
X25804697Y-5592197D01*
X25874186Y-5629340D01*
X25949586Y-5652212D01*
X26028000Y-5659935D01*
X26948000Y-5658946D01*
X27868000Y-5659935D01*
X27946414Y-5652212D01*
X28021814Y-5629340D01*
X28091303Y-5592197D01*
X28152211Y-5542211D01*
X28202197Y-5481303D01*
X28239340Y-5411814D01*
X28262212Y-5336414D01*
X28269935Y-5258000D01*
X28268000Y-3058000D01*
X28168000Y-2958000D01*
X25728000Y-2958000D01*
X25628000Y-3058000D01*
X25626065Y-5258000D01*
X25368000Y-5258000D01*
X25368000Y-2958000D01*
X25348000Y-2958000D01*
X25348000Y-2358000D01*
X25368000Y-2358000D01*
X25368000Y-2338000D01*
X25708000Y-2338000D01*
X25728000Y-2358000D01*
X28168000Y-2358000D01*
X28188000Y-2338000D01*
X28528000Y-2338000D01*
X28528000Y-2358000D01*
X28548000Y-2358000D01*
X28548000Y-2958000D01*
X28528000Y-2958000D01*
X28528000Y-5558000D01*
X28628000Y-5658000D01*
X30428000Y-5659935D01*
X30506414Y-5652212D01*
X30581814Y-5629340D01*
X30651303Y-5592197D01*
X30703432Y-5549416D01*
X30726704Y-5592955D01*
X30801683Y-5684317D01*
X30893045Y-5759296D01*
X30997279Y-5815010D01*
X31110379Y-5849318D01*
X31228000Y-5860903D01*
X32828000Y-5860903D01*
X32945621Y-5849318D01*
X33058721Y-5815010D01*
X33162955Y-5759296D01*
X33254317Y-5684317D01*
X33329296Y-5592955D01*
X33352568Y-5549416D01*
X33404697Y-5592197D01*
X33474186Y-5629340D01*
X33549586Y-5652212D01*
X33628000Y-5659935D01*
X35428000Y-5658000D01*
X35528000Y-5558000D01*
X35528000Y-2958000D01*
X36128000Y-2958000D01*
X36128000Y-5558000D01*
X36228000Y-5658000D01*
X38028000Y-5659935D01*
X38106414Y-5652212D01*
X38181814Y-5629340D01*
X38251303Y-5592197D01*
X38312211Y-5542211D01*
X38362197Y-5481303D01*
X38399340Y-5411814D01*
X38422212Y-5336414D01*
X38429935Y-5258000D01*
X38428000Y-3058000D01*
X38328000Y-2958000D01*
X36128000Y-2958000D01*
X35528000Y-2958000D01*
X35508000Y-2958000D01*
X35508000Y-2358000D01*
X35528000Y-2358000D01*
X35528000Y-2338000D01*
X36128000Y-2338000D01*
X36128000Y-2358000D01*
X38328000Y-2358000D01*
X38428000Y-2258000D01*
X38428299Y-1918519D01*
X38521711Y-2058321D01*
X38723679Y-2260289D01*
X38961167Y-2418973D01*
X39225051Y-2528277D01*
X39505187Y-2584000D01*
X39790813Y-2584000D01*
X40070949Y-2528277D01*
X40334833Y-2418973D01*
X40572321Y-2260289D01*
X40774289Y-2058321D01*
X40918000Y-1843242D01*
X41061711Y-2058321D01*
X41263679Y-2260289D01*
X41501167Y-2418973D01*
X41765051Y-2528277D01*
X42045187Y-2584000D01*
X42330813Y-2584000D01*
X42610949Y-2528277D01*
X42874833Y-2418973D01*
X43112321Y-2260289D01*
X43314289Y-2058321D01*
X43458000Y-1843242D01*
X43601711Y-2058321D01*
X43803679Y-2260289D01*
X43928001Y-2343358D01*
X43928000Y-3368029D01*
X39545230Y-7750800D01*
X36034493Y-7750800D01*
X35995202Y-7746930D01*
X35955911Y-7750800D01*
X12687243Y-7750800D01*
X12529320Y-7685386D01*
X12355442Y-7650800D01*
X12178158Y-7650800D01*
X12004280Y-7685386D01*
X11840490Y-7753230D01*
X11693083Y-7851724D01*
X11567724Y-7977083D01*
X11469230Y-8124490D01*
X11401386Y-8288280D01*
X11366800Y-8462158D01*
X11366800Y-8639442D01*
X11401386Y-8813320D01*
X11469230Y-8977110D01*
X11567724Y-9124517D01*
X11693083Y-9249876D01*
X11840490Y-9348370D01*
X12004280Y-9416214D01*
X12178158Y-9450800D01*
X12355442Y-9450800D01*
X12529320Y-9416214D01*
X12687243Y-9350800D01*
X35818206Y-9350800D01*
X35863775Y-9364623D01*
X36020601Y-9380070D01*
X36177429Y-9364623D01*
X36222998Y-9350800D01*
X39837309Y-9350800D01*
X39876600Y-9354670D01*
X39915891Y-9350800D01*
X39915893Y-9350800D01*
X40033427Y-9339224D01*
X40184228Y-9293479D01*
X40323206Y-9219193D01*
X40445022Y-9119222D01*
X40470073Y-9088697D01*
X45265904Y-4292867D01*
X45296422Y-4267822D01*
X45351412Y-4200816D01*
X45396393Y-4146007D01*
X45470679Y-4007028D01*
X45470679Y-4007027D01*
X45516424Y-3856227D01*
X45528000Y-3738693D01*
X45528000Y-3738691D01*
X45531870Y-3699400D01*
X45528000Y-3660109D01*
X45528000Y-2343357D01*
X45652321Y-2260289D01*
X45854289Y-2058321D01*
X46012973Y-1820833D01*
X46106239Y-1595668D01*
X46160265Y-1726097D01*
X46297062Y-1930828D01*
X46471172Y-2104938D01*
X46675903Y-2241735D01*
X46903389Y-2335963D01*
X47144886Y-2384000D01*
X47391114Y-2384000D01*
X47632611Y-2335963D01*
X47860097Y-2241735D01*
X48064828Y-2104938D01*
X48238938Y-1930828D01*
X48375735Y-1726097D01*
X48469963Y-1498611D01*
X48518000Y-1257114D01*
X48518000Y-1010886D01*
X48469963Y-769389D01*
X48375735Y-541903D01*
X48331032Y-475000D01*
X48744968Y-475000D01*
X48700265Y-541903D01*
X48606037Y-769389D01*
X48558000Y-1010886D01*
X48558000Y-1257114D01*
X48606037Y-1498611D01*
X48700265Y-1726097D01*
X48837062Y-1930828D01*
X49011172Y-2104938D01*
X49215903Y-2241735D01*
X49443389Y-2335963D01*
X49684886Y-2384000D01*
X49931114Y-2384000D01*
X50172611Y-2335963D01*
X50400097Y-2241735D01*
X50604828Y-2104938D01*
X50778938Y-1930828D01*
X50915735Y-1726097D01*
X50969761Y-1595668D01*
X51063027Y-1820833D01*
X51221711Y-2058321D01*
X51423679Y-2260289D01*
X51661167Y-2418973D01*
X51925051Y-2528277D01*
X52205187Y-2584000D01*
X52490813Y-2584000D01*
X52637460Y-2554830D01*
X53404428Y-3321799D01*
X50313892Y-3321799D01*
X50274601Y-3317929D01*
X50235310Y-3321799D01*
X50235308Y-3321799D01*
X50117774Y-3333375D01*
X49993695Y-3371014D01*
X49966973Y-3379120D01*
X49827994Y-3453406D01*
X49800990Y-3475568D01*
X49706179Y-3553377D01*
X49681132Y-3583897D01*
X38935630Y-14329400D01*
X27241443Y-14329400D01*
X27083520Y-14263986D01*
X26909642Y-14229400D01*
X26732358Y-14229400D01*
X26558480Y-14263986D01*
X26394690Y-14331830D01*
X26247283Y-14430324D01*
X26121924Y-14555683D01*
X26023430Y-14703090D01*
X25958016Y-14861013D01*
X23108103Y-17710927D01*
X23077578Y-17735978D01*
X23023151Y-17802299D01*
X22977607Y-17857794D01*
X22903322Y-17996772D01*
X22903321Y-17996773D01*
X22857576Y-18147574D01*
X22846000Y-18265107D01*
X22842130Y-18304400D01*
X22846000Y-18343691D01*
X22846001Y-24895800D01*
X18160771Y-24895800D01*
X16419600Y-23154630D01*
X16419600Y-19969443D01*
X16485014Y-19811520D01*
X16519600Y-19637642D01*
X16519600Y-19460358D01*
X16485014Y-19286480D01*
X16417170Y-19122690D01*
X16318676Y-18975283D01*
X16193317Y-18849924D01*
X16045910Y-18751430D01*
X15882120Y-18683586D01*
X15708242Y-18649000D01*
X15530958Y-18649000D01*
X15357080Y-18683586D01*
X15193290Y-18751430D01*
X15045883Y-18849924D01*
X14920524Y-18975283D01*
X14822030Y-19122690D01*
X14754186Y-19286480D01*
X14719600Y-19460358D01*
X14719600Y-19637642D01*
X14754186Y-19811520D01*
X14819600Y-19969444D01*
X14819601Y-23446700D01*
X14815730Y-23486000D01*
X14831177Y-23642827D01*
X14876921Y-23793627D01*
X14951207Y-23932606D01*
X15023277Y-24020423D01*
X15051179Y-24054422D01*
X15081698Y-24079468D01*
X17235930Y-26233701D01*
X17260978Y-26264222D01*
X17291498Y-26289269D01*
X17382793Y-26364193D01*
X17489988Y-26421490D01*
X17521772Y-26438479D01*
X17672573Y-26484224D01*
X17790107Y-26495800D01*
X17790108Y-26495800D01*
X17829399Y-26499670D01*
X17868690Y-26495800D01*
X25778430Y-26495800D01*
X27370527Y-28087897D01*
X27395578Y-28118422D01*
X27459048Y-28170510D01*
X27517393Y-28218393D01*
X27656372Y-28292679D01*
X27807173Y-28338424D01*
X27924707Y-28350000D01*
X27924709Y-28350000D01*
X27964000Y-28353870D01*
X28003291Y-28350000D01*
X31455157Y-28350000D01*
X31613080Y-28415414D01*
X31786958Y-28450000D01*
X31964242Y-28450000D01*
X32138120Y-28415414D01*
X32296043Y-28350000D01*
X33525430Y-28350000D01*
X34533330Y-29357901D01*
X34558378Y-29388422D01*
X34588898Y-29413469D01*
X34680193Y-29488393D01*
X34792323Y-29548328D01*
X34819172Y-29562679D01*
X34969973Y-29608424D01*
X35087507Y-29620000D01*
X35087516Y-29620000D01*
X35126799Y-29623869D01*
X35166082Y-29620000D01*
X39773830Y-29620000D01*
X42048400Y-31894571D01*
X42048401Y-35664100D01*
X42044530Y-35703400D01*
X42059977Y-35860227D01*
X42105721Y-36011027D01*
X42180007Y-36150006D01*
X42250581Y-36236000D01*
X42279979Y-36271822D01*
X42310498Y-36296868D01*
X43601131Y-37587502D01*
X43626178Y-37618022D01*
X43656698Y-37643069D01*
X43747993Y-37717993D01*
X43796403Y-37743869D01*
X43886972Y-37792279D01*
X44037773Y-37838024D01*
X44155307Y-37849600D01*
X44155316Y-37849600D01*
X44194599Y-37853469D01*
X44233882Y-37849600D01*
X46771357Y-37849600D01*
X46929280Y-37915014D01*
X47103158Y-37949600D01*
X47280442Y-37949600D01*
X47454320Y-37915014D01*
X47618110Y-37847170D01*
X47765517Y-37748676D01*
X47890876Y-37623317D01*
X47989370Y-37475910D01*
X48057214Y-37312120D01*
X48091800Y-37138242D01*
X48091800Y-36960958D01*
X48057214Y-36787080D01*
X47989370Y-36623290D01*
X47890876Y-36475883D01*
X47765517Y-36350524D01*
X47618110Y-36252030D01*
X47454320Y-36184186D01*
X47280442Y-36149600D01*
X47103158Y-36149600D01*
X46929280Y-36184186D01*
X46771357Y-36249600D01*
X44525971Y-36249600D01*
X43648400Y-35372030D01*
X43648400Y-31602491D01*
X43652270Y-31563200D01*
X43648400Y-31523907D01*
X43636824Y-31406373D01*
X43591079Y-31255572D01*
X43530948Y-31143076D01*
X43516793Y-31116593D01*
X43441870Y-31025299D01*
X43441869Y-31025298D01*
X43416822Y-30994778D01*
X43386304Y-30969733D01*
X42163929Y-29747358D01*
X46444200Y-29747358D01*
X46444200Y-29924642D01*
X46478786Y-30098520D01*
X46546630Y-30262310D01*
X46645124Y-30409717D01*
X46770483Y-30535076D01*
X46917890Y-30633570D01*
X47081680Y-30701414D01*
X47255558Y-30736000D01*
X47432842Y-30736000D01*
X47606720Y-30701414D01*
X47764643Y-30636000D01*
X49339216Y-30636000D01*
X49339890Y-30638221D01*
X49395604Y-30742455D01*
X49470583Y-30833817D01*
X49561945Y-30908796D01*
X49666179Y-30964510D01*
X49779279Y-30998818D01*
X49896900Y-31010403D01*
X50531900Y-31010403D01*
X50649521Y-30998818D01*
X50762621Y-30964510D01*
X50866855Y-30908796D01*
X50958217Y-30833817D01*
X50976400Y-30811661D01*
X50994583Y-30833817D01*
X51085945Y-30908796D01*
X51190179Y-30964510D01*
X51303279Y-30998818D01*
X51420900Y-31010403D01*
X52055900Y-31010403D01*
X52173521Y-30998818D01*
X52286621Y-30964510D01*
X52390855Y-30908796D01*
X52482217Y-30833817D01*
X52557196Y-30742455D01*
X52612910Y-30638221D01*
X52613584Y-30636000D01*
X53752239Y-30636000D01*
X53899199Y-30855941D01*
X54122059Y-31078801D01*
X54384116Y-31253902D01*
X54675297Y-31374513D01*
X54984414Y-31436000D01*
X55299586Y-31436000D01*
X55608703Y-31374513D01*
X55899884Y-31253902D01*
X56161941Y-31078801D01*
X56384801Y-30855941D01*
X56531761Y-30636000D01*
X57505316Y-30636000D01*
X57505990Y-30638221D01*
X57561704Y-30742455D01*
X57636683Y-30833817D01*
X57728045Y-30908796D01*
X57832279Y-30964510D01*
X57945379Y-30998818D01*
X58063000Y-31010403D01*
X58698000Y-31010403D01*
X58815621Y-30998818D01*
X58928721Y-30964510D01*
X59032955Y-30908796D01*
X59124317Y-30833817D01*
X59142500Y-30811661D01*
X59160683Y-30833817D01*
X59252045Y-30908796D01*
X59356279Y-30964510D01*
X59469379Y-30998818D01*
X59587000Y-31010403D01*
X60222000Y-31010403D01*
X60339621Y-30998818D01*
X60452721Y-30964510D01*
X60556955Y-30908796D01*
X60648317Y-30833817D01*
X60723296Y-30742455D01*
X60779010Y-30638221D01*
X60779684Y-30636000D01*
X62896239Y-30636000D01*
X63043199Y-30855941D01*
X63266059Y-31078801D01*
X63528116Y-31253902D01*
X63819297Y-31374513D01*
X64128414Y-31436000D01*
X64443586Y-31436000D01*
X64752703Y-31374513D01*
X65043884Y-31253902D01*
X65305941Y-31078801D01*
X65528801Y-30855941D01*
X65675761Y-30636000D01*
X67157316Y-30636000D01*
X67157990Y-30638221D01*
X67213704Y-30742455D01*
X67288683Y-30833817D01*
X67380045Y-30908796D01*
X67484279Y-30964510D01*
X67597379Y-30998818D01*
X67715000Y-31010403D01*
X68350000Y-31010403D01*
X68467621Y-30998818D01*
X68580721Y-30964510D01*
X68684955Y-30908796D01*
X68776317Y-30833817D01*
X68794500Y-30811661D01*
X68812683Y-30833817D01*
X68904045Y-30908796D01*
X69008279Y-30964510D01*
X69121379Y-30998818D01*
X69239000Y-31010403D01*
X69874000Y-31010403D01*
X69991621Y-30998818D01*
X70104721Y-30964510D01*
X70208955Y-30908796D01*
X70300317Y-30833817D01*
X70375296Y-30742455D01*
X70431010Y-30638221D01*
X70431684Y-30636000D01*
X72040239Y-30636000D01*
X72187199Y-30855941D01*
X72410059Y-31078801D01*
X72672116Y-31253902D01*
X72963297Y-31374513D01*
X73272414Y-31436000D01*
X73587586Y-31436000D01*
X73896703Y-31374513D01*
X74187884Y-31253902D01*
X74449941Y-31078801D01*
X74672801Y-30855941D01*
X74819761Y-30636000D01*
X75666316Y-30636000D01*
X75666990Y-30638221D01*
X75722704Y-30742455D01*
X75797683Y-30833817D01*
X75889045Y-30908796D01*
X75993279Y-30964510D01*
X76106379Y-30998818D01*
X76224000Y-31010403D01*
X76859000Y-31010403D01*
X76976621Y-30998818D01*
X77089721Y-30964510D01*
X77193955Y-30908796D01*
X77285317Y-30833817D01*
X77303500Y-30811661D01*
X77321683Y-30833817D01*
X77413045Y-30908796D01*
X77517279Y-30964510D01*
X77630379Y-30998818D01*
X77748000Y-31010403D01*
X78383000Y-31010403D01*
X78500621Y-30998818D01*
X78613721Y-30964510D01*
X78717955Y-30908796D01*
X78809317Y-30833817D01*
X78884296Y-30742455D01*
X78940010Y-30638221D01*
X78940684Y-30636000D01*
X79130957Y-30636000D01*
X79288880Y-30701414D01*
X79462758Y-30736000D01*
X79640042Y-30736000D01*
X79813920Y-30701414D01*
X79971843Y-30636000D01*
X79994709Y-30636000D01*
X80034000Y-30639870D01*
X80073291Y-30636000D01*
X80073293Y-30636000D01*
X80190827Y-30624424D01*
X80341628Y-30578679D01*
X80480606Y-30504393D01*
X80602422Y-30404422D01*
X80627473Y-30373897D01*
X81016398Y-29984972D01*
X81046922Y-29959922D01*
X81146893Y-29838106D01*
X81221179Y-29699128D01*
X81266924Y-29548327D01*
X81278500Y-29430793D01*
X81278500Y-29430791D01*
X81282370Y-29391500D01*
X81278500Y-29352209D01*
X81278500Y-28986935D01*
X81349317Y-28928817D01*
X81424296Y-28837455D01*
X81480010Y-28733221D01*
X81514318Y-28620121D01*
X81525903Y-28502500D01*
X81537065Y-28502500D01*
X81544788Y-28580914D01*
X81567660Y-28656314D01*
X81604803Y-28725803D01*
X81654789Y-28786711D01*
X81715697Y-28836697D01*
X81785186Y-28873840D01*
X81860586Y-28896712D01*
X81939000Y-28904435D01*
X81983500Y-28902500D01*
X82083500Y-28802500D01*
X82083500Y-28104000D01*
X82683500Y-28104000D01*
X82683500Y-28802500D01*
X82783500Y-28902500D01*
X82828000Y-28904435D01*
X82906414Y-28896712D01*
X82981814Y-28873840D01*
X83051303Y-28836697D01*
X83112211Y-28786711D01*
X83162197Y-28725803D01*
X83199340Y-28656314D01*
X83222212Y-28580914D01*
X83229935Y-28502500D01*
X83228000Y-28204000D01*
X83128000Y-28104000D01*
X82683500Y-28104000D01*
X82083500Y-28104000D01*
X81639000Y-28104000D01*
X81539000Y-28204000D01*
X81537065Y-28502500D01*
X81525903Y-28502500D01*
X81525903Y-27105500D01*
X81537065Y-27105500D01*
X81539000Y-27404000D01*
X81639000Y-27504000D01*
X82083500Y-27504000D01*
X82083500Y-26805500D01*
X82683500Y-26805500D01*
X82683500Y-27504000D01*
X83128000Y-27504000D01*
X83228000Y-27404000D01*
X83229935Y-27105500D01*
X83222212Y-27027086D01*
X83199340Y-26951686D01*
X83162197Y-26882197D01*
X83112211Y-26821289D01*
X83051303Y-26771303D01*
X82981814Y-26734160D01*
X82906414Y-26711288D01*
X82828000Y-26703565D01*
X82783500Y-26705500D01*
X82683500Y-26805500D01*
X82083500Y-26805500D01*
X81983500Y-26705500D01*
X81939000Y-26703565D01*
X81860586Y-26711288D01*
X81785186Y-26734160D01*
X81715697Y-26771303D01*
X81654789Y-26821289D01*
X81604803Y-26882197D01*
X81567660Y-26951686D01*
X81544788Y-27027086D01*
X81537065Y-27105500D01*
X81525903Y-27105500D01*
X81514318Y-26987879D01*
X81480010Y-26874779D01*
X81424296Y-26770545D01*
X81349317Y-26679183D01*
X81257955Y-26604204D01*
X81153721Y-26548490D01*
X81040621Y-26514182D01*
X80923000Y-26502597D01*
X80034000Y-26502597D01*
X79916379Y-26514182D01*
X79803279Y-26548490D01*
X79699045Y-26604204D01*
X79607683Y-26679183D01*
X79532704Y-26770545D01*
X79476990Y-26874779D01*
X79442682Y-26987879D01*
X79431097Y-27105500D01*
X79431097Y-28502500D01*
X79442682Y-28620121D01*
X79476990Y-28733221D01*
X79532704Y-28837455D01*
X79607683Y-28928817D01*
X79616435Y-28936000D01*
X79462758Y-28936000D01*
X79288880Y-28970586D01*
X79130957Y-29036000D01*
X78940684Y-29036000D01*
X78940010Y-29033779D01*
X78884296Y-28929545D01*
X78809317Y-28838183D01*
X78717955Y-28763204D01*
X78613721Y-28707490D01*
X78500621Y-28673182D01*
X78383000Y-28661597D01*
X77748000Y-28661597D01*
X77630379Y-28673182D01*
X77517279Y-28707490D01*
X77413045Y-28763204D01*
X77321683Y-28838183D01*
X77303500Y-28860339D01*
X77285317Y-28838183D01*
X77193955Y-28763204D01*
X77089721Y-28707490D01*
X76976621Y-28673182D01*
X76859000Y-28661597D01*
X76224000Y-28661597D01*
X76106379Y-28673182D01*
X75993279Y-28707490D01*
X75889045Y-28763204D01*
X75797683Y-28838183D01*
X75722704Y-28929545D01*
X75666990Y-29033779D01*
X75666316Y-29036000D01*
X74819761Y-29036000D01*
X74672801Y-28816059D01*
X74449941Y-28593199D01*
X74230000Y-28446239D01*
X74230000Y-28171184D01*
X74232221Y-28170510D01*
X74336455Y-28114796D01*
X74427817Y-28039817D01*
X74502796Y-27948455D01*
X74558510Y-27844221D01*
X74592818Y-27731121D01*
X74604403Y-27613500D01*
X74604403Y-26978500D01*
X74592818Y-26860879D01*
X74558510Y-26747779D01*
X74502796Y-26643545D01*
X74427817Y-26552183D01*
X74336455Y-26477204D01*
X74280847Y-26447481D01*
X77242783Y-26447481D01*
X77364845Y-26624259D01*
X77627031Y-26709762D01*
X77900860Y-26742472D01*
X78175809Y-26721132D01*
X78441312Y-26646562D01*
X78495155Y-26624259D01*
X78617217Y-26447481D01*
X77930000Y-25760264D01*
X77242783Y-26447481D01*
X74280847Y-26447481D01*
X74232221Y-26421490D01*
X74228768Y-26420443D01*
X74285711Y-26373711D01*
X74335697Y-26312803D01*
X74372840Y-26243314D01*
X74395712Y-26167914D01*
X74403435Y-26089500D01*
X74401500Y-26089500D01*
X74301500Y-25989500D01*
X73730000Y-25989500D01*
X73730000Y-26089500D01*
X73130000Y-26089500D01*
X73130000Y-25989500D01*
X72558500Y-25989500D01*
X72458500Y-26089500D01*
X72456565Y-26089500D01*
X72464288Y-26167914D01*
X72487160Y-26243314D01*
X72524303Y-26312803D01*
X72574289Y-26373711D01*
X72631232Y-26420443D01*
X72627779Y-26421490D01*
X72523545Y-26477204D01*
X72432183Y-26552183D01*
X72357204Y-26643545D01*
X72301490Y-26747779D01*
X72267182Y-26860879D01*
X72255597Y-26978500D01*
X72255597Y-27613500D01*
X72267182Y-27731121D01*
X72301490Y-27844221D01*
X72357204Y-27948455D01*
X72432183Y-28039817D01*
X72523545Y-28114796D01*
X72627779Y-28170510D01*
X72630000Y-28171184D01*
X72630000Y-28446239D01*
X72410059Y-28593199D01*
X72187199Y-28816059D01*
X72040239Y-29036000D01*
X70431684Y-29036000D01*
X70431010Y-29033779D01*
X70375296Y-28929545D01*
X70300317Y-28838183D01*
X70208955Y-28763204D01*
X70104721Y-28707490D01*
X69991621Y-28673182D01*
X69874000Y-28661597D01*
X69239000Y-28661597D01*
X69121379Y-28673182D01*
X69008279Y-28707490D01*
X68904045Y-28763204D01*
X68812683Y-28838183D01*
X68794500Y-28860339D01*
X68776317Y-28838183D01*
X68684955Y-28763204D01*
X68580721Y-28707490D01*
X68467621Y-28673182D01*
X68350000Y-28661597D01*
X67715000Y-28661597D01*
X67597379Y-28673182D01*
X67484279Y-28707490D01*
X67380045Y-28763204D01*
X67288683Y-28838183D01*
X67213704Y-28929545D01*
X67157990Y-29033779D01*
X67157316Y-29036000D01*
X65675761Y-29036000D01*
X65528801Y-28816059D01*
X65305941Y-28593199D01*
X65086000Y-28446239D01*
X65086000Y-28171184D01*
X65088221Y-28170510D01*
X65192455Y-28114796D01*
X65215358Y-28096000D01*
X65515642Y-28096000D01*
X65538545Y-28114796D01*
X65642779Y-28170510D01*
X65755879Y-28204818D01*
X65873500Y-28216403D01*
X67016500Y-28216403D01*
X67134121Y-28204818D01*
X67247221Y-28170510D01*
X67351455Y-28114796D01*
X67442817Y-28039817D01*
X67517796Y-27948455D01*
X67573510Y-27844221D01*
X67607818Y-27731121D01*
X67619403Y-27613500D01*
X67619403Y-26978500D01*
X67607818Y-26860879D01*
X67573510Y-26747779D01*
X67517796Y-26643545D01*
X67442817Y-26552183D01*
X67351455Y-26477204D01*
X67295847Y-26447481D01*
X68098783Y-26447481D01*
X68220845Y-26624259D01*
X68483031Y-26709762D01*
X68756860Y-26742472D01*
X69031809Y-26721132D01*
X69297312Y-26646562D01*
X69351155Y-26624259D01*
X69473217Y-26447481D01*
X68786000Y-25760264D01*
X68098783Y-26447481D01*
X67295847Y-26447481D01*
X67247221Y-26421490D01*
X67243768Y-26420443D01*
X67300711Y-26373711D01*
X67350697Y-26312803D01*
X67387840Y-26243314D01*
X67410712Y-26167914D01*
X67418435Y-26089500D01*
X67416500Y-26089500D01*
X67316500Y-25989500D01*
X66745000Y-25989500D01*
X66745000Y-26089500D01*
X66145000Y-26089500D01*
X66145000Y-25989500D01*
X65573500Y-25989500D01*
X65473500Y-26089500D01*
X65471565Y-26089500D01*
X65479288Y-26167914D01*
X65502160Y-26243314D01*
X65539303Y-26312803D01*
X65589289Y-26373711D01*
X65646232Y-26420443D01*
X65642779Y-26421490D01*
X65538545Y-26477204D01*
X65515642Y-26496000D01*
X65215358Y-26496000D01*
X65192455Y-26477204D01*
X65088221Y-26421490D01*
X65084768Y-26420443D01*
X65141711Y-26373711D01*
X65191697Y-26312803D01*
X65228840Y-26243314D01*
X65251712Y-26167914D01*
X65259435Y-26089500D01*
X65257500Y-26089500D01*
X65157500Y-25989500D01*
X64586000Y-25989500D01*
X64586000Y-26089500D01*
X63986000Y-26089500D01*
X63986000Y-25989500D01*
X63414500Y-25989500D01*
X63314500Y-26089500D01*
X63312565Y-26089500D01*
X63320288Y-26167914D01*
X63343160Y-26243314D01*
X63380303Y-26312803D01*
X63430289Y-26373711D01*
X63487232Y-26420443D01*
X63483779Y-26421490D01*
X63379545Y-26477204D01*
X63288183Y-26552183D01*
X63213204Y-26643545D01*
X63157490Y-26747779D01*
X63123182Y-26860879D01*
X63111597Y-26978500D01*
X63111597Y-27613500D01*
X63123182Y-27731121D01*
X63157490Y-27844221D01*
X63213204Y-27948455D01*
X63288183Y-28039817D01*
X63379545Y-28114796D01*
X63483779Y-28170510D01*
X63486001Y-28171184D01*
X63486001Y-28446239D01*
X63266059Y-28593199D01*
X63043199Y-28816059D01*
X62896239Y-29036000D01*
X60779684Y-29036000D01*
X60779010Y-29033779D01*
X60723296Y-28929545D01*
X60648317Y-28838183D01*
X60556955Y-28763204D01*
X60452721Y-28707490D01*
X60339621Y-28673182D01*
X60222000Y-28661597D01*
X59587000Y-28661597D01*
X59469379Y-28673182D01*
X59356279Y-28707490D01*
X59252045Y-28763204D01*
X59160683Y-28838183D01*
X59142500Y-28860339D01*
X59124317Y-28838183D01*
X59032955Y-28763204D01*
X58928721Y-28707490D01*
X58815621Y-28673182D01*
X58698000Y-28661597D01*
X58063000Y-28661597D01*
X57945379Y-28673182D01*
X57832279Y-28707490D01*
X57728045Y-28763204D01*
X57636683Y-28838183D01*
X57561704Y-28929545D01*
X57505990Y-29033779D01*
X57505316Y-29036000D01*
X56531761Y-29036000D01*
X56384801Y-28816059D01*
X56161941Y-28593199D01*
X55942000Y-28446239D01*
X55942000Y-28171184D01*
X55944221Y-28170510D01*
X56048455Y-28114796D01*
X56139817Y-28039817D01*
X56214796Y-27948455D01*
X56270510Y-27844221D01*
X56304818Y-27731121D01*
X56316403Y-27613500D01*
X56316403Y-26978500D01*
X56304818Y-26860879D01*
X56270510Y-26747779D01*
X56214796Y-26643545D01*
X56139817Y-26552183D01*
X56048455Y-26477204D01*
X55992847Y-26447481D01*
X58954783Y-26447481D01*
X59076845Y-26624259D01*
X59339031Y-26709762D01*
X59612860Y-26742472D01*
X59887809Y-26721132D01*
X60153312Y-26646562D01*
X60207155Y-26624259D01*
X60329217Y-26447481D01*
X59642000Y-25760264D01*
X58954783Y-26447481D01*
X55992847Y-26447481D01*
X55944221Y-26421490D01*
X55940768Y-26420443D01*
X55997711Y-26373711D01*
X56047697Y-26312803D01*
X56084840Y-26243314D01*
X56107712Y-26167914D01*
X56115435Y-26089500D01*
X56113500Y-26089500D01*
X56013500Y-25989500D01*
X55442000Y-25989500D01*
X55442000Y-26089500D01*
X54842000Y-26089500D01*
X54842000Y-25989500D01*
X54270500Y-25989500D01*
X54170500Y-26089500D01*
X54168565Y-26089500D01*
X54176288Y-26167914D01*
X54199160Y-26243314D01*
X54236303Y-26312803D01*
X54286289Y-26373711D01*
X54343232Y-26420443D01*
X54339779Y-26421490D01*
X54235545Y-26477204D01*
X54144183Y-26552183D01*
X54069204Y-26643545D01*
X54013490Y-26747779D01*
X53979182Y-26860879D01*
X53967597Y-26978500D01*
X53967597Y-27613500D01*
X53979182Y-27731121D01*
X54013490Y-27844221D01*
X54069204Y-27948455D01*
X54144183Y-28039817D01*
X54235545Y-28114796D01*
X54339779Y-28170510D01*
X54342000Y-28171184D01*
X54342000Y-28446239D01*
X54122059Y-28593199D01*
X53899199Y-28816059D01*
X53752239Y-29036000D01*
X52613584Y-29036000D01*
X52612910Y-29033779D01*
X52557196Y-28929545D01*
X52482217Y-28838183D01*
X52390855Y-28763204D01*
X52286621Y-28707490D01*
X52173521Y-28673182D01*
X52055900Y-28661597D01*
X51420900Y-28661597D01*
X51303279Y-28673182D01*
X51190179Y-28707490D01*
X51085945Y-28763204D01*
X50994583Y-28838183D01*
X50976400Y-28860339D01*
X50958217Y-28838183D01*
X50866855Y-28763204D01*
X50762621Y-28707490D01*
X50649521Y-28673182D01*
X50531900Y-28661597D01*
X49896900Y-28661597D01*
X49779279Y-28673182D01*
X49666179Y-28707490D01*
X49561945Y-28763204D01*
X49470583Y-28838183D01*
X49395604Y-28929545D01*
X49339890Y-29033779D01*
X49339216Y-29036000D01*
X47764643Y-29036000D01*
X47606720Y-28970586D01*
X47432842Y-28936000D01*
X47255558Y-28936000D01*
X47081680Y-28970586D01*
X46917890Y-29038430D01*
X46770483Y-29136924D01*
X46645124Y-29262283D01*
X46546630Y-29409690D01*
X46478786Y-29573480D01*
X46444200Y-29747358D01*
X42163929Y-29747358D01*
X40698673Y-28282103D01*
X40673622Y-28251578D01*
X40551806Y-28151607D01*
X40412828Y-28077321D01*
X40262027Y-28031576D01*
X40144493Y-28020000D01*
X40144491Y-28020000D01*
X40105200Y-28016130D01*
X40065909Y-28020000D01*
X35458171Y-28020000D01*
X34450273Y-27012103D01*
X34425222Y-26981578D01*
X34303406Y-26881607D01*
X34164428Y-26807321D01*
X34013627Y-26761576D01*
X33896093Y-26750000D01*
X33896091Y-26750000D01*
X33856800Y-26746130D01*
X33817509Y-26750000D01*
X32296043Y-26750000D01*
X32138120Y-26684586D01*
X31964242Y-26650000D01*
X31786958Y-26650000D01*
X31613080Y-26684586D01*
X31455157Y-26750000D01*
X28295370Y-26750000D01*
X26999870Y-25454500D01*
X54168565Y-25454500D01*
X54170500Y-25454500D01*
X54270500Y-25554500D01*
X54842000Y-25554500D01*
X54842000Y-25154500D01*
X55442000Y-25154500D01*
X55442000Y-25554500D01*
X56013500Y-25554500D01*
X56113500Y-25454500D01*
X56115435Y-25454500D01*
X56107712Y-25376086D01*
X56086713Y-25306860D01*
X58235528Y-25306860D01*
X58256868Y-25581809D01*
X58331438Y-25847312D01*
X58353741Y-25901155D01*
X58530519Y-26023217D01*
X59217736Y-25336000D01*
X60066264Y-25336000D01*
X60753481Y-26023217D01*
X60930259Y-25901155D01*
X61015762Y-25638969D01*
X61037797Y-25454500D01*
X63312565Y-25454500D01*
X63314500Y-25454500D01*
X63414500Y-25554500D01*
X63986000Y-25554500D01*
X63986000Y-25154500D01*
X64586000Y-25154500D01*
X64586000Y-25554500D01*
X65157500Y-25554500D01*
X65257500Y-25454500D01*
X65259435Y-25454500D01*
X65471565Y-25454500D01*
X65473500Y-25454500D01*
X65573500Y-25554500D01*
X66145000Y-25554500D01*
X66145000Y-25154500D01*
X66745000Y-25154500D01*
X66745000Y-25554500D01*
X67316500Y-25554500D01*
X67392825Y-25478175D01*
X67400868Y-25581809D01*
X67475438Y-25847312D01*
X67497741Y-25901155D01*
X67674519Y-26023217D01*
X68361736Y-25336000D01*
X69210264Y-25336000D01*
X69897481Y-26023217D01*
X70074259Y-25901155D01*
X70159762Y-25638969D01*
X70181797Y-25454500D01*
X72456565Y-25454500D01*
X72458500Y-25454500D01*
X72558500Y-25554500D01*
X73130000Y-25554500D01*
X73130000Y-25154500D01*
X73730000Y-25154500D01*
X73730000Y-25554500D01*
X74301500Y-25554500D01*
X74401500Y-25454500D01*
X74403435Y-25454500D01*
X74395712Y-25376086D01*
X74374713Y-25306860D01*
X76523528Y-25306860D01*
X76544868Y-25581809D01*
X76619438Y-25847312D01*
X76641741Y-25901155D01*
X76818519Y-26023217D01*
X77505736Y-25336000D01*
X78354264Y-25336000D01*
X79041481Y-26023217D01*
X79218259Y-25901155D01*
X79303762Y-25638969D01*
X79336472Y-25365140D01*
X79315132Y-25090191D01*
X79240562Y-24824688D01*
X79218259Y-24770845D01*
X79041481Y-24648783D01*
X78354264Y-25336000D01*
X77505736Y-25336000D01*
X76818519Y-24648783D01*
X76641741Y-24770845D01*
X76556238Y-25033031D01*
X76523528Y-25306860D01*
X74374713Y-25306860D01*
X74372840Y-25300686D01*
X74335697Y-25231197D01*
X74285711Y-25170289D01*
X74224803Y-25120303D01*
X74155314Y-25083160D01*
X74079914Y-25060288D01*
X74001500Y-25052565D01*
X73830000Y-25054500D01*
X73730000Y-25154500D01*
X73130000Y-25154500D01*
X73030000Y-25054500D01*
X72858500Y-25052565D01*
X72780086Y-25060288D01*
X72704686Y-25083160D01*
X72635197Y-25120303D01*
X72574289Y-25170289D01*
X72524303Y-25231197D01*
X72487160Y-25300686D01*
X72464288Y-25376086D01*
X72456565Y-25454500D01*
X70181797Y-25454500D01*
X70192472Y-25365140D01*
X70171132Y-25090191D01*
X70096562Y-24824688D01*
X70074259Y-24770845D01*
X69897481Y-24648783D01*
X69210264Y-25336000D01*
X68361736Y-25336000D01*
X67674519Y-24648783D01*
X67497741Y-24770845D01*
X67412238Y-25033031D01*
X67381649Y-25289104D01*
X67350697Y-25231197D01*
X67300711Y-25170289D01*
X67239803Y-25120303D01*
X67170314Y-25083160D01*
X67094914Y-25060288D01*
X67016500Y-25052565D01*
X66845000Y-25054500D01*
X66745000Y-25154500D01*
X66145000Y-25154500D01*
X66045000Y-25054500D01*
X65873500Y-25052565D01*
X65795086Y-25060288D01*
X65719686Y-25083160D01*
X65650197Y-25120303D01*
X65589289Y-25170289D01*
X65539303Y-25231197D01*
X65502160Y-25300686D01*
X65479288Y-25376086D01*
X65471565Y-25454500D01*
X65259435Y-25454500D01*
X65251712Y-25376086D01*
X65228840Y-25300686D01*
X65191697Y-25231197D01*
X65141711Y-25170289D01*
X65080803Y-25120303D01*
X65011314Y-25083160D01*
X64935914Y-25060288D01*
X64857500Y-25052565D01*
X64686000Y-25054500D01*
X64586000Y-25154500D01*
X63986000Y-25154500D01*
X63886000Y-25054500D01*
X63714500Y-25052565D01*
X63636086Y-25060288D01*
X63560686Y-25083160D01*
X63491197Y-25120303D01*
X63430289Y-25170289D01*
X63380303Y-25231197D01*
X63343160Y-25300686D01*
X63320288Y-25376086D01*
X63312565Y-25454500D01*
X61037797Y-25454500D01*
X61048472Y-25365140D01*
X61027132Y-25090191D01*
X60952562Y-24824688D01*
X60930259Y-24770845D01*
X60753481Y-24648783D01*
X60066264Y-25336000D01*
X59217736Y-25336000D01*
X58530519Y-24648783D01*
X58353741Y-24770845D01*
X58268238Y-25033031D01*
X58235528Y-25306860D01*
X56086713Y-25306860D01*
X56084840Y-25300686D01*
X56047697Y-25231197D01*
X55997711Y-25170289D01*
X55936803Y-25120303D01*
X55867314Y-25083160D01*
X55791914Y-25060288D01*
X55713500Y-25052565D01*
X55542000Y-25054500D01*
X55442000Y-25154500D01*
X54842000Y-25154500D01*
X54742000Y-25054500D01*
X54570500Y-25052565D01*
X54492086Y-25060288D01*
X54416686Y-25083160D01*
X54347197Y-25120303D01*
X54286289Y-25170289D01*
X54236303Y-25231197D01*
X54199160Y-25300686D01*
X54176288Y-25376086D01*
X54168565Y-25454500D01*
X26999870Y-25454500D01*
X26703273Y-25157903D01*
X26678222Y-25127378D01*
X26556406Y-25027407D01*
X26417428Y-24953121D01*
X26266627Y-24907376D01*
X26149093Y-24895800D01*
X26149091Y-24895800D01*
X26109800Y-24891930D01*
X26070509Y-24895800D01*
X24446000Y-24895800D01*
X24446000Y-24224519D01*
X58954783Y-24224519D01*
X59642000Y-24911736D01*
X60329217Y-24224519D01*
X68098783Y-24224519D01*
X68786000Y-24911736D01*
X69473217Y-24224519D01*
X77242783Y-24224519D01*
X77930000Y-24911736D01*
X78617217Y-24224519D01*
X78495155Y-24047741D01*
X78232969Y-23962238D01*
X77959140Y-23929528D01*
X77684191Y-23950868D01*
X77418688Y-24025438D01*
X77364845Y-24047741D01*
X77242783Y-24224519D01*
X69473217Y-24224519D01*
X69351155Y-24047741D01*
X69088969Y-23962238D01*
X68815140Y-23929528D01*
X68540191Y-23950868D01*
X68274688Y-24025438D01*
X68220845Y-24047741D01*
X68098783Y-24224519D01*
X60329217Y-24224519D01*
X60207155Y-24047741D01*
X59944969Y-23962238D01*
X59671140Y-23929528D01*
X59396191Y-23950868D01*
X59130688Y-24025438D01*
X59076845Y-24047741D01*
X58954783Y-24224519D01*
X24446000Y-24224519D01*
X24446000Y-18635770D01*
X27089387Y-15992384D01*
X27241443Y-15929400D01*
X39227709Y-15929400D01*
X39267000Y-15933270D01*
X39306291Y-15929400D01*
X39306293Y-15929400D01*
X39423827Y-15917824D01*
X39574628Y-15872079D01*
X39713606Y-15797793D01*
X39835422Y-15697822D01*
X39860473Y-15667297D01*
X50605972Y-4921799D01*
X51420069Y-4921799D01*
X51394000Y-5052856D01*
X51394000Y-5190744D01*
X51420901Y-5325982D01*
X51473668Y-5453374D01*
X51494000Y-5483804D01*
X51494001Y-6411600D01*
X49923873Y-6411600D01*
X49894399Y-6408697D01*
X49776778Y-6420282D01*
X49742470Y-6430689D01*
X49663679Y-6454590D01*
X49559445Y-6510304D01*
X49468083Y-6585283D01*
X49449294Y-6608178D01*
X47363912Y-8693561D01*
X47328018Y-8700701D01*
X47200626Y-8753468D01*
X47085976Y-8830074D01*
X46988474Y-8927576D01*
X46911868Y-9042226D01*
X46859101Y-9169618D01*
X46832200Y-9304856D01*
X46832200Y-9442744D01*
X46859101Y-9577982D01*
X46911868Y-9705374D01*
X46988474Y-9820024D01*
X47085976Y-9917526D01*
X47200626Y-9994132D01*
X47328018Y-10046899D01*
X47463256Y-10073800D01*
X47601144Y-10073800D01*
X47736382Y-10046899D01*
X47863774Y-9994132D01*
X47978424Y-9917526D01*
X48075926Y-9820024D01*
X48152532Y-9705374D01*
X48205299Y-9577982D01*
X48212439Y-9542088D01*
X50142928Y-7611600D01*
X52028926Y-7611600D01*
X52058400Y-7614503D01*
X52087874Y-7611600D01*
X55526797Y-7611600D01*
X55557226Y-7631932D01*
X55684618Y-7684699D01*
X55819856Y-7711600D01*
X55957744Y-7711600D01*
X56092982Y-7684699D01*
X56220374Y-7631932D01*
X56335024Y-7555326D01*
X56432526Y-7457824D01*
X56509132Y-7343174D01*
X56561899Y-7215782D01*
X56569039Y-7179888D01*
X58204928Y-5544000D01*
X66221873Y-5544000D01*
X66345873Y-5668000D01*
X59118282Y-5668000D01*
X59078999Y-5664131D01*
X59039716Y-5668000D01*
X59039707Y-5668000D01*
X58922173Y-5679576D01*
X58771372Y-5725321D01*
X58707810Y-5759296D01*
X58632393Y-5799607D01*
X58571820Y-5849318D01*
X58510578Y-5899578D01*
X58485531Y-5930098D01*
X56334630Y-8081000D01*
X53250891Y-8081000D01*
X53211600Y-8077130D01*
X53172309Y-8081000D01*
X53172307Y-8081000D01*
X53054773Y-8092576D01*
X52903972Y-8138321D01*
X52764993Y-8212607D01*
X52673699Y-8287530D01*
X52643178Y-8312578D01*
X52618131Y-8343098D01*
X46123830Y-14837400D01*
X41592443Y-14837400D01*
X41434520Y-14771986D01*
X41260642Y-14737400D01*
X41083358Y-14737400D01*
X40909480Y-14771986D01*
X40745690Y-14839830D01*
X40598283Y-14938324D01*
X40472924Y-15063683D01*
X40374430Y-15211090D01*
X40306586Y-15374880D01*
X40272000Y-15548758D01*
X40272000Y-15726042D01*
X40306586Y-15899920D01*
X40374430Y-16063710D01*
X40472924Y-16211117D01*
X40598283Y-16336476D01*
X40745690Y-16434970D01*
X40909480Y-16502814D01*
X41083358Y-16537400D01*
X41260642Y-16537400D01*
X41434520Y-16502814D01*
X41592443Y-16437400D01*
X46415909Y-16437400D01*
X46455200Y-16441270D01*
X46494491Y-16437400D01*
X46494493Y-16437400D01*
X46612027Y-16425824D01*
X46762828Y-16380079D01*
X46901806Y-16305793D01*
X47023622Y-16205822D01*
X47048673Y-16175297D01*
X48183470Y-15040500D01*
X56200565Y-15040500D01*
X56208288Y-15118914D01*
X56231160Y-15194314D01*
X56268303Y-15263803D01*
X56318289Y-15324711D01*
X56379197Y-15374697D01*
X56448686Y-15411840D01*
X56524086Y-15434712D01*
X56602500Y-15442435D01*
X56602500Y-15440500D01*
X56702500Y-15340500D01*
X56702500Y-14769000D01*
X56302500Y-14769000D01*
X56202500Y-14869000D01*
X56200565Y-15040500D01*
X48183470Y-15040500D01*
X49326470Y-13897500D01*
X56200565Y-13897500D01*
X56202500Y-14069000D01*
X56302500Y-14169000D01*
X56702500Y-14169000D01*
X56702500Y-13597500D01*
X57137500Y-13597500D01*
X57137500Y-14169000D01*
X57237500Y-14169000D01*
X57237500Y-14769000D01*
X57137500Y-14769000D01*
X57137500Y-15340500D01*
X57237500Y-15440500D01*
X57237500Y-15442435D01*
X57315914Y-15434712D01*
X57391314Y-15411840D01*
X57460803Y-15374697D01*
X57521711Y-15324711D01*
X57568443Y-15267768D01*
X57569490Y-15271221D01*
X57625204Y-15375455D01*
X57700183Y-15466817D01*
X57791545Y-15541796D01*
X57895779Y-15597510D01*
X58008879Y-15631818D01*
X58126500Y-15643403D01*
X58761500Y-15643403D01*
X58879121Y-15631818D01*
X58992221Y-15597510D01*
X59096455Y-15541796D01*
X59187817Y-15466817D01*
X59262796Y-15375455D01*
X59276348Y-15350102D01*
X59371358Y-15369000D01*
X59548642Y-15369000D01*
X59722520Y-15334414D01*
X59880443Y-15269000D01*
X61795630Y-15269000D01*
X62722530Y-16195901D01*
X62747577Y-16226421D01*
X62778097Y-16251468D01*
X62778098Y-16251469D01*
X62869392Y-16326392D01*
X62969833Y-16380079D01*
X63008371Y-16400678D01*
X63159172Y-16446423D01*
X63276706Y-16457999D01*
X63276708Y-16457999D01*
X63315999Y-16461869D01*
X63355290Y-16457999D01*
X68645710Y-16457999D01*
X68685001Y-16461869D01*
X68724292Y-16457999D01*
X68724294Y-16457999D01*
X68841828Y-16446423D01*
X68992629Y-16400678D01*
X69131607Y-16326392D01*
X69253423Y-16226421D01*
X69260202Y-16218161D01*
X69411310Y-16155570D01*
X69558717Y-16057076D01*
X69684076Y-15931717D01*
X69782570Y-15784310D01*
X69850414Y-15620520D01*
X69885000Y-15446642D01*
X69885000Y-15269358D01*
X69850414Y-15095480D01*
X69782570Y-14931690D01*
X69684076Y-14784283D01*
X69558717Y-14658924D01*
X69411310Y-14560430D01*
X69247520Y-14492586D01*
X69073642Y-14458000D01*
X68896358Y-14458000D01*
X68722480Y-14492586D01*
X68558690Y-14560430D01*
X68411283Y-14658924D01*
X68285924Y-14784283D01*
X68236669Y-14857999D01*
X63647370Y-14857999D01*
X62720473Y-13931103D01*
X62695422Y-13900578D01*
X62573606Y-13800607D01*
X62434628Y-13726321D01*
X62283827Y-13680576D01*
X62166293Y-13669000D01*
X62166291Y-13669000D01*
X62127000Y-13665130D01*
X62087709Y-13669000D01*
X59880443Y-13669000D01*
X59722520Y-13603586D01*
X59548642Y-13569000D01*
X59371358Y-13569000D01*
X59276348Y-13587898D01*
X59262796Y-13562545D01*
X59187817Y-13471183D01*
X59096455Y-13396204D01*
X58992221Y-13340490D01*
X58879121Y-13306182D01*
X58761500Y-13294597D01*
X58126500Y-13294597D01*
X58008879Y-13306182D01*
X57895779Y-13340490D01*
X57791545Y-13396204D01*
X57700183Y-13471183D01*
X57625204Y-13562545D01*
X57569490Y-13666779D01*
X57568443Y-13670232D01*
X57521711Y-13613289D01*
X57460803Y-13563303D01*
X57391314Y-13526160D01*
X57315914Y-13503288D01*
X57237500Y-13495565D01*
X57237500Y-13497500D01*
X57137500Y-13597500D01*
X56702500Y-13597500D01*
X56602500Y-13497500D01*
X56602500Y-13495565D01*
X56524086Y-13503288D01*
X56448686Y-13526160D01*
X56379197Y-13563303D01*
X56318289Y-13613289D01*
X56268303Y-13674197D01*
X56231160Y-13743686D01*
X56208288Y-13819086D01*
X56200565Y-13897500D01*
X49326470Y-13897500D01*
X53542971Y-9681000D01*
X56626709Y-9681000D01*
X56666000Y-9684870D01*
X56705291Y-9681000D01*
X56705293Y-9681000D01*
X56822827Y-9669424D01*
X56973628Y-9623679D01*
X57112606Y-9549393D01*
X57234422Y-9449422D01*
X57259473Y-9418897D01*
X59410371Y-7268000D01*
X66183026Y-7268000D01*
X69836000Y-10920975D01*
X69836001Y-14556700D01*
X69832130Y-14596000D01*
X69847577Y-14752827D01*
X69893321Y-14903627D01*
X69967607Y-15042606D01*
X70038837Y-15129400D01*
X70067579Y-15164422D01*
X70098098Y-15189468D01*
X72582530Y-17673901D01*
X72607578Y-17704422D01*
X72638098Y-17729469D01*
X72729393Y-17804393D01*
X72773333Y-17827879D01*
X72868372Y-17878679D01*
X73019173Y-17924424D01*
X73136707Y-17936000D01*
X73136716Y-17936000D01*
X73175999Y-17939869D01*
X73215282Y-17936000D01*
X75676709Y-17936000D01*
X75716000Y-17939870D01*
X75755291Y-17936000D01*
X79575630Y-17936000D01*
X84647530Y-23007901D01*
X84672578Y-23038422D01*
X84703098Y-23063469D01*
X84794393Y-23138393D01*
X84896007Y-23192707D01*
X84933372Y-23212679D01*
X85084173Y-23258424D01*
X85201707Y-23270000D01*
X85201708Y-23270000D01*
X85240999Y-23273870D01*
X85280290Y-23270000D01*
X90370630Y-23270000D01*
X90664001Y-23563371D01*
X90664000Y-24589556D01*
X90598586Y-24747480D01*
X90564000Y-24921358D01*
X90564000Y-25098642D01*
X90598586Y-25272520D01*
X90666430Y-25436310D01*
X90764924Y-25583717D01*
X90890283Y-25709076D01*
X91037690Y-25807570D01*
X91201480Y-25875414D01*
X91375358Y-25910000D01*
X91552642Y-25910000D01*
X91726520Y-25875414D01*
X91890310Y-25807570D01*
X92037717Y-25709076D01*
X92163076Y-25583717D01*
X92261570Y-25436310D01*
X92329414Y-25272520D01*
X92364000Y-25098642D01*
X92364000Y-24921358D01*
X92329414Y-24747480D01*
X92264000Y-24589557D01*
X92264000Y-23271291D01*
X92267870Y-23232000D01*
X92262588Y-23178373D01*
X92252424Y-23075173D01*
X92206679Y-22924372D01*
X92202528Y-22916606D01*
X92132393Y-22785393D01*
X92092869Y-22737233D01*
X92032422Y-22663578D01*
X92001897Y-22638527D01*
X91295473Y-21932103D01*
X91270422Y-21901578D01*
X91148606Y-21801607D01*
X91009628Y-21727321D01*
X90858827Y-21681576D01*
X90741293Y-21670000D01*
X90741291Y-21670000D01*
X90702000Y-21666130D01*
X90662709Y-21670000D01*
X85572371Y-21670000D01*
X80500473Y-16598103D01*
X80475422Y-16567578D01*
X80353606Y-16467607D01*
X80214628Y-16393321D01*
X80063827Y-16347576D01*
X79946293Y-16336000D01*
X79946291Y-16336000D01*
X79907000Y-16332130D01*
X79867709Y-16336000D01*
X76566800Y-16336000D01*
X76566800Y-5135691D01*
X76570670Y-5096400D01*
X76561587Y-5004179D01*
X76555224Y-4939573D01*
X76509479Y-4788772D01*
X76469127Y-4713279D01*
X76435193Y-4649793D01*
X76360269Y-4558498D01*
X76335222Y-4527978D01*
X76304704Y-4502933D01*
X73556384Y-1754614D01*
X73490970Y-1596690D01*
X73392476Y-1449283D01*
X73267117Y-1323924D01*
X73119710Y-1225430D01*
X72955920Y-1157586D01*
X72782042Y-1123000D01*
X72604758Y-1123000D01*
X72430880Y-1157586D01*
X72267090Y-1225430D01*
X72119683Y-1323924D01*
X71994324Y-1449283D01*
X71927966Y-1548595D01*
X70864472Y-485102D01*
X70856182Y-475000D01*
X84314968Y-475000D01*
X84270265Y-541903D01*
X84176037Y-769389D01*
X84128000Y-1010886D01*
X84128000Y-1257114D01*
X84176037Y-1498611D01*
X84270265Y-1726097D01*
X84407062Y-1930828D01*
X84581172Y-2104938D01*
X84785903Y-2241735D01*
X85013389Y-2335963D01*
X85254886Y-2384000D01*
X85501114Y-2384000D01*
X85742611Y-2335963D01*
X85970097Y-2241735D01*
X86174828Y-2104938D01*
X86348938Y-1930828D01*
X86485735Y-1726097D01*
X86579963Y-1498611D01*
X86628000Y-1257114D01*
X86628000Y-1010886D01*
X86579963Y-769389D01*
X86485735Y-541903D01*
X86441032Y-475000D01*
X86854968Y-475000D01*
X86810265Y-541903D01*
X86716037Y-769389D01*
X86668000Y-1010886D01*
X86668000Y-1257114D01*
X86716037Y-1498611D01*
X86810265Y-1726097D01*
X86947062Y-1930828D01*
X87121172Y-2104938D01*
X87325903Y-2241735D01*
X87553389Y-2335963D01*
X87794886Y-2384000D01*
X88041114Y-2384000D01*
X88282611Y-2335963D01*
X88510097Y-2241735D01*
X88714828Y-2104938D01*
X88835766Y-1984000D01*
X89206065Y-1984000D01*
X89213788Y-2062414D01*
X89236660Y-2137814D01*
X89273803Y-2207303D01*
X89323789Y-2268211D01*
X89384697Y-2318197D01*
X89454186Y-2355340D01*
X89529586Y-2378212D01*
X89608000Y-2385935D01*
X90058000Y-2384000D01*
X90158000Y-2284000D01*
X90158000Y-1434000D01*
X90758000Y-1434000D01*
X90758000Y-2284000D01*
X90858000Y-2384000D01*
X91308000Y-2385935D01*
X91386414Y-2378212D01*
X91461814Y-2355340D01*
X91531303Y-2318197D01*
X91592211Y-2268211D01*
X91642197Y-2207303D01*
X91679340Y-2137814D01*
X91702212Y-2062414D01*
X91709935Y-1984000D01*
X91708000Y-1534000D01*
X91608000Y-1434000D01*
X90758000Y-1434000D01*
X90158000Y-1434000D01*
X89308000Y-1434000D01*
X89208000Y-1534000D01*
X89206065Y-1984000D01*
X88835766Y-1984000D01*
X88888938Y-1930828D01*
X89025735Y-1726097D01*
X89119963Y-1498611D01*
X89168000Y-1257114D01*
X89168000Y-1010886D01*
X89119963Y-769389D01*
X89025735Y-541903D01*
X88981032Y-475000D01*
X89206886Y-475000D01*
X89208000Y-734000D01*
X89308000Y-834000D01*
X90158000Y-834000D01*
X90158000Y-814000D01*
X90758000Y-814000D01*
X90758000Y-834000D01*
X91608000Y-834000D01*
X91708000Y-734000D01*
X91709114Y-475000D01*
X99525000Y-475000D01*
X99525001Y-49425000D01*
X70475000Y-49425000D01*
X70475000Y-48023332D01*
X70477298Y-48000000D01*
X70468127Y-47906884D01*
X70440966Y-47817346D01*
X70396859Y-47734827D01*
X70382432Y-47717248D01*
X70394212Y-47678414D01*
X70401935Y-47600000D01*
X70400000Y-45400000D01*
X70300000Y-45300000D01*
X68100000Y-45300000D01*
X68100000Y-45320000D01*
X67500000Y-45320000D01*
X67500000Y-45300000D01*
X67480000Y-45300000D01*
X67480000Y-44700000D01*
X67500000Y-44700000D01*
X67500000Y-42100000D01*
X68100000Y-42100000D01*
X68100000Y-44700000D01*
X70300000Y-44700000D01*
X70400000Y-44600000D01*
X70401935Y-42400000D01*
X70394212Y-42321586D01*
X70371340Y-42246186D01*
X70334197Y-42176697D01*
X70284211Y-42115789D01*
X70223303Y-42065803D01*
X70153814Y-42028660D01*
X70078414Y-42005788D01*
X70000000Y-41998065D01*
X68200000Y-42000000D01*
X68100000Y-42100000D01*
X67500000Y-42100000D01*
X67400000Y-42000000D01*
X65600000Y-41998065D01*
X65521586Y-42005788D01*
X65446186Y-42028660D01*
X65376697Y-42065803D01*
X65324568Y-42108584D01*
X65301296Y-42065045D01*
X65226317Y-41973683D01*
X65134955Y-41898704D01*
X65030721Y-41842990D01*
X64917621Y-41808682D01*
X64800000Y-41797097D01*
X63200000Y-41797097D01*
X63082379Y-41808682D01*
X62969279Y-41842990D01*
X62865045Y-41898704D01*
X62773683Y-41973683D01*
X62698704Y-42065045D01*
X62675432Y-42108584D01*
X62623303Y-42065803D01*
X62553814Y-42028660D01*
X62478414Y-42005788D01*
X62400000Y-41998065D01*
X60600000Y-42000000D01*
X60500000Y-42100000D01*
X60500000Y-44700000D01*
X60520000Y-44700000D01*
X60520000Y-45300000D01*
X60500000Y-45300000D01*
X60500000Y-45320000D01*
X59900000Y-45320000D01*
X59900000Y-45300000D01*
X57700000Y-45300000D01*
X57600000Y-45400000D01*
X57598065Y-47600000D01*
X57605788Y-47678414D01*
X57617568Y-47717248D01*
X57603141Y-47734827D01*
X57559034Y-47817346D01*
X57531873Y-47906884D01*
X57522702Y-48000000D01*
X57525001Y-48023342D01*
X57525000Y-49425000D01*
X38475000Y-49425000D01*
X38475000Y-48023332D01*
X38477298Y-48000000D01*
X38468127Y-47906884D01*
X38440966Y-47817346D01*
X38396859Y-47734827D01*
X38382432Y-47717248D01*
X38394212Y-47678414D01*
X38401935Y-47600000D01*
X38400000Y-45400000D01*
X38300000Y-45300000D01*
X36100000Y-45300000D01*
X36100000Y-45320000D01*
X35500000Y-45320000D01*
X35500000Y-45300000D01*
X35480000Y-45300000D01*
X35480000Y-44700000D01*
X35500000Y-44700000D01*
X35500000Y-42100000D01*
X36100000Y-42100000D01*
X36100000Y-44700000D01*
X38300000Y-44700000D01*
X38400000Y-44600000D01*
X38401935Y-42400000D01*
X57598065Y-42400000D01*
X57600000Y-44600000D01*
X57700000Y-44700000D01*
X59900000Y-44700000D01*
X59900000Y-42100000D01*
X59800000Y-42000000D01*
X58000000Y-41998065D01*
X57921586Y-42005788D01*
X57846186Y-42028660D01*
X57776697Y-42065803D01*
X57715789Y-42115789D01*
X57665803Y-42176697D01*
X57628660Y-42246186D01*
X57605788Y-42321586D01*
X57598065Y-42400000D01*
X38401935Y-42400000D01*
X38394212Y-42321586D01*
X38371340Y-42246186D01*
X38334197Y-42176697D01*
X38284211Y-42115789D01*
X38223303Y-42065803D01*
X38153814Y-42028660D01*
X38078414Y-42005788D01*
X38000000Y-41998065D01*
X36200000Y-42000000D01*
X36100000Y-42100000D01*
X35500000Y-42100000D01*
X35400000Y-42000000D01*
X33600000Y-41998065D01*
X33521586Y-42005788D01*
X33446186Y-42028660D01*
X33376697Y-42065803D01*
X33324568Y-42108584D01*
X33301296Y-42065045D01*
X33226317Y-41973683D01*
X33134955Y-41898704D01*
X33030721Y-41842990D01*
X32917621Y-41808682D01*
X32828000Y-41799855D01*
X32828000Y-41442684D01*
X32830221Y-41442010D01*
X32934455Y-41386296D01*
X33025817Y-41311317D01*
X33100796Y-41219955D01*
X33156510Y-41115721D01*
X33190818Y-41002621D01*
X33202403Y-40885000D01*
X33202403Y-40250000D01*
X33190818Y-40132379D01*
X33156510Y-40019279D01*
X33100796Y-39915045D01*
X33087218Y-39898500D01*
X34075739Y-39898500D01*
X34222699Y-40118441D01*
X34445559Y-40341301D01*
X34707616Y-40516402D01*
X34998797Y-40637013D01*
X35307914Y-40698500D01*
X35623086Y-40698500D01*
X35932203Y-40637013D01*
X36223384Y-40516402D01*
X36485441Y-40341301D01*
X36708301Y-40118441D01*
X36883402Y-39856384D01*
X37004013Y-39565203D01*
X37065500Y-39256086D01*
X37065500Y-38940914D01*
X37004013Y-38631797D01*
X36883402Y-38340616D01*
X36708301Y-38078559D01*
X36485441Y-37855699D01*
X36223384Y-37680598D01*
X35932203Y-37559987D01*
X35623086Y-37498500D01*
X35307914Y-37498500D01*
X34998797Y-37559987D01*
X34707616Y-37680598D01*
X34445559Y-37855699D01*
X34222699Y-38078559D01*
X34075739Y-38298500D01*
X33024376Y-38298500D01*
X32934455Y-38224704D01*
X32830221Y-38168990D01*
X32828000Y-38168316D01*
X32828000Y-37886684D01*
X32830221Y-37886010D01*
X32934455Y-37830296D01*
X33025817Y-37755317D01*
X33100796Y-37663955D01*
X33156510Y-37559721D01*
X33190818Y-37446621D01*
X33202403Y-37329000D01*
X33202403Y-36694000D01*
X33190818Y-36576379D01*
X33182665Y-36549500D01*
X34884781Y-36549500D01*
X35136632Y-36906289D01*
X35180789Y-36958711D01*
X35241697Y-37008697D01*
X35311186Y-37045840D01*
X35386586Y-37068712D01*
X35465000Y-37076435D01*
X35665000Y-37076435D01*
X35665000Y-36549500D01*
X36265000Y-36549500D01*
X36265000Y-37076435D01*
X36465000Y-37076435D01*
X36533292Y-37070591D01*
X36609253Y-37049657D01*
X36679671Y-37014306D01*
X36741839Y-36965897D01*
X36793368Y-36906289D01*
X37045219Y-36549500D01*
X36265000Y-36549500D01*
X35665000Y-36549500D01*
X34884781Y-36549500D01*
X33182665Y-36549500D01*
X33156510Y-36463279D01*
X33100796Y-36359045D01*
X33025817Y-36267683D01*
X33003661Y-36249500D01*
X33025817Y-36231317D01*
X33100796Y-36139955D01*
X33156510Y-36035721D01*
X33190818Y-35922621D01*
X33199349Y-35836000D01*
X34463065Y-35836000D01*
X34470788Y-35914414D01*
X34493660Y-35989814D01*
X34530803Y-36059303D01*
X34580789Y-36120211D01*
X34641697Y-36170197D01*
X34711186Y-36207340D01*
X34786586Y-36230212D01*
X34865000Y-36237935D01*
X35565000Y-36236000D01*
X35665000Y-36136000D01*
X35665000Y-35216000D01*
X36265000Y-35216000D01*
X36265000Y-36136000D01*
X36365000Y-36236000D01*
X37065000Y-36237935D01*
X37143414Y-36230212D01*
X37218814Y-36207340D01*
X37288303Y-36170197D01*
X37349211Y-36120211D01*
X37399197Y-36059303D01*
X37436340Y-35989814D01*
X37459212Y-35914414D01*
X37466935Y-35836000D01*
X37466894Y-35824919D01*
X37466935Y-35824500D01*
X37466891Y-35824048D01*
X37466467Y-35709981D01*
X39278283Y-35709981D01*
X39400345Y-35886759D01*
X39662531Y-35972262D01*
X39936360Y-36004972D01*
X40211309Y-35983632D01*
X40476812Y-35909062D01*
X40530655Y-35886759D01*
X40652717Y-35709981D01*
X39965500Y-35022764D01*
X39278283Y-35709981D01*
X37466467Y-35709981D01*
X37465000Y-35316000D01*
X37365000Y-35216000D01*
X36265000Y-35216000D01*
X35665000Y-35216000D01*
X34565000Y-35216000D01*
X34465000Y-35316000D01*
X34463065Y-35836000D01*
X33199349Y-35836000D01*
X33202403Y-35805000D01*
X33202403Y-35170000D01*
X33190818Y-35052379D01*
X33156510Y-34939279D01*
X33100796Y-34835045D01*
X33025817Y-34743683D01*
X32934455Y-34668704D01*
X32830221Y-34612990D01*
X32828000Y-34612316D01*
X32828000Y-34330684D01*
X32830221Y-34330010D01*
X32934455Y-34274296D01*
X33025817Y-34199317D01*
X33100796Y-34107955D01*
X33156510Y-34003721D01*
X33158852Y-33996000D01*
X34463065Y-33996000D01*
X34463102Y-34005925D01*
X34463065Y-34006300D01*
X34463105Y-34006704D01*
X34465000Y-34516000D01*
X34565000Y-34616000D01*
X35665000Y-34616000D01*
X35665000Y-33696000D01*
X36265000Y-33696000D01*
X36265000Y-34616000D01*
X37365000Y-34616000D01*
X37411640Y-34569360D01*
X38559028Y-34569360D01*
X38580368Y-34844309D01*
X38654938Y-35109812D01*
X38677241Y-35163655D01*
X38854019Y-35285717D01*
X39541236Y-34598500D01*
X40389764Y-34598500D01*
X41076981Y-35285717D01*
X41253759Y-35163655D01*
X41339262Y-34901469D01*
X41371972Y-34627640D01*
X41350632Y-34352691D01*
X41276062Y-34087188D01*
X41253759Y-34033345D01*
X41076981Y-33911283D01*
X40389764Y-34598500D01*
X39541236Y-34598500D01*
X38854019Y-33911283D01*
X38677241Y-34033345D01*
X38591738Y-34295531D01*
X38559028Y-34569360D01*
X37411640Y-34569360D01*
X37465000Y-34516000D01*
X37466935Y-33996000D01*
X37459212Y-33917586D01*
X37436340Y-33842186D01*
X37399197Y-33772697D01*
X37349211Y-33711789D01*
X37288303Y-33661803D01*
X37218814Y-33624660D01*
X37143414Y-33601788D01*
X37065000Y-33594065D01*
X36365000Y-33596000D01*
X36265000Y-33696000D01*
X35665000Y-33696000D01*
X35565000Y-33596000D01*
X34865000Y-33594065D01*
X34786586Y-33601788D01*
X34711186Y-33624660D01*
X34641697Y-33661803D01*
X34580789Y-33711789D01*
X34530803Y-33772697D01*
X34493660Y-33842186D01*
X34470788Y-33917586D01*
X34463065Y-33996000D01*
X33158852Y-33996000D01*
X33190818Y-33890621D01*
X33202403Y-33773000D01*
X33202403Y-33138000D01*
X33190818Y-33020379D01*
X33156510Y-32907279D01*
X33100796Y-32803045D01*
X33042080Y-32731500D01*
X33362097Y-32731500D01*
X33362097Y-32852500D01*
X33373682Y-32970121D01*
X33407990Y-33083221D01*
X33463704Y-33187455D01*
X33538683Y-33278817D01*
X33630045Y-33353796D01*
X33734279Y-33409510D01*
X33847379Y-33443818D01*
X33965000Y-33455403D01*
X34965000Y-33455403D01*
X35082621Y-33443818D01*
X35168191Y-33417861D01*
X35180789Y-33433211D01*
X35241697Y-33483197D01*
X35311186Y-33520340D01*
X35386586Y-33543212D01*
X35465000Y-33550935D01*
X35565000Y-33549000D01*
X35665000Y-33449000D01*
X35665000Y-32549000D01*
X35645000Y-32549000D01*
X35645000Y-31949000D01*
X35665000Y-31949000D01*
X35665000Y-31049000D01*
X36265000Y-31049000D01*
X36265000Y-31949000D01*
X36285000Y-31949000D01*
X36285000Y-32549000D01*
X36265000Y-32549000D01*
X36265000Y-33449000D01*
X36365000Y-33549000D01*
X36465000Y-33550935D01*
X36543414Y-33543212D01*
X36618814Y-33520340D01*
X36681152Y-33487019D01*
X39278283Y-33487019D01*
X39965500Y-34174236D01*
X40652717Y-33487019D01*
X40530655Y-33310241D01*
X40268469Y-33224738D01*
X39994640Y-33192028D01*
X39719691Y-33213368D01*
X39454188Y-33287938D01*
X39400345Y-33310241D01*
X39278283Y-33487019D01*
X36681152Y-33487019D01*
X36688303Y-33483197D01*
X36749211Y-33433211D01*
X36761809Y-33417861D01*
X36847379Y-33443818D01*
X36965000Y-33455403D01*
X37965000Y-33455403D01*
X38082621Y-33443818D01*
X38195721Y-33409510D01*
X38299955Y-33353796D01*
X38391317Y-33278817D01*
X38466296Y-33187455D01*
X38522010Y-33083221D01*
X38556318Y-32970121D01*
X38567903Y-32852500D01*
X38567903Y-32808595D01*
X38683058Y-32831500D01*
X38860342Y-32831500D01*
X39034220Y-32796914D01*
X39198010Y-32729070D01*
X39345417Y-32630576D01*
X39470776Y-32505217D01*
X39569270Y-32357810D01*
X39637114Y-32194020D01*
X39671700Y-32020142D01*
X39671700Y-31842858D01*
X39637114Y-31668980D01*
X39569270Y-31505190D01*
X39470776Y-31357783D01*
X39345417Y-31232424D01*
X39198010Y-31133930D01*
X39034220Y-31066086D01*
X38860342Y-31031500D01*
X38683058Y-31031500D01*
X38509180Y-31066086D01*
X38495312Y-31071830D01*
X38466296Y-31017545D01*
X38391317Y-30926183D01*
X38299955Y-30851204D01*
X38195721Y-30795490D01*
X38082621Y-30761182D01*
X37965000Y-30749597D01*
X36965000Y-30749597D01*
X36847379Y-30761182D01*
X36734279Y-30795490D01*
X36630045Y-30851204D01*
X36538683Y-30926183D01*
X36517317Y-30952218D01*
X36465000Y-30947065D01*
X36365000Y-30949000D01*
X36265000Y-31049000D01*
X35665000Y-31049000D01*
X35565000Y-30949000D01*
X35465000Y-30947065D01*
X35412683Y-30952218D01*
X35391317Y-30926183D01*
X35299955Y-30851204D01*
X35195721Y-30795490D01*
X35082621Y-30761182D01*
X34965000Y-30749597D01*
X33965000Y-30749597D01*
X33847379Y-30761182D01*
X33734279Y-30795490D01*
X33630045Y-30851204D01*
X33538683Y-30926183D01*
X33463704Y-31017545D01*
X33407990Y-31121779D01*
X33405041Y-31131500D01*
X32957358Y-31131500D01*
X32934455Y-31112704D01*
X32830221Y-31056990D01*
X32717121Y-31022682D01*
X32599500Y-31011097D01*
X31456500Y-31011097D01*
X31338879Y-31022682D01*
X31225779Y-31056990D01*
X31121545Y-31112704D01*
X31030183Y-31187683D01*
X30955204Y-31279045D01*
X30899490Y-31383279D01*
X30865182Y-31496379D01*
X30853597Y-31614000D01*
X30853597Y-32249000D01*
X30865182Y-32366621D01*
X30899490Y-32479721D01*
X30955204Y-32583955D01*
X31030183Y-32675317D01*
X31052339Y-32693500D01*
X31030183Y-32711683D01*
X30955204Y-32803045D01*
X30899490Y-32907279D01*
X30865182Y-33020379D01*
X30853597Y-33138000D01*
X30853597Y-33773000D01*
X30865182Y-33890621D01*
X30899490Y-34003721D01*
X30955204Y-34107955D01*
X31030183Y-34199317D01*
X31121545Y-34274296D01*
X31225779Y-34330010D01*
X31228001Y-34330684D01*
X31228000Y-34612316D01*
X31225779Y-34612990D01*
X31121545Y-34668704D01*
X31098642Y-34687500D01*
X30112940Y-34687500D01*
X29960301Y-34459059D01*
X29737441Y-34236199D01*
X29517500Y-34089239D01*
X29517500Y-33793799D01*
X29568955Y-33766296D01*
X29660317Y-33691317D01*
X29735296Y-33599955D01*
X29791010Y-33495721D01*
X29825318Y-33382621D01*
X29836903Y-33265000D01*
X29836903Y-32630000D01*
X29825318Y-32512379D01*
X29791010Y-32399279D01*
X29735296Y-32295045D01*
X29660317Y-32203683D01*
X29568955Y-32128704D01*
X29464721Y-32072990D01*
X29461268Y-32071943D01*
X29518211Y-32025211D01*
X29568197Y-31964303D01*
X29605340Y-31894814D01*
X29628212Y-31819414D01*
X29635935Y-31741000D01*
X29634000Y-31741000D01*
X29534000Y-31641000D01*
X28962500Y-31641000D01*
X28962500Y-31741000D01*
X28362500Y-31741000D01*
X28362500Y-31641000D01*
X27791000Y-31641000D01*
X27691000Y-31741000D01*
X27689065Y-31741000D01*
X27696788Y-31819414D01*
X27719660Y-31894814D01*
X27756803Y-31964303D01*
X27806789Y-32025211D01*
X27863732Y-32071943D01*
X27860279Y-32072990D01*
X27756045Y-32128704D01*
X27664683Y-32203683D01*
X27589704Y-32295045D01*
X27533990Y-32399279D01*
X27499682Y-32512379D01*
X27488097Y-32630000D01*
X27488097Y-33265000D01*
X27499682Y-33382621D01*
X27533990Y-33495721D01*
X27589704Y-33599955D01*
X27664683Y-33691317D01*
X27756045Y-33766296D01*
X27860279Y-33822010D01*
X27917501Y-33839368D01*
X27917501Y-34089239D01*
X27697559Y-34236199D01*
X27474699Y-34459059D01*
X27299598Y-34721116D01*
X27178987Y-35012297D01*
X27117500Y-35321414D01*
X27117500Y-35636586D01*
X27178987Y-35945703D01*
X27299598Y-36236884D01*
X27474699Y-36498941D01*
X27697559Y-36721801D01*
X27959616Y-36896902D01*
X28250797Y-37017513D01*
X28559914Y-37079000D01*
X28875086Y-37079000D01*
X29184203Y-37017513D01*
X29475384Y-36896902D01*
X29737441Y-36721801D01*
X29960301Y-36498941D01*
X30101581Y-36287500D01*
X31013920Y-36287500D01*
X30955204Y-36359045D01*
X30899490Y-36463279D01*
X30865182Y-36576379D01*
X30853597Y-36694000D01*
X30853597Y-37329000D01*
X30865182Y-37446621D01*
X30899490Y-37559721D01*
X30955204Y-37663955D01*
X31030183Y-37755317D01*
X31121545Y-37830296D01*
X31225779Y-37886010D01*
X31228001Y-37886684D01*
X31228000Y-38168316D01*
X31225779Y-38168990D01*
X31121545Y-38224704D01*
X31098642Y-38243500D01*
X30299684Y-38243500D01*
X30299010Y-38241279D01*
X30243296Y-38137045D01*
X30168317Y-38045683D01*
X30076955Y-37970704D01*
X29972721Y-37914990D01*
X29859621Y-37880682D01*
X29742000Y-37869097D01*
X29107000Y-37869097D01*
X28989379Y-37880682D01*
X28876279Y-37914990D01*
X28772045Y-37970704D01*
X28680683Y-38045683D01*
X28605704Y-38137045D01*
X28549990Y-38241279D01*
X28548943Y-38244732D01*
X28502211Y-38187789D01*
X28441303Y-38137803D01*
X28371814Y-38100660D01*
X28296414Y-38077788D01*
X28218000Y-38070065D01*
X28218000Y-38072000D01*
X28118000Y-38172000D01*
X28118000Y-38743500D01*
X28218000Y-38743500D01*
X28218000Y-39343500D01*
X28118000Y-39343500D01*
X28118000Y-39915000D01*
X28218000Y-40015000D01*
X28218000Y-40016935D01*
X28296414Y-40009212D01*
X28371814Y-39986340D01*
X28441303Y-39949197D01*
X28502211Y-39899211D01*
X28548943Y-39842268D01*
X28549990Y-39845721D01*
X28605704Y-39949955D01*
X28680683Y-40041317D01*
X28772045Y-40116296D01*
X28876279Y-40172010D01*
X28989379Y-40206318D01*
X29107000Y-40217903D01*
X29742000Y-40217903D01*
X29859621Y-40206318D01*
X29972721Y-40172010D01*
X30076955Y-40116296D01*
X30168317Y-40041317D01*
X30243296Y-39949955D01*
X30299010Y-39845721D01*
X30299684Y-39843500D01*
X31013920Y-39843500D01*
X30955204Y-39915045D01*
X30899490Y-40019279D01*
X30865182Y-40132379D01*
X30853597Y-40250000D01*
X30853597Y-40885000D01*
X30865182Y-41002621D01*
X30899490Y-41115721D01*
X30955204Y-41219955D01*
X31030183Y-41311317D01*
X31121545Y-41386296D01*
X31225779Y-41442010D01*
X31228001Y-41442684D01*
X31228001Y-41797097D01*
X31200000Y-41797097D01*
X31082379Y-41808682D01*
X30969279Y-41842990D01*
X30865045Y-41898704D01*
X30773683Y-41973683D01*
X30698704Y-42065045D01*
X30675432Y-42108584D01*
X30623303Y-42065803D01*
X30553814Y-42028660D01*
X30478414Y-42005788D01*
X30400000Y-41998065D01*
X28600000Y-42000000D01*
X28500000Y-42100000D01*
X28500000Y-44700000D01*
X28520000Y-44700000D01*
X28520000Y-45300000D01*
X28500000Y-45300000D01*
X28500000Y-45320000D01*
X27900000Y-45320000D01*
X27900000Y-45300000D01*
X25700000Y-45300000D01*
X25600000Y-45400000D01*
X25598065Y-47600000D01*
X25605788Y-47678414D01*
X25617568Y-47717248D01*
X25603141Y-47734827D01*
X25559034Y-47817346D01*
X25531873Y-47906884D01*
X25522702Y-48000000D01*
X25525001Y-48023342D01*
X25525000Y-49425000D01*
X475000Y-49425000D01*
X475000Y-47392414D01*
X6150000Y-47392414D01*
X6150000Y-47707586D01*
X6211487Y-48016703D01*
X6332098Y-48307884D01*
X6507199Y-48569941D01*
X6730059Y-48792801D01*
X6992116Y-48967902D01*
X7283297Y-49088513D01*
X7592414Y-49150000D01*
X7907586Y-49150000D01*
X8216703Y-49088513D01*
X8507884Y-48967902D01*
X8769941Y-48792801D01*
X8992801Y-48569941D01*
X9167902Y-48307884D01*
X9288513Y-48016703D01*
X9350000Y-47707586D01*
X9350000Y-47392414D01*
X9349217Y-47388474D01*
X14610000Y-47388474D01*
X14610000Y-47711526D01*
X14673025Y-48028370D01*
X14796651Y-48326831D01*
X14976129Y-48595439D01*
X15204561Y-48823871D01*
X15473169Y-49003349D01*
X15771630Y-49126975D01*
X16088474Y-49190000D01*
X16411526Y-49190000D01*
X16728370Y-49126975D01*
X17026831Y-49003349D01*
X17295439Y-48823871D01*
X17523871Y-48595439D01*
X17703349Y-48326831D01*
X17826975Y-48028370D01*
X17890000Y-47711526D01*
X17890000Y-47388474D01*
X17826975Y-47071630D01*
X17703349Y-46773169D01*
X17523871Y-46504561D01*
X17295439Y-46276129D01*
X17026831Y-46096651D01*
X16728370Y-45973025D01*
X16411526Y-45910000D01*
X16088474Y-45910000D01*
X15771630Y-45973025D01*
X15473169Y-46096651D01*
X15204561Y-46276129D01*
X14976129Y-46504561D01*
X14796651Y-46773169D01*
X14673025Y-47071630D01*
X14610000Y-47388474D01*
X9349217Y-47388474D01*
X9288513Y-47083297D01*
X9167902Y-46792116D01*
X8992801Y-46530059D01*
X8769941Y-46307199D01*
X8507884Y-46132098D01*
X8216703Y-46011487D01*
X7907586Y-45950000D01*
X7592414Y-45950000D01*
X7283297Y-46011487D01*
X6992116Y-46132098D01*
X6730059Y-46307199D01*
X6507199Y-46530059D01*
X6332098Y-46792116D01*
X6211487Y-47083297D01*
X6150000Y-47392414D01*
X475000Y-47392414D01*
X475000Y-44134073D01*
X9300000Y-44134073D01*
X9300000Y-44665927D01*
X9403760Y-45187561D01*
X9607291Y-45678930D01*
X9902773Y-46121150D01*
X10278850Y-46497227D01*
X10721070Y-46792709D01*
X11212439Y-46996240D01*
X11734073Y-47100000D01*
X12265927Y-47100000D01*
X12787561Y-46996240D01*
X13278930Y-46792709D01*
X13721150Y-46497227D01*
X14097227Y-46121150D01*
X14392709Y-45678930D01*
X14596240Y-45187561D01*
X14700000Y-44665927D01*
X14700000Y-44134073D01*
X14596240Y-43612439D01*
X14392709Y-43121070D01*
X14097227Y-42678850D01*
X13818377Y-42400000D01*
X25598065Y-42400000D01*
X25600000Y-44600000D01*
X25700000Y-44700000D01*
X27900000Y-44700000D01*
X27900000Y-42100000D01*
X27800000Y-42000000D01*
X26000000Y-41998065D01*
X25921586Y-42005788D01*
X25846186Y-42028660D01*
X25776697Y-42065803D01*
X25715789Y-42115789D01*
X25665803Y-42176697D01*
X25628660Y-42246186D01*
X25605788Y-42321586D01*
X25598065Y-42400000D01*
X13818377Y-42400000D01*
X13721150Y-42302773D01*
X13278930Y-42007291D01*
X12905362Y-41852554D01*
X13014845Y-41807205D01*
X13229267Y-41553531D01*
X12000000Y-40324264D01*
X10770733Y-41553531D01*
X10985155Y-41807205D01*
X11094928Y-41852434D01*
X10721070Y-42007291D01*
X10278850Y-42302773D01*
X9902773Y-42678850D01*
X9607291Y-43121070D01*
X9403760Y-43612439D01*
X9300000Y-44134073D01*
X475000Y-44134073D01*
X475000Y-39692261D01*
X9849608Y-39692261D01*
X9850400Y-40115774D01*
X9933799Y-40530994D01*
X10092795Y-40914845D01*
X10346469Y-41129267D01*
X11575736Y-39900000D01*
X12424264Y-39900000D01*
X13653531Y-41129267D01*
X13907205Y-40914845D01*
X14068545Y-40523268D01*
X14150392Y-40107739D01*
X14149600Y-39684226D01*
X14135696Y-39615000D01*
X27181065Y-39615000D01*
X27188788Y-39693414D01*
X27211660Y-39768814D01*
X27248803Y-39838303D01*
X27298789Y-39899211D01*
X27359697Y-39949197D01*
X27429186Y-39986340D01*
X27504586Y-40009212D01*
X27583000Y-40016935D01*
X27583000Y-40015000D01*
X27683000Y-39915000D01*
X27683000Y-39343500D01*
X27283000Y-39343500D01*
X27183000Y-39443500D01*
X27181065Y-39615000D01*
X14135696Y-39615000D01*
X14066201Y-39269006D01*
X13907205Y-38885155D01*
X13653531Y-38670733D01*
X12424264Y-39900000D01*
X11575736Y-39900000D01*
X10346469Y-38670733D01*
X10092795Y-38885155D01*
X9931455Y-39276732D01*
X9849608Y-39692261D01*
X475000Y-39692261D01*
X475000Y-38246469D01*
X10770733Y-38246469D01*
X12000000Y-39475736D01*
X13003736Y-38472000D01*
X27181065Y-38472000D01*
X27183000Y-38643500D01*
X27283000Y-38743500D01*
X27683000Y-38743500D01*
X27683000Y-38172000D01*
X27583000Y-38072000D01*
X27583000Y-38070065D01*
X27504586Y-38077788D01*
X27429186Y-38100660D01*
X27359697Y-38137803D01*
X27298789Y-38187789D01*
X27248803Y-38248697D01*
X27211660Y-38318186D01*
X27188788Y-38393586D01*
X27181065Y-38472000D01*
X13003736Y-38472000D01*
X13229267Y-38246469D01*
X13014845Y-37992795D01*
X12623268Y-37831455D01*
X12207739Y-37749608D01*
X11784226Y-37750400D01*
X11369006Y-37833799D01*
X10985155Y-37992795D01*
X10770733Y-38246469D01*
X475000Y-38246469D01*
X475000Y-32090481D01*
X23530283Y-32090481D01*
X23652345Y-32267259D01*
X23914531Y-32352762D01*
X24188360Y-32385472D01*
X24463309Y-32364132D01*
X24728812Y-32289562D01*
X24782655Y-32267259D01*
X24904717Y-32090481D01*
X24217500Y-31403264D01*
X23530283Y-32090481D01*
X475000Y-32090481D01*
X475000Y-30949860D01*
X22811028Y-30949860D01*
X22832368Y-31224809D01*
X22906938Y-31490312D01*
X22929241Y-31544155D01*
X23106019Y-31666217D01*
X23793236Y-30979000D01*
X24641764Y-30979000D01*
X25328981Y-31666217D01*
X25505759Y-31544155D01*
X25591262Y-31281969D01*
X25612282Y-31106000D01*
X27689065Y-31106000D01*
X27691000Y-31106000D01*
X27791000Y-31206000D01*
X28362500Y-31206000D01*
X28362500Y-30806000D01*
X28962500Y-30806000D01*
X28962500Y-31206000D01*
X29534000Y-31206000D01*
X29634000Y-31106000D01*
X29635935Y-31106000D01*
X29628212Y-31027586D01*
X29605340Y-30952186D01*
X29568197Y-30882697D01*
X29518211Y-30821789D01*
X29457303Y-30771803D01*
X29387814Y-30734660D01*
X29312414Y-30711788D01*
X29234000Y-30704065D01*
X29062500Y-30706000D01*
X28962500Y-30806000D01*
X28362500Y-30806000D01*
X28262500Y-30706000D01*
X28091000Y-30704065D01*
X28012586Y-30711788D01*
X27937186Y-30734660D01*
X27867697Y-30771803D01*
X27806789Y-30821789D01*
X27756803Y-30882697D01*
X27719660Y-30952186D01*
X27696788Y-31027586D01*
X27689065Y-31106000D01*
X25612282Y-31106000D01*
X25623972Y-31008140D01*
X25602632Y-30733191D01*
X25528062Y-30467688D01*
X25505759Y-30413845D01*
X25328981Y-30291783D01*
X24641764Y-30979000D01*
X23793236Y-30979000D01*
X23106019Y-30291783D01*
X22929241Y-30413845D01*
X22843738Y-30676031D01*
X22811028Y-30949860D01*
X475000Y-30949860D01*
X475000Y-29867519D01*
X23530283Y-29867519D01*
X24217500Y-30554736D01*
X24904717Y-29867519D01*
X24782655Y-29690741D01*
X24520469Y-29605238D01*
X24246640Y-29572528D01*
X23971691Y-29593868D01*
X23706188Y-29668438D01*
X23652345Y-29690741D01*
X23530283Y-29867519D01*
X475000Y-29867519D01*
X475000Y-5258000D01*
X15466065Y-5258000D01*
X15473788Y-5336414D01*
X15496660Y-5411814D01*
X15533803Y-5481303D01*
X15583789Y-5542211D01*
X15644697Y-5592197D01*
X15714186Y-5629340D01*
X15789586Y-5652212D01*
X15868000Y-5659935D01*
X17668000Y-5658000D01*
X17768000Y-5558000D01*
X17768000Y-2958000D01*
X15568000Y-2958000D01*
X15468000Y-3058000D01*
X15466065Y-5258000D01*
X475000Y-5258000D01*
X475000Y-1984000D01*
X7916065Y-1984000D01*
X7923788Y-2062414D01*
X7946660Y-2137814D01*
X7983803Y-2207303D01*
X8033789Y-2268211D01*
X8094697Y-2318197D01*
X8164186Y-2355340D01*
X8239586Y-2378212D01*
X8318000Y-2385935D01*
X8768000Y-2384000D01*
X8868000Y-2284000D01*
X8868000Y-1434000D01*
X8018000Y-1434000D01*
X7918000Y-1534000D01*
X7916065Y-1984000D01*
X475000Y-1984000D01*
X475000Y-475000D01*
X7916886Y-475000D01*
X7918000Y-734000D01*
G37*
G04 #@! TD.AperFunction*
M02*
