M48
; DRILL file {KiCad 5.1.10-88a1d61d58~88~ubuntu20.04.1} date Mon Jun 28 19:55:23 2021
; FORMAT={-:-/ absolute / inch / decimal}
; #@! TF.CreationDate,2021-06-28T19:55:23+01:00
; #@! TF.GenerationSoftware,Kicad,Pcbnew,5.1.10-88a1d61d58~88~ubuntu20.04.1
FMAT,2
INCH
T1C0.0157
T2C0.0200
T3C0.0300
T4C0.0315
T5C0.0394
T6C0.0906
T7C0.1181
T8C0.0945
T9C0.0976
%
G90
G05
T1
X0.4829Y-0.3366
X0.6149Y-0.7696
X1.0559Y-0.5956
X1.2549Y-1.0846
X1.5264Y-1.2571
X1.6209Y-0.6156
X1.8579Y-1.4586
X1.8639Y-1.1746
X1.8713Y-0.369
X2.0509Y-0.2016
X2.2003Y-0.276
X2.4439Y-0.0986
X2.8029Y-0.3346
X2.8619Y-0.0796
X3.1319Y-1.1746
X3.6009Y-0.9846
T2
X1.6519Y-0.8346
X1.8169Y-0.8346
X1.8169Y-0.8846
X1.8169Y-0.9346
X1.8169Y-0.9846
X1.8169Y-1.0346
X1.9819Y-0.9346
X1.9819Y-1.0346
T3
X0.0591Y-0.0984
X0.0591Y-0.2953
X0.0591Y-0.4921
X0.0591Y-0.689
X0.0591Y-0.8858
X0.0591Y-1.0827
X0.0591Y-1.2795
X0.0591Y-1.4764
X0.0591Y-1.6732
X0.0591Y-1.8701
X3.878Y-0.0984
X3.878Y-0.2953
X3.878Y-0.4921
X3.878Y-0.689
X3.878Y-0.8858
X3.878Y-1.0827
X3.878Y-1.2795
X3.878Y-1.4764
X3.878Y-1.6732
X3.878Y-1.8701
T4
X0.7609Y-0.1046
X0.8609Y-0.1046
X0.9609Y-0.1046
X1.1598Y-1.7717
X1.1609Y-0.1046
X1.2598Y-1.7717
X1.2609Y-0.1046
X1.3598Y-1.7717
X1.3609Y-0.1046
X2.4197Y-1.7717
X2.5197Y-1.7717
X2.6197Y-1.7717
T5
X0.3609Y-0.0446
X0.4609Y-0.0446
X0.5609Y-0.0446
X0.6609Y-0.0446
X0.7609Y-0.0446
X0.8609Y-0.0446
X0.9534Y-1.2196
X0.9609Y-0.0446
X1.0609Y-0.0446
X1.1306Y-1.3968
X1.1609Y-0.0446
X1.2609Y-0.0446
X1.3609Y-0.0446
X1.3963Y-1.5393
X1.4609Y-0.0446
X1.5609Y-0.0446
X1.5734Y-1.3621
X1.6609Y-0.0446
X1.7609Y-0.0446
X1.8609Y-0.0446
X1.9609Y-0.0446
X2.0609Y-0.0446
X2.1609Y-0.0446
X2.1709Y-1.1746
X2.2609Y-0.0446
X2.3481Y-0.9975
X2.5309Y-1.1746
X2.7081Y-0.9975
X2.8909Y-1.1746
X3.0681Y-0.9975
X3.3613Y-0.0446
X3.4613Y-0.0446
X3.5613Y-0.0446
T6
X0.4724Y-1.5709
T7
X0.4724Y-1.748
T8
X0.3051Y-1.872
T9
X0.6398Y-1.872
T0
M30
