G04 #@! TF.GenerationSoftware,KiCad,Pcbnew,5.1.10-88a1d61d58~90~ubuntu20.04.1*
G04 #@! TF.CreationDate,2021-09-05T16:54:04+01:00*
G04 #@! TF.ProjectId,hl2_6xvtr,686c325f-3678-4767-9472-2e6b69636164,1*
G04 #@! TF.SameCoordinates,PX3dfd240PY3473bc0*
G04 #@! TF.FileFunction,Soldermask,Top*
G04 #@! TF.FilePolarity,Negative*
%FSLAX46Y46*%
G04 Gerber Fmt 4.6, Leading zero omitted, Abs format (unit mm)*
G04 Created by KiCad (PCBNEW 5.1.10-88a1d61d58~90~ubuntu20.04.1) date 2021-09-05 16:54:04*
%MOMM*%
%LPD*%
G01*
G04 APERTURE LIST*
%ADD10C,0.100000*%
%ADD11C,2.400000*%
%ADD12O,2.100000X2.100000*%
%ADD13C,4.600000*%
%ADD14C,3.900000*%
%ADD15C,2.880000*%
%ADD16C,2.800000*%
%ADD17C,1.000000*%
%ADD18C,0.200000*%
G04 APERTURE END LIST*
D10*
G36*
X60740000Y-15777016D02*
G01*
X61990000Y-16659368D01*
X61990000Y-17866632D01*
X60740000Y-18748984D01*
X60740000Y-15777016D01*
G37*
G36*
G01*
X56468000Y-15063000D02*
X57968000Y-15063000D01*
G75*
G02*
X58168000Y-15263000I0J-200000D01*
G01*
X58168000Y-16263000D01*
G75*
G02*
X57968000Y-16463000I-200000J0D01*
G01*
X56468000Y-16463000D01*
G75*
G02*
X56268000Y-16263000I0J200000D01*
G01*
X56268000Y-15263000D01*
G75*
G02*
X56468000Y-15063000I200000J0D01*
G01*
G37*
G36*
G01*
X56464500Y-16563000D02*
X58264500Y-16563000D01*
G75*
G02*
X58464500Y-16763000I0J-200000D01*
G01*
X58464500Y-17763000D01*
G75*
G02*
X58264500Y-17963000I-200000J0D01*
G01*
X56464500Y-17963000D01*
G75*
G02*
X56264500Y-17763000I0J200000D01*
G01*
X56264500Y-16763000D01*
G75*
G02*
X56464500Y-16563000I200000J0D01*
G01*
G37*
G36*
G01*
X56468000Y-18063000D02*
X57968000Y-18063000D01*
G75*
G02*
X58168000Y-18263000I0J-200000D01*
G01*
X58168000Y-19263000D01*
G75*
G02*
X57968000Y-19463000I-200000J0D01*
G01*
X56468000Y-19463000D01*
G75*
G02*
X56268000Y-19263000I0J200000D01*
G01*
X56268000Y-18263000D01*
G75*
G02*
X56468000Y-18063000I200000J0D01*
G01*
G37*
G36*
G01*
X59111500Y-15963000D02*
X60951500Y-15963000D01*
G75*
G02*
X61151500Y-16163000I0J-200000D01*
G01*
X61151500Y-18363000D01*
G75*
G02*
X60951500Y-18563000I-200000J0D01*
G01*
X59111500Y-18563000D01*
G75*
G02*
X58911500Y-18363000I0J200000D01*
G01*
X58911500Y-16163000D01*
G75*
G02*
X59111500Y-15963000I200000J0D01*
G01*
G37*
G36*
X59321800Y-18747131D02*
G01*
X57921800Y-17767131D01*
X57921800Y-16758869D01*
X59321800Y-15778869D01*
X59321800Y-18747131D01*
G37*
G36*
X90267500Y-34192016D02*
G01*
X91517500Y-35074368D01*
X91517500Y-36281632D01*
X90267500Y-37163984D01*
X90267500Y-34192016D01*
G37*
G36*
G01*
X85995500Y-33478000D02*
X87495500Y-33478000D01*
G75*
G02*
X87695500Y-33678000I0J-200000D01*
G01*
X87695500Y-34678000D01*
G75*
G02*
X87495500Y-34878000I-200000J0D01*
G01*
X85995500Y-34878000D01*
G75*
G02*
X85795500Y-34678000I0J200000D01*
G01*
X85795500Y-33678000D01*
G75*
G02*
X85995500Y-33478000I200000J0D01*
G01*
G37*
G36*
G01*
X85992000Y-34978000D02*
X87792000Y-34978000D01*
G75*
G02*
X87992000Y-35178000I0J-200000D01*
G01*
X87992000Y-36178000D01*
G75*
G02*
X87792000Y-36378000I-200000J0D01*
G01*
X85992000Y-36378000D01*
G75*
G02*
X85792000Y-36178000I0J200000D01*
G01*
X85792000Y-35178000D01*
G75*
G02*
X85992000Y-34978000I200000J0D01*
G01*
G37*
G36*
G01*
X85995500Y-36478000D02*
X87495500Y-36478000D01*
G75*
G02*
X87695500Y-36678000I0J-200000D01*
G01*
X87695500Y-37678000D01*
G75*
G02*
X87495500Y-37878000I-200000J0D01*
G01*
X85995500Y-37878000D01*
G75*
G02*
X85795500Y-37678000I0J200000D01*
G01*
X85795500Y-36678000D01*
G75*
G02*
X85995500Y-36478000I200000J0D01*
G01*
G37*
G36*
G01*
X88639000Y-34378000D02*
X90479000Y-34378000D01*
G75*
G02*
X90679000Y-34578000I0J-200000D01*
G01*
X90679000Y-36778000D01*
G75*
G02*
X90479000Y-36978000I-200000J0D01*
G01*
X88639000Y-36978000D01*
G75*
G02*
X88439000Y-36778000I0J200000D01*
G01*
X88439000Y-34578000D01*
G75*
G02*
X88639000Y-34378000I200000J0D01*
G01*
G37*
G36*
X88849300Y-37162131D02*
G01*
X87449300Y-36182131D01*
X87449300Y-35173869D01*
X88849300Y-34193869D01*
X88849300Y-37162131D01*
G37*
G36*
X28560984Y-22988000D02*
G01*
X27678632Y-24238000D01*
X26471368Y-24238000D01*
X25589016Y-22988000D01*
X28560984Y-22988000D01*
G37*
G36*
G01*
X29275000Y-18716000D02*
X29275000Y-20216000D01*
G75*
G02*
X29075000Y-20416000I-200000J0D01*
G01*
X28075000Y-20416000D01*
G75*
G02*
X27875000Y-20216000I0J200000D01*
G01*
X27875000Y-18716000D01*
G75*
G02*
X28075000Y-18516000I200000J0D01*
G01*
X29075000Y-18516000D01*
G75*
G02*
X29275000Y-18716000I0J-200000D01*
G01*
G37*
G36*
G01*
X27775000Y-18712500D02*
X27775000Y-20512500D01*
G75*
G02*
X27575000Y-20712500I-200000J0D01*
G01*
X26575000Y-20712500D01*
G75*
G02*
X26375000Y-20512500I0J200000D01*
G01*
X26375000Y-18712500D01*
G75*
G02*
X26575000Y-18512500I200000J0D01*
G01*
X27575000Y-18512500D01*
G75*
G02*
X27775000Y-18712500I0J-200000D01*
G01*
G37*
G36*
G01*
X26275000Y-18716000D02*
X26275000Y-20216000D01*
G75*
G02*
X26075000Y-20416000I-200000J0D01*
G01*
X25075000Y-20416000D01*
G75*
G02*
X24875000Y-20216000I0J200000D01*
G01*
X24875000Y-18716000D01*
G75*
G02*
X25075000Y-18516000I200000J0D01*
G01*
X26075000Y-18516000D01*
G75*
G02*
X26275000Y-18716000I0J-200000D01*
G01*
G37*
G36*
G01*
X28375000Y-21359500D02*
X28375000Y-23199500D01*
G75*
G02*
X28175000Y-23399500I-200000J0D01*
G01*
X25975000Y-23399500D01*
G75*
G02*
X25775000Y-23199500I0J200000D01*
G01*
X25775000Y-21359500D01*
G75*
G02*
X25975000Y-21159500I200000J0D01*
G01*
X28175000Y-21159500D01*
G75*
G02*
X28375000Y-21359500I0J-200000D01*
G01*
G37*
G36*
X25590869Y-21569800D02*
G01*
X26570869Y-20169800D01*
X27579131Y-20169800D01*
X28559131Y-21569800D01*
X25590869Y-21569800D01*
G37*
G36*
G01*
X60350000Y-12252000D02*
X60350000Y-12652000D01*
G75*
G02*
X60150000Y-12852000I-200000J0D01*
G01*
X58650000Y-12852000D01*
G75*
G02*
X58450000Y-12652000I0J200000D01*
G01*
X58450000Y-12252000D01*
G75*
G02*
X58650000Y-12052000I200000J0D01*
G01*
X60150000Y-12052000D01*
G75*
G02*
X60350000Y-12252000I0J-200000D01*
G01*
G37*
G36*
G01*
X60350000Y-10952000D02*
X60350000Y-11352000D01*
G75*
G02*
X60150000Y-11552000I-200000J0D01*
G01*
X58650000Y-11552000D01*
G75*
G02*
X58450000Y-11352000I0J200000D01*
G01*
X58450000Y-10952000D01*
G75*
G02*
X58650000Y-10752000I200000J0D01*
G01*
X60150000Y-10752000D01*
G75*
G02*
X60350000Y-10952000I0J-200000D01*
G01*
G37*
G36*
G01*
X63010000Y-10952000D02*
X63010000Y-11352000D01*
G75*
G02*
X62810000Y-11552000I-200000J0D01*
G01*
X61310000Y-11552000D01*
G75*
G02*
X61110000Y-11352000I0J200000D01*
G01*
X61110000Y-10952000D01*
G75*
G02*
X61310000Y-10752000I200000J0D01*
G01*
X62810000Y-10752000D01*
G75*
G02*
X63010000Y-10952000I0J-200000D01*
G01*
G37*
G36*
G01*
X63010000Y-11602000D02*
X63010000Y-12002000D01*
G75*
G02*
X62810000Y-12202000I-200000J0D01*
G01*
X61310000Y-12202000D01*
G75*
G02*
X61110000Y-12002000I0J200000D01*
G01*
X61110000Y-11602000D01*
G75*
G02*
X61310000Y-11402000I200000J0D01*
G01*
X62810000Y-11402000D01*
G75*
G02*
X63010000Y-11602000I0J-200000D01*
G01*
G37*
G36*
G01*
X63010000Y-12252000D02*
X63010000Y-12652000D01*
G75*
G02*
X62810000Y-12852000I-200000J0D01*
G01*
X61310000Y-12852000D01*
G75*
G02*
X61110000Y-12652000I0J200000D01*
G01*
X61110000Y-12252000D01*
G75*
G02*
X61310000Y-12052000I200000J0D01*
G01*
X62810000Y-12052000D01*
G75*
G02*
X63010000Y-12252000I0J-200000D01*
G01*
G37*
G36*
G01*
X51141501Y-17463000D02*
X49744499Y-17463000D01*
G75*
G02*
X49544500Y-17263001I0J199999D01*
G01*
X49544500Y-16373999D01*
G75*
G02*
X49744499Y-16174000I199999J0D01*
G01*
X51141501Y-16174000D01*
G75*
G02*
X51341500Y-16373999I0J-199999D01*
G01*
X51341500Y-17263001D01*
G75*
G02*
X51141501Y-17463000I-199999J0D01*
G01*
G37*
G36*
G01*
X51141501Y-19368000D02*
X49744499Y-19368000D01*
G75*
G02*
X49544500Y-19168001I0J199999D01*
G01*
X49544500Y-18278999D01*
G75*
G02*
X49744499Y-18079000I199999J0D01*
G01*
X51141501Y-18079000D01*
G75*
G02*
X51341500Y-18278999I0J-199999D01*
G01*
X51341500Y-19168001D01*
G75*
G02*
X51141501Y-19368000I-199999J0D01*
G01*
G37*
G36*
G01*
X52846500Y-21898501D02*
X52846500Y-20501499D01*
G75*
G02*
X53046499Y-20301500I199999J0D01*
G01*
X53935501Y-20301500D01*
G75*
G02*
X54135500Y-20501499I0J-199999D01*
G01*
X54135500Y-21898501D01*
G75*
G02*
X53935501Y-22098500I-199999J0D01*
G01*
X53046499Y-22098500D01*
G75*
G02*
X52846500Y-21898501I0J199999D01*
G01*
G37*
G36*
G01*
X50941500Y-21898501D02*
X50941500Y-20501499D01*
G75*
G02*
X51141499Y-20301500I199999J0D01*
G01*
X52030501Y-20301500D01*
G75*
G02*
X52230500Y-20501499I0J-199999D01*
G01*
X52230500Y-21898501D01*
G75*
G02*
X52030501Y-22098500I-199999J0D01*
G01*
X51141499Y-22098500D01*
G75*
G02*
X50941500Y-21898501I0J199999D01*
G01*
G37*
G36*
G01*
X55078501Y-17399500D02*
X53681499Y-17399500D01*
G75*
G02*
X53481500Y-17199501I0J199999D01*
G01*
X53481500Y-16310499D01*
G75*
G02*
X53681499Y-16110500I199999J0D01*
G01*
X55078501Y-16110500D01*
G75*
G02*
X55278500Y-16310499I0J-199999D01*
G01*
X55278500Y-17199501D01*
G75*
G02*
X55078501Y-17399500I-199999J0D01*
G01*
G37*
G36*
G01*
X55078501Y-19304500D02*
X53681499Y-19304500D01*
G75*
G02*
X53481500Y-19104501I0J199999D01*
G01*
X53481500Y-18215499D01*
G75*
G02*
X53681499Y-18015500I199999J0D01*
G01*
X55078501Y-18015500D01*
G75*
G02*
X55278500Y-18215499I0J-199999D01*
G01*
X55278500Y-19104501D01*
G75*
G02*
X55078501Y-19304500I-199999J0D01*
G01*
G37*
G36*
G01*
X90006700Y-26775300D02*
X90006700Y-25632300D01*
G75*
G02*
X90206700Y-25432300I200000J0D01*
G01*
X90841700Y-25432300D01*
G75*
G02*
X91041700Y-25632300I0J-200000D01*
G01*
X91041700Y-26775300D01*
G75*
G02*
X90841700Y-26975300I-200000J0D01*
G01*
X90206700Y-26975300D01*
G75*
G02*
X90006700Y-26775300I0J200000D01*
G01*
G37*
G36*
G01*
X88482700Y-26775300D02*
X88482700Y-25632300D01*
G75*
G02*
X88682700Y-25432300I200000J0D01*
G01*
X89317700Y-25432300D01*
G75*
G02*
X89517700Y-25632300I0J-200000D01*
G01*
X89517700Y-26775300D01*
G75*
G02*
X89317700Y-26975300I-200000J0D01*
G01*
X88682700Y-26975300D01*
G75*
G02*
X88482700Y-26775300I0J200000D01*
G01*
G37*
G36*
G01*
X61120500Y-13389500D02*
X61120500Y-14532500D01*
G75*
G02*
X60920500Y-14732500I-200000J0D01*
G01*
X60285500Y-14732500D01*
G75*
G02*
X60085500Y-14532500I0J200000D01*
G01*
X60085500Y-13389500D01*
G75*
G02*
X60285500Y-13189500I200000J0D01*
G01*
X60920500Y-13189500D01*
G75*
G02*
X61120500Y-13389500I0J-200000D01*
G01*
G37*
G36*
G01*
X62644500Y-13389500D02*
X62644500Y-14532500D01*
G75*
G02*
X62444500Y-14732500I-200000J0D01*
G01*
X61809500Y-14732500D01*
G75*
G02*
X61609500Y-14532500I0J200000D01*
G01*
X61609500Y-13389500D01*
G75*
G02*
X61809500Y-13189500I200000J0D01*
G01*
X62444500Y-13189500D01*
G75*
G02*
X62644500Y-13389500I0J-200000D01*
G01*
G37*
G36*
G01*
X77314400Y-16372300D02*
X77314400Y-17747300D01*
G75*
G02*
X77001900Y-18059800I-312500J0D01*
G01*
X74226900Y-18059800D01*
G75*
G02*
X73914400Y-17747300I0J312500D01*
G01*
X73914400Y-16372300D01*
G75*
G02*
X74226900Y-16059800I312500J0D01*
G01*
X77001900Y-16059800D01*
G75*
G02*
X77314400Y-16372300I0J-312500D01*
G01*
G37*
G36*
G01*
X81714400Y-16372300D02*
X81714400Y-17747300D01*
G75*
G02*
X81401900Y-18059800I-312500J0D01*
G01*
X78626900Y-18059800D01*
G75*
G02*
X78314400Y-17747300I0J312500D01*
G01*
X78314400Y-16372300D01*
G75*
G02*
X78626900Y-16059800I312500J0D01*
G01*
X81401900Y-16059800D01*
G75*
G02*
X81714400Y-16372300I0J-312500D01*
G01*
G37*
G36*
G01*
X78924400Y-2732500D02*
X78924400Y-4107500D01*
G75*
G02*
X78611900Y-4420000I-312500J0D01*
G01*
X75836900Y-4420000D01*
G75*
G02*
X75524400Y-4107500I0J312500D01*
G01*
X75524400Y-2732500D01*
G75*
G02*
X75836900Y-2420000I312500J0D01*
G01*
X78611900Y-2420000D01*
G75*
G02*
X78924400Y-2732500I0J-312500D01*
G01*
G37*
G36*
G01*
X83324400Y-2732500D02*
X83324400Y-4107500D01*
G75*
G02*
X83011900Y-4420000I-312500J0D01*
G01*
X80236900Y-4420000D01*
G75*
G02*
X79924400Y-4107500I0J312500D01*
G01*
X79924400Y-2732500D01*
G75*
G02*
X80236900Y-2420000I312500J0D01*
G01*
X83011900Y-2420000D01*
G75*
G02*
X83324400Y-2732500I0J-312500D01*
G01*
G37*
G36*
G01*
X41734000Y-22025500D02*
X41734000Y-20374500D01*
G75*
G02*
X41934000Y-20174500I200000J0D01*
G01*
X44474000Y-20174500D01*
G75*
G02*
X44674000Y-20374500I0J-200000D01*
G01*
X44674000Y-22025500D01*
G75*
G02*
X44474000Y-22225500I-200000J0D01*
G01*
X41934000Y-22225500D01*
G75*
G02*
X41734000Y-22025500I0J200000D01*
G01*
G37*
G36*
G01*
X41734000Y-24565500D02*
X41734000Y-22914500D01*
G75*
G02*
X41934000Y-22714500I200000J0D01*
G01*
X44474000Y-22714500D01*
G75*
G02*
X44674000Y-22914500I0J-200000D01*
G01*
X44674000Y-24565500D01*
G75*
G02*
X44474000Y-24765500I-200000J0D01*
G01*
X41934000Y-24765500D01*
G75*
G02*
X41734000Y-24565500I0J200000D01*
G01*
G37*
G36*
G01*
X41734000Y-27105500D02*
X41734000Y-25454500D01*
G75*
G02*
X41934000Y-25254500I200000J0D01*
G01*
X44474000Y-25254500D01*
G75*
G02*
X44674000Y-25454500I0J-200000D01*
G01*
X44674000Y-27105500D01*
G75*
G02*
X44474000Y-27305500I-200000J0D01*
G01*
X41934000Y-27305500D01*
G75*
G02*
X41734000Y-27105500I0J200000D01*
G01*
G37*
G36*
G01*
X46814000Y-22025500D02*
X46814000Y-20374500D01*
G75*
G02*
X47014000Y-20174500I200000J0D01*
G01*
X49554000Y-20174500D01*
G75*
G02*
X49754000Y-20374500I0J-200000D01*
G01*
X49754000Y-22025500D01*
G75*
G02*
X49554000Y-22225500I-200000J0D01*
G01*
X47014000Y-22225500D01*
G75*
G02*
X46814000Y-22025500I0J200000D01*
G01*
G37*
G36*
G01*
X46814000Y-24565500D02*
X46814000Y-22914500D01*
G75*
G02*
X47014000Y-22714500I200000J0D01*
G01*
X49554000Y-22714500D01*
G75*
G02*
X49754000Y-22914500I0J-200000D01*
G01*
X49754000Y-24565500D01*
G75*
G02*
X49554000Y-24765500I-200000J0D01*
G01*
X47014000Y-24765500D01*
G75*
G02*
X46814000Y-24565500I0J200000D01*
G01*
G37*
G36*
G01*
X46814000Y-27105500D02*
X46814000Y-25454500D01*
G75*
G02*
X47014000Y-25254500I200000J0D01*
G01*
X49554000Y-25254500D01*
G75*
G02*
X49754000Y-25454500I0J-200000D01*
G01*
X49754000Y-27105500D01*
G75*
G02*
X49554000Y-27305500I-200000J0D01*
G01*
X47014000Y-27305500D01*
G75*
G02*
X46814000Y-27105500I0J200000D01*
G01*
G37*
G36*
G01*
X32393100Y-29416900D02*
X32393100Y-30559900D01*
G75*
G02*
X32193100Y-30759900I-200000J0D01*
G01*
X31558100Y-30759900D01*
G75*
G02*
X31358100Y-30559900I0J200000D01*
G01*
X31358100Y-29416900D01*
G75*
G02*
X31558100Y-29216900I200000J0D01*
G01*
X32193100Y-29216900D01*
G75*
G02*
X32393100Y-29416900I0J-200000D01*
G01*
G37*
G36*
G01*
X33917100Y-29416900D02*
X33917100Y-30559900D01*
G75*
G02*
X33717100Y-30759900I-200000J0D01*
G01*
X33082100Y-30759900D01*
G75*
G02*
X32882100Y-30559900I0J200000D01*
G01*
X32882100Y-29416900D01*
G75*
G02*
X33082100Y-29216900I200000J0D01*
G01*
X33717100Y-29216900D01*
G75*
G02*
X33917100Y-29416900I0J-200000D01*
G01*
G37*
G36*
G01*
X90457500Y-28312000D02*
X90457500Y-29455000D01*
G75*
G02*
X90257500Y-29655000I-200000J0D01*
G01*
X89622500Y-29655000D01*
G75*
G02*
X89422500Y-29455000I0J200000D01*
G01*
X89422500Y-28312000D01*
G75*
G02*
X89622500Y-28112000I200000J0D01*
G01*
X90257500Y-28112000D01*
G75*
G02*
X90457500Y-28312000I0J-200000D01*
G01*
G37*
G36*
G01*
X91981500Y-28312000D02*
X91981500Y-29455000D01*
G75*
G02*
X91781500Y-29655000I-200000J0D01*
G01*
X91146500Y-29655000D01*
G75*
G02*
X90946500Y-29455000I0J200000D01*
G01*
X90946500Y-28312000D01*
G75*
G02*
X91146500Y-28112000I200000J0D01*
G01*
X91781500Y-28112000D01*
G75*
G02*
X91981500Y-28312000I0J-200000D01*
G01*
G37*
G36*
G01*
X44258100Y-36532100D02*
X45401100Y-36532100D01*
G75*
G02*
X45601100Y-36732100I0J-200000D01*
G01*
X45601100Y-37367100D01*
G75*
G02*
X45401100Y-37567100I-200000J0D01*
G01*
X44258100Y-37567100D01*
G75*
G02*
X44058100Y-37367100I0J200000D01*
G01*
X44058100Y-36732100D01*
G75*
G02*
X44258100Y-36532100I200000J0D01*
G01*
G37*
G36*
G01*
X44258100Y-35008100D02*
X45401100Y-35008100D01*
G75*
G02*
X45601100Y-35208100I0J-200000D01*
G01*
X45601100Y-35843100D01*
G75*
G02*
X45401100Y-36043100I-200000J0D01*
G01*
X44258100Y-36043100D01*
G75*
G02*
X44058100Y-35843100I0J200000D01*
G01*
X44058100Y-35208100D01*
G75*
G02*
X44258100Y-35008100I200000J0D01*
G01*
G37*
G36*
G01*
X73699900Y-4448700D02*
X73699900Y-3305700D01*
G75*
G02*
X73899900Y-3105700I200000J0D01*
G01*
X74534900Y-3105700D01*
G75*
G02*
X74734900Y-3305700I0J-200000D01*
G01*
X74734900Y-4448700D01*
G75*
G02*
X74534900Y-4648700I-200000J0D01*
G01*
X73899900Y-4648700D01*
G75*
G02*
X73699900Y-4448700I0J200000D01*
G01*
G37*
G36*
G01*
X72175900Y-4448700D02*
X72175900Y-3305700D01*
G75*
G02*
X72375900Y-3105700I200000J0D01*
G01*
X73010900Y-3105700D01*
G75*
G02*
X73210900Y-3305700I0J-200000D01*
G01*
X73210900Y-4448700D01*
G75*
G02*
X73010900Y-4648700I-200000J0D01*
G01*
X72375900Y-4648700D01*
G75*
G02*
X72175900Y-4448700I0J200000D01*
G01*
G37*
G36*
G01*
X64428900Y-2188100D02*
X64428900Y-1045100D01*
G75*
G02*
X64628900Y-845100I200000J0D01*
G01*
X65263900Y-845100D01*
G75*
G02*
X65463900Y-1045100I0J-200000D01*
G01*
X65463900Y-2188100D01*
G75*
G02*
X65263900Y-2388100I-200000J0D01*
G01*
X64628900Y-2388100D01*
G75*
G02*
X64428900Y-2188100I0J200000D01*
G01*
G37*
G36*
G01*
X62904900Y-2188100D02*
X62904900Y-1045100D01*
G75*
G02*
X63104900Y-845100I200000J0D01*
G01*
X63739900Y-845100D01*
G75*
G02*
X63939900Y-1045100I0J-200000D01*
G01*
X63939900Y-2188100D01*
G75*
G02*
X63739900Y-2388100I-200000J0D01*
G01*
X63104900Y-2388100D01*
G75*
G02*
X62904900Y-2188100I0J200000D01*
G01*
G37*
G36*
G01*
X34653700Y-22685900D02*
X34653700Y-23828900D01*
G75*
G02*
X34453700Y-24028900I-200000J0D01*
G01*
X33818700Y-24028900D01*
G75*
G02*
X33618700Y-23828900I0J200000D01*
G01*
X33618700Y-22685900D01*
G75*
G02*
X33818700Y-22485900I200000J0D01*
G01*
X34453700Y-22485900D01*
G75*
G02*
X34653700Y-22685900I0J-200000D01*
G01*
G37*
G36*
G01*
X36177700Y-22685900D02*
X36177700Y-23828900D01*
G75*
G02*
X35977700Y-24028900I-200000J0D01*
G01*
X35342700Y-24028900D01*
G75*
G02*
X35142700Y-23828900I0J200000D01*
G01*
X35142700Y-22685900D01*
G75*
G02*
X35342700Y-22485900I200000J0D01*
G01*
X35977700Y-22485900D01*
G75*
G02*
X36177700Y-22685900I0J-200000D01*
G01*
G37*
G36*
G01*
X59777500Y-3308900D02*
X60920500Y-3308900D01*
G75*
G02*
X61120500Y-3508900I0J-200000D01*
G01*
X61120500Y-4143900D01*
G75*
G02*
X60920500Y-4343900I-200000J0D01*
G01*
X59777500Y-4343900D01*
G75*
G02*
X59577500Y-4143900I0J200000D01*
G01*
X59577500Y-3508900D01*
G75*
G02*
X59777500Y-3308900I200000J0D01*
G01*
G37*
G36*
G01*
X59777500Y-1784900D02*
X60920500Y-1784900D01*
G75*
G02*
X61120500Y-1984900I0J-200000D01*
G01*
X61120500Y-2619900D01*
G75*
G02*
X60920500Y-2819900I-200000J0D01*
G01*
X59777500Y-2819900D01*
G75*
G02*
X59577500Y-2619900I0J200000D01*
G01*
X59577500Y-1984900D01*
G75*
G02*
X59777500Y-1784900I200000J0D01*
G01*
G37*
G36*
G01*
X36584100Y-15065900D02*
X36584100Y-16208900D01*
G75*
G02*
X36384100Y-16408900I-200000J0D01*
G01*
X35749100Y-16408900D01*
G75*
G02*
X35549100Y-16208900I0J200000D01*
G01*
X35549100Y-15065900D01*
G75*
G02*
X35749100Y-14865900I200000J0D01*
G01*
X36384100Y-14865900D01*
G75*
G02*
X36584100Y-15065900I0J-200000D01*
G01*
G37*
G36*
G01*
X38108100Y-15065900D02*
X38108100Y-16208900D01*
G75*
G02*
X37908100Y-16408900I-200000J0D01*
G01*
X37273100Y-16408900D01*
G75*
G02*
X37073100Y-16208900I0J200000D01*
G01*
X37073100Y-15065900D01*
G75*
G02*
X37273100Y-14865900I200000J0D01*
G01*
X37908100Y-14865900D01*
G75*
G02*
X38108100Y-15065900I0J-200000D01*
G01*
G37*
G36*
G01*
X29116500Y-13770500D02*
X29116500Y-14913500D01*
G75*
G02*
X28916500Y-15113500I-200000J0D01*
G01*
X28281500Y-15113500D01*
G75*
G02*
X28081500Y-14913500I0J200000D01*
G01*
X28081500Y-13770500D01*
G75*
G02*
X28281500Y-13570500I200000J0D01*
G01*
X28916500Y-13570500D01*
G75*
G02*
X29116500Y-13770500I0J-200000D01*
G01*
G37*
G36*
G01*
X30640500Y-13770500D02*
X30640500Y-14913500D01*
G75*
G02*
X30440500Y-15113500I-200000J0D01*
G01*
X29805500Y-15113500D01*
G75*
G02*
X29605500Y-14913500I0J200000D01*
G01*
X29605500Y-13770500D01*
G75*
G02*
X29805500Y-13570500I200000J0D01*
G01*
X30440500Y-13570500D01*
G75*
G02*
X30640500Y-13770500I0J-200000D01*
G01*
G37*
G36*
G01*
X54186300Y-4550300D02*
X54186300Y-5693300D01*
G75*
G02*
X53986300Y-5893300I-200000J0D01*
G01*
X53351300Y-5893300D01*
G75*
G02*
X53151300Y-5693300I0J200000D01*
G01*
X53151300Y-4550300D01*
G75*
G02*
X53351300Y-4350300I200000J0D01*
G01*
X53986300Y-4350300D01*
G75*
G02*
X54186300Y-4550300I0J-200000D01*
G01*
G37*
G36*
G01*
X55710300Y-4550300D02*
X55710300Y-5693300D01*
G75*
G02*
X55510300Y-5893300I-200000J0D01*
G01*
X54875300Y-5893300D01*
G75*
G02*
X54675300Y-5693300I0J200000D01*
G01*
X54675300Y-4550300D01*
G75*
G02*
X54875300Y-4350300I200000J0D01*
G01*
X55510300Y-4350300D01*
G75*
G02*
X55710300Y-4550300I0J-200000D01*
G01*
G37*
G36*
G01*
X48318900Y-11103500D02*
X48318900Y-12246500D01*
G75*
G02*
X48118900Y-12446500I-200000J0D01*
G01*
X47483900Y-12446500D01*
G75*
G02*
X47283900Y-12246500I0J200000D01*
G01*
X47283900Y-11103500D01*
G75*
G02*
X47483900Y-10903500I200000J0D01*
G01*
X48118900Y-10903500D01*
G75*
G02*
X48318900Y-11103500I0J-200000D01*
G01*
G37*
G36*
G01*
X49842900Y-11103500D02*
X49842900Y-12246500D01*
G75*
G02*
X49642900Y-12446500I-200000J0D01*
G01*
X49007900Y-12446500D01*
G75*
G02*
X48807900Y-12246500I0J200000D01*
G01*
X48807900Y-11103500D01*
G75*
G02*
X49007900Y-10903500I200000J0D01*
G01*
X49642900Y-10903500D01*
G75*
G02*
X49842900Y-11103500I0J-200000D01*
G01*
G37*
G36*
G01*
X46464700Y-4550300D02*
X46464700Y-5693300D01*
G75*
G02*
X46264700Y-5893300I-200000J0D01*
G01*
X45629700Y-5893300D01*
G75*
G02*
X45429700Y-5693300I0J200000D01*
G01*
X45429700Y-4550300D01*
G75*
G02*
X45629700Y-4350300I200000J0D01*
G01*
X46264700Y-4350300D01*
G75*
G02*
X46464700Y-4550300I0J-200000D01*
G01*
G37*
G36*
G01*
X47988700Y-4550300D02*
X47988700Y-5693300D01*
G75*
G02*
X47788700Y-5893300I-200000J0D01*
G01*
X47153700Y-5893300D01*
G75*
G02*
X46953700Y-5693300I0J200000D01*
G01*
X46953700Y-4550300D01*
G75*
G02*
X47153700Y-4350300I200000J0D01*
G01*
X47788700Y-4350300D01*
G75*
G02*
X47988700Y-4550300I0J-200000D01*
G01*
G37*
G36*
G01*
X49868300Y-4550300D02*
X49868300Y-5693300D01*
G75*
G02*
X49668300Y-5893300I-200000J0D01*
G01*
X49033300Y-5893300D01*
G75*
G02*
X48833300Y-5693300I0J200000D01*
G01*
X48833300Y-4550300D01*
G75*
G02*
X49033300Y-4350300I200000J0D01*
G01*
X49668300Y-4350300D01*
G75*
G02*
X49868300Y-4550300I0J-200000D01*
G01*
G37*
G36*
G01*
X51392300Y-4550300D02*
X51392300Y-5693300D01*
G75*
G02*
X51192300Y-5893300I-200000J0D01*
G01*
X50557300Y-5893300D01*
G75*
G02*
X50357300Y-5693300I0J200000D01*
G01*
X50357300Y-4550300D01*
G75*
G02*
X50557300Y-4350300I200000J0D01*
G01*
X51192300Y-4350300D01*
G75*
G02*
X51392300Y-4550300I0J-200000D01*
G01*
G37*
G36*
G01*
X17940500Y-18977500D02*
X17940500Y-20120500D01*
G75*
G02*
X17740500Y-20320500I-200000J0D01*
G01*
X17105500Y-20320500D01*
G75*
G02*
X16905500Y-20120500I0J200000D01*
G01*
X16905500Y-18977500D01*
G75*
G02*
X17105500Y-18777500I200000J0D01*
G01*
X17740500Y-18777500D01*
G75*
G02*
X17940500Y-18977500I0J-200000D01*
G01*
G37*
G36*
G01*
X19464500Y-18977500D02*
X19464500Y-20120500D01*
G75*
G02*
X19264500Y-20320500I-200000J0D01*
G01*
X18629500Y-20320500D01*
G75*
G02*
X18429500Y-20120500I0J200000D01*
G01*
X18429500Y-18977500D01*
G75*
G02*
X18629500Y-18777500I200000J0D01*
G01*
X19264500Y-18777500D01*
G75*
G02*
X19464500Y-18977500I0J-200000D01*
G01*
G37*
G36*
G01*
X63460500Y-39986500D02*
X64603500Y-39986500D01*
G75*
G02*
X64803500Y-40186500I0J-200000D01*
G01*
X64803500Y-40821500D01*
G75*
G02*
X64603500Y-41021500I-200000J0D01*
G01*
X63460500Y-41021500D01*
G75*
G02*
X63260500Y-40821500I0J200000D01*
G01*
X63260500Y-40186500D01*
G75*
G02*
X63460500Y-39986500I200000J0D01*
G01*
G37*
G36*
G01*
X63460500Y-38462500D02*
X64603500Y-38462500D01*
G75*
G02*
X64803500Y-38662500I0J-200000D01*
G01*
X64803500Y-39297500D01*
G75*
G02*
X64603500Y-39497500I-200000J0D01*
G01*
X63460500Y-39497500D01*
G75*
G02*
X63260500Y-39297500I0J200000D01*
G01*
X63260500Y-38662500D01*
G75*
G02*
X63460500Y-38462500I200000J0D01*
G01*
G37*
G36*
G01*
X73747500Y-39878500D02*
X72604500Y-39878500D01*
G75*
G02*
X72404500Y-39678500I0J200000D01*
G01*
X72404500Y-39043500D01*
G75*
G02*
X72604500Y-38843500I200000J0D01*
G01*
X73747500Y-38843500D01*
G75*
G02*
X73947500Y-39043500I0J-200000D01*
G01*
X73947500Y-39678500D01*
G75*
G02*
X73747500Y-39878500I-200000J0D01*
G01*
G37*
G36*
G01*
X73747500Y-41402500D02*
X72604500Y-41402500D01*
G75*
G02*
X72404500Y-41202500I0J200000D01*
G01*
X72404500Y-40567500D01*
G75*
G02*
X72604500Y-40367500I200000J0D01*
G01*
X73747500Y-40367500D01*
G75*
G02*
X73947500Y-40567500I0J-200000D01*
G01*
X73947500Y-41202500D01*
G75*
G02*
X73747500Y-41402500I-200000J0D01*
G01*
G37*
G36*
G01*
X76468500Y-40377000D02*
X76468500Y-39234000D01*
G75*
G02*
X76668500Y-39034000I200000J0D01*
G01*
X77303500Y-39034000D01*
G75*
G02*
X77503500Y-39234000I0J-200000D01*
G01*
X77503500Y-40377000D01*
G75*
G02*
X77303500Y-40577000I-200000J0D01*
G01*
X76668500Y-40577000D01*
G75*
G02*
X76468500Y-40377000I0J200000D01*
G01*
G37*
G36*
G01*
X74944500Y-40377000D02*
X74944500Y-39234000D01*
G75*
G02*
X75144500Y-39034000I200000J0D01*
G01*
X75779500Y-39034000D01*
G75*
G02*
X75979500Y-39234000I0J-200000D01*
G01*
X75979500Y-40377000D01*
G75*
G02*
X75779500Y-40577000I-200000J0D01*
G01*
X75144500Y-40577000D01*
G75*
G02*
X74944500Y-40377000I0J200000D01*
G01*
G37*
G36*
G01*
X82647000Y-39234000D02*
X82647000Y-40377000D01*
G75*
G02*
X82447000Y-40577000I-200000J0D01*
G01*
X81812000Y-40577000D01*
G75*
G02*
X81612000Y-40377000I0J200000D01*
G01*
X81612000Y-39234000D01*
G75*
G02*
X81812000Y-39034000I200000J0D01*
G01*
X82447000Y-39034000D01*
G75*
G02*
X82647000Y-39234000I0J-200000D01*
G01*
G37*
G36*
G01*
X84171000Y-39234000D02*
X84171000Y-40377000D01*
G75*
G02*
X83971000Y-40577000I-200000J0D01*
G01*
X83336000Y-40577000D01*
G75*
G02*
X83136000Y-40377000I0J200000D01*
G01*
X83136000Y-39234000D01*
G75*
G02*
X83336000Y-39034000I200000J0D01*
G01*
X83971000Y-39034000D01*
G75*
G02*
X84171000Y-39234000I0J-200000D01*
G01*
G37*
G36*
G01*
X87146000Y-39878500D02*
X86003000Y-39878500D01*
G75*
G02*
X85803000Y-39678500I0J200000D01*
G01*
X85803000Y-39043500D01*
G75*
G02*
X86003000Y-38843500I200000J0D01*
G01*
X87146000Y-38843500D01*
G75*
G02*
X87346000Y-39043500I0J-200000D01*
G01*
X87346000Y-39678500D01*
G75*
G02*
X87146000Y-39878500I-200000J0D01*
G01*
G37*
G36*
G01*
X87146000Y-41402500D02*
X86003000Y-41402500D01*
G75*
G02*
X85803000Y-41202500I0J200000D01*
G01*
X85803000Y-40567500D01*
G75*
G02*
X86003000Y-40367500I200000J0D01*
G01*
X87146000Y-40367500D01*
G75*
G02*
X87346000Y-40567500I0J-200000D01*
G01*
X87346000Y-41202500D01*
G75*
G02*
X87146000Y-41402500I-200000J0D01*
G01*
G37*
G36*
G01*
X92216500Y-42409000D02*
X92216500Y-41266000D01*
G75*
G02*
X92416500Y-41066000I200000J0D01*
G01*
X93051500Y-41066000D01*
G75*
G02*
X93251500Y-41266000I0J-200000D01*
G01*
X93251500Y-42409000D01*
G75*
G02*
X93051500Y-42609000I-200000J0D01*
G01*
X92416500Y-42609000D01*
G75*
G02*
X92216500Y-42409000I0J200000D01*
G01*
G37*
G36*
G01*
X90692500Y-42409000D02*
X90692500Y-41266000D01*
G75*
G02*
X90892500Y-41066000I200000J0D01*
G01*
X91527500Y-41066000D01*
G75*
G02*
X91727500Y-41266000I0J-200000D01*
G01*
X91727500Y-42409000D01*
G75*
G02*
X91527500Y-42609000I-200000J0D01*
G01*
X90892500Y-42609000D01*
G75*
G02*
X90692500Y-42409000I0J200000D01*
G01*
G37*
G36*
G01*
X32393100Y-31372700D02*
X32393100Y-32515700D01*
G75*
G02*
X32193100Y-32715700I-200000J0D01*
G01*
X31558100Y-32715700D01*
G75*
G02*
X31358100Y-32515700I0J200000D01*
G01*
X31358100Y-31372700D01*
G75*
G02*
X31558100Y-31172700I200000J0D01*
G01*
X32193100Y-31172700D01*
G75*
G02*
X32393100Y-31372700I0J-200000D01*
G01*
G37*
G36*
G01*
X33917100Y-31372700D02*
X33917100Y-32515700D01*
G75*
G02*
X33717100Y-32715700I-200000J0D01*
G01*
X33082100Y-32715700D01*
G75*
G02*
X32882100Y-32515700I0J200000D01*
G01*
X32882100Y-31372700D01*
G75*
G02*
X33082100Y-31172700I200000J0D01*
G01*
X33717100Y-31172700D01*
G75*
G02*
X33917100Y-31372700I0J-200000D01*
G01*
G37*
G36*
G01*
X87146000Y-29401000D02*
X86003000Y-29401000D01*
G75*
G02*
X85803000Y-29201000I0J200000D01*
G01*
X85803000Y-28566000D01*
G75*
G02*
X86003000Y-28366000I200000J0D01*
G01*
X87146000Y-28366000D01*
G75*
G02*
X87346000Y-28566000I0J-200000D01*
G01*
X87346000Y-29201000D01*
G75*
G02*
X87146000Y-29401000I-200000J0D01*
G01*
G37*
G36*
G01*
X87146000Y-30925000D02*
X86003000Y-30925000D01*
G75*
G02*
X85803000Y-30725000I0J200000D01*
G01*
X85803000Y-30090000D01*
G75*
G02*
X86003000Y-29890000I200000J0D01*
G01*
X87146000Y-29890000D01*
G75*
G02*
X87346000Y-30090000I0J-200000D01*
G01*
X87346000Y-30725000D01*
G75*
G02*
X87146000Y-30925000I-200000J0D01*
G01*
G37*
G36*
G01*
X44337500Y-34166700D02*
X44337500Y-33023700D01*
G75*
G02*
X44537500Y-32823700I200000J0D01*
G01*
X45172500Y-32823700D01*
G75*
G02*
X45372500Y-33023700I0J-200000D01*
G01*
X45372500Y-34166700D01*
G75*
G02*
X45172500Y-34366700I-200000J0D01*
G01*
X44537500Y-34366700D01*
G75*
G02*
X44337500Y-34166700I0J200000D01*
G01*
G37*
G36*
G01*
X42813500Y-34166700D02*
X42813500Y-33023700D01*
G75*
G02*
X43013500Y-32823700I200000J0D01*
G01*
X43648500Y-32823700D01*
G75*
G02*
X43848500Y-33023700I0J-200000D01*
G01*
X43848500Y-34166700D01*
G75*
G02*
X43648500Y-34366700I-200000J0D01*
G01*
X43013500Y-34366700D01*
G75*
G02*
X42813500Y-34166700I0J200000D01*
G01*
G37*
G36*
G01*
X90946500Y-31804500D02*
X90946500Y-30661500D01*
G75*
G02*
X91146500Y-30461500I200000J0D01*
G01*
X91781500Y-30461500D01*
G75*
G02*
X91981500Y-30661500I0J-200000D01*
G01*
X91981500Y-31804500D01*
G75*
G02*
X91781500Y-32004500I-200000J0D01*
G01*
X91146500Y-32004500D01*
G75*
G02*
X90946500Y-31804500I0J200000D01*
G01*
G37*
G36*
G01*
X89422500Y-31804500D02*
X89422500Y-30661500D01*
G75*
G02*
X89622500Y-30461500I200000J0D01*
G01*
X90257500Y-30461500D01*
G75*
G02*
X90457500Y-30661500I0J-200000D01*
G01*
X90457500Y-31804500D01*
G75*
G02*
X90257500Y-32004500I-200000J0D01*
G01*
X89622500Y-32004500D01*
G75*
G02*
X89422500Y-31804500I0J200000D01*
G01*
G37*
G36*
G01*
X44258100Y-41637500D02*
X45401100Y-41637500D01*
G75*
G02*
X45601100Y-41837500I0J-200000D01*
G01*
X45601100Y-42472500D01*
G75*
G02*
X45401100Y-42672500I-200000J0D01*
G01*
X44258100Y-42672500D01*
G75*
G02*
X44058100Y-42472500I0J200000D01*
G01*
X44058100Y-41837500D01*
G75*
G02*
X44258100Y-41637500I200000J0D01*
G01*
G37*
G36*
G01*
X44258100Y-40113500D02*
X45401100Y-40113500D01*
G75*
G02*
X45601100Y-40313500I0J-200000D01*
G01*
X45601100Y-40948500D01*
G75*
G02*
X45401100Y-41148500I-200000J0D01*
G01*
X44258100Y-41148500D01*
G75*
G02*
X44058100Y-40948500I0J200000D01*
G01*
X44058100Y-40313500D01*
G75*
G02*
X44258100Y-40113500I200000J0D01*
G01*
G37*
G36*
G01*
X73210900Y-5591700D02*
X73210900Y-6734700D01*
G75*
G02*
X73010900Y-6934700I-200000J0D01*
G01*
X72375900Y-6934700D01*
G75*
G02*
X72175900Y-6734700I0J200000D01*
G01*
X72175900Y-5591700D01*
G75*
G02*
X72375900Y-5391700I200000J0D01*
G01*
X73010900Y-5391700D01*
G75*
G02*
X73210900Y-5591700I0J-200000D01*
G01*
G37*
G36*
G01*
X74734900Y-5591700D02*
X74734900Y-6734700D01*
G75*
G02*
X74534900Y-6934700I-200000J0D01*
G01*
X73899900Y-6934700D01*
G75*
G02*
X73699900Y-6734700I0J200000D01*
G01*
X73699900Y-5591700D01*
G75*
G02*
X73899900Y-5391700I200000J0D01*
G01*
X74534900Y-5391700D01*
G75*
G02*
X74734900Y-5591700I0J-200000D01*
G01*
G37*
G36*
G01*
X64403500Y-4347100D02*
X64403500Y-3204100D01*
G75*
G02*
X64603500Y-3004100I200000J0D01*
G01*
X65238500Y-3004100D01*
G75*
G02*
X65438500Y-3204100I0J-200000D01*
G01*
X65438500Y-4347100D01*
G75*
G02*
X65238500Y-4547100I-200000J0D01*
G01*
X64603500Y-4547100D01*
G75*
G02*
X64403500Y-4347100I0J200000D01*
G01*
G37*
G36*
G01*
X62879500Y-4347100D02*
X62879500Y-3204100D01*
G75*
G02*
X63079500Y-3004100I200000J0D01*
G01*
X63714500Y-3004100D01*
G75*
G02*
X63914500Y-3204100I0J-200000D01*
G01*
X63914500Y-4347100D01*
G75*
G02*
X63714500Y-4547100I-200000J0D01*
G01*
X63079500Y-4547100D01*
G75*
G02*
X62879500Y-4347100I0J200000D01*
G01*
G37*
G36*
G01*
X64657500Y-19739500D02*
X64657500Y-18596500D01*
G75*
G02*
X64857500Y-18396500I200000J0D01*
G01*
X65492500Y-18396500D01*
G75*
G02*
X65692500Y-18596500I0J-200000D01*
G01*
X65692500Y-19739500D01*
G75*
G02*
X65492500Y-19939500I-200000J0D01*
G01*
X64857500Y-19939500D01*
G75*
G02*
X64657500Y-19739500I0J200000D01*
G01*
G37*
G36*
G01*
X63133500Y-19739500D02*
X63133500Y-18596500D01*
G75*
G02*
X63333500Y-18396500I200000J0D01*
G01*
X63968500Y-18396500D01*
G75*
G02*
X64168500Y-18596500I0J-200000D01*
G01*
X64168500Y-19739500D01*
G75*
G02*
X63968500Y-19939500I-200000J0D01*
G01*
X63333500Y-19939500D01*
G75*
G02*
X63133500Y-19739500I0J200000D01*
G01*
G37*
G36*
G01*
X38362100Y-25200500D02*
X38362100Y-26343500D01*
G75*
G02*
X38162100Y-26543500I-200000J0D01*
G01*
X37527100Y-26543500D01*
G75*
G02*
X37327100Y-26343500I0J200000D01*
G01*
X37327100Y-25200500D01*
G75*
G02*
X37527100Y-25000500I200000J0D01*
G01*
X38162100Y-25000500D01*
G75*
G02*
X38362100Y-25200500I0J-200000D01*
G01*
G37*
G36*
G01*
X39886100Y-25200500D02*
X39886100Y-26343500D01*
G75*
G02*
X39686100Y-26543500I-200000J0D01*
G01*
X39051100Y-26543500D01*
G75*
G02*
X38851100Y-26343500I0J200000D01*
G01*
X38851100Y-25200500D01*
G75*
G02*
X39051100Y-25000500I200000J0D01*
G01*
X39686100Y-25000500D01*
G75*
G02*
X39886100Y-25200500I0J-200000D01*
G01*
G37*
G36*
G01*
X73185500Y-7979300D02*
X73185500Y-9122300D01*
G75*
G02*
X72985500Y-9322300I-200000J0D01*
G01*
X72350500Y-9322300D01*
G75*
G02*
X72150500Y-9122300I0J200000D01*
G01*
X72150500Y-7979300D01*
G75*
G02*
X72350500Y-7779300I200000J0D01*
G01*
X72985500Y-7779300D01*
G75*
G02*
X73185500Y-7979300I0J-200000D01*
G01*
G37*
G36*
G01*
X74709500Y-7979300D02*
X74709500Y-9122300D01*
G75*
G02*
X74509500Y-9322300I-200000J0D01*
G01*
X73874500Y-9322300D01*
G75*
G02*
X73674500Y-9122300I0J200000D01*
G01*
X73674500Y-7979300D01*
G75*
G02*
X73874500Y-7779300I200000J0D01*
G01*
X74509500Y-7779300D01*
G75*
G02*
X74709500Y-7979300I0J-200000D01*
G01*
G37*
G36*
G01*
X38006500Y-19612500D02*
X38006500Y-20755500D01*
G75*
G02*
X37806500Y-20955500I-200000J0D01*
G01*
X37171500Y-20955500D01*
G75*
G02*
X36971500Y-20755500I0J200000D01*
G01*
X36971500Y-19612500D01*
G75*
G02*
X37171500Y-19412500I200000J0D01*
G01*
X37806500Y-19412500D01*
G75*
G02*
X38006500Y-19612500I0J-200000D01*
G01*
G37*
G36*
G01*
X39530500Y-19612500D02*
X39530500Y-20755500D01*
G75*
G02*
X39330500Y-20955500I-200000J0D01*
G01*
X38695500Y-20955500D01*
G75*
G02*
X38495500Y-20755500I0J200000D01*
G01*
X38495500Y-19612500D01*
G75*
G02*
X38695500Y-19412500I200000J0D01*
G01*
X39330500Y-19412500D01*
G75*
G02*
X39530500Y-19612500I0J-200000D01*
G01*
G37*
G36*
G01*
X29605500Y-17326500D02*
X29605500Y-16183500D01*
G75*
G02*
X29805500Y-15983500I200000J0D01*
G01*
X30440500Y-15983500D01*
G75*
G02*
X30640500Y-16183500I0J-200000D01*
G01*
X30640500Y-17326500D01*
G75*
G02*
X30440500Y-17526500I-200000J0D01*
G01*
X29805500Y-17526500D01*
G75*
G02*
X29605500Y-17326500I0J200000D01*
G01*
G37*
G36*
G01*
X28081500Y-17326500D02*
X28081500Y-16183500D01*
G75*
G02*
X28281500Y-15983500I200000J0D01*
G01*
X28916500Y-15983500D01*
G75*
G02*
X29116500Y-16183500I0J-200000D01*
G01*
X29116500Y-17326500D01*
G75*
G02*
X28916500Y-17526500I-200000J0D01*
G01*
X28281500Y-17526500D01*
G75*
G02*
X28081500Y-17326500I0J200000D01*
G01*
G37*
G36*
G01*
X44537500Y-8001500D02*
X43394500Y-8001500D01*
G75*
G02*
X43194500Y-7801500I0J200000D01*
G01*
X43194500Y-7166500D01*
G75*
G02*
X43394500Y-6966500I200000J0D01*
G01*
X44537500Y-6966500D01*
G75*
G02*
X44737500Y-7166500I0J-200000D01*
G01*
X44737500Y-7801500D01*
G75*
G02*
X44537500Y-8001500I-200000J0D01*
G01*
G37*
G36*
G01*
X44537500Y-9525500D02*
X43394500Y-9525500D01*
G75*
G02*
X43194500Y-9325500I0J200000D01*
G01*
X43194500Y-8690500D01*
G75*
G02*
X43394500Y-8490500I200000J0D01*
G01*
X44537500Y-8490500D01*
G75*
G02*
X44737500Y-8690500I0J-200000D01*
G01*
X44737500Y-9325500D01*
G75*
G02*
X44537500Y-9525500I-200000J0D01*
G01*
G37*
G36*
G01*
X56040500Y-20577700D02*
X56040500Y-21720700D01*
G75*
G02*
X55840500Y-21920700I-200000J0D01*
G01*
X55205500Y-21920700D01*
G75*
G02*
X55005500Y-21720700I0J200000D01*
G01*
X55005500Y-20577700D01*
G75*
G02*
X55205500Y-20377700I200000J0D01*
G01*
X55840500Y-20377700D01*
G75*
G02*
X56040500Y-20577700I0J-200000D01*
G01*
G37*
G36*
G01*
X57564500Y-20577700D02*
X57564500Y-21720700D01*
G75*
G02*
X57364500Y-21920700I-200000J0D01*
G01*
X56729500Y-21920700D01*
G75*
G02*
X56529500Y-21720700I0J200000D01*
G01*
X56529500Y-20577700D01*
G75*
G02*
X56729500Y-20377700I200000J0D01*
G01*
X57364500Y-20377700D01*
G75*
G02*
X57564500Y-20577700I0J-200000D01*
G01*
G37*
G36*
G01*
X38082700Y-7903100D02*
X38082700Y-9046100D01*
G75*
G02*
X37882700Y-9246100I-200000J0D01*
G01*
X37247700Y-9246100D01*
G75*
G02*
X37047700Y-9046100I0J200000D01*
G01*
X37047700Y-7903100D01*
G75*
G02*
X37247700Y-7703100I200000J0D01*
G01*
X37882700Y-7703100D01*
G75*
G02*
X38082700Y-7903100I0J-200000D01*
G01*
G37*
G36*
G01*
X39606700Y-7903100D02*
X39606700Y-9046100D01*
G75*
G02*
X39406700Y-9246100I-200000J0D01*
G01*
X38771700Y-9246100D01*
G75*
G02*
X38571700Y-9046100I0J200000D01*
G01*
X38571700Y-7903100D01*
G75*
G02*
X38771700Y-7703100I200000J0D01*
G01*
X39406700Y-7703100D01*
G75*
G02*
X39606700Y-7903100I0J-200000D01*
G01*
G37*
G36*
G01*
X18429500Y-22533500D02*
X18429500Y-21390500D01*
G75*
G02*
X18629500Y-21190500I200000J0D01*
G01*
X19264500Y-21190500D01*
G75*
G02*
X19464500Y-21390500I0J-200000D01*
G01*
X19464500Y-22533500D01*
G75*
G02*
X19264500Y-22733500I-200000J0D01*
G01*
X18629500Y-22733500D01*
G75*
G02*
X18429500Y-22533500I0J200000D01*
G01*
G37*
G36*
G01*
X16905500Y-22533500D02*
X16905500Y-21390500D01*
G75*
G02*
X17105500Y-21190500I200000J0D01*
G01*
X17740500Y-21190500D01*
G75*
G02*
X17940500Y-21390500I0J-200000D01*
G01*
X17940500Y-22533500D01*
G75*
G02*
X17740500Y-22733500I-200000J0D01*
G01*
X17105500Y-22733500D01*
G75*
G02*
X16905500Y-22533500I0J200000D01*
G01*
G37*
G36*
G01*
X34250500Y-13310100D02*
X33107500Y-13310100D01*
G75*
G02*
X32907500Y-13110100I0J200000D01*
G01*
X32907500Y-12475100D01*
G75*
G02*
X33107500Y-12275100I200000J0D01*
G01*
X34250500Y-12275100D01*
G75*
G02*
X34450500Y-12475100I0J-200000D01*
G01*
X34450500Y-13110100D01*
G75*
G02*
X34250500Y-13310100I-200000J0D01*
G01*
G37*
G36*
G01*
X34250500Y-14834100D02*
X33107500Y-14834100D01*
G75*
G02*
X32907500Y-14634100I0J200000D01*
G01*
X32907500Y-13999100D01*
G75*
G02*
X33107500Y-13799100I200000J0D01*
G01*
X34250500Y-13799100D01*
G75*
G02*
X34450500Y-13999100I0J-200000D01*
G01*
X34450500Y-14634100D01*
G75*
G02*
X34250500Y-14834100I-200000J0D01*
G01*
G37*
G36*
G01*
X22385500Y-18723500D02*
X22385500Y-19866500D01*
G75*
G02*
X22185500Y-20066500I-200000J0D01*
G01*
X21550500Y-20066500D01*
G75*
G02*
X21350500Y-19866500I0J200000D01*
G01*
X21350500Y-18723500D01*
G75*
G02*
X21550500Y-18523500I200000J0D01*
G01*
X22185500Y-18523500D01*
G75*
G02*
X22385500Y-18723500I0J-200000D01*
G01*
G37*
G36*
G01*
X23909500Y-18723500D02*
X23909500Y-19866500D01*
G75*
G02*
X23709500Y-20066500I-200000J0D01*
G01*
X23074500Y-20066500D01*
G75*
G02*
X22874500Y-19866500I0J200000D01*
G01*
X22874500Y-18723500D01*
G75*
G02*
X23074500Y-18523500I200000J0D01*
G01*
X23709500Y-18523500D01*
G75*
G02*
X23909500Y-18723500I0J-200000D01*
G01*
G37*
G36*
G01*
X64657500Y-17707500D02*
X64657500Y-16564500D01*
G75*
G02*
X64857500Y-16364500I200000J0D01*
G01*
X65492500Y-16364500D01*
G75*
G02*
X65692500Y-16564500I0J-200000D01*
G01*
X65692500Y-17707500D01*
G75*
G02*
X65492500Y-17907500I-200000J0D01*
G01*
X64857500Y-17907500D01*
G75*
G02*
X64657500Y-17707500I0J200000D01*
G01*
G37*
G36*
G01*
X63133500Y-17707500D02*
X63133500Y-16564500D01*
G75*
G02*
X63333500Y-16364500I200000J0D01*
G01*
X63968500Y-16364500D01*
G75*
G02*
X64168500Y-16564500I0J-200000D01*
G01*
X64168500Y-17707500D01*
G75*
G02*
X63968500Y-17907500I-200000J0D01*
G01*
X63333500Y-17907500D01*
G75*
G02*
X63133500Y-17707500I0J200000D01*
G01*
G37*
G36*
G01*
X18448500Y-16310500D02*
X18448500Y-17453500D01*
G75*
G02*
X18248500Y-17653500I-200000J0D01*
G01*
X17613500Y-17653500D01*
G75*
G02*
X17413500Y-17453500I0J200000D01*
G01*
X17413500Y-16310500D01*
G75*
G02*
X17613500Y-16110500I200000J0D01*
G01*
X18248500Y-16110500D01*
G75*
G02*
X18448500Y-16310500I0J-200000D01*
G01*
G37*
G36*
G01*
X19972500Y-16310500D02*
X19972500Y-17453500D01*
G75*
G02*
X19772500Y-17653500I-200000J0D01*
G01*
X19137500Y-17653500D01*
G75*
G02*
X18937500Y-17453500I0J200000D01*
G01*
X18937500Y-16310500D01*
G75*
G02*
X19137500Y-16110500I200000J0D01*
G01*
X19772500Y-16110500D01*
G75*
G02*
X19972500Y-16310500I0J-200000D01*
G01*
G37*
G36*
G01*
X57618500Y-11684500D02*
X56475500Y-11684500D01*
G75*
G02*
X56275500Y-11484500I0J200000D01*
G01*
X56275500Y-10849500D01*
G75*
G02*
X56475500Y-10649500I200000J0D01*
G01*
X57618500Y-10649500D01*
G75*
G02*
X57818500Y-10849500I0J-200000D01*
G01*
X57818500Y-11484500D01*
G75*
G02*
X57618500Y-11684500I-200000J0D01*
G01*
G37*
G36*
G01*
X57618500Y-13208500D02*
X56475500Y-13208500D01*
G75*
G02*
X56275500Y-13008500I0J200000D01*
G01*
X56275500Y-12373500D01*
G75*
G02*
X56475500Y-12173500I200000J0D01*
G01*
X57618500Y-12173500D01*
G75*
G02*
X57818500Y-12373500I0J-200000D01*
G01*
X57818500Y-13008500D01*
G75*
G02*
X57618500Y-13208500I-200000J0D01*
G01*
G37*
G36*
G01*
X18448500Y-11992500D02*
X18448500Y-13135500D01*
G75*
G02*
X18248500Y-13335500I-200000J0D01*
G01*
X17613500Y-13335500D01*
G75*
G02*
X17413500Y-13135500I0J200000D01*
G01*
X17413500Y-11992500D01*
G75*
G02*
X17613500Y-11792500I200000J0D01*
G01*
X18248500Y-11792500D01*
G75*
G02*
X18448500Y-11992500I0J-200000D01*
G01*
G37*
G36*
G01*
X19972500Y-11992500D02*
X19972500Y-13135500D01*
G75*
G02*
X19772500Y-13335500I-200000J0D01*
G01*
X19137500Y-13335500D01*
G75*
G02*
X18937500Y-13135500I0J200000D01*
G01*
X18937500Y-11992500D01*
G75*
G02*
X19137500Y-11792500I200000J0D01*
G01*
X19772500Y-11792500D01*
G75*
G02*
X19972500Y-11992500I0J-200000D01*
G01*
G37*
G36*
G01*
X18448500Y-8055500D02*
X18448500Y-9198500D01*
G75*
G02*
X18248500Y-9398500I-200000J0D01*
G01*
X17613500Y-9398500D01*
G75*
G02*
X17413500Y-9198500I0J200000D01*
G01*
X17413500Y-8055500D01*
G75*
G02*
X17613500Y-7855500I200000J0D01*
G01*
X18248500Y-7855500D01*
G75*
G02*
X18448500Y-8055500I0J-200000D01*
G01*
G37*
G36*
G01*
X19972500Y-8055500D02*
X19972500Y-9198500D01*
G75*
G02*
X19772500Y-9398500I-200000J0D01*
G01*
X19137500Y-9398500D01*
G75*
G02*
X18937500Y-9198500I0J200000D01*
G01*
X18937500Y-8055500D01*
G75*
G02*
X19137500Y-7855500I200000J0D01*
G01*
X19772500Y-7855500D01*
G75*
G02*
X19972500Y-8055500I0J-200000D01*
G01*
G37*
G36*
G01*
X22439500Y-7620500D02*
X21296500Y-7620500D01*
G75*
G02*
X21096500Y-7420500I0J200000D01*
G01*
X21096500Y-6785500D01*
G75*
G02*
X21296500Y-6585500I200000J0D01*
G01*
X22439500Y-6585500D01*
G75*
G02*
X22639500Y-6785500I0J-200000D01*
G01*
X22639500Y-7420500D01*
G75*
G02*
X22439500Y-7620500I-200000J0D01*
G01*
G37*
G36*
G01*
X22439500Y-9144500D02*
X21296500Y-9144500D01*
G75*
G02*
X21096500Y-8944500I0J200000D01*
G01*
X21096500Y-8309500D01*
G75*
G02*
X21296500Y-8109500I200000J0D01*
G01*
X22439500Y-8109500D01*
G75*
G02*
X22639500Y-8309500I0J-200000D01*
G01*
X22639500Y-8944500D01*
G75*
G02*
X22439500Y-9144500I-200000J0D01*
G01*
G37*
G36*
G01*
X34387000Y-25073499D02*
X34387000Y-26470501D01*
G75*
G02*
X34187001Y-26670500I-199999J0D01*
G01*
X33297999Y-26670500D01*
G75*
G02*
X33098000Y-26470501I0J199999D01*
G01*
X33098000Y-25073499D01*
G75*
G02*
X33297999Y-24873500I199999J0D01*
G01*
X34187001Y-24873500D01*
G75*
G02*
X34387000Y-25073499I0J-199999D01*
G01*
G37*
G36*
G01*
X36292000Y-25073499D02*
X36292000Y-26470501D01*
G75*
G02*
X36092001Y-26670500I-199999J0D01*
G01*
X35202999Y-26670500D01*
G75*
G02*
X35003000Y-26470501I0J199999D01*
G01*
X35003000Y-25073499D01*
G75*
G02*
X35202999Y-24873500I199999J0D01*
G01*
X36092001Y-24873500D01*
G75*
G02*
X36292000Y-25073499I0J-199999D01*
G01*
G37*
D11*
X59642000Y-25336000D03*
X55142000Y-29836000D03*
G36*
G01*
X64985000Y-10852000D02*
X64985000Y-9802000D01*
G75*
G02*
X65185000Y-9602000I200000J0D01*
G01*
X67385000Y-9602000D01*
G75*
G02*
X67585000Y-9802000I0J-200000D01*
G01*
X67585000Y-10852000D01*
G75*
G02*
X67385000Y-11052000I-200000J0D01*
G01*
X65185000Y-11052000D01*
G75*
G02*
X64985000Y-10852000I0J200000D01*
G01*
G37*
G36*
G01*
X64035000Y-12302000D02*
X64035000Y-11302000D01*
G75*
G02*
X64235000Y-11102000I200000J0D01*
G01*
X65285000Y-11102000D01*
G75*
G02*
X65485000Y-11302000I0J-200000D01*
G01*
X65485000Y-12302000D01*
G75*
G02*
X65285000Y-12502000I-200000J0D01*
G01*
X64235000Y-12502000D01*
G75*
G02*
X64035000Y-12302000I0J200000D01*
G01*
G37*
G36*
G01*
X64985000Y-13802000D02*
X64985000Y-12752000D01*
G75*
G02*
X65185000Y-12552000I200000J0D01*
G01*
X67385000Y-12552000D01*
G75*
G02*
X67585000Y-12752000I0J-200000D01*
G01*
X67585000Y-13802000D01*
G75*
G02*
X67385000Y-14002000I-200000J0D01*
G01*
X65185000Y-14002000D01*
G75*
G02*
X64985000Y-13802000I0J200000D01*
G01*
G37*
D12*
X85378000Y-1134000D03*
X87918000Y-1134000D03*
G36*
G01*
X89608000Y-84000D02*
X91308000Y-84000D01*
G75*
G02*
X91508000Y-284000I0J-200000D01*
G01*
X91508000Y-1984000D01*
G75*
G02*
X91308000Y-2184000I-200000J0D01*
G01*
X89608000Y-2184000D01*
G75*
G02*
X89408000Y-1984000I0J200000D01*
G01*
X89408000Y-284000D01*
G75*
G02*
X89608000Y-84000I200000J0D01*
G01*
G37*
X57428000Y-1134000D03*
X54888000Y-1134000D03*
X52348000Y-1134000D03*
X49808000Y-1134000D03*
X47268000Y-1134000D03*
X44728000Y-1134000D03*
X42188000Y-1134000D03*
X39648000Y-1134000D03*
X37108000Y-1134000D03*
X34568000Y-1134000D03*
X32028000Y-1134000D03*
X29488000Y-1134000D03*
X26948000Y-1134000D03*
X24408000Y-1134000D03*
X21868000Y-1134000D03*
X19328000Y-1134000D03*
X16788000Y-1134000D03*
X14248000Y-1134000D03*
X11708000Y-1134000D03*
G36*
G01*
X10018000Y-2184000D02*
X8318000Y-2184000D01*
G75*
G02*
X8118000Y-1984000I0J200000D01*
G01*
X8118000Y-284000D01*
G75*
G02*
X8318000Y-84000I200000J0D01*
G01*
X10018000Y-84000D01*
G75*
G02*
X10218000Y-284000I0J-200000D01*
G01*
X10218000Y-1984000D01*
G75*
G02*
X10018000Y-2184000I-200000J0D01*
G01*
G37*
G36*
G01*
X86881500Y-15614501D02*
X86881500Y-4814499D01*
G75*
G02*
X87081499Y-4614500I199999J0D01*
G01*
X96481501Y-4614500D01*
G75*
G02*
X96681500Y-4814499I0J-199999D01*
G01*
X96681500Y-15614501D01*
G75*
G02*
X96481501Y-15814500I-199999J0D01*
G01*
X87081499Y-15814500D01*
G75*
G02*
X86881500Y-15614501I0J199999D01*
G01*
G37*
G36*
G01*
X80131500Y-13304500D02*
X80131500Y-12204500D01*
G75*
G02*
X80331500Y-12004500I200000J0D01*
G01*
X84931500Y-12004500D01*
G75*
G02*
X85131500Y-12204500I0J-200000D01*
G01*
X85131500Y-13304500D01*
G75*
G02*
X84931500Y-13504500I-200000J0D01*
G01*
X80331500Y-13504500D01*
G75*
G02*
X80131500Y-13304500I0J200000D01*
G01*
G37*
G36*
G01*
X80131500Y-8224500D02*
X80131500Y-7124500D01*
G75*
G02*
X80331500Y-6924500I200000J0D01*
G01*
X84931500Y-6924500D01*
G75*
G02*
X85131500Y-7124500I0J-200000D01*
G01*
X85131500Y-8224500D01*
G75*
G02*
X84931500Y-8424500I-200000J0D01*
G01*
X80331500Y-8424500D01*
G75*
G02*
X80131500Y-8224500I0J200000D01*
G01*
G37*
G36*
G01*
X75852500Y-36566999D02*
X75852500Y-37964001D01*
G75*
G02*
X75652501Y-38164000I-199999J0D01*
G01*
X74763499Y-38164000D01*
G75*
G02*
X74563500Y-37964001I0J199999D01*
G01*
X74563500Y-36566999D01*
G75*
G02*
X74763499Y-36367000I199999J0D01*
G01*
X75652501Y-36367000D01*
G75*
G02*
X75852500Y-36566999I0J-199999D01*
G01*
G37*
G36*
G01*
X77757500Y-36566999D02*
X77757500Y-37964001D01*
G75*
G02*
X77557501Y-38164000I-199999J0D01*
G01*
X76668499Y-38164000D01*
G75*
G02*
X76468500Y-37964001I0J199999D01*
G01*
X76468500Y-36566999D01*
G75*
G02*
X76668499Y-36367000I199999J0D01*
G01*
X77557501Y-36367000D01*
G75*
G02*
X77757500Y-36566999I0J-199999D01*
G01*
G37*
D11*
X35465500Y-39098500D03*
X39965500Y-34598500D03*
G36*
G01*
X82520000Y-36566999D02*
X82520000Y-37964001D01*
G75*
G02*
X82320001Y-38164000I-199999J0D01*
G01*
X81430999Y-38164000D01*
G75*
G02*
X81231000Y-37964001I0J199999D01*
G01*
X81231000Y-36566999D01*
G75*
G02*
X81430999Y-36367000I199999J0D01*
G01*
X82320001Y-36367000D01*
G75*
G02*
X82520000Y-36566999I0J-199999D01*
G01*
G37*
G36*
G01*
X84425000Y-36566999D02*
X84425000Y-37964001D01*
G75*
G02*
X84225001Y-38164000I-199999J0D01*
G01*
X83335999Y-38164000D01*
G75*
G02*
X83136000Y-37964001I0J199999D01*
G01*
X83136000Y-36566999D01*
G75*
G02*
X83335999Y-36367000I199999J0D01*
G01*
X84225001Y-36367000D01*
G75*
G02*
X84425000Y-36566999I0J-199999D01*
G01*
G37*
X28717500Y-35479000D03*
X24217500Y-30979000D03*
G36*
G01*
X91473500Y-38662499D02*
X91473500Y-40059501D01*
G75*
G02*
X91273501Y-40259500I-199999J0D01*
G01*
X90384499Y-40259500D01*
G75*
G02*
X90184500Y-40059501I0J199999D01*
G01*
X90184500Y-38662499D01*
G75*
G02*
X90384499Y-38462500I199999J0D01*
G01*
X91273501Y-38462500D01*
G75*
G02*
X91473500Y-38662499I0J-199999D01*
G01*
G37*
G36*
G01*
X93378500Y-38662499D02*
X93378500Y-40059501D01*
G75*
G02*
X93178501Y-40259500I-199999J0D01*
G01*
X92289499Y-40259500D01*
G75*
G02*
X92089500Y-40059501I0J199999D01*
G01*
X92089500Y-38662499D01*
G75*
G02*
X92289499Y-38462500I199999J0D01*
G01*
X93178501Y-38462500D01*
G75*
G02*
X93378500Y-38662499I0J-199999D01*
G01*
G37*
G36*
G01*
X36165000Y-31232999D02*
X36165000Y-32630001D01*
G75*
G02*
X35965001Y-32830000I-199999J0D01*
G01*
X35075999Y-32830000D01*
G75*
G02*
X34876000Y-32630001I0J199999D01*
G01*
X34876000Y-31232999D01*
G75*
G02*
X35075999Y-31033000I199999J0D01*
G01*
X35965001Y-31033000D01*
G75*
G02*
X36165000Y-31232999I0J-199999D01*
G01*
G37*
G36*
G01*
X38070000Y-31232999D02*
X38070000Y-32630001D01*
G75*
G02*
X37870001Y-32830000I-199999J0D01*
G01*
X36980999Y-32830000D01*
G75*
G02*
X36781000Y-32630001I0J199999D01*
G01*
X36781000Y-31232999D01*
G75*
G02*
X36980999Y-31033000I199999J0D01*
G01*
X37870001Y-31033000D01*
G75*
G02*
X38070000Y-31232999I0J-199999D01*
G01*
G37*
G36*
G01*
X38711400Y-23193901D02*
X38711400Y-21796899D01*
G75*
G02*
X38911399Y-21596900I199999J0D01*
G01*
X39800401Y-21596900D01*
G75*
G02*
X40000400Y-21796899I0J-199999D01*
G01*
X40000400Y-23193901D01*
G75*
G02*
X39800401Y-23393900I-199999J0D01*
G01*
X38911399Y-23393900D01*
G75*
G02*
X38711400Y-23193901I0J199999D01*
G01*
G37*
G36*
G01*
X36806400Y-23193901D02*
X36806400Y-21796899D01*
G75*
G02*
X37006399Y-21596900I199999J0D01*
G01*
X37895401Y-21596900D01*
G75*
G02*
X38095400Y-21796899I0J-199999D01*
G01*
X38095400Y-23193901D01*
G75*
G02*
X37895401Y-23393900I-199999J0D01*
G01*
X37006399Y-23393900D01*
G75*
G02*
X36806400Y-23193901I0J199999D01*
G01*
G37*
G36*
G01*
X38686000Y-18342501D02*
X38686000Y-16945499D01*
G75*
G02*
X38885999Y-16745500I199999J0D01*
G01*
X39775001Y-16745500D01*
G75*
G02*
X39975000Y-16945499I0J-199999D01*
G01*
X39975000Y-18342501D01*
G75*
G02*
X39775001Y-18542500I-199999J0D01*
G01*
X38885999Y-18542500D01*
G75*
G02*
X38686000Y-18342501I0J199999D01*
G01*
G37*
G36*
G01*
X36781000Y-18342501D02*
X36781000Y-16945499D01*
G75*
G02*
X36980999Y-16745500I199999J0D01*
G01*
X37870001Y-16745500D01*
G75*
G02*
X38070000Y-16945499I0J-199999D01*
G01*
X38070000Y-18342501D01*
G75*
G02*
X37870001Y-18542500I-199999J0D01*
G01*
X36980999Y-18542500D01*
G75*
G02*
X36781000Y-18342501I0J199999D01*
G01*
G37*
G36*
G01*
X36908000Y-11535301D02*
X36908000Y-10138299D01*
G75*
G02*
X37107999Y-9938300I199999J0D01*
G01*
X37997001Y-9938300D01*
G75*
G02*
X38197000Y-10138299I0J-199999D01*
G01*
X38197000Y-11535301D01*
G75*
G02*
X37997001Y-11735300I-199999J0D01*
G01*
X37107999Y-11735300D01*
G75*
G02*
X36908000Y-11535301I0J199999D01*
G01*
G37*
G36*
G01*
X35003000Y-11535301D02*
X35003000Y-10138299D01*
G75*
G02*
X35202999Y-9938300I199999J0D01*
G01*
X36092001Y-9938300D01*
G75*
G02*
X36292000Y-10138299I0J-199999D01*
G01*
X36292000Y-11535301D01*
G75*
G02*
X36092001Y-11735300I-199999J0D01*
G01*
X35202999Y-11735300D01*
G75*
G02*
X35003000Y-11535301I0J199999D01*
G01*
G37*
G36*
G01*
X22684000Y-22660501D02*
X22684000Y-21263499D01*
G75*
G02*
X22883999Y-21063500I199999J0D01*
G01*
X23773001Y-21063500D01*
G75*
G02*
X23973000Y-21263499I0J-199999D01*
G01*
X23973000Y-22660501D01*
G75*
G02*
X23773001Y-22860500I-199999J0D01*
G01*
X22883999Y-22860500D01*
G75*
G02*
X22684000Y-22660501I0J199999D01*
G01*
G37*
G36*
G01*
X20779000Y-22660501D02*
X20779000Y-21263499D01*
G75*
G02*
X20978999Y-21063500I199999J0D01*
G01*
X21868001Y-21063500D01*
G75*
G02*
X22068000Y-21263499I0J-199999D01*
G01*
X22068000Y-22660501D01*
G75*
G02*
X21868001Y-22860500I-199999J0D01*
G01*
X20978999Y-22860500D01*
G75*
G02*
X20779000Y-22660501I0J199999D01*
G01*
G37*
G36*
G01*
X21169499Y-16301000D02*
X22566501Y-16301000D01*
G75*
G02*
X22766500Y-16500999I0J-199999D01*
G01*
X22766500Y-17390001D01*
G75*
G02*
X22566501Y-17590000I-199999J0D01*
G01*
X21169499Y-17590000D01*
G75*
G02*
X20969500Y-17390001I0J199999D01*
G01*
X20969500Y-16500999D01*
G75*
G02*
X21169499Y-16301000I199999J0D01*
G01*
G37*
G36*
G01*
X21169499Y-14396000D02*
X22566501Y-14396000D01*
G75*
G02*
X22766500Y-14595999I0J-199999D01*
G01*
X22766500Y-15485001D01*
G75*
G02*
X22566501Y-15685000I-199999J0D01*
G01*
X21169499Y-15685000D01*
G75*
G02*
X20969500Y-15485001I0J199999D01*
G01*
X20969500Y-14595999D01*
G75*
G02*
X21169499Y-14396000I199999J0D01*
G01*
G37*
G36*
G01*
X21169499Y-11856000D02*
X22566501Y-11856000D01*
G75*
G02*
X22766500Y-12055999I0J-199999D01*
G01*
X22766500Y-12945001D01*
G75*
G02*
X22566501Y-13145000I-199999J0D01*
G01*
X21169499Y-13145000D01*
G75*
G02*
X20969500Y-12945001I0J199999D01*
G01*
X20969500Y-12055999D01*
G75*
G02*
X21169499Y-11856000I199999J0D01*
G01*
G37*
G36*
G01*
X21169499Y-9951000D02*
X22566501Y-9951000D01*
G75*
G02*
X22766500Y-10150999I0J-199999D01*
G01*
X22766500Y-11040001D01*
G75*
G02*
X22566501Y-11240000I-199999J0D01*
G01*
X21169499Y-11240000D01*
G75*
G02*
X20969500Y-11040001I0J199999D01*
G01*
X20969500Y-10150999D01*
G75*
G02*
X21169499Y-9951000I199999J0D01*
G01*
G37*
G36*
G01*
X62390500Y-20450699D02*
X62390500Y-21847701D01*
G75*
G02*
X62190501Y-22047700I-199999J0D01*
G01*
X61301499Y-22047700D01*
G75*
G02*
X61101500Y-21847701I0J199999D01*
G01*
X61101500Y-20450699D01*
G75*
G02*
X61301499Y-20250700I199999J0D01*
G01*
X62190501Y-20250700D01*
G75*
G02*
X62390500Y-20450699I0J-199999D01*
G01*
G37*
G36*
G01*
X64295500Y-20450699D02*
X64295500Y-21847701D01*
G75*
G02*
X64095501Y-22047700I-199999J0D01*
G01*
X63206499Y-22047700D01*
G75*
G02*
X63006500Y-21847701I0J199999D01*
G01*
X63006500Y-20450699D01*
G75*
G02*
X63206499Y-20250700I199999J0D01*
G01*
X64095501Y-20250700D01*
G75*
G02*
X64295500Y-20450699I0J-199999D01*
G01*
G37*
G36*
G01*
X63000000Y-47600000D02*
X63000000Y-42400000D01*
G75*
G02*
X63200000Y-42200000I200000J0D01*
G01*
X64800000Y-42200000D01*
G75*
G02*
X65000000Y-42400000I0J-200000D01*
G01*
X65000000Y-47600000D01*
G75*
G02*
X64800000Y-47800000I-200000J0D01*
G01*
X63200000Y-47800000D01*
G75*
G02*
X63000000Y-47600000I0J200000D01*
G01*
G37*
G36*
G01*
X57800000Y-47600000D02*
X57800000Y-42400000D01*
G75*
G02*
X58000000Y-42200000I200000J0D01*
G01*
X62400000Y-42200000D01*
G75*
G02*
X62600000Y-42400000I0J-200000D01*
G01*
X62600000Y-47600000D01*
G75*
G02*
X62400000Y-47800000I-200000J0D01*
G01*
X58000000Y-47800000D01*
G75*
G02*
X57800000Y-47600000I0J200000D01*
G01*
G37*
G36*
G01*
X65400000Y-47600000D02*
X65400000Y-42400000D01*
G75*
G02*
X65600000Y-42200000I200000J0D01*
G01*
X70000000Y-42200000D01*
G75*
G02*
X70200000Y-42400000I0J-200000D01*
G01*
X70200000Y-47600000D01*
G75*
G02*
X70000000Y-47800000I-200000J0D01*
G01*
X65600000Y-47800000D01*
G75*
G02*
X65400000Y-47600000I0J200000D01*
G01*
G37*
G36*
G01*
X31000000Y-47600000D02*
X31000000Y-42400000D01*
G75*
G02*
X31200000Y-42200000I200000J0D01*
G01*
X32800000Y-42200000D01*
G75*
G02*
X33000000Y-42400000I0J-200000D01*
G01*
X33000000Y-47600000D01*
G75*
G02*
X32800000Y-47800000I-200000J0D01*
G01*
X31200000Y-47800000D01*
G75*
G02*
X31000000Y-47600000I0J200000D01*
G01*
G37*
G36*
G01*
X25800000Y-47600000D02*
X25800000Y-42400000D01*
G75*
G02*
X26000000Y-42200000I200000J0D01*
G01*
X30400000Y-42200000D01*
G75*
G02*
X30600000Y-42400000I0J-200000D01*
G01*
X30600000Y-47600000D01*
G75*
G02*
X30400000Y-47800000I-200000J0D01*
G01*
X26000000Y-47800000D01*
G75*
G02*
X25800000Y-47600000I0J200000D01*
G01*
G37*
G36*
G01*
X33400000Y-47600000D02*
X33400000Y-42400000D01*
G75*
G02*
X33600000Y-42200000I200000J0D01*
G01*
X38000000Y-42200000D01*
G75*
G02*
X38200000Y-42400000I0J-200000D01*
G01*
X38200000Y-47600000D01*
G75*
G02*
X38000000Y-47800000I-200000J0D01*
G01*
X33600000Y-47800000D01*
G75*
G02*
X33400000Y-47600000I0J200000D01*
G01*
G37*
G36*
G01*
X33837000Y-17734000D02*
X33837000Y-18634000D01*
G75*
G02*
X33637000Y-18834000I-200000J0D01*
G01*
X32837000Y-18834000D01*
G75*
G02*
X32637000Y-18634000I0J200000D01*
G01*
X32637000Y-17734000D01*
G75*
G02*
X32837000Y-17534000I200000J0D01*
G01*
X33637000Y-17534000D01*
G75*
G02*
X33837000Y-17734000I0J-200000D01*
G01*
G37*
G36*
G01*
X34787000Y-19734000D02*
X34787000Y-20634000D01*
G75*
G02*
X34587000Y-20834000I-200000J0D01*
G01*
X33787000Y-20834000D01*
G75*
G02*
X33587000Y-20634000I0J200000D01*
G01*
X33587000Y-19734000D01*
G75*
G02*
X33787000Y-19534000I200000J0D01*
G01*
X34587000Y-19534000D01*
G75*
G02*
X34787000Y-19734000I0J-200000D01*
G01*
G37*
G36*
G01*
X35737000Y-17734000D02*
X35737000Y-18634000D01*
G75*
G02*
X35537000Y-18834000I-200000J0D01*
G01*
X34737000Y-18834000D01*
G75*
G02*
X34537000Y-18634000I0J200000D01*
G01*
X34537000Y-17734000D01*
G75*
G02*
X34737000Y-17534000I200000J0D01*
G01*
X35537000Y-17534000D01*
G75*
G02*
X35737000Y-17734000I0J-200000D01*
G01*
G37*
G36*
G01*
X83786000Y-29486000D02*
X82886000Y-29486000D01*
G75*
G02*
X82686000Y-29286000I0J200000D01*
G01*
X82686000Y-28486000D01*
G75*
G02*
X82886000Y-28286000I200000J0D01*
G01*
X83786000Y-28286000D01*
G75*
G02*
X83986000Y-28486000I0J-200000D01*
G01*
X83986000Y-29286000D01*
G75*
G02*
X83786000Y-29486000I-200000J0D01*
G01*
G37*
G36*
G01*
X81786000Y-30436000D02*
X80886000Y-30436000D01*
G75*
G02*
X80686000Y-30236000I0J200000D01*
G01*
X80686000Y-29436000D01*
G75*
G02*
X80886000Y-29236000I200000J0D01*
G01*
X81786000Y-29236000D01*
G75*
G02*
X81986000Y-29436000I0J-200000D01*
G01*
X81986000Y-30236000D01*
G75*
G02*
X81786000Y-30436000I-200000J0D01*
G01*
G37*
G36*
G01*
X83786000Y-31386000D02*
X82886000Y-31386000D01*
G75*
G02*
X82686000Y-31186000I0J200000D01*
G01*
X82686000Y-30386000D01*
G75*
G02*
X82886000Y-30186000I200000J0D01*
G01*
X83786000Y-30186000D01*
G75*
G02*
X83986000Y-30386000I0J-200000D01*
G01*
X83986000Y-31186000D01*
G75*
G02*
X83786000Y-31386000I-200000J0D01*
G01*
G37*
X77930000Y-25336000D03*
X73430000Y-29836000D03*
X68786000Y-25336000D03*
X64286000Y-29836000D03*
G36*
G01*
X31028000Y-5258000D02*
X31028000Y-58000D01*
G75*
G02*
X31228000Y142000I200000J0D01*
G01*
X32828000Y142000D01*
G75*
G02*
X33028000Y-58000I0J-200000D01*
G01*
X33028000Y-5258000D01*
G75*
G02*
X32828000Y-5458000I-200000J0D01*
G01*
X31228000Y-5458000D01*
G75*
G02*
X31028000Y-5258000I0J200000D01*
G01*
G37*
G36*
G01*
X25828000Y-5258000D02*
X25828000Y-58000D01*
G75*
G02*
X26028000Y142000I200000J0D01*
G01*
X30428000Y142000D01*
G75*
G02*
X30628000Y-58000I0J-200000D01*
G01*
X30628000Y-5258000D01*
G75*
G02*
X30428000Y-5458000I-200000J0D01*
G01*
X26028000Y-5458000D01*
G75*
G02*
X25828000Y-5258000I0J200000D01*
G01*
G37*
G36*
G01*
X33428000Y-5258000D02*
X33428000Y-58000D01*
G75*
G02*
X33628000Y142000I200000J0D01*
G01*
X38028000Y142000D01*
G75*
G02*
X38228000Y-58000I0J-200000D01*
G01*
X38228000Y-5258000D01*
G75*
G02*
X38028000Y-5458000I-200000J0D01*
G01*
X33628000Y-5458000D01*
G75*
G02*
X33428000Y-5258000I0J200000D01*
G01*
G37*
G36*
G01*
X20868000Y-5258000D02*
X20868000Y-58000D01*
G75*
G02*
X21068000Y142000I200000J0D01*
G01*
X22668000Y142000D01*
G75*
G02*
X22868000Y-58000I0J-200000D01*
G01*
X22868000Y-5258000D01*
G75*
G02*
X22668000Y-5458000I-200000J0D01*
G01*
X21068000Y-5458000D01*
G75*
G02*
X20868000Y-5258000I0J200000D01*
G01*
G37*
G36*
G01*
X15668000Y-5258000D02*
X15668000Y-58000D01*
G75*
G02*
X15868000Y142000I200000J0D01*
G01*
X20268000Y142000D01*
G75*
G02*
X20468000Y-58000I0J-200000D01*
G01*
X20468000Y-5258000D01*
G75*
G02*
X20268000Y-5458000I-200000J0D01*
G01*
X15868000Y-5458000D01*
G75*
G02*
X15668000Y-5258000I0J200000D01*
G01*
G37*
G36*
G01*
X23268000Y-5258000D02*
X23268000Y-58000D01*
G75*
G02*
X23468000Y142000I200000J0D01*
G01*
X27868000Y142000D01*
G75*
G02*
X28068000Y-58000I0J-200000D01*
G01*
X28068000Y-5258000D01*
G75*
G02*
X27868000Y-5458000I-200000J0D01*
G01*
X23468000Y-5458000D01*
G75*
G02*
X23268000Y-5258000I0J200000D01*
G01*
G37*
G36*
G01*
X79018000Y-40367500D02*
X80161000Y-40367500D01*
G75*
G02*
X80361000Y-40567500I0J-200000D01*
G01*
X80361000Y-41202500D01*
G75*
G02*
X80161000Y-41402500I-200000J0D01*
G01*
X79018000Y-41402500D01*
G75*
G02*
X78818000Y-41202500I0J200000D01*
G01*
X78818000Y-40567500D01*
G75*
G02*
X79018000Y-40367500I200000J0D01*
G01*
G37*
G36*
G01*
X79018000Y-38843500D02*
X80161000Y-38843500D01*
G75*
G02*
X80361000Y-39043500I0J-200000D01*
G01*
X80361000Y-39678500D01*
G75*
G02*
X80161000Y-39878500I-200000J0D01*
G01*
X79018000Y-39878500D01*
G75*
G02*
X78818000Y-39678500I0J200000D01*
G01*
X78818000Y-39043500D01*
G75*
G02*
X79018000Y-38843500I200000J0D01*
G01*
G37*
G36*
G01*
X36558700Y-12779900D02*
X36558700Y-13922900D01*
G75*
G02*
X36358700Y-14122900I-200000J0D01*
G01*
X35723700Y-14122900D01*
G75*
G02*
X35523700Y-13922900I0J200000D01*
G01*
X35523700Y-12779900D01*
G75*
G02*
X35723700Y-12579900I200000J0D01*
G01*
X36358700Y-12579900D01*
G75*
G02*
X36558700Y-12779900I0J-200000D01*
G01*
G37*
G36*
G01*
X38082700Y-12779900D02*
X38082700Y-13922900D01*
G75*
G02*
X37882700Y-14122900I-200000J0D01*
G01*
X37247700Y-14122900D01*
G75*
G02*
X37047700Y-13922900I0J200000D01*
G01*
X37047700Y-12779900D01*
G75*
G02*
X37247700Y-12579900I200000J0D01*
G01*
X37882700Y-12579900D01*
G75*
G02*
X38082700Y-12779900I0J-200000D01*
G01*
G37*
G36*
G01*
X33161500Y-11408300D02*
X33161500Y-10265300D01*
G75*
G02*
X33361500Y-10065300I200000J0D01*
G01*
X33996500Y-10065300D01*
G75*
G02*
X34196500Y-10265300I0J-200000D01*
G01*
X34196500Y-11408300D01*
G75*
G02*
X33996500Y-11608300I-200000J0D01*
G01*
X33361500Y-11608300D01*
G75*
G02*
X33161500Y-11408300I0J200000D01*
G01*
G37*
G36*
G01*
X31637500Y-11408300D02*
X31637500Y-10265300D01*
G75*
G02*
X31837500Y-10065300I200000J0D01*
G01*
X32472500Y-10065300D01*
G75*
G02*
X32672500Y-10265300I0J-200000D01*
G01*
X32672500Y-11408300D01*
G75*
G02*
X32472500Y-11608300I-200000J0D01*
G01*
X31837500Y-11608300D01*
G75*
G02*
X31637500Y-11408300I0J200000D01*
G01*
G37*
G36*
G01*
X69881100Y-6563200D02*
X69881100Y-5763200D01*
G75*
G02*
X70081100Y-5563200I200000J0D01*
G01*
X70981100Y-5563200D01*
G75*
G02*
X71181100Y-5763200I0J-200000D01*
G01*
X71181100Y-6563200D01*
G75*
G02*
X70981100Y-6763200I-200000J0D01*
G01*
X70081100Y-6763200D01*
G75*
G02*
X69881100Y-6563200I0J200000D01*
G01*
G37*
G36*
G01*
X67881100Y-7513200D02*
X67881100Y-6713200D01*
G75*
G02*
X68081100Y-6513200I200000J0D01*
G01*
X68981100Y-6513200D01*
G75*
G02*
X69181100Y-6713200I0J-200000D01*
G01*
X69181100Y-7513200D01*
G75*
G02*
X68981100Y-7713200I-200000J0D01*
G01*
X68081100Y-7713200D01*
G75*
G02*
X67881100Y-7513200I0J200000D01*
G01*
G37*
G36*
G01*
X67881100Y-5613200D02*
X67881100Y-4813200D01*
G75*
G02*
X68081100Y-4613200I200000J0D01*
G01*
X68981100Y-4613200D01*
G75*
G02*
X69181100Y-4813200I0J-200000D01*
G01*
X69181100Y-5613200D01*
G75*
G02*
X68981100Y-5813200I-200000J0D01*
G01*
X68081100Y-5813200D01*
G75*
G02*
X67881100Y-5613200I0J200000D01*
G01*
G37*
G36*
G01*
X58641600Y-6461600D02*
X58641600Y-5661600D01*
G75*
G02*
X58841600Y-5461600I200000J0D01*
G01*
X59741600Y-5461600D01*
G75*
G02*
X59941600Y-5661600I0J-200000D01*
G01*
X59941600Y-6461600D01*
G75*
G02*
X59741600Y-6661600I-200000J0D01*
G01*
X58841600Y-6661600D01*
G75*
G02*
X58641600Y-6461600I0J200000D01*
G01*
G37*
G36*
G01*
X56641600Y-7411600D02*
X56641600Y-6611600D01*
G75*
G02*
X56841600Y-6411600I200000J0D01*
G01*
X57741600Y-6411600D01*
G75*
G02*
X57941600Y-6611600I0J-200000D01*
G01*
X57941600Y-7411600D01*
G75*
G02*
X57741600Y-7611600I-200000J0D01*
G01*
X56841600Y-7611600D01*
G75*
G02*
X56641600Y-7411600I0J200000D01*
G01*
G37*
G36*
G01*
X56641600Y-5511600D02*
X56641600Y-4711600D01*
G75*
G02*
X56841600Y-4511600I200000J0D01*
G01*
X57741600Y-4511600D01*
G75*
G02*
X57941600Y-4711600I0J-200000D01*
G01*
X57941600Y-5511600D01*
G75*
G02*
X57741600Y-5711600I-200000J0D01*
G01*
X56841600Y-5711600D01*
G75*
G02*
X56641600Y-5511600I0J200000D01*
G01*
G37*
G36*
G01*
X50691400Y-8823800D02*
X50691400Y-8023800D01*
G75*
G02*
X50891400Y-7823800I200000J0D01*
G01*
X51791400Y-7823800D01*
G75*
G02*
X51991400Y-8023800I0J-200000D01*
G01*
X51991400Y-8823800D01*
G75*
G02*
X51791400Y-9023800I-200000J0D01*
G01*
X50891400Y-9023800D01*
G75*
G02*
X50691400Y-8823800I0J200000D01*
G01*
G37*
G36*
G01*
X48691400Y-9773800D02*
X48691400Y-8973800D01*
G75*
G02*
X48891400Y-8773800I200000J0D01*
G01*
X49791400Y-8773800D01*
G75*
G02*
X49991400Y-8973800I0J-200000D01*
G01*
X49991400Y-9773800D01*
G75*
G02*
X49791400Y-9973800I-200000J0D01*
G01*
X48891400Y-9973800D01*
G75*
G02*
X48691400Y-9773800I0J200000D01*
G01*
G37*
G36*
G01*
X48691400Y-7873800D02*
X48691400Y-7073800D01*
G75*
G02*
X48891400Y-6873800I200000J0D01*
G01*
X49791400Y-6873800D01*
G75*
G02*
X49991400Y-7073800I0J-200000D01*
G01*
X49991400Y-7873800D01*
G75*
G02*
X49791400Y-8073800I-200000J0D01*
G01*
X48891400Y-8073800D01*
G75*
G02*
X48691400Y-7873800I0J200000D01*
G01*
G37*
D13*
X12000000Y-44400000D03*
D14*
X12000000Y-39900000D03*
D15*
X16250000Y-47550000D03*
D16*
X7750000Y-47550000D03*
G36*
G01*
X62295400Y-5487000D02*
X62295400Y-6687000D01*
G75*
G02*
X62095400Y-6887000I-200000J0D01*
G01*
X61195400Y-6887000D01*
G75*
G02*
X60995400Y-6687000I0J200000D01*
G01*
X60995400Y-5487000D01*
G75*
G02*
X61195400Y-5287000I200000J0D01*
G01*
X62095400Y-5287000D01*
G75*
G02*
X62295400Y-5487000I0J-200000D01*
G01*
G37*
G36*
G01*
X65595400Y-5487000D02*
X65595400Y-6687000D01*
G75*
G02*
X65395400Y-6887000I-200000J0D01*
G01*
X64495400Y-6887000D01*
G75*
G02*
X64295400Y-6687000I0J200000D01*
G01*
X64295400Y-5487000D01*
G75*
G02*
X64495400Y-5287000I200000J0D01*
G01*
X65395400Y-5287000D01*
G75*
G02*
X65595400Y-5487000I0J-200000D01*
G01*
G37*
G36*
G01*
X43314000Y-5734500D02*
X43314000Y-4534500D01*
G75*
G02*
X43514000Y-4334500I200000J0D01*
G01*
X44414000Y-4334500D01*
G75*
G02*
X44614000Y-4534500I0J-200000D01*
G01*
X44614000Y-5734500D01*
G75*
G02*
X44414000Y-5934500I-200000J0D01*
G01*
X43514000Y-5934500D01*
G75*
G02*
X43314000Y-5734500I0J200000D01*
G01*
G37*
G36*
G01*
X40014000Y-5734500D02*
X40014000Y-4534500D01*
G75*
G02*
X40214000Y-4334500I200000J0D01*
G01*
X41114000Y-4334500D01*
G75*
G02*
X41314000Y-4534500I0J-200000D01*
G01*
X41314000Y-5734500D01*
G75*
G02*
X41114000Y-5934500I-200000J0D01*
G01*
X40214000Y-5934500D01*
G75*
G02*
X40014000Y-5734500I0J200000D01*
G01*
G37*
D17*
X87400000Y-3420000D03*
X88670000Y-3420000D03*
X89940000Y-3420000D03*
X91210000Y-3420000D03*
X92480000Y-3420000D03*
X93750000Y-3420000D03*
X95020000Y-3420000D03*
X96290000Y-3420000D03*
X97560000Y-3420000D03*
X86130000Y-3420000D03*
X84860000Y-3420000D03*
X84860000Y-4690000D03*
X84860000Y-5960000D03*
X84860000Y-9770000D03*
X83590000Y-9770000D03*
X83590000Y-11040000D03*
X84860000Y-11040000D03*
X84860000Y-14850000D03*
X84860000Y-16120000D03*
X87400000Y-17390000D03*
X88670000Y-17390000D03*
X89940000Y-17390000D03*
X91210000Y-17390000D03*
X92480000Y-17390000D03*
X93750000Y-17390000D03*
X95020000Y-17390000D03*
X96290000Y-17390000D03*
X97560000Y-17390000D03*
X97560000Y-18660000D03*
X96290000Y-18660000D03*
X95020000Y-18660000D03*
X93750000Y-18660000D03*
X92480000Y-18660000D03*
X91210000Y-18660000D03*
X89940000Y-18660000D03*
X88670000Y-18660000D03*
X93750000Y-2150000D03*
X95020000Y-2150000D03*
X97560000Y-2150000D03*
X96290000Y-2150000D03*
X97560000Y-4690000D03*
X97560000Y-5960000D03*
X97560000Y-7230000D03*
X97560000Y-8500000D03*
X97560000Y-9770000D03*
X97560000Y-11040000D03*
X97560000Y-12310000D03*
X97560000Y-13580000D03*
X97560000Y-14850000D03*
X97560000Y-16120000D03*
X86130000Y-17390000D03*
X84860000Y-17390000D03*
X84860000Y-18660000D03*
X86130000Y-18660000D03*
X87400000Y-18660000D03*
X62508000Y-17136000D03*
X62000000Y-18406000D03*
X60984000Y-18914000D03*
X59968000Y-18914000D03*
X58952000Y-18914000D03*
X28726000Y-21200000D03*
X28726000Y-22216000D03*
X28726000Y-23232000D03*
X28218000Y-23994000D03*
X25424000Y-21200000D03*
X25424000Y-22216000D03*
X25678000Y-23232000D03*
X25932000Y-23994000D03*
X26694000Y-24502000D03*
X27710000Y-24502000D03*
X34314000Y-33900000D03*
X34314000Y-34916000D03*
X34314000Y-35932000D03*
X34822000Y-36694000D03*
X37108000Y-36694000D03*
X37616000Y-35932000D03*
X37616000Y-34916000D03*
X37616000Y-33900000D03*
X88670000Y-34154000D03*
X89432000Y-34154000D03*
X90194000Y-34154000D03*
X90956000Y-34408000D03*
X91718000Y-34916000D03*
X91718000Y-35678000D03*
X91718000Y-36440000D03*
X90956000Y-36948000D03*
X90194000Y-37202000D03*
X89432000Y-37202000D03*
X88670000Y-37202000D03*
X62000000Y-16120000D03*
X62000000Y-16120000D03*
X60984000Y-15612000D03*
X59968000Y-15612000D03*
X71652000Y-11929000D03*
X68985000Y-15358000D03*
X59460000Y-14469000D03*
X26821000Y-15129400D03*
X15619600Y-19549000D03*
X47191800Y-37049600D03*
X31875600Y-27550000D03*
X62076200Y-2505600D03*
X79551400Y-29836000D03*
X41172000Y-15637400D03*
X72693400Y-2023000D03*
X91464000Y-25010000D03*
X47344200Y-29836000D03*
X38771700Y-31931500D03*
X12266800Y-8550800D03*
X47532200Y-9373800D03*
X55888800Y-7011600D03*
X52094000Y-5121800D03*
X70077200Y-8550800D03*
D18*
X2900000Y-49800000D02*
X100000Y-49800000D01*
X100000Y-100000D01*
X2900000Y-100000D01*
X2900000Y-49800000D01*
D10*
G36*
X2900000Y-49800000D02*
G01*
X100000Y-49800000D01*
X100000Y-100000D01*
X2900000Y-100000D01*
X2900000Y-49800000D01*
G37*
D18*
X99900000Y-49800000D02*
X97100000Y-49800000D01*
X97100000Y-100000D01*
X99900000Y-100000D01*
X99900000Y-49800000D01*
D10*
G36*
X99900000Y-49800000D02*
G01*
X97100000Y-49800000D01*
X97100000Y-100000D01*
X99900000Y-100000D01*
X99900000Y-49800000D01*
G37*
G36*
X87730260Y-36376362D02*
G01*
X87903204Y-36497423D01*
X87904049Y-36499235D01*
X87902902Y-36500873D01*
X87900910Y-36500699D01*
X87891118Y-36493845D01*
X87870017Y-36481971D01*
X87847103Y-36474474D01*
X87823162Y-36471590D01*
X87799126Y-36473433D01*
X87775906Y-36479930D01*
X87754402Y-36490832D01*
X87735438Y-36505719D01*
X87719743Y-36524021D01*
X87707919Y-36545033D01*
X87700424Y-36567939D01*
X87697488Y-36594769D01*
X87696306Y-36596382D01*
X87694318Y-36596164D01*
X87693500Y-36594551D01*
X87693500Y-36480000D01*
X85797500Y-36480000D01*
X85797500Y-36502999D01*
X85796500Y-36504731D01*
X85794500Y-36504731D01*
X85793510Y-36503195D01*
X85791128Y-36479008D01*
X85790086Y-36475574D01*
X85790000Y-36474993D01*
X85790000Y-36378000D01*
X85791000Y-36376268D01*
X85792000Y-36376000D01*
X87729113Y-36376000D01*
X87730260Y-36376362D01*
G37*
G36*
X37332030Y-35322301D02*
G01*
X37381249Y-35355188D01*
X37471440Y-35392546D01*
X37567190Y-35411592D01*
X37664810Y-35411592D01*
X37760560Y-35392546D01*
X37850751Y-35355188D01*
X37899970Y-35322301D01*
X37901966Y-35322170D01*
X37903077Y-35323833D01*
X37902350Y-35325510D01*
X37888309Y-35337033D01*
X37873014Y-35355670D01*
X37861649Y-35376934D01*
X37854649Y-35400009D01*
X37852286Y-35424000D01*
X37854649Y-35447991D01*
X37861649Y-35471066D01*
X37873014Y-35492330D01*
X37888309Y-35510967D01*
X37902350Y-35522490D01*
X37903054Y-35524362D01*
X37901785Y-35525908D01*
X37899970Y-35525699D01*
X37850751Y-35492812D01*
X37760560Y-35455454D01*
X37664810Y-35436408D01*
X37567190Y-35436408D01*
X37471440Y-35455454D01*
X37381249Y-35492812D01*
X37332030Y-35525699D01*
X37330034Y-35525830D01*
X37328923Y-35524167D01*
X37329650Y-35522490D01*
X37343691Y-35510967D01*
X37358986Y-35492330D01*
X37370351Y-35471066D01*
X37377351Y-35447991D01*
X37379714Y-35424000D01*
X37377351Y-35400009D01*
X37370351Y-35376934D01*
X37358986Y-35355670D01*
X37343691Y-35337033D01*
X37329650Y-35325510D01*
X37328946Y-35323638D01*
X37330215Y-35322092D01*
X37332030Y-35322301D01*
G37*
G36*
X34030030Y-35322301D02*
G01*
X34079249Y-35355188D01*
X34169440Y-35392546D01*
X34265190Y-35411592D01*
X34362810Y-35411592D01*
X34458560Y-35392546D01*
X34548751Y-35355188D01*
X34597970Y-35322301D01*
X34599966Y-35322170D01*
X34601077Y-35323833D01*
X34600350Y-35325510D01*
X34586309Y-35337033D01*
X34571014Y-35355670D01*
X34559649Y-35376934D01*
X34552649Y-35400009D01*
X34550286Y-35424000D01*
X34552649Y-35447991D01*
X34559649Y-35471066D01*
X34571014Y-35492330D01*
X34586309Y-35510967D01*
X34600350Y-35522490D01*
X34601054Y-35524362D01*
X34599785Y-35525908D01*
X34597970Y-35525699D01*
X34548751Y-35492812D01*
X34458560Y-35455454D01*
X34362810Y-35436408D01*
X34265190Y-35436408D01*
X34169440Y-35455454D01*
X34079249Y-35492812D01*
X34030030Y-35525699D01*
X34028034Y-35525830D01*
X34026923Y-35524167D01*
X34027650Y-35522490D01*
X34041691Y-35510967D01*
X34056986Y-35492330D01*
X34068351Y-35471066D01*
X34075351Y-35447991D01*
X34077714Y-35424000D01*
X34075351Y-35400009D01*
X34068351Y-35376934D01*
X34056986Y-35355670D01*
X34041691Y-35337033D01*
X34027650Y-35325510D01*
X34026946Y-35323638D01*
X34028215Y-35322092D01*
X34030030Y-35322301D01*
G37*
G36*
X87697490Y-34761253D02*
G01*
X87699872Y-34785440D01*
X87706872Y-34808515D01*
X87718237Y-34829779D01*
X87733532Y-34848416D01*
X87752169Y-34863711D01*
X87773433Y-34875076D01*
X87796508Y-34882076D01*
X87820499Y-34884439D01*
X87844490Y-34882076D01*
X87867553Y-34875080D01*
X87891130Y-34862147D01*
X87915483Y-34845100D01*
X87917476Y-34844926D01*
X87918622Y-34846564D01*
X87917777Y-34848376D01*
X87730260Y-34979638D01*
X87729113Y-34980000D01*
X85792000Y-34980000D01*
X85790268Y-34979000D01*
X85790000Y-34978000D01*
X85790000Y-34881007D01*
X85790086Y-34880426D01*
X85791128Y-34876992D01*
X85793510Y-34852805D01*
X85794675Y-34851179D01*
X85796665Y-34851375D01*
X85797500Y-34853001D01*
X85797500Y-34876000D01*
X87693500Y-34876000D01*
X87693500Y-34761449D01*
X87694500Y-34759717D01*
X87696500Y-34759717D01*
X87697490Y-34761253D01*
G37*
G36*
X34030030Y-34306301D02*
G01*
X34079249Y-34339188D01*
X34169440Y-34376546D01*
X34265190Y-34395592D01*
X34362810Y-34395592D01*
X34458560Y-34376546D01*
X34548751Y-34339188D01*
X34597970Y-34306301D01*
X34599966Y-34306170D01*
X34601077Y-34307833D01*
X34600350Y-34309510D01*
X34586309Y-34321033D01*
X34571014Y-34339670D01*
X34559649Y-34360934D01*
X34552649Y-34384009D01*
X34550286Y-34408000D01*
X34552649Y-34431991D01*
X34559649Y-34455066D01*
X34571014Y-34476330D01*
X34586309Y-34494967D01*
X34600350Y-34506490D01*
X34601054Y-34508362D01*
X34599785Y-34509908D01*
X34597970Y-34509699D01*
X34548751Y-34476812D01*
X34458560Y-34439454D01*
X34362810Y-34420408D01*
X34265190Y-34420408D01*
X34169440Y-34439454D01*
X34079249Y-34476812D01*
X34030030Y-34509699D01*
X34028034Y-34509830D01*
X34026923Y-34508167D01*
X34027650Y-34506490D01*
X34041691Y-34494967D01*
X34056986Y-34476330D01*
X34068351Y-34455066D01*
X34075351Y-34431991D01*
X34077714Y-34408000D01*
X34075351Y-34384009D01*
X34068351Y-34360934D01*
X34056986Y-34339670D01*
X34041691Y-34321033D01*
X34027650Y-34309510D01*
X34026946Y-34307638D01*
X34028215Y-34306092D01*
X34030030Y-34306301D01*
G37*
G36*
X37332030Y-34306301D02*
G01*
X37381249Y-34339188D01*
X37471440Y-34376546D01*
X37567190Y-34395592D01*
X37664810Y-34395592D01*
X37760560Y-34376546D01*
X37850751Y-34339188D01*
X37899970Y-34306301D01*
X37901966Y-34306170D01*
X37903077Y-34307833D01*
X37902350Y-34309510D01*
X37888309Y-34321033D01*
X37873014Y-34339670D01*
X37861649Y-34360934D01*
X37854649Y-34384009D01*
X37852286Y-34408000D01*
X37854649Y-34431991D01*
X37861649Y-34455066D01*
X37873014Y-34476330D01*
X37888309Y-34494967D01*
X37902350Y-34506490D01*
X37903054Y-34508362D01*
X37901785Y-34509908D01*
X37899970Y-34509699D01*
X37850751Y-34476812D01*
X37760560Y-34439454D01*
X37664810Y-34420408D01*
X37567190Y-34420408D01*
X37471440Y-34439454D01*
X37381249Y-34476812D01*
X37332030Y-34509699D01*
X37330034Y-34509830D01*
X37328923Y-34508167D01*
X37329650Y-34506490D01*
X37343691Y-34494967D01*
X37358986Y-34476330D01*
X37370351Y-34455066D01*
X37377351Y-34431991D01*
X37379714Y-34408000D01*
X37377351Y-34384009D01*
X37370351Y-34360934D01*
X37358986Y-34339670D01*
X37343691Y-34321033D01*
X37329650Y-34309510D01*
X37328946Y-34307638D01*
X37330215Y-34306092D01*
X37332030Y-34306301D01*
G37*
G36*
X38071990Y-31698246D02*
G01*
X38074372Y-31722433D01*
X38081372Y-31745508D01*
X38092737Y-31766772D01*
X38108032Y-31785409D01*
X38126669Y-31800704D01*
X38147933Y-31812069D01*
X38171008Y-31819069D01*
X38194999Y-31821432D01*
X38218990Y-31819069D01*
X38242065Y-31812069D01*
X38263329Y-31800704D01*
X38281966Y-31785409D01*
X38297261Y-31766772D01*
X38305824Y-31750750D01*
X38307523Y-31749694D01*
X38309286Y-31750637D01*
X38309436Y-31752458D01*
X38295154Y-31786940D01*
X38276108Y-31882690D01*
X38276108Y-31980310D01*
X38295154Y-32076060D01*
X38309436Y-32110542D01*
X38309175Y-32112525D01*
X38307327Y-32113290D01*
X38305824Y-32112250D01*
X38297261Y-32096228D01*
X38281965Y-32077591D01*
X38263328Y-32062296D01*
X38242064Y-32050931D01*
X38218989Y-32043931D01*
X38194998Y-32041568D01*
X38171007Y-32043931D01*
X38147932Y-32050931D01*
X38126669Y-32062296D01*
X38108032Y-32077592D01*
X38092737Y-32096229D01*
X38081372Y-32117493D01*
X38074372Y-32140568D01*
X38071990Y-32164754D01*
X38070825Y-32166380D01*
X38068835Y-32166184D01*
X38068000Y-32164558D01*
X38068000Y-31698442D01*
X38069000Y-31696710D01*
X38071000Y-31696710D01*
X38071990Y-31698246D01*
G37*
G36*
X91026417Y-25247154D02*
G01*
X91079049Y-25325923D01*
X91148077Y-25394951D01*
X91226845Y-25447582D01*
X91227730Y-25449376D01*
X91226619Y-25451039D01*
X91224969Y-25451093D01*
X91219428Y-25448798D01*
X91219250Y-25448714D01*
X91213763Y-25445781D01*
X91190689Y-25438784D01*
X91166697Y-25436420D01*
X91142706Y-25438783D01*
X91119631Y-25445784D01*
X91098368Y-25457149D01*
X91079731Y-25472445D01*
X91064436Y-25491082D01*
X91053070Y-25512346D01*
X91046073Y-25535420D01*
X91043690Y-25559606D01*
X91042525Y-25561232D01*
X91040535Y-25561036D01*
X91039700Y-25559410D01*
X91039700Y-25434300D01*
X90914590Y-25434300D01*
X90912858Y-25433300D01*
X90912858Y-25431300D01*
X90914394Y-25430310D01*
X90938581Y-25427928D01*
X90961656Y-25420928D01*
X90982920Y-25409563D01*
X91001557Y-25394268D01*
X91016852Y-25375631D01*
X91028217Y-25354367D01*
X91035217Y-25331292D01*
X91037580Y-25307301D01*
X91035217Y-25283310D01*
X91028217Y-25260235D01*
X91025287Y-25254753D01*
X91025203Y-25254575D01*
X91022906Y-25249030D01*
X91023167Y-25247048D01*
X91025015Y-25246282D01*
X91026417Y-25247154D01*
G37*
G36*
X27289682Y-24237000D02*
G01*
X27289613Y-24239111D01*
X27270812Y-24267249D01*
X27233454Y-24357440D01*
X27214408Y-24453190D01*
X27214408Y-24550810D01*
X27233454Y-24646560D01*
X27270812Y-24736751D01*
X27303699Y-24785970D01*
X27303830Y-24787966D01*
X27302167Y-24789077D01*
X27300490Y-24788350D01*
X27288967Y-24774309D01*
X27270330Y-24759014D01*
X27249066Y-24747649D01*
X27225991Y-24740649D01*
X27202000Y-24738286D01*
X27178009Y-24740649D01*
X27154934Y-24747649D01*
X27133670Y-24759014D01*
X27115033Y-24774309D01*
X27103510Y-24788350D01*
X27101638Y-24789054D01*
X27100092Y-24787785D01*
X27100301Y-24785970D01*
X27133188Y-24736751D01*
X27170546Y-24646560D01*
X27189592Y-24550810D01*
X27189592Y-24453190D01*
X27170546Y-24357440D01*
X27133188Y-24267249D01*
X27114387Y-24239111D01*
X27114256Y-24237115D01*
X27116050Y-24236000D01*
X27287950Y-24236000D01*
X27289682Y-24237000D01*
G37*
G36*
X25777000Y-22568702D02*
G01*
X25777000Y-22743954D01*
X25776000Y-22745686D01*
X25774610Y-22745916D01*
X25726810Y-22736408D01*
X25629190Y-22736408D01*
X25533440Y-22755454D01*
X25443249Y-22792812D01*
X25362077Y-22847049D01*
X25317687Y-22891439D01*
X25315755Y-22891957D01*
X25314341Y-22890543D01*
X25314727Y-22888756D01*
X25326248Y-22874718D01*
X25337613Y-22853454D01*
X25344613Y-22830379D01*
X25346976Y-22806388D01*
X25344613Y-22782397D01*
X25337613Y-22759322D01*
X25326248Y-22738058D01*
X25310953Y-22719421D01*
X25292316Y-22704126D01*
X25276292Y-22695562D01*
X25275236Y-22693863D01*
X25276179Y-22692100D01*
X25278000Y-22691950D01*
X25279440Y-22692546D01*
X25375190Y-22711592D01*
X25472810Y-22711592D01*
X25568560Y-22692546D01*
X25658751Y-22655188D01*
X25739923Y-22600951D01*
X25773586Y-22567288D01*
X25775518Y-22566770D01*
X25777000Y-22568702D01*
G37*
G36*
X28376414Y-22567288D02*
G01*
X28410077Y-22600951D01*
X28491249Y-22655188D01*
X28581440Y-22692546D01*
X28677190Y-22711592D01*
X28774810Y-22711592D01*
X28870560Y-22692546D01*
X28960751Y-22655188D01*
X29009970Y-22622301D01*
X29011966Y-22622170D01*
X29013077Y-22623833D01*
X29012350Y-22625510D01*
X28998309Y-22637033D01*
X28983014Y-22655670D01*
X28971649Y-22676934D01*
X28964649Y-22700009D01*
X28962286Y-22724000D01*
X28964649Y-22747991D01*
X28971649Y-22771066D01*
X28983014Y-22792330D01*
X28998309Y-22810967D01*
X29012350Y-22822490D01*
X29013054Y-22824362D01*
X29011785Y-22825908D01*
X29009970Y-22825699D01*
X28960751Y-22792812D01*
X28870560Y-22755454D01*
X28774810Y-22736408D01*
X28677190Y-22736408D01*
X28581440Y-22755454D01*
X28491249Y-22792812D01*
X28410077Y-22847049D01*
X28376414Y-22880712D01*
X28374482Y-22881230D01*
X28373000Y-22879298D01*
X28373000Y-22568702D01*
X28374000Y-22566970D01*
X28376414Y-22567288D01*
G37*
G36*
X28393512Y-21568386D02*
G01*
X28410077Y-21584951D01*
X28491249Y-21639188D01*
X28581440Y-21676546D01*
X28677190Y-21695592D01*
X28774810Y-21695592D01*
X28870560Y-21676546D01*
X28960751Y-21639188D01*
X29009970Y-21606301D01*
X29011966Y-21606170D01*
X29013077Y-21607833D01*
X29012350Y-21609510D01*
X28998309Y-21621033D01*
X28983014Y-21639670D01*
X28971649Y-21660934D01*
X28964649Y-21684009D01*
X28962286Y-21708000D01*
X28964649Y-21731991D01*
X28971649Y-21755066D01*
X28983014Y-21776330D01*
X28998309Y-21794967D01*
X29012350Y-21806490D01*
X29013054Y-21808362D01*
X29011785Y-21809908D01*
X29009970Y-21809699D01*
X28960751Y-21776812D01*
X28870560Y-21739454D01*
X28774810Y-21720408D01*
X28677190Y-21720408D01*
X28581440Y-21739454D01*
X28491249Y-21776812D01*
X28410077Y-21831049D01*
X28376414Y-21864712D01*
X28374482Y-21865230D01*
X28373000Y-21863298D01*
X28373000Y-21569800D01*
X28374000Y-21568068D01*
X28375000Y-21567800D01*
X28392098Y-21567800D01*
X28393512Y-21568386D01*
G37*
G36*
X25776732Y-21568800D02*
G01*
X25777000Y-21569800D01*
X25777000Y-21863298D01*
X25776000Y-21865030D01*
X25773586Y-21864712D01*
X25739923Y-21831049D01*
X25658751Y-21776812D01*
X25568560Y-21739454D01*
X25472810Y-21720408D01*
X25375190Y-21720408D01*
X25279440Y-21739454D01*
X25189249Y-21776812D01*
X25140030Y-21809699D01*
X25138034Y-21809830D01*
X25136923Y-21808167D01*
X25137650Y-21806490D01*
X25151691Y-21794967D01*
X25166986Y-21776330D01*
X25178351Y-21755066D01*
X25185351Y-21731991D01*
X25187714Y-21708000D01*
X25185351Y-21684009D01*
X25178351Y-21660934D01*
X25166986Y-21639670D01*
X25151691Y-21621033D01*
X25137650Y-21609510D01*
X25136946Y-21607638D01*
X25138215Y-21606092D01*
X25140030Y-21606301D01*
X25189249Y-21639188D01*
X25279440Y-21676546D01*
X25375190Y-21695592D01*
X25472810Y-21695592D01*
X25568560Y-21676546D01*
X25658751Y-21639188D01*
X25739923Y-21584951D01*
X25756488Y-21568386D01*
X25757902Y-21567800D01*
X25775000Y-21567800D01*
X25776732Y-21568800D01*
G37*
G36*
X26376732Y-18511500D02*
G01*
X26377000Y-18512500D01*
X26377000Y-20449613D01*
X26376638Y-20450760D01*
X26262490Y-20613828D01*
X25914919Y-21110358D01*
X25913107Y-21111203D01*
X25911319Y-21109601D01*
X25900546Y-21055440D01*
X25863188Y-20965249D01*
X25838428Y-20928193D01*
X25838297Y-20926197D01*
X25839960Y-20925086D01*
X25841637Y-20925813D01*
X25853160Y-20939854D01*
X25871797Y-20955149D01*
X25893061Y-20966514D01*
X25916136Y-20973514D01*
X25940127Y-20975877D01*
X25964118Y-20973514D01*
X25987193Y-20966514D01*
X26008457Y-20955149D01*
X26027105Y-20939845D01*
X26040941Y-20923352D01*
X26259155Y-20611618D01*
X26271029Y-20590517D01*
X26278526Y-20567603D01*
X26281410Y-20543663D01*
X26279567Y-20519626D01*
X26273070Y-20496406D01*
X26262168Y-20474902D01*
X26247281Y-20455938D01*
X26228979Y-20440243D01*
X26207967Y-20428419D01*
X26185061Y-20420924D01*
X26158231Y-20417988D01*
X26156618Y-20416806D01*
X26156836Y-20414818D01*
X26158449Y-20414000D01*
X26273000Y-20414000D01*
X26273000Y-18518000D01*
X26250001Y-18518000D01*
X26248269Y-18517000D01*
X26248269Y-18515000D01*
X26249805Y-18514010D01*
X26273992Y-18511628D01*
X26277426Y-18510586D01*
X26278007Y-18510500D01*
X26375000Y-18510500D01*
X26376732Y-18511500D01*
G37*
G36*
X27872574Y-18510586D02*
G01*
X27876008Y-18511628D01*
X27900195Y-18514010D01*
X27901821Y-18515175D01*
X27901625Y-18517165D01*
X27899999Y-18518000D01*
X27877000Y-18518000D01*
X27877000Y-20414000D01*
X27991551Y-20414000D01*
X27993283Y-20415000D01*
X27993283Y-20417000D01*
X27991747Y-20417990D01*
X27967560Y-20420372D01*
X27944485Y-20427372D01*
X27923221Y-20438737D01*
X27904584Y-20454032D01*
X27889289Y-20472669D01*
X27877924Y-20493933D01*
X27870924Y-20517008D01*
X27868561Y-20540999D01*
X27870924Y-20564990D01*
X27877920Y-20588053D01*
X27890853Y-20611630D01*
X28109051Y-20923340D01*
X28124812Y-20941719D01*
X28143776Y-20956606D01*
X28165280Y-20967508D01*
X28188500Y-20974005D01*
X28212537Y-20975848D01*
X28236477Y-20972964D01*
X28259391Y-20965467D01*
X28280403Y-20953643D01*
X28298711Y-20937942D01*
X28307925Y-20926464D01*
X28309789Y-20925739D01*
X28311349Y-20926991D01*
X28311148Y-20928827D01*
X28286812Y-20965249D01*
X28249454Y-21055440D01*
X28238681Y-21109601D01*
X28237362Y-21111105D01*
X28235081Y-21110358D01*
X27887510Y-20613828D01*
X27773362Y-20450760D01*
X27773000Y-20449613D01*
X27773000Y-18512500D01*
X27774000Y-18510768D01*
X27775000Y-18510500D01*
X27871993Y-18510500D01*
X27872574Y-18510586D01*
G37*
G36*
X60633030Y-18562000D02*
G01*
X60632712Y-18564414D01*
X60599049Y-18598077D01*
X60544812Y-18679249D01*
X60507454Y-18769440D01*
X60488408Y-18865190D01*
X60488408Y-18962810D01*
X60507454Y-19058560D01*
X60544812Y-19148751D01*
X60577699Y-19197970D01*
X60577830Y-19199966D01*
X60576167Y-19201077D01*
X60574490Y-19200350D01*
X60562967Y-19186309D01*
X60544330Y-19171014D01*
X60523066Y-19159649D01*
X60499991Y-19152649D01*
X60476000Y-19150286D01*
X60452009Y-19152649D01*
X60428934Y-19159649D01*
X60407670Y-19171014D01*
X60389033Y-19186309D01*
X60377510Y-19200350D01*
X60375638Y-19201054D01*
X60374092Y-19199785D01*
X60374301Y-19197970D01*
X60407188Y-19148751D01*
X60444546Y-19058560D01*
X60463592Y-18962810D01*
X60463592Y-18865190D01*
X60444546Y-18769440D01*
X60407188Y-18679249D01*
X60352951Y-18598077D01*
X60319288Y-18564414D01*
X60318770Y-18562482D01*
X60320702Y-18561000D01*
X60631298Y-18561000D01*
X60633030Y-18562000D01*
G37*
G36*
X59617030Y-18562000D02*
G01*
X59616712Y-18564414D01*
X59583049Y-18598077D01*
X59528812Y-18679249D01*
X59491454Y-18769440D01*
X59472408Y-18865190D01*
X59472408Y-18962810D01*
X59491454Y-19058560D01*
X59528812Y-19148751D01*
X59561699Y-19197970D01*
X59561830Y-19199966D01*
X59560167Y-19201077D01*
X59558490Y-19200350D01*
X59546967Y-19186309D01*
X59528330Y-19171014D01*
X59507066Y-19159649D01*
X59483991Y-19152649D01*
X59460000Y-19150286D01*
X59436009Y-19152649D01*
X59412934Y-19159649D01*
X59391670Y-19171014D01*
X59373033Y-19186309D01*
X59361510Y-19200350D01*
X59359638Y-19201054D01*
X59358092Y-19199785D01*
X59358301Y-19197970D01*
X59391188Y-19148751D01*
X59428546Y-19058560D01*
X59447592Y-18962810D01*
X59447592Y-18865190D01*
X59428546Y-18769440D01*
X59391188Y-18679249D01*
X59336951Y-18598077D01*
X59320386Y-18581512D01*
X59319800Y-18580098D01*
X59319800Y-18563000D01*
X59320800Y-18561268D01*
X59321800Y-18561000D01*
X59615298Y-18561000D01*
X59617030Y-18562000D01*
G37*
G36*
X61560572Y-18171827D02*
G01*
X61523454Y-18261440D01*
X61504408Y-18357190D01*
X61504408Y-18454810D01*
X61523454Y-18550560D01*
X61560812Y-18640751D01*
X61615049Y-18721923D01*
X61682037Y-18788911D01*
X61682555Y-18790843D01*
X61681141Y-18792257D01*
X61679512Y-18791988D01*
X61674407Y-18788577D01*
X61653055Y-18777164D01*
X61629980Y-18770164D01*
X61605988Y-18767801D01*
X61581997Y-18770164D01*
X61558922Y-18777164D01*
X61537659Y-18788529D01*
X61519022Y-18803825D01*
X61503727Y-18822462D01*
X61492362Y-18843725D01*
X61485362Y-18866800D01*
X61483582Y-18884875D01*
X61482417Y-18886501D01*
X61480427Y-18886305D01*
X61479592Y-18884679D01*
X61479592Y-18865190D01*
X61460546Y-18769440D01*
X61423188Y-18679249D01*
X61368951Y-18598077D01*
X61299923Y-18529049D01*
X61218751Y-18474812D01*
X61162987Y-18451714D01*
X61161769Y-18450127D01*
X61162599Y-18448232D01*
X61557571Y-18169428D01*
X61559562Y-18169246D01*
X61560572Y-18171827D01*
G37*
G36*
X97001165Y-18445354D02*
G01*
X97002000Y-18446980D01*
X97002000Y-18873020D01*
X97001000Y-18874752D01*
X96999000Y-18874752D01*
X96998010Y-18873216D01*
X96995628Y-18849029D01*
X96988628Y-18825954D01*
X96977263Y-18804690D01*
X96961968Y-18786053D01*
X96943331Y-18770758D01*
X96922067Y-18759393D01*
X96898992Y-18752393D01*
X96875001Y-18750030D01*
X96851010Y-18752393D01*
X96827935Y-18759393D01*
X96806671Y-18770758D01*
X96788034Y-18786053D01*
X96772739Y-18804690D01*
X96764174Y-18820716D01*
X96762475Y-18821772D01*
X96760712Y-18820829D01*
X96760562Y-18819008D01*
X96766546Y-18804560D01*
X96785592Y-18708810D01*
X96785592Y-18611190D01*
X96766546Y-18515440D01*
X96760562Y-18500992D01*
X96760823Y-18499009D01*
X96762671Y-18498244D01*
X96764174Y-18499284D01*
X96772739Y-18515310D01*
X96788035Y-18533947D01*
X96806672Y-18549242D01*
X96827935Y-18560607D01*
X96851010Y-18567607D01*
X96875001Y-18569970D01*
X96898993Y-18567607D01*
X96922067Y-18560607D01*
X96943331Y-18549242D01*
X96961968Y-18533946D01*
X96977263Y-18515309D01*
X96988628Y-18494046D01*
X96995628Y-18470971D01*
X96998010Y-18446784D01*
X96999175Y-18445158D01*
X97001165Y-18445354D01*
G37*
G36*
X58512118Y-18177913D02*
G01*
X58862358Y-18423081D01*
X58863203Y-18424893D01*
X58861601Y-18426681D01*
X58807440Y-18437454D01*
X58717249Y-18474812D01*
X58680193Y-18499572D01*
X58678197Y-18499703D01*
X58677086Y-18498040D01*
X58677813Y-18496363D01*
X58691854Y-18484840D01*
X58707149Y-18466203D01*
X58718514Y-18444939D01*
X58725514Y-18421864D01*
X58727877Y-18397873D01*
X58725514Y-18373882D01*
X58718514Y-18350807D01*
X58707149Y-18329543D01*
X58691845Y-18310895D01*
X58675352Y-18297059D01*
X58509824Y-18181189D01*
X58508979Y-18179377D01*
X58510126Y-18177739D01*
X58512118Y-18177913D01*
G37*
G36*
X58202760Y-17961362D02*
G01*
X58365828Y-18075510D01*
X58366673Y-18077322D01*
X58365526Y-18078960D01*
X58363700Y-18078891D01*
X58342517Y-18066971D01*
X58319603Y-18059474D01*
X58295663Y-18056590D01*
X58271626Y-18058433D01*
X58248406Y-18064930D01*
X58226902Y-18075832D01*
X58207938Y-18090719D01*
X58192243Y-18109021D01*
X58180419Y-18130033D01*
X58172924Y-18152939D01*
X58169988Y-18179769D01*
X58168806Y-18181382D01*
X58166818Y-18181164D01*
X58166000Y-18179551D01*
X58166000Y-18065000D01*
X56270000Y-18065000D01*
X56270000Y-18087999D01*
X56269000Y-18089731D01*
X56267000Y-18089731D01*
X56266010Y-18088195D01*
X56263628Y-18064008D01*
X56262586Y-18060574D01*
X56262500Y-18059993D01*
X56262500Y-17963000D01*
X56263500Y-17961268D01*
X56264500Y-17961000D01*
X58201613Y-17961000D01*
X58202760Y-17961362D01*
G37*
G36*
X78316390Y-17747104D02*
G01*
X78322375Y-17807871D01*
X78340045Y-17866120D01*
X78368737Y-17919800D01*
X78407350Y-17966850D01*
X78454400Y-18005463D01*
X78508080Y-18034155D01*
X78566329Y-18051825D01*
X78627096Y-18057810D01*
X78628722Y-18058975D01*
X78628526Y-18060965D01*
X78626900Y-18061800D01*
X78547103Y-18061800D01*
X78546907Y-18061790D01*
X78496687Y-18056844D01*
X78496302Y-18056768D01*
X78453911Y-18043909D01*
X78453549Y-18043759D01*
X78414484Y-18022878D01*
X78414158Y-18022660D01*
X78379917Y-17994560D01*
X78379640Y-17994283D01*
X78351540Y-17960042D01*
X78351322Y-17959716D01*
X78330441Y-17920651D01*
X78330291Y-17920289D01*
X78317432Y-17877898D01*
X78317356Y-17877513D01*
X78312410Y-17827293D01*
X78312400Y-17827097D01*
X78312400Y-17747300D01*
X78313400Y-17745568D01*
X78315400Y-17745568D01*
X78316390Y-17747104D01*
G37*
G36*
X73916390Y-17747104D02*
G01*
X73922375Y-17807871D01*
X73940045Y-17866120D01*
X73968737Y-17919800D01*
X74007350Y-17966850D01*
X74054400Y-18005463D01*
X74108080Y-18034155D01*
X74166329Y-18051825D01*
X74227096Y-18057810D01*
X74228722Y-18058975D01*
X74228526Y-18060965D01*
X74226900Y-18061800D01*
X74147103Y-18061800D01*
X74146907Y-18061790D01*
X74096687Y-18056844D01*
X74096302Y-18056768D01*
X74053911Y-18043909D01*
X74053549Y-18043759D01*
X74014484Y-18022878D01*
X74014158Y-18022660D01*
X73979917Y-17994560D01*
X73979640Y-17994283D01*
X73951540Y-17960042D01*
X73951322Y-17959716D01*
X73930441Y-17920651D01*
X73930291Y-17920289D01*
X73917432Y-17877898D01*
X73917356Y-17877513D01*
X73912410Y-17827293D01*
X73912400Y-17827097D01*
X73912400Y-17747300D01*
X73913400Y-17745568D01*
X73915400Y-17745568D01*
X73916390Y-17747104D01*
G37*
G36*
X77315565Y-17745674D02*
G01*
X77316400Y-17747300D01*
X77316400Y-17827097D01*
X77316390Y-17827293D01*
X77311444Y-17877513D01*
X77311368Y-17877898D01*
X77298509Y-17920289D01*
X77298359Y-17920651D01*
X77277478Y-17959716D01*
X77277260Y-17960042D01*
X77249160Y-17994283D01*
X77248883Y-17994560D01*
X77214642Y-18022660D01*
X77214316Y-18022878D01*
X77175251Y-18043759D01*
X77174889Y-18043909D01*
X77132498Y-18056768D01*
X77132113Y-18056844D01*
X77081893Y-18061790D01*
X77081697Y-18061800D01*
X77001900Y-18061800D01*
X77000168Y-18060800D01*
X77000168Y-18058800D01*
X77001704Y-18057810D01*
X77062471Y-18051825D01*
X77120720Y-18034155D01*
X77174400Y-18005463D01*
X77221450Y-17966850D01*
X77260063Y-17919800D01*
X77288755Y-17866120D01*
X77306425Y-17807871D01*
X77312410Y-17747104D01*
X77313575Y-17745478D01*
X77315565Y-17745674D01*
G37*
G36*
X81715565Y-17745674D02*
G01*
X81716400Y-17747300D01*
X81716400Y-17827097D01*
X81716390Y-17827293D01*
X81711444Y-17877513D01*
X81711368Y-17877898D01*
X81698509Y-17920289D01*
X81698359Y-17920651D01*
X81677478Y-17959716D01*
X81677260Y-17960042D01*
X81649160Y-17994283D01*
X81648883Y-17994560D01*
X81614642Y-18022660D01*
X81614316Y-18022878D01*
X81575251Y-18043759D01*
X81574889Y-18043909D01*
X81532498Y-18056768D01*
X81532113Y-18056844D01*
X81481893Y-18061790D01*
X81481697Y-18061800D01*
X81401900Y-18061800D01*
X81400168Y-18060800D01*
X81400168Y-18058800D01*
X81401704Y-18057810D01*
X81462471Y-18051825D01*
X81520720Y-18034155D01*
X81574400Y-18005463D01*
X81621450Y-17966850D01*
X81660063Y-17919800D01*
X81688755Y-17866120D01*
X81706425Y-17807871D01*
X81712410Y-17747104D01*
X81713575Y-17745478D01*
X81715565Y-17745674D01*
G37*
G36*
X62386257Y-16438859D02*
G01*
X62385988Y-16440488D01*
X62382577Y-16445593D01*
X62371164Y-16466945D01*
X62364164Y-16490020D01*
X62361801Y-16514012D01*
X62364164Y-16538003D01*
X62371164Y-16561078D01*
X62382529Y-16582341D01*
X62397825Y-16600978D01*
X62416462Y-16616273D01*
X62437725Y-16627638D01*
X62460800Y-16634638D01*
X62478875Y-16636418D01*
X62480501Y-16637583D01*
X62480305Y-16639573D01*
X62478679Y-16640408D01*
X62459190Y-16640408D01*
X62363440Y-16659454D01*
X62273249Y-16696812D01*
X62192077Y-16751049D01*
X62123049Y-16820077D01*
X62068812Y-16901249D01*
X62031454Y-16991440D01*
X62012408Y-17087190D01*
X62012408Y-17184810D01*
X62031454Y-17280560D01*
X62068812Y-17370751D01*
X62123049Y-17451923D01*
X62190038Y-17518912D01*
X62190556Y-17520844D01*
X62189142Y-17522258D01*
X62187513Y-17521989D01*
X62183417Y-17519252D01*
X62162064Y-17507839D01*
X62138989Y-17500839D01*
X62114998Y-17498476D01*
X62091007Y-17500839D01*
X62067932Y-17507839D01*
X62046669Y-17519204D01*
X62028032Y-17534500D01*
X62012737Y-17553137D01*
X62001372Y-17574401D01*
X61994372Y-17597476D01*
X61991990Y-17621662D01*
X61990825Y-17623288D01*
X61988835Y-17623092D01*
X61988000Y-17621466D01*
X61988000Y-16660404D01*
X61921749Y-16613639D01*
X61920910Y-16611823D01*
X61922064Y-16610189D01*
X61923292Y-16610043D01*
X61951190Y-16615592D01*
X62048810Y-16615592D01*
X62144560Y-16596546D01*
X62234751Y-16559188D01*
X62315923Y-16504951D01*
X62382911Y-16437963D01*
X62384843Y-16437445D01*
X62386257Y-16438859D01*
G37*
G36*
X97001165Y-17175354D02*
G01*
X97002000Y-17176980D01*
X97002000Y-17603020D01*
X97001000Y-17604752D01*
X96999000Y-17604752D01*
X96998010Y-17603216D01*
X96995628Y-17579029D01*
X96988628Y-17555954D01*
X96977263Y-17534690D01*
X96961968Y-17516053D01*
X96943331Y-17500758D01*
X96922067Y-17489393D01*
X96898992Y-17482393D01*
X96875001Y-17480030D01*
X96851010Y-17482393D01*
X96827935Y-17489393D01*
X96806671Y-17500758D01*
X96788034Y-17516053D01*
X96772739Y-17534690D01*
X96764174Y-17550716D01*
X96762475Y-17551772D01*
X96760712Y-17550829D01*
X96760562Y-17549008D01*
X96766546Y-17534560D01*
X96785592Y-17438810D01*
X96785592Y-17341190D01*
X96766546Y-17245440D01*
X96760562Y-17230992D01*
X96760823Y-17229009D01*
X96762671Y-17228244D01*
X96764174Y-17229284D01*
X96772739Y-17245310D01*
X96788035Y-17263947D01*
X96806672Y-17279242D01*
X96827935Y-17290607D01*
X96851010Y-17297607D01*
X96875001Y-17299970D01*
X96898993Y-17297607D01*
X96922067Y-17290607D01*
X96943331Y-17279242D01*
X96961968Y-17263946D01*
X96977263Y-17245309D01*
X96988628Y-17224046D01*
X96995628Y-17200971D01*
X96998010Y-17176784D01*
X96999175Y-17175158D01*
X97001165Y-17175354D01*
G37*
G36*
X63134665Y-16763875D02*
G01*
X63135500Y-16765501D01*
X63135500Y-17506499D01*
X63134500Y-17508231D01*
X63132500Y-17508231D01*
X63131510Y-17506695D01*
X63129128Y-17482508D01*
X63122128Y-17459433D01*
X63110763Y-17438169D01*
X63095468Y-17419532D01*
X63076831Y-17404237D01*
X63055567Y-17392872D01*
X63032492Y-17385872D01*
X63008501Y-17383509D01*
X62984510Y-17385872D01*
X62961435Y-17392872D01*
X62940171Y-17404237D01*
X62921534Y-17419532D01*
X62910011Y-17433573D01*
X62908139Y-17434277D01*
X62906593Y-17433008D01*
X62906802Y-17431193D01*
X62947188Y-17370751D01*
X62984546Y-17280560D01*
X63003592Y-17184810D01*
X63003592Y-17087190D01*
X62984546Y-16991440D01*
X62947188Y-16901249D01*
X62906802Y-16840807D01*
X62906671Y-16838811D01*
X62908334Y-16837700D01*
X62910011Y-16838427D01*
X62921534Y-16852468D01*
X62940171Y-16867763D01*
X62961435Y-16879128D01*
X62984510Y-16886128D01*
X63008501Y-16888491D01*
X63032492Y-16886128D01*
X63055567Y-16879128D01*
X63076831Y-16867763D01*
X63095468Y-16852468D01*
X63110763Y-16833831D01*
X63122128Y-16812567D01*
X63129128Y-16789492D01*
X63131510Y-16765305D01*
X63132675Y-16763679D01*
X63134665Y-16763875D01*
G37*
G36*
X58169990Y-16346253D02*
G01*
X58172372Y-16370440D01*
X58179372Y-16393515D01*
X58190737Y-16414779D01*
X58206032Y-16433416D01*
X58224669Y-16448711D01*
X58245933Y-16460076D01*
X58269008Y-16467076D01*
X58292999Y-16469439D01*
X58316990Y-16467076D01*
X58340053Y-16460080D01*
X58363630Y-16447147D01*
X58369657Y-16442928D01*
X58371650Y-16442754D01*
X58372796Y-16444392D01*
X58371951Y-16446204D01*
X58202760Y-16564638D01*
X58201613Y-16565000D01*
X56264500Y-16565000D01*
X56262768Y-16564000D01*
X56262500Y-16563000D01*
X56262500Y-16466007D01*
X56262586Y-16465426D01*
X56263628Y-16461992D01*
X56266010Y-16437805D01*
X56267175Y-16436179D01*
X56269165Y-16436375D01*
X56270000Y-16438001D01*
X56270000Y-16461000D01*
X58166000Y-16461000D01*
X58166000Y-16346449D01*
X58167000Y-16344717D01*
X58169000Y-16344717D01*
X58169990Y-16346253D01*
G37*
G36*
X74228632Y-16058800D02*
G01*
X74228632Y-16060800D01*
X74227096Y-16061790D01*
X74166329Y-16067775D01*
X74108080Y-16085445D01*
X74054400Y-16114137D01*
X74007350Y-16152750D01*
X73968737Y-16199800D01*
X73940045Y-16253480D01*
X73922375Y-16311729D01*
X73916390Y-16372496D01*
X73915225Y-16374122D01*
X73913235Y-16373926D01*
X73912400Y-16372300D01*
X73912400Y-16292503D01*
X73912410Y-16292307D01*
X73917356Y-16242087D01*
X73917432Y-16241702D01*
X73930291Y-16199311D01*
X73930441Y-16198949D01*
X73951322Y-16159884D01*
X73951540Y-16159558D01*
X73979640Y-16125317D01*
X73979917Y-16125040D01*
X74014158Y-16096940D01*
X74014484Y-16096722D01*
X74053549Y-16075841D01*
X74053911Y-16075691D01*
X74096302Y-16062832D01*
X74096687Y-16062756D01*
X74146907Y-16057810D01*
X74147103Y-16057800D01*
X74226900Y-16057800D01*
X74228632Y-16058800D01*
G37*
G36*
X78628632Y-16058800D02*
G01*
X78628632Y-16060800D01*
X78627096Y-16061790D01*
X78566329Y-16067775D01*
X78508080Y-16085445D01*
X78454400Y-16114137D01*
X78407350Y-16152750D01*
X78368737Y-16199800D01*
X78340045Y-16253480D01*
X78322375Y-16311729D01*
X78316390Y-16372496D01*
X78315225Y-16374122D01*
X78313235Y-16373926D01*
X78312400Y-16372300D01*
X78312400Y-16292503D01*
X78312410Y-16292307D01*
X78317356Y-16242087D01*
X78317432Y-16241702D01*
X78330291Y-16199311D01*
X78330441Y-16198949D01*
X78351322Y-16159884D01*
X78351540Y-16159558D01*
X78379640Y-16125317D01*
X78379917Y-16125040D01*
X78414158Y-16096940D01*
X78414484Y-16096722D01*
X78453549Y-16075841D01*
X78453911Y-16075691D01*
X78496302Y-16062832D01*
X78496687Y-16062756D01*
X78546907Y-16057810D01*
X78547103Y-16057800D01*
X78626900Y-16057800D01*
X78628632Y-16058800D01*
G37*
G36*
X77081893Y-16057810D02*
G01*
X77132113Y-16062756D01*
X77132498Y-16062832D01*
X77174889Y-16075691D01*
X77175251Y-16075841D01*
X77214316Y-16096722D01*
X77214642Y-16096940D01*
X77248883Y-16125040D01*
X77249160Y-16125317D01*
X77277260Y-16159558D01*
X77277478Y-16159884D01*
X77298359Y-16198949D01*
X77298509Y-16199311D01*
X77311368Y-16241702D01*
X77311444Y-16242087D01*
X77316390Y-16292307D01*
X77316400Y-16292503D01*
X77316400Y-16372300D01*
X77315400Y-16374032D01*
X77313400Y-16374032D01*
X77312410Y-16372496D01*
X77306425Y-16311729D01*
X77288755Y-16253480D01*
X77260063Y-16199800D01*
X77221450Y-16152750D01*
X77174400Y-16114137D01*
X77120720Y-16085445D01*
X77062471Y-16067775D01*
X77001704Y-16061790D01*
X77000078Y-16060625D01*
X77000274Y-16058635D01*
X77001900Y-16057800D01*
X77081697Y-16057800D01*
X77081893Y-16057810D01*
G37*
G36*
X81481893Y-16057810D02*
G01*
X81532113Y-16062756D01*
X81532498Y-16062832D01*
X81574889Y-16075691D01*
X81575251Y-16075841D01*
X81614316Y-16096722D01*
X81614642Y-16096940D01*
X81648883Y-16125040D01*
X81649160Y-16125317D01*
X81677260Y-16159558D01*
X81677478Y-16159884D01*
X81698359Y-16198949D01*
X81698509Y-16199311D01*
X81711368Y-16241702D01*
X81711444Y-16242087D01*
X81716390Y-16292307D01*
X81716400Y-16292503D01*
X81716400Y-16372300D01*
X81715400Y-16374032D01*
X81713400Y-16374032D01*
X81712410Y-16372496D01*
X81706425Y-16311729D01*
X81688755Y-16253480D01*
X81660063Y-16199800D01*
X81621450Y-16152750D01*
X81574400Y-16114137D01*
X81520720Y-16085445D01*
X81462471Y-16067775D01*
X81401704Y-16061790D01*
X81400078Y-16060625D01*
X81400274Y-16058635D01*
X81401900Y-16057800D01*
X81481697Y-16057800D01*
X81481893Y-16057810D01*
G37*
G36*
X61483582Y-15641125D02*
G01*
X61485362Y-15659200D01*
X61492362Y-15682275D01*
X61503727Y-15703539D01*
X61519022Y-15722176D01*
X61537659Y-15737471D01*
X61558923Y-15748836D01*
X61581998Y-15755836D01*
X61605989Y-15758199D01*
X61629980Y-15755836D01*
X61653055Y-15748836D01*
X61674407Y-15737423D01*
X61679512Y-15734012D01*
X61681508Y-15733881D01*
X61682619Y-15735544D01*
X61682037Y-15737089D01*
X61615049Y-15804077D01*
X61560812Y-15885249D01*
X61523454Y-15975440D01*
X61504408Y-16071190D01*
X61504408Y-16168810D01*
X61523454Y-16264560D01*
X61560572Y-16354173D01*
X61560311Y-16356156D01*
X61557571Y-16356572D01*
X61162599Y-16077768D01*
X61161760Y-16075952D01*
X61162987Y-16074286D01*
X61218751Y-16051188D01*
X61299923Y-15996951D01*
X61368951Y-15927923D01*
X61423188Y-15846751D01*
X61460546Y-15756560D01*
X61479592Y-15660810D01*
X61479592Y-15641321D01*
X61480592Y-15639589D01*
X61482592Y-15639589D01*
X61483582Y-15641125D01*
G37*
G36*
X59471555Y-15614579D02*
G01*
X59472408Y-15616217D01*
X59472408Y-15660810D01*
X59491454Y-15756560D01*
X59528812Y-15846751D01*
X59583049Y-15927923D01*
X59616712Y-15961586D01*
X59617230Y-15963518D01*
X59615298Y-15965000D01*
X59321800Y-15965000D01*
X59320068Y-15964000D01*
X59319800Y-15963000D01*
X59319800Y-15782710D01*
X59059903Y-15964638D01*
X59058756Y-15965000D01*
X59019353Y-15965000D01*
X59017621Y-15964000D01*
X59017621Y-15962000D01*
X59019157Y-15961010D01*
X59043344Y-15958628D01*
X59066407Y-15951632D01*
X59089984Y-15938699D01*
X59416464Y-15710163D01*
X59434843Y-15694402D01*
X59449730Y-15675438D01*
X59460632Y-15653934D01*
X59467132Y-15630702D01*
X59468416Y-15616043D01*
X59469563Y-15614404D01*
X59471555Y-15614579D01*
G37*
G36*
X60377510Y-15325650D02*
G01*
X60389033Y-15339691D01*
X60407670Y-15354986D01*
X60428934Y-15366351D01*
X60452009Y-15373351D01*
X60476000Y-15375714D01*
X60499991Y-15373351D01*
X60523066Y-15366351D01*
X60544330Y-15354986D01*
X60562967Y-15339691D01*
X60574490Y-15325650D01*
X60576362Y-15324946D01*
X60577908Y-15326215D01*
X60577699Y-15328030D01*
X60544812Y-15377249D01*
X60507454Y-15467440D01*
X60488408Y-15563190D01*
X60488408Y-15660810D01*
X60507454Y-15756560D01*
X60544812Y-15846751D01*
X60599049Y-15927923D01*
X60632712Y-15961586D01*
X60633230Y-15963518D01*
X60631298Y-15965000D01*
X60320702Y-15965000D01*
X60318970Y-15964000D01*
X60319288Y-15961586D01*
X60352951Y-15927923D01*
X60407188Y-15846751D01*
X60444546Y-15756560D01*
X60463592Y-15660810D01*
X60463592Y-15563190D01*
X60444546Y-15467440D01*
X60407188Y-15377249D01*
X60374301Y-15328030D01*
X60374170Y-15326034D01*
X60375833Y-15324923D01*
X60377510Y-15325650D01*
G37*
G36*
X60086665Y-14096875D02*
G01*
X60087500Y-14098501D01*
X60087500Y-14732500D01*
X60086500Y-14734232D01*
X60085500Y-14734500D01*
X60024211Y-14734500D01*
X60023268Y-14734264D01*
X60007567Y-14725872D01*
X59984492Y-14718872D01*
X59960501Y-14716509D01*
X59936510Y-14718872D01*
X59913435Y-14725872D01*
X59892171Y-14737237D01*
X59873534Y-14752532D01*
X59862011Y-14766573D01*
X59860139Y-14767277D01*
X59858593Y-14766008D01*
X59858802Y-14764193D01*
X59899188Y-14703751D01*
X59936546Y-14613560D01*
X59955592Y-14517810D01*
X59955592Y-14420190D01*
X59936546Y-14324440D01*
X59899188Y-14234249D01*
X59858802Y-14173807D01*
X59858671Y-14171811D01*
X59860334Y-14170700D01*
X59862011Y-14171427D01*
X59873534Y-14185468D01*
X59892171Y-14200763D01*
X59913435Y-14212128D01*
X59936510Y-14219128D01*
X59960501Y-14221491D01*
X59984492Y-14219128D01*
X60007567Y-14212128D01*
X60028831Y-14200763D01*
X60047468Y-14185468D01*
X60062763Y-14166831D01*
X60074128Y-14145567D01*
X60081128Y-14122492D01*
X60083510Y-14098305D01*
X60084675Y-14096679D01*
X60086665Y-14096875D01*
G37*
G36*
X65486990Y-12426805D02*
G01*
X65489372Y-12450992D01*
X65496372Y-12474067D01*
X65507737Y-12495331D01*
X65523032Y-12513968D01*
X65541669Y-12529263D01*
X65562933Y-12540628D01*
X65586008Y-12547628D01*
X65610195Y-12550010D01*
X65611821Y-12551175D01*
X65611625Y-12553165D01*
X65609999Y-12554000D01*
X64987000Y-12554000D01*
X64987000Y-12626999D01*
X64986000Y-12628731D01*
X64984000Y-12628731D01*
X64983010Y-12627195D01*
X64980628Y-12603008D01*
X64973628Y-12579933D01*
X64962263Y-12558669D01*
X64946968Y-12540032D01*
X64928331Y-12524737D01*
X64907067Y-12513372D01*
X64883992Y-12506372D01*
X64859805Y-12503990D01*
X64858179Y-12502825D01*
X64858375Y-12500835D01*
X64860001Y-12500000D01*
X65483000Y-12500000D01*
X65483000Y-12427001D01*
X65484000Y-12425269D01*
X65486000Y-12425269D01*
X65486990Y-12426805D01*
G37*
G36*
X64986165Y-10975375D02*
G01*
X64987000Y-10977001D01*
X64987000Y-11050000D01*
X65609999Y-11050000D01*
X65611731Y-11051000D01*
X65611731Y-11053000D01*
X65610195Y-11053990D01*
X65586008Y-11056372D01*
X65562933Y-11063372D01*
X65541669Y-11074737D01*
X65523032Y-11090032D01*
X65507737Y-11108669D01*
X65496372Y-11129933D01*
X65489372Y-11153008D01*
X65486990Y-11177195D01*
X65485825Y-11178821D01*
X65483835Y-11178625D01*
X65483000Y-11176999D01*
X65483000Y-11104000D01*
X64860001Y-11104000D01*
X64858269Y-11103000D01*
X64858269Y-11101000D01*
X64859805Y-11100010D01*
X64883992Y-11097628D01*
X64907067Y-11090628D01*
X64928331Y-11079263D01*
X64946968Y-11063968D01*
X64962263Y-11045331D01*
X64973628Y-11024067D01*
X64980628Y-11000992D01*
X64983010Y-10976805D01*
X64984175Y-10975179D01*
X64986165Y-10975375D01*
G37*
G36*
X51394290Y-4888546D02*
G01*
X51396672Y-4912733D01*
X51403672Y-4935808D01*
X51415037Y-4957072D01*
X51430332Y-4975709D01*
X51448969Y-4991004D01*
X51470233Y-5002369D01*
X51493308Y-5009369D01*
X51517299Y-5011732D01*
X51541290Y-5009369D01*
X51564365Y-5002369D01*
X51585629Y-4991004D01*
X51604266Y-4975709D01*
X51619561Y-4957072D01*
X51628124Y-4941050D01*
X51629823Y-4939994D01*
X51631586Y-4940937D01*
X51631736Y-4942758D01*
X51617454Y-4977240D01*
X51598408Y-5072990D01*
X51598408Y-5170610D01*
X51617454Y-5266360D01*
X51631736Y-5300842D01*
X51631475Y-5302825D01*
X51629627Y-5303590D01*
X51628124Y-5302550D01*
X51619561Y-5286528D01*
X51604265Y-5267891D01*
X51585628Y-5252596D01*
X51564364Y-5241231D01*
X51541289Y-5234231D01*
X51517298Y-5231868D01*
X51493307Y-5234231D01*
X51470232Y-5241231D01*
X51448969Y-5252596D01*
X51430332Y-5267892D01*
X51415037Y-5286529D01*
X51403672Y-5307793D01*
X51396672Y-5330868D01*
X51394290Y-5355054D01*
X51393125Y-5356680D01*
X51391135Y-5356484D01*
X51390300Y-5354858D01*
X51390300Y-4888742D01*
X51391300Y-4887010D01*
X51393300Y-4887010D01*
X51394290Y-4888546D01*
G37*
G36*
X75526390Y-4107304D02*
G01*
X75532375Y-4168071D01*
X75550045Y-4226320D01*
X75578737Y-4280000D01*
X75617350Y-4327050D01*
X75664400Y-4365663D01*
X75718080Y-4394355D01*
X75776329Y-4412025D01*
X75837096Y-4418010D01*
X75838722Y-4419175D01*
X75838526Y-4421165D01*
X75836900Y-4422000D01*
X75757103Y-4422000D01*
X75756907Y-4421990D01*
X75706687Y-4417044D01*
X75706302Y-4416968D01*
X75663911Y-4404109D01*
X75663549Y-4403959D01*
X75624484Y-4383078D01*
X75624158Y-4382860D01*
X75589917Y-4354760D01*
X75589640Y-4354483D01*
X75561540Y-4320242D01*
X75561322Y-4319916D01*
X75540441Y-4280851D01*
X75540291Y-4280489D01*
X75527432Y-4238098D01*
X75527356Y-4237713D01*
X75522410Y-4187493D01*
X75522400Y-4187297D01*
X75522400Y-4107500D01*
X75523400Y-4105768D01*
X75525400Y-4105768D01*
X75526390Y-4107304D01*
G37*
G36*
X78925565Y-4105874D02*
G01*
X78926400Y-4107500D01*
X78926400Y-4187297D01*
X78926390Y-4187493D01*
X78921444Y-4237713D01*
X78921368Y-4238098D01*
X78908509Y-4280489D01*
X78908359Y-4280851D01*
X78887478Y-4319916D01*
X78887260Y-4320242D01*
X78859160Y-4354483D01*
X78858883Y-4354760D01*
X78824642Y-4382860D01*
X78824316Y-4383078D01*
X78785251Y-4403959D01*
X78784889Y-4404109D01*
X78742498Y-4416968D01*
X78742113Y-4417044D01*
X78691893Y-4421990D01*
X78691697Y-4422000D01*
X78611900Y-4422000D01*
X78610168Y-4421000D01*
X78610168Y-4419000D01*
X78611704Y-4418010D01*
X78672471Y-4412025D01*
X78730720Y-4394355D01*
X78784400Y-4365663D01*
X78831450Y-4327050D01*
X78870063Y-4280000D01*
X78898755Y-4226320D01*
X78916425Y-4168071D01*
X78922410Y-4107304D01*
X78923575Y-4105678D01*
X78925565Y-4105874D01*
G37*
G36*
X79926390Y-4107304D02*
G01*
X79932375Y-4168071D01*
X79950045Y-4226320D01*
X79978737Y-4280000D01*
X80017350Y-4327050D01*
X80064400Y-4365663D01*
X80118080Y-4394355D01*
X80176329Y-4412025D01*
X80237096Y-4418010D01*
X80238722Y-4419175D01*
X80238526Y-4421165D01*
X80236900Y-4422000D01*
X80157103Y-4422000D01*
X80156907Y-4421990D01*
X80106687Y-4417044D01*
X80106302Y-4416968D01*
X80063911Y-4404109D01*
X80063549Y-4403959D01*
X80024484Y-4383078D01*
X80024158Y-4382860D01*
X79989917Y-4354760D01*
X79989640Y-4354483D01*
X79961540Y-4320242D01*
X79961322Y-4319916D01*
X79940441Y-4280851D01*
X79940291Y-4280489D01*
X79927432Y-4238098D01*
X79927356Y-4237713D01*
X79922410Y-4187493D01*
X79922400Y-4187297D01*
X79922400Y-4107500D01*
X79923400Y-4105768D01*
X79925400Y-4105768D01*
X79926390Y-4107304D01*
G37*
G36*
X83325565Y-4105874D02*
G01*
X83326400Y-4107500D01*
X83326400Y-4187297D01*
X83326390Y-4187493D01*
X83321444Y-4237713D01*
X83321368Y-4238098D01*
X83308509Y-4280489D01*
X83308359Y-4280851D01*
X83287478Y-4319916D01*
X83287260Y-4320242D01*
X83259160Y-4354483D01*
X83258883Y-4354760D01*
X83224642Y-4382860D01*
X83224316Y-4383078D01*
X83185251Y-4403959D01*
X83184889Y-4404109D01*
X83142498Y-4416968D01*
X83142113Y-4417044D01*
X83091893Y-4421990D01*
X83091697Y-4422000D01*
X83011900Y-4422000D01*
X83010168Y-4421000D01*
X83010168Y-4419000D01*
X83011704Y-4418010D01*
X83072471Y-4412025D01*
X83130720Y-4394355D01*
X83184400Y-4365663D01*
X83231450Y-4327050D01*
X83270063Y-4280000D01*
X83298755Y-4226320D01*
X83316425Y-4168071D01*
X83322410Y-4107304D01*
X83323575Y-4105678D01*
X83325565Y-4105874D01*
G37*
G36*
X97001165Y-3205354D02*
G01*
X97002000Y-3206980D01*
X97002000Y-3633020D01*
X97001000Y-3634752D01*
X96999000Y-3634752D01*
X96998010Y-3633216D01*
X96995628Y-3609029D01*
X96988628Y-3585954D01*
X96977263Y-3564690D01*
X96961968Y-3546053D01*
X96943331Y-3530758D01*
X96922067Y-3519393D01*
X96898992Y-3512393D01*
X96875001Y-3510030D01*
X96851010Y-3512393D01*
X96827935Y-3519393D01*
X96806671Y-3530758D01*
X96788034Y-3546053D01*
X96772739Y-3564690D01*
X96764174Y-3580716D01*
X96762475Y-3581772D01*
X96760712Y-3580829D01*
X96760562Y-3579008D01*
X96766546Y-3564560D01*
X96785592Y-3468810D01*
X96785592Y-3371190D01*
X96766546Y-3275440D01*
X96760562Y-3260992D01*
X96760823Y-3259009D01*
X96762671Y-3258244D01*
X96764174Y-3259284D01*
X96772739Y-3275310D01*
X96788035Y-3293947D01*
X96806672Y-3309242D01*
X96827935Y-3320607D01*
X96851010Y-3327607D01*
X96875001Y-3329970D01*
X96898993Y-3327607D01*
X96922067Y-3320607D01*
X96943331Y-3309242D01*
X96961968Y-3293946D01*
X96977263Y-3275309D01*
X96988628Y-3254046D01*
X96995628Y-3230971D01*
X96998010Y-3206784D01*
X96999175Y-3205158D01*
X97001165Y-3205354D01*
G37*
G36*
X80238632Y-2419000D02*
G01*
X80238632Y-2421000D01*
X80237096Y-2421990D01*
X80176329Y-2427975D01*
X80118080Y-2445645D01*
X80064400Y-2474337D01*
X80017350Y-2512950D01*
X79978737Y-2560000D01*
X79950045Y-2613680D01*
X79932375Y-2671929D01*
X79926390Y-2732696D01*
X79925225Y-2734322D01*
X79923235Y-2734126D01*
X79922400Y-2732500D01*
X79922400Y-2652703D01*
X79922410Y-2652507D01*
X79927356Y-2602287D01*
X79927432Y-2601902D01*
X79940291Y-2559511D01*
X79940441Y-2559149D01*
X79961322Y-2520084D01*
X79961540Y-2519758D01*
X79989640Y-2485517D01*
X79989917Y-2485240D01*
X80024158Y-2457140D01*
X80024484Y-2456922D01*
X80063549Y-2436041D01*
X80063911Y-2435891D01*
X80106302Y-2423032D01*
X80106687Y-2422956D01*
X80156907Y-2418010D01*
X80157103Y-2418000D01*
X80236900Y-2418000D01*
X80238632Y-2419000D01*
G37*
G36*
X75838632Y-2419000D02*
G01*
X75838632Y-2421000D01*
X75837096Y-2421990D01*
X75776329Y-2427975D01*
X75718080Y-2445645D01*
X75664400Y-2474337D01*
X75617350Y-2512950D01*
X75578737Y-2560000D01*
X75550045Y-2613680D01*
X75532375Y-2671929D01*
X75526390Y-2732696D01*
X75525225Y-2734322D01*
X75523235Y-2734126D01*
X75522400Y-2732500D01*
X75522400Y-2652703D01*
X75522410Y-2652507D01*
X75527356Y-2602287D01*
X75527432Y-2601902D01*
X75540291Y-2559511D01*
X75540441Y-2559149D01*
X75561322Y-2520084D01*
X75561540Y-2519758D01*
X75589640Y-2485517D01*
X75589917Y-2485240D01*
X75624158Y-2457140D01*
X75624484Y-2456922D01*
X75663549Y-2436041D01*
X75663911Y-2435891D01*
X75706302Y-2423032D01*
X75706687Y-2422956D01*
X75756907Y-2418010D01*
X75757103Y-2418000D01*
X75836900Y-2418000D01*
X75838632Y-2419000D01*
G37*
G36*
X83091893Y-2418010D02*
G01*
X83142113Y-2422956D01*
X83142498Y-2423032D01*
X83184889Y-2435891D01*
X83185251Y-2436041D01*
X83224316Y-2456922D01*
X83224642Y-2457140D01*
X83258883Y-2485240D01*
X83259160Y-2485517D01*
X83287260Y-2519758D01*
X83287478Y-2520084D01*
X83308359Y-2559149D01*
X83308509Y-2559511D01*
X83321368Y-2601902D01*
X83321444Y-2602287D01*
X83326390Y-2652507D01*
X83326400Y-2652703D01*
X83326400Y-2732500D01*
X83325400Y-2734232D01*
X83323400Y-2734232D01*
X83322410Y-2732696D01*
X83316425Y-2671929D01*
X83298755Y-2613680D01*
X83270063Y-2560000D01*
X83231450Y-2512950D01*
X83184400Y-2474337D01*
X83130720Y-2445645D01*
X83072471Y-2427975D01*
X83011704Y-2421990D01*
X83010078Y-2420825D01*
X83010274Y-2418835D01*
X83011900Y-2418000D01*
X83091697Y-2418000D01*
X83091893Y-2418010D01*
G37*
G36*
X78691893Y-2418010D02*
G01*
X78742113Y-2422956D01*
X78742498Y-2423032D01*
X78784889Y-2435891D01*
X78785251Y-2436041D01*
X78824316Y-2456922D01*
X78824642Y-2457140D01*
X78858883Y-2485240D01*
X78859160Y-2485517D01*
X78887260Y-2519758D01*
X78887478Y-2520084D01*
X78908359Y-2559149D01*
X78908509Y-2559511D01*
X78921368Y-2601902D01*
X78921444Y-2602287D01*
X78926390Y-2652507D01*
X78926400Y-2652703D01*
X78926400Y-2732500D01*
X78925400Y-2734232D01*
X78923400Y-2734232D01*
X78922410Y-2732696D01*
X78916425Y-2671929D01*
X78898755Y-2613680D01*
X78870063Y-2560000D01*
X78831450Y-2512950D01*
X78784400Y-2474337D01*
X78730720Y-2445645D01*
X78672471Y-2427975D01*
X78611704Y-2421990D01*
X78610078Y-2420825D01*
X78610274Y-2418835D01*
X78611900Y-2418000D01*
X78691697Y-2418000D01*
X78691893Y-2418010D01*
G37*
G36*
X97001165Y-1935354D02*
G01*
X97002000Y-1936980D01*
X97002000Y-2363020D01*
X97001000Y-2364752D01*
X96999000Y-2364752D01*
X96998010Y-2363216D01*
X96995628Y-2339029D01*
X96988628Y-2315954D01*
X96977263Y-2294690D01*
X96961968Y-2276053D01*
X96943331Y-2260758D01*
X96922067Y-2249393D01*
X96898992Y-2242393D01*
X96875001Y-2240030D01*
X96851010Y-2242393D01*
X96827935Y-2249393D01*
X96806671Y-2260758D01*
X96788034Y-2276053D01*
X96772739Y-2294690D01*
X96764174Y-2310716D01*
X96762475Y-2311772D01*
X96760712Y-2310829D01*
X96760562Y-2309008D01*
X96766546Y-2294560D01*
X96785592Y-2198810D01*
X96785592Y-2101190D01*
X96766546Y-2005440D01*
X96760562Y-1990992D01*
X96760823Y-1989009D01*
X96762671Y-1988244D01*
X96764174Y-1989284D01*
X96772739Y-2005310D01*
X96788035Y-2023947D01*
X96806672Y-2039242D01*
X96827935Y-2050607D01*
X96851010Y-2057607D01*
X96875001Y-2059970D01*
X96898993Y-2057607D01*
X96922067Y-2050607D01*
X96943331Y-2039242D01*
X96961968Y-2023946D01*
X96977263Y-2005309D01*
X96988628Y-1984046D01*
X96995628Y-1960971D01*
X96998010Y-1936784D01*
X96999175Y-1935158D01*
X97001165Y-1935354D01*
G37*
M02*
