G04 #@! TF.GenerationSoftware,KiCad,Pcbnew,5.1.10-88a1d61d58~88~ubuntu20.04.1*
G04 #@! TF.CreationDate,2021-06-28T19:55:26+01:00*
G04 #@! TF.ProjectId,hl2_6xvtr,686c325f-3678-4767-9472-2e6b69636164,1*
G04 #@! TF.SameCoordinates,PX3dfd240PY3473bc0*
G04 #@! TF.FileFunction,Paste,Top*
G04 #@! TF.FilePolarity,Positive*
%FSLAX46Y46*%
G04 Gerber Fmt 4.6, Leading zero omitted, Abs format (unit mm)*
G04 Created by KiCad (PCBNEW 5.1.10-88a1d61d58~88~ubuntu20.04.1) date 2021-06-28 19:55:26*
%MOMM*%
%LPD*%
G01*
G04 APERTURE LIST*
%ADD10R,2.540000X1.651000*%
%ADD11R,0.635000X1.143000*%
%ADD12R,1.143000X0.635000*%
%ADD13R,0.889000X1.397000*%
%ADD14R,2.200000X1.050000*%
%ADD15R,1.050000X1.000000*%
%ADD16R,4.550000X5.250000*%
%ADD17R,4.600000X1.100000*%
%ADD18R,1.397000X0.889000*%
%ADD19R,0.800000X0.900000*%
%ADD20R,0.900000X0.800000*%
%ADD21C,0.100000*%
%ADD22R,1.300000X0.900000*%
%ADD23R,0.900000X1.300000*%
%ADD24R,0.900000X1.200000*%
G04 APERTURE END LIST*
G36*
G01*
X77114400Y-16509800D02*
X77114400Y-17609800D01*
G75*
G02*
X76864400Y-17859800I-250000J0D01*
G01*
X74364400Y-17859800D01*
G75*
G02*
X74114400Y-17609800I0J250000D01*
G01*
X74114400Y-16509800D01*
G75*
G02*
X74364400Y-16259800I250000J0D01*
G01*
X76864400Y-16259800D01*
G75*
G02*
X77114400Y-16509800I0J-250000D01*
G01*
G37*
G36*
G01*
X81514400Y-16509800D02*
X81514400Y-17609800D01*
G75*
G02*
X81264400Y-17859800I-250000J0D01*
G01*
X78764400Y-17859800D01*
G75*
G02*
X78514400Y-17609800I0J250000D01*
G01*
X78514400Y-16509800D01*
G75*
G02*
X78764400Y-16259800I250000J0D01*
G01*
X81264400Y-16259800D01*
G75*
G02*
X81514400Y-16509800I0J-250000D01*
G01*
G37*
G36*
G01*
X78724400Y-3200200D02*
X78724400Y-4300200D01*
G75*
G02*
X78474400Y-4550200I-250000J0D01*
G01*
X75974400Y-4550200D01*
G75*
G02*
X75724400Y-4300200I0J250000D01*
G01*
X75724400Y-3200200D01*
G75*
G02*
X75974400Y-2950200I250000J0D01*
G01*
X78474400Y-2950200D01*
G75*
G02*
X78724400Y-3200200I0J-250000D01*
G01*
G37*
G36*
G01*
X83124400Y-3200200D02*
X83124400Y-4300200D01*
G75*
G02*
X82874400Y-4550200I-250000J0D01*
G01*
X80374400Y-4550200D01*
G75*
G02*
X80124400Y-4300200I0J250000D01*
G01*
X80124400Y-3200200D01*
G75*
G02*
X80374400Y-2950200I250000J0D01*
G01*
X82874400Y-2950200D01*
G75*
G02*
X83124400Y-3200200I0J-250000D01*
G01*
G37*
D10*
X43610400Y-21200000D03*
X43610400Y-23740000D03*
X43610400Y-26280000D03*
X48690400Y-21200000D03*
X48690400Y-23740000D03*
X48690400Y-26280000D03*
D11*
X31875600Y-29988400D03*
X33399600Y-29988400D03*
X89940000Y-28883500D03*
X91464000Y-28883500D03*
D12*
X44829600Y-37049600D03*
X44829600Y-35525600D03*
D11*
X74217400Y-3877200D03*
X72693400Y-3877200D03*
X64946400Y-1616600D03*
X63422400Y-1616600D03*
X34136200Y-23257400D03*
X35660200Y-23257400D03*
D12*
X60349000Y-3826400D03*
X60349000Y-2302400D03*
D11*
X36066600Y-15637400D03*
X37590600Y-15637400D03*
X28599000Y-14342000D03*
X30123000Y-14342000D03*
X53668800Y-5121800D03*
X55192800Y-5121800D03*
X47801400Y-11675000D03*
X49325400Y-11675000D03*
X45947200Y-5121800D03*
X47471200Y-5121800D03*
X49350800Y-5121800D03*
X50874800Y-5121800D03*
X17423000Y-19549000D03*
X18947000Y-19549000D03*
X28675200Y-8754000D03*
X30199200Y-8754000D03*
D12*
X32155000Y-7230000D03*
X32155000Y-8754000D03*
D11*
X35660200Y-7230000D03*
X34136200Y-7230000D03*
D12*
X57809000Y-9211200D03*
X57809000Y-10735200D03*
D11*
X60857000Y-12894200D03*
X59333000Y-12894200D03*
D12*
X63016000Y-9211200D03*
X63016000Y-10735200D03*
X64032000Y-40504000D03*
X64032000Y-38980000D03*
X73176000Y-39361000D03*
X73176000Y-40885000D03*
D11*
X76986000Y-39805500D03*
X75462000Y-39805500D03*
X82129500Y-39805500D03*
X83653500Y-39805500D03*
D12*
X86574500Y-39361000D03*
X86574500Y-40885000D03*
D11*
X92734000Y-41837500D03*
X91210000Y-41837500D03*
X31875600Y-31944200D03*
X33399600Y-31944200D03*
D12*
X86574500Y-28883500D03*
X86574500Y-30407500D03*
D11*
X44855000Y-33595200D03*
X43331000Y-33595200D03*
X91464000Y-31233000D03*
X89940000Y-31233000D03*
D12*
X44829600Y-42155000D03*
X44829600Y-40631000D03*
D11*
X72693400Y-6163200D03*
X74217400Y-6163200D03*
X64921000Y-3775600D03*
X63397000Y-3775600D03*
X63143000Y-18482200D03*
X61619000Y-18482200D03*
X37844600Y-25772000D03*
X39368600Y-25772000D03*
X72668000Y-8550800D03*
X74192000Y-8550800D03*
X37489000Y-20184000D03*
X39013000Y-20184000D03*
X30123000Y-16755000D03*
X28599000Y-16755000D03*
D12*
X43966000Y-7484000D03*
X43966000Y-9008000D03*
D11*
X53491000Y-21149200D03*
X55015000Y-21149200D03*
X37565200Y-8474600D03*
X39089200Y-8474600D03*
X18947000Y-21962000D03*
X17423000Y-21962000D03*
D12*
X33679000Y-12792600D03*
X33679000Y-14316600D03*
D11*
X21868000Y-19295000D03*
X23392000Y-19295000D03*
X63143000Y-16069200D03*
X61619000Y-16069200D03*
X17931000Y-16882000D03*
X19455000Y-16882000D03*
X56539000Y-12894200D03*
X55015000Y-12894200D03*
X17931000Y-12564000D03*
X19455000Y-12564000D03*
X17931000Y-8627000D03*
X19455000Y-8627000D03*
D12*
X21868000Y-7103000D03*
X21868000Y-8627000D03*
D13*
X33742500Y-25772000D03*
X35647500Y-25772000D03*
D14*
X67174000Y-11419200D03*
D15*
X65649000Y-12894200D03*
D14*
X67174000Y-14369200D03*
D16*
X89356500Y-12989500D03*
X94206500Y-7439500D03*
X89356500Y-7439500D03*
X94206500Y-12989500D03*
D17*
X82631500Y-12754500D03*
X82631500Y-7674500D03*
D13*
X75208000Y-37265500D03*
X77113000Y-37265500D03*
X81875500Y-37265500D03*
X83780500Y-37265500D03*
X90829000Y-39361000D03*
X92734000Y-39361000D03*
X35520500Y-31931500D03*
X37425500Y-31931500D03*
X39355900Y-22495400D03*
X37450900Y-22495400D03*
X39330500Y-17644000D03*
X37425500Y-17644000D03*
X37552500Y-10836800D03*
X35647500Y-10836800D03*
X23328500Y-21962000D03*
X21423500Y-21962000D03*
D18*
X21868000Y-16945500D03*
X21868000Y-15040500D03*
X21868000Y-12500500D03*
X21868000Y-10595500D03*
D13*
X59714000Y-21149200D03*
X61619000Y-21149200D03*
D19*
X33237000Y-18184000D03*
X34187000Y-20184000D03*
X35137000Y-18184000D03*
D20*
X83336000Y-28886000D03*
X81336000Y-29836000D03*
X83336000Y-30786000D03*
D12*
X79589500Y-40885000D03*
X79589500Y-39361000D03*
D11*
X36041200Y-13351400D03*
X37565200Y-13351400D03*
X33679000Y-10836800D03*
X32155000Y-10836800D03*
D21*
G36*
X58966000Y-18078700D02*
G01*
X55841000Y-18078700D01*
X55841000Y-17662200D01*
X54366000Y-17662200D01*
X54366000Y-16762200D01*
X55841000Y-16762200D01*
X55841000Y-16345700D01*
X58966000Y-16345700D01*
X58966000Y-18078700D01*
G37*
D22*
X55016000Y-18712200D03*
X55016000Y-15712200D03*
D21*
G36*
X90525500Y-36544500D02*
G01*
X87400500Y-36544500D01*
X87400500Y-36128000D01*
X85925500Y-36128000D01*
X85925500Y-35228000D01*
X87400500Y-35228000D01*
X87400500Y-34811500D01*
X90525500Y-34811500D01*
X90525500Y-36544500D01*
G37*
D22*
X86575500Y-37178000D03*
X86575500Y-34178000D03*
D21*
G36*
X26208500Y-23246000D02*
G01*
X26208500Y-20121000D01*
X26625000Y-20121000D01*
X26625000Y-18646000D01*
X27525000Y-18646000D01*
X27525000Y-20121000D01*
X27941500Y-20121000D01*
X27941500Y-23246000D01*
X26208500Y-23246000D01*
G37*
D23*
X25575000Y-19296000D03*
X28575000Y-19296000D03*
D20*
X70531100Y-6163200D03*
X68531100Y-7113200D03*
X68531100Y-5213200D03*
X59291600Y-6061600D03*
X57291600Y-7011600D03*
X57291600Y-5111600D03*
X51341400Y-8423800D03*
X49341400Y-9373800D03*
X49341400Y-7473800D03*
D24*
X61645400Y-6087000D03*
X64945400Y-6087000D03*
X43964000Y-5134500D03*
X40664000Y-5134500D03*
M02*
