G04 #@! TF.GenerationSoftware,KiCad,Pcbnew,5.1.10-88a1d61d58~90~ubuntu20.04.1*
G04 #@! TF.CreationDate,2021-09-05T16:54:04+01:00*
G04 #@! TF.ProjectId,hl2_6xvtr,686c325f-3678-4767-9472-2e6b69636164,1*
G04 #@! TF.SameCoordinates,PX3dfd240PY3473bc0*
G04 #@! TF.FileFunction,Legend,Bot*
G04 #@! TF.FilePolarity,Positive*
%FSLAX46Y46*%
G04 Gerber Fmt 4.6, Leading zero omitted, Abs format (unit mm)*
G04 Created by KiCad (PCBNEW 5.1.10-88a1d61d58~90~ubuntu20.04.1) date 2021-09-05 16:54:04*
%MOMM*%
%LPD*%
G01*
G04 APERTURE LIST*
%ADD10C,0.120000*%
%ADD11C,0.100000*%
G04 APERTURE END LIST*
D10*
X33565000Y-35362500D02*
X34765000Y-35362500D01*
X33565000Y-31362500D02*
X33565000Y-35362500D01*
X38365000Y-35362500D02*
X38365000Y-32662500D01*
X37165000Y-35362500D02*
X38365000Y-35362500D01*
D11*
X82955000Y-27042000D02*
X81939000Y-27042000D01*
X82955000Y-28566000D02*
X82955000Y-27042000D01*
X81939000Y-28566000D02*
X82955000Y-28566000D01*
X79907000Y-28566000D02*
X80923000Y-28566000D01*
X79907000Y-27042000D02*
X79907000Y-28566000D01*
X80923000Y-27042000D02*
X79907000Y-27042000D01*
X56539000Y-13834000D02*
X56539000Y-15104000D01*
X58825000Y-13834000D02*
X56539000Y-13834000D01*
X58825000Y-15104000D02*
X58825000Y-13834000D01*
X56539000Y-15104000D02*
X58825000Y-15104000D01*
X29805500Y-38408500D02*
X27519500Y-38408500D01*
X27519500Y-38408500D02*
X27519500Y-39678500D01*
X27519500Y-39678500D02*
X29805500Y-39678500D01*
X29805500Y-39678500D02*
X29805500Y-38408500D01*
X31393000Y-38662500D02*
X31393000Y-40948500D01*
X31393000Y-40948500D02*
X32663000Y-40948500D01*
X32663000Y-40948500D02*
X32663000Y-38662500D01*
X32663000Y-38662500D02*
X31393000Y-38662500D01*
X32663000Y-37392500D02*
X32663000Y-35106500D01*
X32663000Y-35106500D02*
X31393000Y-35106500D01*
X31393000Y-35106500D02*
X31393000Y-37392500D01*
X31393000Y-37392500D02*
X32663000Y-37392500D01*
X29297500Y-33328500D02*
X29297500Y-31042500D01*
X29297500Y-31042500D02*
X28027500Y-31042500D01*
X28027500Y-31042500D02*
X28027500Y-33328500D01*
X28027500Y-33328500D02*
X29297500Y-33328500D01*
X31393000Y-31550500D02*
X31393000Y-33836500D01*
X31393000Y-33836500D02*
X32663000Y-33836500D01*
X32663000Y-33836500D02*
X32663000Y-31550500D01*
X32663000Y-31550500D02*
X31393000Y-31550500D01*
X76160500Y-30471000D02*
X78446500Y-30471000D01*
X78446500Y-30471000D02*
X78446500Y-29201000D01*
X78446500Y-29201000D02*
X76160500Y-29201000D01*
X76160500Y-29201000D02*
X76160500Y-30471000D01*
X72795000Y-25391000D02*
X72795000Y-27677000D01*
X72795000Y-27677000D02*
X74065000Y-27677000D01*
X74065000Y-27677000D02*
X74065000Y-25391000D01*
X74065000Y-25391000D02*
X72795000Y-25391000D01*
X69937500Y-29201000D02*
X67651500Y-29201000D01*
X67651500Y-29201000D02*
X67651500Y-30471000D01*
X67651500Y-30471000D02*
X69937500Y-30471000D01*
X69937500Y-30471000D02*
X69937500Y-29201000D01*
X67080000Y-27677000D02*
X67080000Y-25391000D01*
X67080000Y-25391000D02*
X65810000Y-25391000D01*
X65810000Y-25391000D02*
X65810000Y-27677000D01*
X65810000Y-27677000D02*
X67080000Y-27677000D01*
X64921000Y-27677000D02*
X64921000Y-25391000D01*
X64921000Y-25391000D02*
X63651000Y-25391000D01*
X63651000Y-25391000D02*
X63651000Y-27677000D01*
X63651000Y-27677000D02*
X64921000Y-27677000D01*
X57999500Y-30471000D02*
X60285500Y-30471000D01*
X60285500Y-30471000D02*
X60285500Y-29201000D01*
X60285500Y-29201000D02*
X57999500Y-29201000D01*
X57999500Y-29201000D02*
X57999500Y-30471000D01*
X54507000Y-25391000D02*
X54507000Y-27677000D01*
X54507000Y-27677000D02*
X55777000Y-27677000D01*
X55777000Y-27677000D02*
X55777000Y-25391000D01*
X55777000Y-25391000D02*
X54507000Y-25391000D01*
X52119400Y-29201000D02*
X49833400Y-29201000D01*
X49833400Y-29201000D02*
X49833400Y-30471000D01*
X49833400Y-30471000D02*
X52119400Y-30471000D01*
X52119400Y-30471000D02*
X52119400Y-29201000D01*
X32478904Y-34801776D02*
X33126523Y-34801776D01*
X33202714Y-34839871D01*
X33240809Y-34877966D01*
X33278904Y-34954157D01*
X33278904Y-35106538D01*
X33240809Y-35182728D01*
X33202714Y-35220823D01*
X33126523Y-35258919D01*
X32478904Y-35258919D01*
X32478904Y-35563680D02*
X32478904Y-36058919D01*
X32783666Y-35792252D01*
X32783666Y-35906538D01*
X32821761Y-35982728D01*
X32859857Y-36020823D01*
X32936047Y-36058919D01*
X33126523Y-36058919D01*
X33202714Y-36020823D01*
X33240809Y-35982728D01*
X33278904Y-35906538D01*
X33278904Y-35677966D01*
X33240809Y-35601776D01*
X33202714Y-35563680D01*
X81564333Y-26765904D02*
X81945285Y-26765904D01*
X81945285Y-25965904D01*
X81373857Y-25965904D02*
X80840523Y-25965904D01*
X81183380Y-26765904D01*
X58196285Y-14754714D02*
X58234380Y-14792809D01*
X58348666Y-14830904D01*
X58424857Y-14830904D01*
X58539142Y-14792809D01*
X58615333Y-14716619D01*
X58653428Y-14640428D01*
X58691523Y-14488047D01*
X58691523Y-14373761D01*
X58653428Y-14221380D01*
X58615333Y-14145190D01*
X58539142Y-14069000D01*
X58424857Y-14030904D01*
X58348666Y-14030904D01*
X58234380Y-14069000D01*
X58196285Y-14107095D01*
X57472476Y-14030904D02*
X57853428Y-14030904D01*
X57891523Y-14411857D01*
X57853428Y-14373761D01*
X57777238Y-14335666D01*
X57586761Y-14335666D01*
X57510571Y-14373761D01*
X57472476Y-14411857D01*
X57434380Y-14488047D01*
X57434380Y-14678523D01*
X57472476Y-14754714D01*
X57510571Y-14792809D01*
X57586761Y-14830904D01*
X57777238Y-14830904D01*
X57853428Y-14792809D01*
X57891523Y-14754714D01*
X56939142Y-14030904D02*
X56862952Y-14030904D01*
X56786761Y-14069000D01*
X56748666Y-14107095D01*
X56710571Y-14183285D01*
X56672476Y-14335666D01*
X56672476Y-14526142D01*
X56710571Y-14678523D01*
X56748666Y-14754714D01*
X56786761Y-14792809D01*
X56862952Y-14830904D01*
X56939142Y-14830904D01*
X57015333Y-14792809D01*
X57053428Y-14754714D01*
X57091523Y-14678523D01*
X57129619Y-14526142D01*
X57129619Y-14335666D01*
X57091523Y-14183285D01*
X57053428Y-14107095D01*
X57015333Y-14069000D01*
X56939142Y-14030904D01*
X26319285Y-39392714D02*
X26357380Y-39430809D01*
X26471666Y-39468904D01*
X26547857Y-39468904D01*
X26662142Y-39430809D01*
X26738333Y-39354619D01*
X26776428Y-39278428D01*
X26814523Y-39126047D01*
X26814523Y-39011761D01*
X26776428Y-38859380D01*
X26738333Y-38783190D01*
X26662142Y-38707000D01*
X26547857Y-38668904D01*
X26471666Y-38668904D01*
X26357380Y-38707000D01*
X26319285Y-38745095D01*
X25633571Y-38935571D02*
X25633571Y-39468904D01*
X25824047Y-38630809D02*
X26014523Y-39202238D01*
X25519285Y-39202238D01*
X25100238Y-39011761D02*
X25176428Y-38973666D01*
X25214523Y-38935571D01*
X25252619Y-38859380D01*
X25252619Y-38821285D01*
X25214523Y-38745095D01*
X25176428Y-38707000D01*
X25100238Y-38668904D01*
X24947857Y-38668904D01*
X24871666Y-38707000D01*
X24833571Y-38745095D01*
X24795476Y-38821285D01*
X24795476Y-38859380D01*
X24833571Y-38935571D01*
X24871666Y-38973666D01*
X24947857Y-39011761D01*
X25100238Y-39011761D01*
X25176428Y-39049857D01*
X25214523Y-39087952D01*
X25252619Y-39164142D01*
X25252619Y-39316523D01*
X25214523Y-39392714D01*
X25176428Y-39430809D01*
X25100238Y-39468904D01*
X24947857Y-39468904D01*
X24871666Y-39430809D01*
X24833571Y-39392714D01*
X24795476Y-39316523D01*
X24795476Y-39164142D01*
X24833571Y-39087952D01*
X24871666Y-39049857D01*
X24947857Y-39011761D01*
X34879085Y-41500914D02*
X34917180Y-41539009D01*
X35031466Y-41577104D01*
X35107657Y-41577104D01*
X35221942Y-41539009D01*
X35298133Y-41462819D01*
X35336228Y-41386628D01*
X35374323Y-41234247D01*
X35374323Y-41119961D01*
X35336228Y-40967580D01*
X35298133Y-40891390D01*
X35221942Y-40815200D01*
X35107657Y-40777104D01*
X35031466Y-40777104D01*
X34917180Y-40815200D01*
X34879085Y-40853295D01*
X34193371Y-41043771D02*
X34193371Y-41577104D01*
X34383847Y-40739009D02*
X34574323Y-41310438D01*
X34079085Y-41310438D01*
X33393371Y-40777104D02*
X33774323Y-40777104D01*
X33812419Y-41158057D01*
X33774323Y-41119961D01*
X33698133Y-41081866D01*
X33507657Y-41081866D01*
X33431466Y-41119961D01*
X33393371Y-41158057D01*
X33355276Y-41234247D01*
X33355276Y-41424723D01*
X33393371Y-41500914D01*
X33431466Y-41539009D01*
X33507657Y-41577104D01*
X33698133Y-41577104D01*
X33774323Y-41539009D01*
X33812419Y-41500914D01*
X30789714Y-35697114D02*
X30827809Y-35659019D01*
X30865904Y-35544733D01*
X30865904Y-35468542D01*
X30827809Y-35354257D01*
X30751619Y-35278066D01*
X30675428Y-35239971D01*
X30523047Y-35201876D01*
X30408761Y-35201876D01*
X30256380Y-35239971D01*
X30180190Y-35278066D01*
X30104000Y-35354257D01*
X30065904Y-35468542D01*
X30065904Y-35544733D01*
X30104000Y-35659019D01*
X30142095Y-35697114D01*
X30332571Y-36382828D02*
X30865904Y-36382828D01*
X30027809Y-36192352D02*
X30599238Y-36001876D01*
X30599238Y-36497114D01*
X30065904Y-36725685D02*
X30065904Y-37220923D01*
X30370666Y-36954257D01*
X30370666Y-37068542D01*
X30408761Y-37144733D01*
X30446857Y-37182828D01*
X30523047Y-37220923D01*
X30713523Y-37220923D01*
X30789714Y-37182828D01*
X30827809Y-37144733D01*
X30865904Y-37068542D01*
X30865904Y-36839971D01*
X30827809Y-36763780D01*
X30789714Y-36725685D01*
X29087885Y-30274114D02*
X29125980Y-30312209D01*
X29240266Y-30350304D01*
X29316457Y-30350304D01*
X29430742Y-30312209D01*
X29506933Y-30236019D01*
X29545028Y-30159828D01*
X29583123Y-30007447D01*
X29583123Y-29893161D01*
X29545028Y-29740780D01*
X29506933Y-29664590D01*
X29430742Y-29588400D01*
X29316457Y-29550304D01*
X29240266Y-29550304D01*
X29125980Y-29588400D01*
X29087885Y-29626495D01*
X28402171Y-29816971D02*
X28402171Y-30350304D01*
X28592647Y-29512209D02*
X28783123Y-30083638D01*
X28287885Y-30083638D01*
X27564076Y-30350304D02*
X28021219Y-30350304D01*
X27792647Y-30350304D02*
X27792647Y-29550304D01*
X27868838Y-29664590D01*
X27945028Y-29740780D01*
X28021219Y-29778876D01*
X32491485Y-30909114D02*
X32529580Y-30947209D01*
X32643866Y-30985304D01*
X32720057Y-30985304D01*
X32834342Y-30947209D01*
X32910533Y-30871019D01*
X32948628Y-30794828D01*
X32986723Y-30642447D01*
X32986723Y-30528161D01*
X32948628Y-30375780D01*
X32910533Y-30299590D01*
X32834342Y-30223400D01*
X32720057Y-30185304D01*
X32643866Y-30185304D01*
X32529580Y-30223400D01*
X32491485Y-30261495D01*
X32224819Y-30185304D02*
X31729580Y-30185304D01*
X31996247Y-30490066D01*
X31881961Y-30490066D01*
X31805771Y-30528161D01*
X31767676Y-30566257D01*
X31729580Y-30642447D01*
X31729580Y-30832923D01*
X31767676Y-30909114D01*
X31805771Y-30947209D01*
X31881961Y-30985304D01*
X32110533Y-30985304D01*
X32186723Y-30947209D01*
X32224819Y-30909114D01*
X31272438Y-30528161D02*
X31348628Y-30490066D01*
X31386723Y-30451971D01*
X31424819Y-30375780D01*
X31424819Y-30337685D01*
X31386723Y-30261495D01*
X31348628Y-30223400D01*
X31272438Y-30185304D01*
X31120057Y-30185304D01*
X31043866Y-30223400D01*
X31005771Y-30261495D01*
X30967676Y-30337685D01*
X30967676Y-30375780D01*
X31005771Y-30451971D01*
X31043866Y-30490066D01*
X31120057Y-30528161D01*
X31272438Y-30528161D01*
X31348628Y-30566257D01*
X31386723Y-30604352D01*
X31424819Y-30680542D01*
X31424819Y-30832923D01*
X31386723Y-30909114D01*
X31348628Y-30947209D01*
X31272438Y-30985304D01*
X31120057Y-30985304D01*
X31043866Y-30947209D01*
X31005771Y-30909114D01*
X30967676Y-30832923D01*
X30967676Y-30680542D01*
X31005771Y-30604352D01*
X31043866Y-30566257D01*
X31120057Y-30528161D01*
X77881285Y-31899714D02*
X77919380Y-31937809D01*
X78033666Y-31975904D01*
X78109857Y-31975904D01*
X78224142Y-31937809D01*
X78300333Y-31861619D01*
X78338428Y-31785428D01*
X78376523Y-31633047D01*
X78376523Y-31518761D01*
X78338428Y-31366380D01*
X78300333Y-31290190D01*
X78224142Y-31214000D01*
X78109857Y-31175904D01*
X78033666Y-31175904D01*
X77919380Y-31214000D01*
X77881285Y-31252095D01*
X77614619Y-31175904D02*
X77119380Y-31175904D01*
X77386047Y-31480666D01*
X77271761Y-31480666D01*
X77195571Y-31518761D01*
X77157476Y-31556857D01*
X77119380Y-31633047D01*
X77119380Y-31823523D01*
X77157476Y-31899714D01*
X77195571Y-31937809D01*
X77271761Y-31975904D01*
X77500333Y-31975904D01*
X77576523Y-31937809D01*
X77614619Y-31899714D01*
X76624142Y-31175904D02*
X76547952Y-31175904D01*
X76471761Y-31214000D01*
X76433666Y-31252095D01*
X76395571Y-31328285D01*
X76357476Y-31480666D01*
X76357476Y-31671142D01*
X76395571Y-31823523D01*
X76433666Y-31899714D01*
X76471761Y-31937809D01*
X76547952Y-31975904D01*
X76624142Y-31975904D01*
X76700333Y-31937809D01*
X76738428Y-31899714D01*
X76776523Y-31823523D01*
X76814619Y-31671142D01*
X76814619Y-31480666D01*
X76776523Y-31328285D01*
X76738428Y-31252095D01*
X76700333Y-31214000D01*
X76624142Y-31175904D01*
X73868085Y-24686114D02*
X73906180Y-24724209D01*
X74020466Y-24762304D01*
X74096657Y-24762304D01*
X74210942Y-24724209D01*
X74287133Y-24648019D01*
X74325228Y-24571828D01*
X74363323Y-24419447D01*
X74363323Y-24305161D01*
X74325228Y-24152780D01*
X74287133Y-24076590D01*
X74210942Y-24000400D01*
X74096657Y-23962304D01*
X74020466Y-23962304D01*
X73906180Y-24000400D01*
X73868085Y-24038495D01*
X73563323Y-24038495D02*
X73525228Y-24000400D01*
X73449038Y-23962304D01*
X73258561Y-23962304D01*
X73182371Y-24000400D01*
X73144276Y-24038495D01*
X73106180Y-24114685D01*
X73106180Y-24190876D01*
X73144276Y-24305161D01*
X73601419Y-24762304D01*
X73106180Y-24762304D01*
X72725228Y-24762304D02*
X72572847Y-24762304D01*
X72496657Y-24724209D01*
X72458561Y-24686114D01*
X72382371Y-24571828D01*
X72344276Y-24419447D01*
X72344276Y-24114685D01*
X72382371Y-24038495D01*
X72420466Y-24000400D01*
X72496657Y-23962304D01*
X72649038Y-23962304D01*
X72725228Y-24000400D01*
X72763323Y-24038495D01*
X72801419Y-24114685D01*
X72801419Y-24305161D01*
X72763323Y-24381352D01*
X72725228Y-24419447D01*
X72649038Y-24457542D01*
X72496657Y-24457542D01*
X72420466Y-24419447D01*
X72382371Y-24381352D01*
X72344276Y-24305161D01*
X69308785Y-31721914D02*
X69346880Y-31760009D01*
X69461166Y-31798104D01*
X69537357Y-31798104D01*
X69651642Y-31760009D01*
X69727833Y-31683819D01*
X69765928Y-31607628D01*
X69804023Y-31455247D01*
X69804023Y-31340961D01*
X69765928Y-31188580D01*
X69727833Y-31112390D01*
X69651642Y-31036200D01*
X69537357Y-30998104D01*
X69461166Y-30998104D01*
X69346880Y-31036200D01*
X69308785Y-31074295D01*
X69004023Y-31074295D02*
X68965928Y-31036200D01*
X68889738Y-30998104D01*
X68699261Y-30998104D01*
X68623071Y-31036200D01*
X68584976Y-31074295D01*
X68546880Y-31150485D01*
X68546880Y-31226676D01*
X68584976Y-31340961D01*
X69042119Y-31798104D01*
X68546880Y-31798104D01*
X68089738Y-31340961D02*
X68165928Y-31302866D01*
X68204023Y-31264771D01*
X68242119Y-31188580D01*
X68242119Y-31150485D01*
X68204023Y-31074295D01*
X68165928Y-31036200D01*
X68089738Y-30998104D01*
X67937357Y-30998104D01*
X67861166Y-31036200D01*
X67823071Y-31074295D01*
X67784976Y-31150485D01*
X67784976Y-31188580D01*
X67823071Y-31264771D01*
X67861166Y-31302866D01*
X67937357Y-31340961D01*
X68089738Y-31340961D01*
X68165928Y-31379057D01*
X68204023Y-31417152D01*
X68242119Y-31493342D01*
X68242119Y-31645723D01*
X68204023Y-31721914D01*
X68165928Y-31760009D01*
X68089738Y-31798104D01*
X67937357Y-31798104D01*
X67861166Y-31760009D01*
X67823071Y-31721914D01*
X67784976Y-31645723D01*
X67784976Y-31493342D01*
X67823071Y-31417152D01*
X67861166Y-31379057D01*
X67937357Y-31340961D01*
X66756085Y-24584514D02*
X66794180Y-24622609D01*
X66908466Y-24660704D01*
X66984657Y-24660704D01*
X67098942Y-24622609D01*
X67175133Y-24546419D01*
X67213228Y-24470228D01*
X67251323Y-24317847D01*
X67251323Y-24203561D01*
X67213228Y-24051180D01*
X67175133Y-23974990D01*
X67098942Y-23898800D01*
X66984657Y-23860704D01*
X66908466Y-23860704D01*
X66794180Y-23898800D01*
X66756085Y-23936895D01*
X66451323Y-23936895D02*
X66413228Y-23898800D01*
X66337038Y-23860704D01*
X66146561Y-23860704D01*
X66070371Y-23898800D01*
X66032276Y-23936895D01*
X65994180Y-24013085D01*
X65994180Y-24089276D01*
X66032276Y-24203561D01*
X66489419Y-24660704D01*
X65994180Y-24660704D01*
X65727514Y-23860704D02*
X65194180Y-23860704D01*
X65537038Y-24660704D01*
X62920714Y-26019714D02*
X62958809Y-25981619D01*
X62996904Y-25867333D01*
X62996904Y-25791142D01*
X62958809Y-25676857D01*
X62882619Y-25600666D01*
X62806428Y-25562571D01*
X62654047Y-25524476D01*
X62539761Y-25524476D01*
X62387380Y-25562571D01*
X62311190Y-25600666D01*
X62235000Y-25676857D01*
X62196904Y-25791142D01*
X62196904Y-25867333D01*
X62235000Y-25981619D01*
X62273095Y-26019714D01*
X62273095Y-26324476D02*
X62235000Y-26362571D01*
X62196904Y-26438761D01*
X62196904Y-26629238D01*
X62235000Y-26705428D01*
X62273095Y-26743523D01*
X62349285Y-26781619D01*
X62425476Y-26781619D01*
X62539761Y-26743523D01*
X62996904Y-26286380D01*
X62996904Y-26781619D01*
X62196904Y-27467333D02*
X62196904Y-27314952D01*
X62235000Y-27238761D01*
X62273095Y-27200666D01*
X62387380Y-27124476D01*
X62539761Y-27086380D01*
X62844523Y-27086380D01*
X62920714Y-27124476D01*
X62958809Y-27162571D01*
X62996904Y-27238761D01*
X62996904Y-27391142D01*
X62958809Y-27467333D01*
X62920714Y-27505428D01*
X62844523Y-27543523D01*
X62654047Y-27543523D01*
X62577857Y-27505428D01*
X62539761Y-27467333D01*
X62501666Y-27391142D01*
X62501666Y-27238761D01*
X62539761Y-27162571D01*
X62577857Y-27124476D01*
X62654047Y-27086380D01*
X59618685Y-31925114D02*
X59656780Y-31963209D01*
X59771066Y-32001304D01*
X59847257Y-32001304D01*
X59961542Y-31963209D01*
X60037733Y-31887019D01*
X60075828Y-31810828D01*
X60113923Y-31658447D01*
X60113923Y-31544161D01*
X60075828Y-31391780D01*
X60037733Y-31315590D01*
X59961542Y-31239400D01*
X59847257Y-31201304D01*
X59771066Y-31201304D01*
X59656780Y-31239400D01*
X59618685Y-31277495D01*
X59313923Y-31277495D02*
X59275828Y-31239400D01*
X59199638Y-31201304D01*
X59009161Y-31201304D01*
X58932971Y-31239400D01*
X58894876Y-31277495D01*
X58856780Y-31353685D01*
X58856780Y-31429876D01*
X58894876Y-31544161D01*
X59352019Y-32001304D01*
X58856780Y-32001304D01*
X58171066Y-31467971D02*
X58171066Y-32001304D01*
X58361542Y-31163209D02*
X58552019Y-31734638D01*
X58056780Y-31734638D01*
X57078714Y-25943514D02*
X57116809Y-25905419D01*
X57154904Y-25791133D01*
X57154904Y-25714942D01*
X57116809Y-25600657D01*
X57040619Y-25524466D01*
X56964428Y-25486371D01*
X56812047Y-25448276D01*
X56697761Y-25448276D01*
X56545380Y-25486371D01*
X56469190Y-25524466D01*
X56393000Y-25600657D01*
X56354904Y-25714942D01*
X56354904Y-25791133D01*
X56393000Y-25905419D01*
X56431095Y-25943514D01*
X56431095Y-26248276D02*
X56393000Y-26286371D01*
X56354904Y-26362561D01*
X56354904Y-26553038D01*
X56393000Y-26629228D01*
X56431095Y-26667323D01*
X56507285Y-26705419D01*
X56583476Y-26705419D01*
X56697761Y-26667323D01*
X57154904Y-26210180D01*
X57154904Y-26705419D01*
X56354904Y-26972085D02*
X56354904Y-27467323D01*
X56659666Y-27200657D01*
X56659666Y-27314942D01*
X56697761Y-27391133D01*
X56735857Y-27429228D01*
X56812047Y-27467323D01*
X57002523Y-27467323D01*
X57078714Y-27429228D01*
X57116809Y-27391133D01*
X57154904Y-27314942D01*
X57154904Y-27086371D01*
X57116809Y-27010180D01*
X57078714Y-26972085D01*
X51389085Y-31569514D02*
X51427180Y-31607609D01*
X51541466Y-31645704D01*
X51617657Y-31645704D01*
X51731942Y-31607609D01*
X51808133Y-31531419D01*
X51846228Y-31455228D01*
X51884323Y-31302847D01*
X51884323Y-31188561D01*
X51846228Y-31036180D01*
X51808133Y-30959990D01*
X51731942Y-30883800D01*
X51617657Y-30845704D01*
X51541466Y-30845704D01*
X51427180Y-30883800D01*
X51389085Y-30921895D01*
X51084323Y-30921895D02*
X51046228Y-30883800D01*
X50970038Y-30845704D01*
X50779561Y-30845704D01*
X50703371Y-30883800D01*
X50665276Y-30921895D01*
X50627180Y-30998085D01*
X50627180Y-31074276D01*
X50665276Y-31188561D01*
X51122419Y-31645704D01*
X50627180Y-31645704D01*
X49865276Y-31645704D02*
X50322419Y-31645704D01*
X50093847Y-31645704D02*
X50093847Y-30845704D01*
X50170038Y-30959990D01*
X50246228Y-31036180D01*
X50322419Y-31074276D01*
M02*
