G04 #@! TF.GenerationSoftware,KiCad,Pcbnew,5.1.10-88a1d61d58~90~ubuntu20.04.1*
G04 #@! TF.CreationDate,2021-09-05T16:54:04+01:00*
G04 #@! TF.ProjectId,hl2_6xvtr,686c325f-3678-4767-9472-2e6b69636164,1*
G04 #@! TF.SameCoordinates,PX3dfd240PY3473bc0*
G04 #@! TF.FileFunction,Legend,Top*
G04 #@! TF.FilePolarity,Positive*
%FSLAX46Y46*%
G04 Gerber Fmt 4.6, Leading zero omitted, Abs format (unit mm)*
G04 Created by KiCad (PCBNEW 5.1.10-88a1d61d58~90~ubuntu20.04.1) date 2021-09-05 16:54:04*
%MOMM*%
%LPD*%
G01*
G04 APERTURE LIST*
%ADD10C,0.150000*%
%ADD11C,0.120000*%
%ADD12C,0.100000*%
G04 APERTURE END LIST*
D10*
X5677380Y-16221428D02*
X4677380Y-16221428D01*
X5153571Y-16221428D02*
X5153571Y-15650000D01*
X5677380Y-15650000D02*
X4677380Y-15650000D01*
X5677380Y-14697619D02*
X5677380Y-15173809D01*
X4677380Y-15173809D01*
X4772619Y-14411904D02*
X4725000Y-14364285D01*
X4677380Y-14269047D01*
X4677380Y-14030952D01*
X4725000Y-13935714D01*
X4772619Y-13888095D01*
X4867857Y-13840476D01*
X4963095Y-13840476D01*
X5105952Y-13888095D01*
X5677380Y-14459523D01*
X5677380Y-13840476D01*
X5296428Y-13411904D02*
X5296428Y-12650000D01*
X4677380Y-12269047D02*
X5677380Y-11602380D01*
X4677380Y-11602380D02*
X5677380Y-12269047D01*
X4677380Y-11364285D02*
X5677380Y-11030952D01*
X4677380Y-10697619D01*
X4677380Y-10507142D02*
X4677380Y-9935714D01*
X5677380Y-10221428D02*
X4677380Y-10221428D01*
X5677380Y-9030952D02*
X5201190Y-9364285D01*
X5677380Y-9602380D02*
X4677380Y-9602380D01*
X4677380Y-9221428D01*
X4725000Y-9126190D01*
X4772619Y-9078571D01*
X4867857Y-9030952D01*
X5010714Y-9030952D01*
X5105952Y-9078571D01*
X5153571Y-9126190D01*
X5201190Y-9221428D01*
X5201190Y-9602380D01*
X7327380Y-21435714D02*
X6851190Y-21769047D01*
X7327380Y-22007142D02*
X6327380Y-22007142D01*
X6327380Y-21626190D01*
X6375000Y-21530952D01*
X6422619Y-21483333D01*
X6517857Y-21435714D01*
X6660714Y-21435714D01*
X6755952Y-21483333D01*
X6803571Y-21530952D01*
X6851190Y-21626190D01*
X6851190Y-22007142D01*
X7279761Y-20626190D02*
X7327380Y-20721428D01*
X7327380Y-20911904D01*
X7279761Y-21007142D01*
X7184523Y-21054761D01*
X6803571Y-21054761D01*
X6708333Y-21007142D01*
X6660714Y-20911904D01*
X6660714Y-20721428D01*
X6708333Y-20626190D01*
X6803571Y-20578571D01*
X6898809Y-20578571D01*
X6994047Y-21054761D01*
X6660714Y-20245238D02*
X7327380Y-20007142D01*
X6660714Y-19769047D01*
X7327380Y-18102380D02*
X7327380Y-18673809D01*
X7327380Y-18388095D02*
X6327380Y-18388095D01*
X6470238Y-18483333D01*
X6565476Y-18578571D01*
X6613095Y-18673809D01*
X6565476Y-16102380D02*
X6517857Y-16197619D01*
X6517857Y-16388095D01*
X6565476Y-16483333D01*
X6660714Y-16578571D01*
X6755952Y-16626190D01*
X6946428Y-16626190D01*
X7041666Y-16578571D01*
X7136904Y-16483333D01*
X7184523Y-16388095D01*
X7184523Y-16197619D01*
X7136904Y-16102380D01*
X6184523Y-16292857D02*
X6232142Y-16530952D01*
X6375000Y-16769047D01*
X6613095Y-16911904D01*
X6851190Y-16959523D01*
X7089285Y-16911904D01*
X7327380Y-16769047D01*
X7470238Y-16530952D01*
X7517857Y-16292857D01*
X7470238Y-16054761D01*
X7327380Y-15816666D01*
X7089285Y-15673809D01*
X6851190Y-15626190D01*
X6613095Y-15673809D01*
X6375000Y-15816666D01*
X6232142Y-16054761D01*
X6184523Y-16292857D01*
X6422619Y-14483333D02*
X6375000Y-14435714D01*
X6327380Y-14340476D01*
X6327380Y-14102380D01*
X6375000Y-14007142D01*
X6422619Y-13959523D01*
X6517857Y-13911904D01*
X6613095Y-13911904D01*
X6755952Y-13959523D01*
X7327380Y-14530952D01*
X7327380Y-13911904D01*
X6327380Y-13292857D02*
X6327380Y-13197619D01*
X6375000Y-13102380D01*
X6422619Y-13054761D01*
X6517857Y-13007142D01*
X6708333Y-12959523D01*
X6946428Y-12959523D01*
X7136904Y-13007142D01*
X7232142Y-13054761D01*
X7279761Y-13102380D01*
X7327380Y-13197619D01*
X7327380Y-13292857D01*
X7279761Y-13388095D01*
X7232142Y-13435714D01*
X7136904Y-13483333D01*
X6946428Y-13530952D01*
X6708333Y-13530952D01*
X6517857Y-13483333D01*
X6422619Y-13435714D01*
X6375000Y-13388095D01*
X6327380Y-13292857D01*
X6422619Y-12578571D02*
X6375000Y-12530952D01*
X6327380Y-12435714D01*
X6327380Y-12197619D01*
X6375000Y-12102380D01*
X6422619Y-12054761D01*
X6517857Y-12007142D01*
X6613095Y-12007142D01*
X6755952Y-12054761D01*
X7327380Y-12626190D01*
X7327380Y-12007142D01*
X7327380Y-11054761D02*
X7327380Y-11626190D01*
X7327380Y-11340476D02*
X6327380Y-11340476D01*
X6470238Y-11435714D01*
X6565476Y-11530952D01*
X6613095Y-11626190D01*
X7327380Y-9864285D02*
X6327380Y-9864285D01*
X6708333Y-9864285D02*
X6660714Y-9769047D01*
X6660714Y-9578571D01*
X6708333Y-9483333D01*
X6755952Y-9435714D01*
X6851190Y-9388095D01*
X7136904Y-9388095D01*
X7232142Y-9435714D01*
X7279761Y-9483333D01*
X7327380Y-9578571D01*
X7327380Y-9769047D01*
X7279761Y-9864285D01*
X6660714Y-9054761D02*
X7327380Y-8816666D01*
X6660714Y-8578571D02*
X7327380Y-8816666D01*
X7565476Y-8911904D01*
X7613095Y-8959523D01*
X7660714Y-9054761D01*
X7327380Y-7435714D02*
X6327380Y-7435714D01*
X7041666Y-7102380D01*
X6327380Y-6769047D01*
X7327380Y-6769047D01*
X6327380Y-5816666D02*
X6327380Y-6292857D01*
X6803571Y-6340476D01*
X6755952Y-6292857D01*
X6708333Y-6197619D01*
X6708333Y-5959523D01*
X6755952Y-5864285D01*
X6803571Y-5816666D01*
X6898809Y-5769047D01*
X7136904Y-5769047D01*
X7232142Y-5816666D01*
X7279761Y-5864285D01*
X7327380Y-5959523D01*
X7327380Y-6197619D01*
X7279761Y-6292857D01*
X7232142Y-6340476D01*
X6803571Y-5340476D02*
X6803571Y-5007142D01*
X7327380Y-4864285D02*
X7327380Y-5340476D01*
X6327380Y-5340476D01*
X6327380Y-4864285D01*
X6327380Y-4578571D02*
X7327380Y-4245238D01*
X6327380Y-3911904D01*
X6327380Y-3721428D02*
X6327380Y-3150000D01*
X7327380Y-3435714D02*
X6327380Y-3435714D01*
D11*
X60478000Y-14863000D02*
X60478000Y-16063000D01*
X56478000Y-14863000D02*
X60478000Y-14863000D01*
X60478000Y-19663000D02*
X57778000Y-19663000D01*
X60478000Y-18463000D02*
X60478000Y-19663000D01*
X90005500Y-33278000D02*
X90005500Y-34478000D01*
X86005500Y-33278000D02*
X90005500Y-33278000D01*
X90005500Y-38078000D02*
X87305500Y-38078000D01*
X90005500Y-36878000D02*
X90005500Y-38078000D01*
X29475000Y-22726000D02*
X28275000Y-22726000D01*
X29475000Y-18726000D02*
X29475000Y-22726000D01*
X24675000Y-22726000D02*
X24675000Y-20026000D01*
X25875000Y-22726000D02*
X24675000Y-22726000D01*
X61430000Y-10642000D02*
X60030000Y-10642000D01*
X60030000Y-12962000D02*
X61930000Y-12962000D01*
D12*
X51205000Y-16247000D02*
X51205000Y-17263000D01*
X49681000Y-16247000D02*
X51205000Y-16247000D01*
X49681000Y-17263000D02*
X49681000Y-16247000D01*
X49681000Y-19295000D02*
X49681000Y-18279000D01*
X51205000Y-19295000D02*
X49681000Y-19295000D01*
X51205000Y-18279000D02*
X51205000Y-19295000D01*
X54062500Y-21962000D02*
X53046500Y-21962000D01*
X54062500Y-20438000D02*
X54062500Y-21962000D01*
X53046500Y-20438000D02*
X54062500Y-20438000D01*
X51014500Y-20438000D02*
X52030500Y-20438000D01*
X51014500Y-21962000D02*
X51014500Y-20438000D01*
X52030500Y-21962000D02*
X51014500Y-21962000D01*
X55142000Y-16183500D02*
X55142000Y-17199500D01*
X53618000Y-16183500D02*
X55142000Y-16183500D01*
X53618000Y-17199500D02*
X53618000Y-16183500D01*
X53618000Y-19231500D02*
X53618000Y-18215500D01*
X55142000Y-19231500D02*
X53618000Y-19231500D01*
X55142000Y-18215500D02*
X55142000Y-19231500D01*
X88619200Y-26838800D02*
X88619200Y-25568800D01*
X90905200Y-26838800D02*
X88619200Y-26838800D01*
X90905200Y-25568800D02*
X90905200Y-26838800D01*
X88619200Y-25568800D02*
X90905200Y-25568800D01*
X62508000Y-13326000D02*
X62508000Y-14596000D01*
X60222000Y-13326000D02*
X62508000Y-13326000D01*
X60222000Y-14596000D02*
X60222000Y-13326000D01*
X62508000Y-14596000D02*
X60222000Y-14596000D01*
D11*
X75054400Y-14299800D02*
X75054400Y-15999800D01*
X75054400Y-19819800D02*
X75054400Y-18119800D01*
X79509963Y-19819800D02*
X75054400Y-19819800D01*
X79509963Y-14299800D02*
X75054400Y-14299800D01*
X80574400Y-15364237D02*
X80574400Y-15999800D01*
X80574400Y-18755363D02*
X80574400Y-18119800D01*
X80574400Y-18755363D02*
X79509963Y-19819800D01*
X80574400Y-15364237D02*
X79509963Y-14299800D01*
X81439400Y-18744800D02*
X80814400Y-18744800D01*
X81126900Y-19057300D02*
X81126900Y-18432300D01*
X76664400Y-660000D02*
X76664400Y-2360000D01*
X76664400Y-6180000D02*
X76664400Y-4480000D01*
X81119963Y-6180000D02*
X76664400Y-6180000D01*
X81119963Y-660000D02*
X76664400Y-660000D01*
X82184400Y-1724437D02*
X82184400Y-2360000D01*
X82184400Y-5115563D02*
X82184400Y-4480000D01*
X82184400Y-5115563D02*
X81119963Y-6180000D01*
X82184400Y-1724437D02*
X81119963Y-660000D01*
X83049400Y-5105000D02*
X82424400Y-5105000D01*
X82736900Y-5417500D02*
X82736900Y-4792500D01*
X48665000Y-20184000D02*
X48665000Y-19676000D01*
X48665000Y-19676000D02*
X42823000Y-19676000D01*
X42823000Y-19676000D02*
X42823000Y-20184000D01*
X42823000Y-20184000D02*
X41934000Y-20184000D01*
X42823000Y-27296000D02*
X42823000Y-27804000D01*
X42823000Y-27804000D02*
X48665000Y-27804000D01*
X48665000Y-27804000D02*
X48665000Y-27296000D01*
D12*
X33780600Y-29353400D02*
X33780600Y-30623400D01*
X31494600Y-29353400D02*
X33780600Y-29353400D01*
X31494600Y-30623400D02*
X31494600Y-29353400D01*
X33780600Y-30623400D02*
X31494600Y-30623400D01*
X91845000Y-28248500D02*
X91845000Y-29518500D01*
X89559000Y-28248500D02*
X91845000Y-28248500D01*
X89559000Y-29518500D02*
X89559000Y-28248500D01*
X91845000Y-29518500D02*
X89559000Y-29518500D01*
X44194600Y-35144600D02*
X45464600Y-35144600D01*
X44194600Y-37430600D02*
X44194600Y-35144600D01*
X45464600Y-37430600D02*
X44194600Y-37430600D01*
X45464600Y-35144600D02*
X45464600Y-37430600D01*
X72312400Y-4512200D02*
X72312400Y-3242200D01*
X74598400Y-4512200D02*
X72312400Y-4512200D01*
X74598400Y-3242200D02*
X74598400Y-4512200D01*
X72312400Y-3242200D02*
X74598400Y-3242200D01*
X63041400Y-2251600D02*
X63041400Y-981600D01*
X65327400Y-2251600D02*
X63041400Y-2251600D01*
X65327400Y-981600D02*
X65327400Y-2251600D01*
X63041400Y-981600D02*
X65327400Y-981600D01*
X36041200Y-22622400D02*
X36041200Y-23892400D01*
X33755200Y-22622400D02*
X36041200Y-22622400D01*
X33755200Y-23892400D02*
X33755200Y-22622400D01*
X36041200Y-23892400D02*
X33755200Y-23892400D01*
X59714000Y-1921400D02*
X60984000Y-1921400D01*
X59714000Y-4207400D02*
X59714000Y-1921400D01*
X60984000Y-4207400D02*
X59714000Y-4207400D01*
X60984000Y-1921400D02*
X60984000Y-4207400D01*
X37971600Y-15002400D02*
X37971600Y-16272400D01*
X35685600Y-15002400D02*
X37971600Y-15002400D01*
X35685600Y-16272400D02*
X35685600Y-15002400D01*
X37971600Y-16272400D02*
X35685600Y-16272400D01*
X30504000Y-13707000D02*
X30504000Y-14977000D01*
X28218000Y-13707000D02*
X30504000Y-13707000D01*
X28218000Y-14977000D02*
X28218000Y-13707000D01*
X30504000Y-14977000D02*
X28218000Y-14977000D01*
X55573800Y-4486800D02*
X55573800Y-5756800D01*
X53287800Y-4486800D02*
X55573800Y-4486800D01*
X53287800Y-5756800D02*
X53287800Y-4486800D01*
X55573800Y-5756800D02*
X53287800Y-5756800D01*
X49706400Y-11040000D02*
X49706400Y-12310000D01*
X47420400Y-11040000D02*
X49706400Y-11040000D01*
X47420400Y-12310000D02*
X47420400Y-11040000D01*
X49706400Y-12310000D02*
X47420400Y-12310000D01*
X47852200Y-4486800D02*
X47852200Y-5756800D01*
X45566200Y-4486800D02*
X47852200Y-4486800D01*
X45566200Y-5756800D02*
X45566200Y-4486800D01*
X47852200Y-5756800D02*
X45566200Y-5756800D01*
X51255800Y-4486800D02*
X51255800Y-5756800D01*
X48969800Y-4486800D02*
X51255800Y-4486800D01*
X48969800Y-5756800D02*
X48969800Y-4486800D01*
X51255800Y-5756800D02*
X48969800Y-5756800D01*
X19328000Y-18914000D02*
X19328000Y-20184000D01*
X17042000Y-18914000D02*
X19328000Y-18914000D01*
X17042000Y-20184000D02*
X17042000Y-18914000D01*
X19328000Y-20184000D02*
X17042000Y-20184000D01*
X64667000Y-38599000D02*
X64667000Y-40885000D01*
X64667000Y-40885000D02*
X63397000Y-40885000D01*
X63397000Y-40885000D02*
X63397000Y-38599000D01*
X63397000Y-38599000D02*
X64667000Y-38599000D01*
X72541000Y-41266000D02*
X72541000Y-38980000D01*
X72541000Y-38980000D02*
X73811000Y-38980000D01*
X73811000Y-38980000D02*
X73811000Y-41266000D01*
X73811000Y-41266000D02*
X72541000Y-41266000D01*
X75081000Y-39170500D02*
X77367000Y-39170500D01*
X77367000Y-39170500D02*
X77367000Y-40440500D01*
X77367000Y-40440500D02*
X75081000Y-40440500D01*
X75081000Y-40440500D02*
X75081000Y-39170500D01*
X84034500Y-40440500D02*
X81748500Y-40440500D01*
X81748500Y-40440500D02*
X81748500Y-39170500D01*
X81748500Y-39170500D02*
X84034500Y-39170500D01*
X84034500Y-39170500D02*
X84034500Y-40440500D01*
X85939500Y-41266000D02*
X85939500Y-38980000D01*
X85939500Y-38980000D02*
X87209500Y-38980000D01*
X87209500Y-38980000D02*
X87209500Y-41266000D01*
X87209500Y-41266000D02*
X85939500Y-41266000D01*
X90829000Y-41202500D02*
X93115000Y-41202500D01*
X93115000Y-41202500D02*
X93115000Y-42472500D01*
X93115000Y-42472500D02*
X90829000Y-42472500D01*
X90829000Y-42472500D02*
X90829000Y-41202500D01*
X33780600Y-32579200D02*
X31494600Y-32579200D01*
X31494600Y-32579200D02*
X31494600Y-31309200D01*
X31494600Y-31309200D02*
X33780600Y-31309200D01*
X33780600Y-31309200D02*
X33780600Y-32579200D01*
X85939500Y-30788500D02*
X85939500Y-28502500D01*
X85939500Y-28502500D02*
X87209500Y-28502500D01*
X87209500Y-28502500D02*
X87209500Y-30788500D01*
X87209500Y-30788500D02*
X85939500Y-30788500D01*
X42950000Y-32960200D02*
X45236000Y-32960200D01*
X45236000Y-32960200D02*
X45236000Y-34230200D01*
X45236000Y-34230200D02*
X42950000Y-34230200D01*
X42950000Y-34230200D02*
X42950000Y-32960200D01*
X89559000Y-30598000D02*
X91845000Y-30598000D01*
X91845000Y-30598000D02*
X91845000Y-31868000D01*
X91845000Y-31868000D02*
X89559000Y-31868000D01*
X89559000Y-31868000D02*
X89559000Y-30598000D01*
X45464600Y-40250000D02*
X45464600Y-42536000D01*
X45464600Y-42536000D02*
X44194600Y-42536000D01*
X44194600Y-42536000D02*
X44194600Y-40250000D01*
X44194600Y-40250000D02*
X45464600Y-40250000D01*
X74598400Y-6798200D02*
X72312400Y-6798200D01*
X72312400Y-6798200D02*
X72312400Y-5528200D01*
X72312400Y-5528200D02*
X74598400Y-5528200D01*
X74598400Y-5528200D02*
X74598400Y-6798200D01*
X63016000Y-3140600D02*
X65302000Y-3140600D01*
X65302000Y-3140600D02*
X65302000Y-4410600D01*
X65302000Y-4410600D02*
X63016000Y-4410600D01*
X63016000Y-4410600D02*
X63016000Y-3140600D01*
X63270000Y-18533000D02*
X65556000Y-18533000D01*
X65556000Y-18533000D02*
X65556000Y-19803000D01*
X65556000Y-19803000D02*
X63270000Y-19803000D01*
X63270000Y-19803000D02*
X63270000Y-18533000D01*
X39749600Y-26407000D02*
X37463600Y-26407000D01*
X37463600Y-26407000D02*
X37463600Y-25137000D01*
X37463600Y-25137000D02*
X39749600Y-25137000D01*
X39749600Y-25137000D02*
X39749600Y-26407000D01*
X74573000Y-9185800D02*
X72287000Y-9185800D01*
X72287000Y-9185800D02*
X72287000Y-7915800D01*
X72287000Y-7915800D02*
X74573000Y-7915800D01*
X74573000Y-7915800D02*
X74573000Y-9185800D01*
X39394000Y-20819000D02*
X37108000Y-20819000D01*
X37108000Y-20819000D02*
X37108000Y-19549000D01*
X37108000Y-19549000D02*
X39394000Y-19549000D01*
X39394000Y-19549000D02*
X39394000Y-20819000D01*
X28218000Y-16120000D02*
X30504000Y-16120000D01*
X30504000Y-16120000D02*
X30504000Y-17390000D01*
X30504000Y-17390000D02*
X28218000Y-17390000D01*
X28218000Y-17390000D02*
X28218000Y-16120000D01*
X43331000Y-9389000D02*
X43331000Y-7103000D01*
X43331000Y-7103000D02*
X44601000Y-7103000D01*
X44601000Y-7103000D02*
X44601000Y-9389000D01*
X44601000Y-9389000D02*
X43331000Y-9389000D01*
X57428000Y-21784200D02*
X55142000Y-21784200D01*
X55142000Y-21784200D02*
X55142000Y-20514200D01*
X55142000Y-20514200D02*
X57428000Y-20514200D01*
X57428000Y-20514200D02*
X57428000Y-21784200D01*
X39470200Y-9109600D02*
X37184200Y-9109600D01*
X37184200Y-9109600D02*
X37184200Y-7839600D01*
X37184200Y-7839600D02*
X39470200Y-7839600D01*
X39470200Y-7839600D02*
X39470200Y-9109600D01*
X17042000Y-21327000D02*
X19328000Y-21327000D01*
X19328000Y-21327000D02*
X19328000Y-22597000D01*
X19328000Y-22597000D02*
X17042000Y-22597000D01*
X17042000Y-22597000D02*
X17042000Y-21327000D01*
X33044000Y-14697600D02*
X33044000Y-12411600D01*
X33044000Y-12411600D02*
X34314000Y-12411600D01*
X34314000Y-12411600D02*
X34314000Y-14697600D01*
X34314000Y-14697600D02*
X33044000Y-14697600D01*
X23773000Y-19930000D02*
X21487000Y-19930000D01*
X21487000Y-19930000D02*
X21487000Y-18660000D01*
X21487000Y-18660000D02*
X23773000Y-18660000D01*
X23773000Y-18660000D02*
X23773000Y-19930000D01*
X63270000Y-16501000D02*
X65556000Y-16501000D01*
X65556000Y-16501000D02*
X65556000Y-17771000D01*
X65556000Y-17771000D02*
X63270000Y-17771000D01*
X63270000Y-17771000D02*
X63270000Y-16501000D01*
X19836000Y-17517000D02*
X17550000Y-17517000D01*
X17550000Y-17517000D02*
X17550000Y-16247000D01*
X17550000Y-16247000D02*
X19836000Y-16247000D01*
X19836000Y-16247000D02*
X19836000Y-17517000D01*
X56412000Y-13072000D02*
X56412000Y-10786000D01*
X56412000Y-10786000D02*
X57682000Y-10786000D01*
X57682000Y-10786000D02*
X57682000Y-13072000D01*
X57682000Y-13072000D02*
X56412000Y-13072000D01*
X19836000Y-13199000D02*
X17550000Y-13199000D01*
X17550000Y-13199000D02*
X17550000Y-11929000D01*
X17550000Y-11929000D02*
X19836000Y-11929000D01*
X19836000Y-11929000D02*
X19836000Y-13199000D01*
X19836000Y-9262000D02*
X17550000Y-9262000D01*
X17550000Y-9262000D02*
X17550000Y-7992000D01*
X17550000Y-7992000D02*
X19836000Y-7992000D01*
X19836000Y-7992000D02*
X19836000Y-9262000D01*
X21233000Y-9008000D02*
X21233000Y-6722000D01*
X21233000Y-6722000D02*
X22503000Y-6722000D01*
X22503000Y-6722000D02*
X22503000Y-9008000D01*
X22503000Y-9008000D02*
X21233000Y-9008000D01*
X35203000Y-25010000D02*
X36219000Y-25010000D01*
X36219000Y-25010000D02*
X36219000Y-26534000D01*
X36219000Y-26534000D02*
X35203000Y-26534000D01*
X34187000Y-26534000D02*
X33171000Y-26534000D01*
X33171000Y-26534000D02*
X33171000Y-25010000D01*
X33171000Y-25010000D02*
X34187000Y-25010000D01*
D11*
X53987000Y-30991000D02*
X53987000Y-24181000D01*
X53987000Y-30991000D02*
X60797000Y-30991000D01*
X53987000Y-24181000D02*
X60797000Y-24181000D01*
X60797000Y-24181000D02*
X60797000Y-30991000D01*
X67645000Y-10452000D02*
X67645000Y-13152000D01*
X64925000Y-11042000D02*
X64295000Y-11042000D01*
X64925000Y-13202000D02*
X64925000Y-12562000D01*
X64925000Y-10402000D02*
X64925000Y-11042000D01*
X89188000Y196000D02*
X89188000Y-2464000D01*
X89188000Y196000D02*
X84048000Y196000D01*
X84048000Y196000D02*
X84048000Y-2464000D01*
X89188000Y-2464000D02*
X84048000Y-2464000D01*
X91788000Y-2464000D02*
X90458000Y-2464000D01*
X91788000Y-1134000D02*
X91788000Y-2464000D01*
X10438000Y-2464000D02*
X10438000Y196000D01*
X10438000Y-2464000D02*
X58758000Y-2464000D01*
X58758000Y-2464000D02*
X58758000Y196000D01*
X10438000Y196000D02*
X58758000Y196000D01*
X7838000Y196000D02*
X9168000Y196000D01*
X7838000Y-1134000D02*
X7838000Y196000D01*
X86956500Y-5014500D02*
X85456500Y-5014500D01*
X85456500Y-5014500D02*
X85456500Y-6824500D01*
X85456500Y-6824500D02*
X80331500Y-6824500D01*
X86956500Y-15414500D02*
X85456500Y-15414500D01*
X85456500Y-15414500D02*
X85456500Y-13604500D01*
X85456500Y-13604500D02*
X84356500Y-13604500D01*
D12*
X76668500Y-36503500D02*
X77684500Y-36503500D01*
X77684500Y-36503500D02*
X77684500Y-38027500D01*
X77684500Y-38027500D02*
X76668500Y-38027500D01*
X75652500Y-38027500D02*
X74636500Y-38027500D01*
X74636500Y-38027500D02*
X74636500Y-36503500D01*
X74636500Y-36503500D02*
X75652500Y-36503500D01*
D11*
X41120500Y-33443500D02*
X41120500Y-40253500D01*
X41120500Y-33443500D02*
X34310500Y-33443500D01*
X41120500Y-40253500D02*
X34310500Y-40253500D01*
X34310500Y-40253500D02*
X34310500Y-33443500D01*
D12*
X83336000Y-36503500D02*
X84352000Y-36503500D01*
X84352000Y-36503500D02*
X84352000Y-38027500D01*
X84352000Y-38027500D02*
X83336000Y-38027500D01*
X82320000Y-38027500D02*
X81304000Y-38027500D01*
X81304000Y-38027500D02*
X81304000Y-36503500D01*
X81304000Y-36503500D02*
X82320000Y-36503500D01*
D11*
X23062500Y-29824000D02*
X29872500Y-29824000D01*
X23062500Y-29824000D02*
X23062500Y-36634000D01*
X29872500Y-29824000D02*
X29872500Y-36634000D01*
X29872500Y-36634000D02*
X23062500Y-36634000D01*
D12*
X92289500Y-38599000D02*
X93305500Y-38599000D01*
X93305500Y-38599000D02*
X93305500Y-40123000D01*
X93305500Y-40123000D02*
X92289500Y-40123000D01*
X91273500Y-40123000D02*
X90257500Y-40123000D01*
X90257500Y-40123000D02*
X90257500Y-38599000D01*
X90257500Y-38599000D02*
X91273500Y-38599000D01*
X36981000Y-31169500D02*
X37997000Y-31169500D01*
X37997000Y-31169500D02*
X37997000Y-32693500D01*
X37997000Y-32693500D02*
X36981000Y-32693500D01*
X35965000Y-32693500D02*
X34949000Y-32693500D01*
X34949000Y-32693500D02*
X34949000Y-31169500D01*
X34949000Y-31169500D02*
X35965000Y-31169500D01*
X37895400Y-23257400D02*
X36879400Y-23257400D01*
X36879400Y-23257400D02*
X36879400Y-21733400D01*
X36879400Y-21733400D02*
X37895400Y-21733400D01*
X38911400Y-21733400D02*
X39927400Y-21733400D01*
X39927400Y-21733400D02*
X39927400Y-23257400D01*
X39927400Y-23257400D02*
X38911400Y-23257400D01*
X37870000Y-18406000D02*
X36854000Y-18406000D01*
X36854000Y-18406000D02*
X36854000Y-16882000D01*
X36854000Y-16882000D02*
X37870000Y-16882000D01*
X38886000Y-16882000D02*
X39902000Y-16882000D01*
X39902000Y-16882000D02*
X39902000Y-18406000D01*
X39902000Y-18406000D02*
X38886000Y-18406000D01*
X36092000Y-11598800D02*
X35076000Y-11598800D01*
X35076000Y-11598800D02*
X35076000Y-10074800D01*
X35076000Y-10074800D02*
X36092000Y-10074800D01*
X37108000Y-10074800D02*
X38124000Y-10074800D01*
X38124000Y-10074800D02*
X38124000Y-11598800D01*
X38124000Y-11598800D02*
X37108000Y-11598800D01*
X21868000Y-22724000D02*
X20852000Y-22724000D01*
X20852000Y-22724000D02*
X20852000Y-21200000D01*
X20852000Y-21200000D02*
X21868000Y-21200000D01*
X22884000Y-21200000D02*
X23900000Y-21200000D01*
X23900000Y-21200000D02*
X23900000Y-22724000D01*
X23900000Y-22724000D02*
X22884000Y-22724000D01*
X21106000Y-15485000D02*
X21106000Y-14469000D01*
X21106000Y-14469000D02*
X22630000Y-14469000D01*
X22630000Y-14469000D02*
X22630000Y-15485000D01*
X22630000Y-16501000D02*
X22630000Y-17517000D01*
X22630000Y-17517000D02*
X21106000Y-17517000D01*
X21106000Y-17517000D02*
X21106000Y-16501000D01*
X21106000Y-11040000D02*
X21106000Y-10024000D01*
X21106000Y-10024000D02*
X22630000Y-10024000D01*
X22630000Y-10024000D02*
X22630000Y-11040000D01*
X22630000Y-12056000D02*
X22630000Y-13072000D01*
X22630000Y-13072000D02*
X21106000Y-13072000D01*
X21106000Y-13072000D02*
X21106000Y-12056000D01*
X63206500Y-20387200D02*
X64222500Y-20387200D01*
X64222500Y-20387200D02*
X64222500Y-21911200D01*
X64222500Y-21911200D02*
X63206500Y-21911200D01*
X62190500Y-21911200D02*
X61174500Y-21911200D01*
X61174500Y-21911200D02*
X61174500Y-20387200D01*
X61174500Y-20387200D02*
X62190500Y-20387200D01*
X70100000Y-42300000D02*
X70100000Y-47700000D01*
X57900000Y-42300000D02*
X70100000Y-42300000D01*
X57900000Y-47700000D02*
X57900000Y-42300000D01*
X38100000Y-42300000D02*
X38100000Y-47700000D01*
X25900000Y-42300000D02*
X38100000Y-42300000D01*
X25900000Y-47700000D02*
X25900000Y-42300000D01*
X32587000Y-20784000D02*
X35787000Y-20784000D01*
X35787000Y-20784000D02*
X35787000Y-17584000D01*
X35787000Y-17584000D02*
X32587000Y-17584000D01*
X32587000Y-17584000D02*
X32587000Y-20784000D01*
X80736000Y-28236000D02*
X80736000Y-31436000D01*
X80736000Y-31436000D02*
X83936000Y-31436000D01*
X83936000Y-31436000D02*
X83936000Y-28236000D01*
X83936000Y-28236000D02*
X80736000Y-28236000D01*
D11*
X72275000Y-30991000D02*
X72275000Y-24181000D01*
X72275000Y-30991000D02*
X79085000Y-30991000D01*
X72275000Y-24181000D02*
X79085000Y-24181000D01*
X79085000Y-24181000D02*
X79085000Y-30991000D01*
X63131000Y-30991000D02*
X63131000Y-24181000D01*
X63131000Y-30991000D02*
X69941000Y-30991000D01*
X63131000Y-24181000D02*
X69941000Y-24181000D01*
X69941000Y-24181000D02*
X69941000Y-30991000D01*
D12*
X38128000Y42000D02*
X38128000Y-5358000D01*
X25928000Y42000D02*
X38128000Y42000D01*
X25928000Y-5358000D02*
X25928000Y42000D01*
X27968000Y42000D02*
X27968000Y-5358000D01*
X15768000Y42000D02*
X27968000Y42000D01*
X15768000Y-5358000D02*
X15768000Y42000D01*
X78954500Y-38980000D02*
X80224500Y-38980000D01*
X78954500Y-41266000D02*
X78954500Y-38980000D01*
X80224500Y-41266000D02*
X78954500Y-41266000D01*
X80224500Y-38980000D02*
X80224500Y-41266000D01*
X37946200Y-12716400D02*
X37946200Y-13986400D01*
X35660200Y-12716400D02*
X37946200Y-12716400D01*
X35660200Y-13986400D02*
X35660200Y-12716400D01*
X37946200Y-13986400D02*
X35660200Y-13986400D01*
X31774000Y-11471800D02*
X31774000Y-10201800D01*
X34060000Y-11471800D02*
X31774000Y-11471800D01*
X34060000Y-10201800D02*
X34060000Y-11471800D01*
X31774000Y-10201800D02*
X34060000Y-10201800D01*
D11*
X70291100Y-7743200D02*
X70291100Y-6813200D01*
X70291100Y-4583200D02*
X70291100Y-5513200D01*
X70291100Y-4583200D02*
X68131100Y-4583200D01*
X70291100Y-7743200D02*
X68831100Y-7743200D01*
X59051600Y-7641600D02*
X59051600Y-6711600D01*
X59051600Y-4481600D02*
X59051600Y-5411600D01*
X59051600Y-4481600D02*
X56891600Y-4481600D01*
X59051600Y-7641600D02*
X57591600Y-7641600D01*
X51101400Y-10003800D02*
X51101400Y-9073800D01*
X51101400Y-6843800D02*
X51101400Y-7773800D01*
X51101400Y-6843800D02*
X48941400Y-6843800D01*
X51101400Y-10003800D02*
X49641400Y-10003800D01*
D10*
X17150000Y-48400000D02*
X17150000Y-38400000D01*
X6850000Y-48400000D02*
X6850000Y-38400000D01*
X17150000Y-38400000D02*
X6850000Y-38400000D01*
X16150000Y-48400000D02*
X16150000Y-57900000D01*
X7850000Y-48400000D02*
X7850000Y-57900000D01*
X16150000Y-57900000D02*
X7850000Y-57900000D01*
X7850000Y-48400000D02*
X6850000Y-48400000D01*
X17150000Y-48400000D02*
X16150000Y-48400000D01*
D11*
X65545400Y-7087000D02*
X65545400Y-5087000D01*
X65545400Y-5087000D02*
X61645400Y-5087000D01*
X65545400Y-7087000D02*
X61645400Y-7087000D01*
X40064000Y-4134500D02*
X40064000Y-6134500D01*
X40064000Y-6134500D02*
X43964000Y-6134500D01*
X40064000Y-4134500D02*
X43964000Y-4134500D01*
D12*
X59917276Y-13776904D02*
X59917276Y-14424523D01*
X59955371Y-14500714D01*
X59993466Y-14538809D01*
X60069657Y-14576904D01*
X60222038Y-14576904D01*
X60298228Y-14538809D01*
X60336323Y-14500714D01*
X60374419Y-14424523D01*
X60374419Y-13776904D01*
X60679180Y-13776904D02*
X61212514Y-13776904D01*
X60869657Y-14576904D01*
X89444776Y-32191904D02*
X89444776Y-32839523D01*
X89482871Y-32915714D01*
X89520966Y-32953809D01*
X89597157Y-32991904D01*
X89749538Y-32991904D01*
X89825728Y-32953809D01*
X89863823Y-32915714D01*
X89901919Y-32839523D01*
X89901919Y-32191904D01*
X90625728Y-32458571D02*
X90625728Y-32991904D01*
X90435252Y-32153809D02*
X90244776Y-32725238D01*
X90740014Y-32725238D01*
X29684904Y-23384323D02*
X30332523Y-23384323D01*
X30408714Y-23346228D01*
X30446809Y-23308133D01*
X30484904Y-23231942D01*
X30484904Y-23079561D01*
X30446809Y-23003371D01*
X30408714Y-22965276D01*
X30332523Y-22927180D01*
X29684904Y-22927180D01*
X30484904Y-22127180D02*
X30484904Y-22584323D01*
X30484904Y-22355752D02*
X29684904Y-22355752D01*
X29799190Y-22431942D01*
X29875380Y-22508133D01*
X29913476Y-22584323D01*
D10*
X59968095Y-13254380D02*
X59968095Y-14063904D01*
X60015714Y-14159142D01*
X60063333Y-14206761D01*
X60158571Y-14254380D01*
X60349047Y-14254380D01*
X60444285Y-14206761D01*
X60491904Y-14159142D01*
X60539523Y-14063904D01*
X60539523Y-13254380D01*
X61491904Y-13254380D02*
X61015714Y-13254380D01*
X60968095Y-13730571D01*
X61015714Y-13682952D01*
X61110952Y-13635333D01*
X61349047Y-13635333D01*
X61444285Y-13682952D01*
X61491904Y-13730571D01*
X61539523Y-13825809D01*
X61539523Y-14063904D01*
X61491904Y-14159142D01*
X61444285Y-14206761D01*
X61349047Y-14254380D01*
X61110952Y-14254380D01*
X61015714Y-14206761D01*
X60968095Y-14159142D01*
D12*
X50309666Y-15592904D02*
X50043000Y-15211952D01*
X49852523Y-15592904D02*
X49852523Y-14792904D01*
X50157285Y-14792904D01*
X50233476Y-14831000D01*
X50271571Y-14869095D01*
X50309666Y-14945285D01*
X50309666Y-15059571D01*
X50271571Y-15135761D01*
X50233476Y-15173857D01*
X50157285Y-15211952D01*
X49852523Y-15211952D01*
X50576333Y-14792904D02*
X51071571Y-14792904D01*
X50804904Y-15097666D01*
X50919190Y-15097666D01*
X50995380Y-15135761D01*
X51033476Y-15173857D01*
X51071571Y-15250047D01*
X51071571Y-15440523D01*
X51033476Y-15516714D01*
X50995380Y-15554809D01*
X50919190Y-15592904D01*
X50690619Y-15592904D01*
X50614428Y-15554809D01*
X50576333Y-15516714D01*
X52405166Y-22961904D02*
X52138500Y-22580952D01*
X51948023Y-22961904D02*
X51948023Y-22161904D01*
X52252785Y-22161904D01*
X52328976Y-22200000D01*
X52367071Y-22238095D01*
X52405166Y-22314285D01*
X52405166Y-22428571D01*
X52367071Y-22504761D01*
X52328976Y-22542857D01*
X52252785Y-22580952D01*
X51948023Y-22580952D01*
X52709928Y-22238095D02*
X52748023Y-22200000D01*
X52824214Y-22161904D01*
X53014690Y-22161904D01*
X53090880Y-22200000D01*
X53128976Y-22238095D01*
X53167071Y-22314285D01*
X53167071Y-22390476D01*
X53128976Y-22504761D01*
X52671833Y-22961904D01*
X53167071Y-22961904D01*
X54119666Y-15529404D02*
X53853000Y-15148452D01*
X53662523Y-15529404D02*
X53662523Y-14729404D01*
X53967285Y-14729404D01*
X54043476Y-14767500D01*
X54081571Y-14805595D01*
X54119666Y-14881785D01*
X54119666Y-14996071D01*
X54081571Y-15072261D01*
X54043476Y-15110357D01*
X53967285Y-15148452D01*
X53662523Y-15148452D01*
X54881571Y-15529404D02*
X54424428Y-15529404D01*
X54653000Y-15529404D02*
X54653000Y-14729404D01*
X54576809Y-14843690D01*
X54500619Y-14919880D01*
X54424428Y-14957976D01*
X88993914Y-24863914D02*
X88955819Y-24902009D01*
X88841533Y-24940104D01*
X88765342Y-24940104D01*
X88651057Y-24902009D01*
X88574866Y-24825819D01*
X88536771Y-24749628D01*
X88498676Y-24597247D01*
X88498676Y-24482961D01*
X88536771Y-24330580D01*
X88574866Y-24254390D01*
X88651057Y-24178200D01*
X88765342Y-24140104D01*
X88841533Y-24140104D01*
X88955819Y-24178200D01*
X88993914Y-24216295D01*
X89717723Y-24140104D02*
X89336771Y-24140104D01*
X89298676Y-24521057D01*
X89336771Y-24482961D01*
X89412961Y-24444866D01*
X89603438Y-24444866D01*
X89679628Y-24482961D01*
X89717723Y-24521057D01*
X89755819Y-24597247D01*
X89755819Y-24787723D01*
X89717723Y-24863914D01*
X89679628Y-24902009D01*
X89603438Y-24940104D01*
X89412961Y-24940104D01*
X89336771Y-24902009D01*
X89298676Y-24863914D01*
X90517723Y-24940104D02*
X90060580Y-24940104D01*
X90289152Y-24940104D02*
X90289152Y-24140104D01*
X90212961Y-24254390D01*
X90136771Y-24330580D01*
X90060580Y-24368676D01*
X60850714Y-14246714D02*
X60812619Y-14284809D01*
X60698333Y-14322904D01*
X60622142Y-14322904D01*
X60507857Y-14284809D01*
X60431666Y-14208619D01*
X60393571Y-14132428D01*
X60355476Y-13980047D01*
X60355476Y-13865761D01*
X60393571Y-13713380D01*
X60431666Y-13637190D01*
X60507857Y-13561000D01*
X60622142Y-13522904D01*
X60698333Y-13522904D01*
X60812619Y-13561000D01*
X60850714Y-13599095D01*
X61536428Y-13789571D02*
X61536428Y-14322904D01*
X61345952Y-13484809D02*
X61155476Y-14056238D01*
X61650714Y-14056238D01*
X61993571Y-14322904D02*
X62145952Y-14322904D01*
X62222142Y-14284809D01*
X62260238Y-14246714D01*
X62336428Y-14132428D01*
X62374523Y-13980047D01*
X62374523Y-13675285D01*
X62336428Y-13599095D01*
X62298333Y-13561000D01*
X62222142Y-13522904D01*
X62069761Y-13522904D01*
X61993571Y-13561000D01*
X61955476Y-13599095D01*
X61917380Y-13675285D01*
X61917380Y-13865761D01*
X61955476Y-13941952D01*
X61993571Y-13980047D01*
X62069761Y-14018142D01*
X62222142Y-14018142D01*
X62298333Y-13980047D01*
X62336428Y-13941952D01*
X62374523Y-13865761D01*
D10*
X77171542Y-21116942D02*
X77123923Y-21164561D01*
X76981066Y-21212180D01*
X76885828Y-21212180D01*
X76742971Y-21164561D01*
X76647733Y-21069323D01*
X76600114Y-20974085D01*
X76552495Y-20783609D01*
X76552495Y-20640752D01*
X76600114Y-20450276D01*
X76647733Y-20355038D01*
X76742971Y-20259800D01*
X76885828Y-20212180D01*
X76981066Y-20212180D01*
X77123923Y-20259800D01*
X77171542Y-20307419D01*
X77504876Y-20212180D02*
X78123923Y-20212180D01*
X77790590Y-20593133D01*
X77933447Y-20593133D01*
X78028685Y-20640752D01*
X78076304Y-20688371D01*
X78123923Y-20783609D01*
X78123923Y-21021704D01*
X78076304Y-21116942D01*
X78028685Y-21164561D01*
X77933447Y-21212180D01*
X77647733Y-21212180D01*
X77552495Y-21164561D01*
X77504876Y-21116942D01*
X79076304Y-21212180D02*
X78504876Y-21212180D01*
X78790590Y-21212180D02*
X78790590Y-20212180D01*
X78695352Y-20355038D01*
X78600114Y-20450276D01*
X78504876Y-20497895D01*
X77613142Y-7815742D02*
X77565523Y-7863361D01*
X77422666Y-7910980D01*
X77327428Y-7910980D01*
X77184571Y-7863361D01*
X77089333Y-7768123D01*
X77041714Y-7672885D01*
X76994095Y-7482409D01*
X76994095Y-7339552D01*
X77041714Y-7149076D01*
X77089333Y-7053838D01*
X77184571Y-6958600D01*
X77327428Y-6910980D01*
X77422666Y-6910980D01*
X77565523Y-6958600D01*
X77613142Y-7006219D01*
X77994095Y-7006219D02*
X78041714Y-6958600D01*
X78136952Y-6910980D01*
X78375047Y-6910980D01*
X78470285Y-6958600D01*
X78517904Y-7006219D01*
X78565523Y-7101457D01*
X78565523Y-7196695D01*
X78517904Y-7339552D01*
X77946476Y-7910980D01*
X78565523Y-7910980D01*
X79470285Y-6910980D02*
X78994095Y-6910980D01*
X78946476Y-7387171D01*
X78994095Y-7339552D01*
X79089333Y-7291933D01*
X79327428Y-7291933D01*
X79422666Y-7339552D01*
X79470285Y-7387171D01*
X79517904Y-7482409D01*
X79517904Y-7720504D01*
X79470285Y-7815742D01*
X79422666Y-7863361D01*
X79327428Y-7910980D01*
X79089333Y-7910980D01*
X78994095Y-7863361D01*
X78946476Y-7815742D01*
X44982095Y-18192380D02*
X44982095Y-19001904D01*
X45029714Y-19097142D01*
X45077333Y-19144761D01*
X45172571Y-19192380D01*
X45363047Y-19192380D01*
X45458285Y-19144761D01*
X45505904Y-19097142D01*
X45553523Y-19001904D01*
X45553523Y-18192380D01*
X45982095Y-18287619D02*
X46029714Y-18240000D01*
X46124952Y-18192380D01*
X46363047Y-18192380D01*
X46458285Y-18240000D01*
X46505904Y-18287619D01*
X46553523Y-18382857D01*
X46553523Y-18478095D01*
X46505904Y-18620952D01*
X45934476Y-19192380D01*
X46553523Y-19192380D01*
D12*
X31945514Y-28851704D02*
X31678847Y-28470752D01*
X31488371Y-28851704D02*
X31488371Y-28051704D01*
X31793133Y-28051704D01*
X31869323Y-28089800D01*
X31907419Y-28127895D01*
X31945514Y-28204085D01*
X31945514Y-28318371D01*
X31907419Y-28394561D01*
X31869323Y-28432657D01*
X31793133Y-28470752D01*
X31488371Y-28470752D01*
X32631228Y-28318371D02*
X32631228Y-28851704D01*
X32440752Y-28013609D02*
X32250276Y-28585038D01*
X32745514Y-28585038D01*
X32974085Y-28051704D02*
X33469323Y-28051704D01*
X33202657Y-28356466D01*
X33316942Y-28356466D01*
X33393133Y-28394561D01*
X33431228Y-28432657D01*
X33469323Y-28508847D01*
X33469323Y-28699323D01*
X33431228Y-28775514D01*
X33393133Y-28813609D01*
X33316942Y-28851704D01*
X33088371Y-28851704D01*
X33012180Y-28813609D01*
X32974085Y-28775514D01*
X93032514Y-29308904D02*
X92765847Y-28927952D01*
X92575371Y-29308904D02*
X92575371Y-28508904D01*
X92880133Y-28508904D01*
X92956323Y-28547000D01*
X92994419Y-28585095D01*
X93032514Y-28661285D01*
X93032514Y-28775571D01*
X92994419Y-28851761D01*
X92956323Y-28889857D01*
X92880133Y-28927952D01*
X92575371Y-28927952D01*
X93718228Y-28775571D02*
X93718228Y-29308904D01*
X93527752Y-28470809D02*
X93337276Y-29042238D01*
X93832514Y-29042238D01*
X94099180Y-28585095D02*
X94137276Y-28547000D01*
X94213466Y-28508904D01*
X94403942Y-28508904D01*
X94480133Y-28547000D01*
X94518228Y-28585095D01*
X94556323Y-28661285D01*
X94556323Y-28737476D01*
X94518228Y-28851761D01*
X94061085Y-29308904D01*
X94556323Y-29308904D01*
X46969504Y-36166885D02*
X46588552Y-36433552D01*
X46969504Y-36624028D02*
X46169504Y-36624028D01*
X46169504Y-36319266D01*
X46207600Y-36243076D01*
X46245695Y-36204980D01*
X46321885Y-36166885D01*
X46436171Y-36166885D01*
X46512361Y-36204980D01*
X46550457Y-36243076D01*
X46588552Y-36319266D01*
X46588552Y-36624028D01*
X46436171Y-35481171D02*
X46969504Y-35481171D01*
X46131409Y-35671647D02*
X46702838Y-35862123D01*
X46702838Y-35366885D01*
X46969504Y-34643076D02*
X46969504Y-35100219D01*
X46969504Y-34871647D02*
X46169504Y-34871647D01*
X46283790Y-34947838D01*
X46359980Y-35024028D01*
X46398076Y-35100219D01*
X73753914Y-2689704D02*
X73487247Y-2308752D01*
X73296771Y-2689704D02*
X73296771Y-1889704D01*
X73601533Y-1889704D01*
X73677723Y-1927800D01*
X73715819Y-1965895D01*
X73753914Y-2042085D01*
X73753914Y-2156371D01*
X73715819Y-2232561D01*
X73677723Y-2270657D01*
X73601533Y-2308752D01*
X73296771Y-2308752D01*
X74439628Y-2156371D02*
X74439628Y-2689704D01*
X74249152Y-1851609D02*
X74058676Y-2423038D01*
X74553914Y-2423038D01*
X75011057Y-1889704D02*
X75087247Y-1889704D01*
X75163438Y-1927800D01*
X75201533Y-1965895D01*
X75239628Y-2042085D01*
X75277723Y-2194466D01*
X75277723Y-2384942D01*
X75239628Y-2537323D01*
X75201533Y-2613514D01*
X75163438Y-2651609D01*
X75087247Y-2689704D01*
X75011057Y-2689704D01*
X74934866Y-2651609D01*
X74896771Y-2613514D01*
X74858676Y-2537323D01*
X74820580Y-2384942D01*
X74820580Y-2194466D01*
X74858676Y-2042085D01*
X74896771Y-1965895D01*
X74934866Y-1927800D01*
X75011057Y-1889704D01*
X66413314Y-2054704D02*
X66146647Y-1673752D01*
X65956171Y-2054704D02*
X65956171Y-1254704D01*
X66260933Y-1254704D01*
X66337123Y-1292800D01*
X66375219Y-1330895D01*
X66413314Y-1407085D01*
X66413314Y-1521371D01*
X66375219Y-1597561D01*
X66337123Y-1635657D01*
X66260933Y-1673752D01*
X65956171Y-1673752D01*
X66679980Y-1254704D02*
X67175219Y-1254704D01*
X66908552Y-1559466D01*
X67022838Y-1559466D01*
X67099028Y-1597561D01*
X67137123Y-1635657D01*
X67175219Y-1711847D01*
X67175219Y-1902323D01*
X67137123Y-1978514D01*
X67099028Y-2016609D01*
X67022838Y-2054704D01*
X66794266Y-2054704D01*
X66718076Y-2016609D01*
X66679980Y-1978514D01*
X67632361Y-1597561D02*
X67556171Y-1559466D01*
X67518076Y-1521371D01*
X67479980Y-1445180D01*
X67479980Y-1407085D01*
X67518076Y-1330895D01*
X67556171Y-1292800D01*
X67632361Y-1254704D01*
X67784742Y-1254704D01*
X67860933Y-1292800D01*
X67899028Y-1330895D01*
X67937123Y-1407085D01*
X67937123Y-1445180D01*
X67899028Y-1521371D01*
X67860933Y-1559466D01*
X67784742Y-1597561D01*
X67632361Y-1597561D01*
X67556171Y-1635657D01*
X67518076Y-1673752D01*
X67479980Y-1749942D01*
X67479980Y-1902323D01*
X67518076Y-1978514D01*
X67556171Y-2016609D01*
X67632361Y-2054704D01*
X67784742Y-2054704D01*
X67860933Y-2016609D01*
X67899028Y-1978514D01*
X67937123Y-1902323D01*
X67937123Y-1749942D01*
X67899028Y-1673752D01*
X67860933Y-1635657D01*
X67784742Y-1597561D01*
X31386714Y-23644704D02*
X31120047Y-23263752D01*
X30929571Y-23644704D02*
X30929571Y-22844704D01*
X31234333Y-22844704D01*
X31310523Y-22882800D01*
X31348619Y-22920895D01*
X31386714Y-22997085D01*
X31386714Y-23111371D01*
X31348619Y-23187561D01*
X31310523Y-23225657D01*
X31234333Y-23263752D01*
X30929571Y-23263752D01*
X31653380Y-22844704D02*
X32148619Y-22844704D01*
X31881952Y-23149466D01*
X31996238Y-23149466D01*
X32072428Y-23187561D01*
X32110523Y-23225657D01*
X32148619Y-23301847D01*
X32148619Y-23492323D01*
X32110523Y-23568514D01*
X32072428Y-23606609D01*
X31996238Y-23644704D01*
X31767666Y-23644704D01*
X31691476Y-23606609D01*
X31653380Y-23568514D01*
X32415285Y-22844704D02*
X32948619Y-22844704D01*
X32605761Y-23644704D01*
X59834714Y-1343504D02*
X59568047Y-962552D01*
X59377571Y-1343504D02*
X59377571Y-543504D01*
X59682333Y-543504D01*
X59758523Y-581600D01*
X59796619Y-619695D01*
X59834714Y-695885D01*
X59834714Y-810171D01*
X59796619Y-886361D01*
X59758523Y-924457D01*
X59682333Y-962552D01*
X59377571Y-962552D01*
X60101380Y-543504D02*
X60596619Y-543504D01*
X60329952Y-848266D01*
X60444238Y-848266D01*
X60520428Y-886361D01*
X60558523Y-924457D01*
X60596619Y-1000647D01*
X60596619Y-1191123D01*
X60558523Y-1267314D01*
X60520428Y-1305409D01*
X60444238Y-1343504D01*
X60215666Y-1343504D01*
X60139476Y-1305409D01*
X60101380Y-1267314D01*
X61282333Y-543504D02*
X61129952Y-543504D01*
X61053761Y-581600D01*
X61015666Y-619695D01*
X60939476Y-733980D01*
X60901380Y-886361D01*
X60901380Y-1191123D01*
X60939476Y-1267314D01*
X60977571Y-1305409D01*
X61053761Y-1343504D01*
X61206142Y-1343504D01*
X61282333Y-1305409D01*
X61320428Y-1267314D01*
X61358523Y-1191123D01*
X61358523Y-1000647D01*
X61320428Y-924457D01*
X61282333Y-886361D01*
X61206142Y-848266D01*
X61053761Y-848266D01*
X60977571Y-886361D01*
X60939476Y-924457D01*
X60901380Y-1000647D01*
X39133714Y-15237304D02*
X38867047Y-14856352D01*
X38676571Y-15237304D02*
X38676571Y-14437304D01*
X38981333Y-14437304D01*
X39057523Y-14475400D01*
X39095619Y-14513495D01*
X39133714Y-14589685D01*
X39133714Y-14703971D01*
X39095619Y-14780161D01*
X39057523Y-14818257D01*
X38981333Y-14856352D01*
X38676571Y-14856352D01*
X39895619Y-15237304D02*
X39438476Y-15237304D01*
X39667047Y-15237304D02*
X39667047Y-14437304D01*
X39590857Y-14551590D01*
X39514666Y-14627780D01*
X39438476Y-14665876D01*
X40619428Y-14437304D02*
X40238476Y-14437304D01*
X40200380Y-14818257D01*
X40238476Y-14780161D01*
X40314666Y-14742066D01*
X40505142Y-14742066D01*
X40581333Y-14780161D01*
X40619428Y-14818257D01*
X40657523Y-14894447D01*
X40657523Y-15084923D01*
X40619428Y-15161114D01*
X40581333Y-15199209D01*
X40505142Y-15237304D01*
X40314666Y-15237304D01*
X40238476Y-15199209D01*
X40200380Y-15161114D01*
X27195714Y-12925904D02*
X26929047Y-12544952D01*
X26738571Y-12925904D02*
X26738571Y-12125904D01*
X27043333Y-12125904D01*
X27119523Y-12164000D01*
X27157619Y-12202095D01*
X27195714Y-12278285D01*
X27195714Y-12392571D01*
X27157619Y-12468761D01*
X27119523Y-12506857D01*
X27043333Y-12544952D01*
X26738571Y-12544952D01*
X27957619Y-12925904D02*
X27500476Y-12925904D01*
X27729047Y-12925904D02*
X27729047Y-12125904D01*
X27652857Y-12240190D01*
X27576666Y-12316380D01*
X27500476Y-12354476D01*
X28224285Y-12125904D02*
X28719523Y-12125904D01*
X28452857Y-12430666D01*
X28567142Y-12430666D01*
X28643333Y-12468761D01*
X28681428Y-12506857D01*
X28719523Y-12583047D01*
X28719523Y-12773523D01*
X28681428Y-12849714D01*
X28643333Y-12887809D01*
X28567142Y-12925904D01*
X28338571Y-12925904D01*
X28262380Y-12887809D01*
X28224285Y-12849714D01*
X53814914Y-3908904D02*
X53548247Y-3527952D01*
X53357771Y-3908904D02*
X53357771Y-3108904D01*
X53662533Y-3108904D01*
X53738723Y-3147000D01*
X53776819Y-3185095D01*
X53814914Y-3261285D01*
X53814914Y-3375571D01*
X53776819Y-3451761D01*
X53738723Y-3489857D01*
X53662533Y-3527952D01*
X53357771Y-3527952D01*
X54576819Y-3908904D02*
X54119676Y-3908904D01*
X54348247Y-3908904D02*
X54348247Y-3108904D01*
X54272057Y-3223190D01*
X54195866Y-3299380D01*
X54119676Y-3337476D01*
X54881580Y-3185095D02*
X54919676Y-3147000D01*
X54995866Y-3108904D01*
X55186342Y-3108904D01*
X55262533Y-3147000D01*
X55300628Y-3185095D01*
X55338723Y-3261285D01*
X55338723Y-3337476D01*
X55300628Y-3451761D01*
X54843485Y-3908904D01*
X55338723Y-3908904D01*
X45356714Y-11986104D02*
X45090047Y-11605152D01*
X44899571Y-11986104D02*
X44899571Y-11186104D01*
X45204333Y-11186104D01*
X45280523Y-11224200D01*
X45318619Y-11262295D01*
X45356714Y-11338485D01*
X45356714Y-11452771D01*
X45318619Y-11528961D01*
X45280523Y-11567057D01*
X45204333Y-11605152D01*
X44899571Y-11605152D01*
X46118619Y-11986104D02*
X45661476Y-11986104D01*
X45890047Y-11986104D02*
X45890047Y-11186104D01*
X45813857Y-11300390D01*
X45737666Y-11376580D01*
X45661476Y-11414676D01*
X46880523Y-11986104D02*
X46423380Y-11986104D01*
X46651952Y-11986104D02*
X46651952Y-11186104D01*
X46575761Y-11300390D01*
X46499571Y-11376580D01*
X46423380Y-11414676D01*
X46093314Y-3858104D02*
X45826647Y-3477152D01*
X45636171Y-3858104D02*
X45636171Y-3058104D01*
X45940933Y-3058104D01*
X46017123Y-3096200D01*
X46055219Y-3134295D01*
X46093314Y-3210485D01*
X46093314Y-3324771D01*
X46055219Y-3400961D01*
X46017123Y-3439057D01*
X45940933Y-3477152D01*
X45636171Y-3477152D01*
X46855219Y-3858104D02*
X46398076Y-3858104D01*
X46626647Y-3858104D02*
X46626647Y-3058104D01*
X46550457Y-3172390D01*
X46474266Y-3248580D01*
X46398076Y-3286676D01*
X47350457Y-3058104D02*
X47426647Y-3058104D01*
X47502838Y-3096200D01*
X47540933Y-3134295D01*
X47579028Y-3210485D01*
X47617123Y-3362866D01*
X47617123Y-3553342D01*
X47579028Y-3705723D01*
X47540933Y-3781914D01*
X47502838Y-3820009D01*
X47426647Y-3858104D01*
X47350457Y-3858104D01*
X47274266Y-3820009D01*
X47236171Y-3781914D01*
X47198076Y-3705723D01*
X47159980Y-3553342D01*
X47159980Y-3362866D01*
X47198076Y-3210485D01*
X47236171Y-3134295D01*
X47274266Y-3096200D01*
X47350457Y-3058104D01*
X50182666Y-3832704D02*
X49916000Y-3451752D01*
X49725523Y-3832704D02*
X49725523Y-3032704D01*
X50030285Y-3032704D01*
X50106476Y-3070800D01*
X50144571Y-3108895D01*
X50182666Y-3185085D01*
X50182666Y-3299371D01*
X50144571Y-3375561D01*
X50106476Y-3413657D01*
X50030285Y-3451752D01*
X49725523Y-3451752D01*
X50563619Y-3832704D02*
X50716000Y-3832704D01*
X50792190Y-3794609D01*
X50830285Y-3756514D01*
X50906476Y-3642228D01*
X50944571Y-3489847D01*
X50944571Y-3185085D01*
X50906476Y-3108895D01*
X50868380Y-3070800D01*
X50792190Y-3032704D01*
X50639809Y-3032704D01*
X50563619Y-3070800D01*
X50525523Y-3108895D01*
X50487428Y-3185085D01*
X50487428Y-3375561D01*
X50525523Y-3451752D01*
X50563619Y-3489847D01*
X50639809Y-3527942D01*
X50792190Y-3527942D01*
X50868380Y-3489847D01*
X50906476Y-3451752D01*
X50944571Y-3375561D01*
X15664066Y-19098104D02*
X15397400Y-18717152D01*
X15206923Y-19098104D02*
X15206923Y-18298104D01*
X15511685Y-18298104D01*
X15587876Y-18336200D01*
X15625971Y-18374295D01*
X15664066Y-18450485D01*
X15664066Y-18564771D01*
X15625971Y-18640961D01*
X15587876Y-18679057D01*
X15511685Y-18717152D01*
X15206923Y-18717152D01*
X16121209Y-18640961D02*
X16045019Y-18602866D01*
X16006923Y-18564771D01*
X15968828Y-18488580D01*
X15968828Y-18450485D01*
X16006923Y-18374295D01*
X16045019Y-18336200D01*
X16121209Y-18298104D01*
X16273590Y-18298104D01*
X16349780Y-18336200D01*
X16387876Y-18374295D01*
X16425971Y-18450485D01*
X16425971Y-18488580D01*
X16387876Y-18564771D01*
X16349780Y-18602866D01*
X16273590Y-18640961D01*
X16121209Y-18640961D01*
X16045019Y-18679057D01*
X16006923Y-18717152D01*
X15968828Y-18793342D01*
X15968828Y-18945723D01*
X16006923Y-19021914D01*
X16045019Y-19060009D01*
X16121209Y-19098104D01*
X16273590Y-19098104D01*
X16349780Y-19060009D01*
X16387876Y-19021914D01*
X16425971Y-18945723D01*
X16425971Y-18793342D01*
X16387876Y-18717152D01*
X16349780Y-18679057D01*
X16273590Y-18640961D01*
X62412714Y-40332485D02*
X62450809Y-40370580D01*
X62488904Y-40484866D01*
X62488904Y-40561057D01*
X62450809Y-40675342D01*
X62374619Y-40751533D01*
X62298428Y-40789628D01*
X62146047Y-40827723D01*
X62031761Y-40827723D01*
X61879380Y-40789628D01*
X61803190Y-40751533D01*
X61727000Y-40675342D01*
X61688904Y-40561057D01*
X61688904Y-40484866D01*
X61727000Y-40370580D01*
X61765095Y-40332485D01*
X61955571Y-39646771D02*
X62488904Y-39646771D01*
X61650809Y-39837247D02*
X62222238Y-40027723D01*
X62222238Y-39532485D01*
X61688904Y-39303914D02*
X61688904Y-38770580D01*
X62488904Y-39113438D01*
X71759914Y-40586485D02*
X71798009Y-40624580D01*
X71836104Y-40738866D01*
X71836104Y-40815057D01*
X71798009Y-40929342D01*
X71721819Y-41005533D01*
X71645628Y-41043628D01*
X71493247Y-41081723D01*
X71378961Y-41081723D01*
X71226580Y-41043628D01*
X71150390Y-41005533D01*
X71074200Y-40929342D01*
X71036104Y-40815057D01*
X71036104Y-40738866D01*
X71074200Y-40624580D01*
X71112295Y-40586485D01*
X71302771Y-39900771D02*
X71836104Y-39900771D01*
X70998009Y-40091247D02*
X71569438Y-40281723D01*
X71569438Y-39786485D01*
X71036104Y-39138866D02*
X71036104Y-39291247D01*
X71074200Y-39367438D01*
X71112295Y-39405533D01*
X71226580Y-39481723D01*
X71378961Y-39519819D01*
X71683723Y-39519819D01*
X71759914Y-39481723D01*
X71798009Y-39443628D01*
X71836104Y-39367438D01*
X71836104Y-39215057D01*
X71798009Y-39138866D01*
X71759914Y-39100771D01*
X71683723Y-39062676D01*
X71493247Y-39062676D01*
X71417057Y-39100771D01*
X71378961Y-39138866D01*
X71340866Y-39215057D01*
X71340866Y-39367438D01*
X71378961Y-39443628D01*
X71417057Y-39481723D01*
X71493247Y-39519819D01*
X75658914Y-41754914D02*
X75620819Y-41793009D01*
X75506533Y-41831104D01*
X75430342Y-41831104D01*
X75316057Y-41793009D01*
X75239866Y-41716819D01*
X75201771Y-41640628D01*
X75163676Y-41488247D01*
X75163676Y-41373961D01*
X75201771Y-41221580D01*
X75239866Y-41145390D01*
X75316057Y-41069200D01*
X75430342Y-41031104D01*
X75506533Y-41031104D01*
X75620819Y-41069200D01*
X75658914Y-41107295D01*
X76344628Y-41297771D02*
X76344628Y-41831104D01*
X76154152Y-40993009D02*
X75963676Y-41564438D01*
X76458914Y-41564438D01*
X77106533Y-41297771D02*
X77106533Y-41831104D01*
X76916057Y-40993009D02*
X76725580Y-41564438D01*
X77220819Y-41564438D01*
X82389914Y-41932714D02*
X82351819Y-41970809D01*
X82237533Y-42008904D01*
X82161342Y-42008904D01*
X82047057Y-41970809D01*
X81970866Y-41894619D01*
X81932771Y-41818428D01*
X81894676Y-41666047D01*
X81894676Y-41551761D01*
X81932771Y-41399380D01*
X81970866Y-41323190D01*
X82047057Y-41247000D01*
X82161342Y-41208904D01*
X82237533Y-41208904D01*
X82351819Y-41247000D01*
X82389914Y-41285095D01*
X83075628Y-41475571D02*
X83075628Y-42008904D01*
X82885152Y-41170809D02*
X82694676Y-41742238D01*
X83189914Y-41742238D01*
X83647057Y-41208904D02*
X83723247Y-41208904D01*
X83799438Y-41247000D01*
X83837533Y-41285095D01*
X83875628Y-41361285D01*
X83913723Y-41513666D01*
X83913723Y-41704142D01*
X83875628Y-41856523D01*
X83837533Y-41932714D01*
X83799438Y-41970809D01*
X83723247Y-42008904D01*
X83647057Y-42008904D01*
X83570866Y-41970809D01*
X83532771Y-41932714D01*
X83494676Y-41856523D01*
X83456580Y-41704142D01*
X83456580Y-41513666D01*
X83494676Y-41361285D01*
X83532771Y-41285095D01*
X83570866Y-41247000D01*
X83647057Y-41208904D01*
X86022114Y-42618514D02*
X85984019Y-42656609D01*
X85869733Y-42694704D01*
X85793542Y-42694704D01*
X85679257Y-42656609D01*
X85603066Y-42580419D01*
X85564971Y-42504228D01*
X85526876Y-42351847D01*
X85526876Y-42237561D01*
X85564971Y-42085180D01*
X85603066Y-42008990D01*
X85679257Y-41932800D01*
X85793542Y-41894704D01*
X85869733Y-41894704D01*
X85984019Y-41932800D01*
X86022114Y-41970895D01*
X86288780Y-41894704D02*
X86784019Y-41894704D01*
X86517352Y-42199466D01*
X86631638Y-42199466D01*
X86707828Y-42237561D01*
X86745923Y-42275657D01*
X86784019Y-42351847D01*
X86784019Y-42542323D01*
X86745923Y-42618514D01*
X86707828Y-42656609D01*
X86631638Y-42694704D01*
X86403066Y-42694704D01*
X86326876Y-42656609D01*
X86288780Y-42618514D01*
X87164971Y-42694704D02*
X87317352Y-42694704D01*
X87393542Y-42656609D01*
X87431638Y-42618514D01*
X87507828Y-42504228D01*
X87545923Y-42351847D01*
X87545923Y-42047085D01*
X87507828Y-41970895D01*
X87469733Y-41932800D01*
X87393542Y-41894704D01*
X87241161Y-41894704D01*
X87164971Y-41932800D01*
X87126876Y-41970895D01*
X87088780Y-42047085D01*
X87088780Y-42237561D01*
X87126876Y-42313752D01*
X87164971Y-42351847D01*
X87241161Y-42389942D01*
X87393542Y-42389942D01*
X87469733Y-42351847D01*
X87507828Y-42313752D01*
X87545923Y-42237561D01*
X91356114Y-43913914D02*
X91318019Y-43952009D01*
X91203733Y-43990104D01*
X91127542Y-43990104D01*
X91013257Y-43952009D01*
X90937066Y-43875819D01*
X90898971Y-43799628D01*
X90860876Y-43647247D01*
X90860876Y-43532961D01*
X90898971Y-43380580D01*
X90937066Y-43304390D01*
X91013257Y-43228200D01*
X91127542Y-43190104D01*
X91203733Y-43190104D01*
X91318019Y-43228200D01*
X91356114Y-43266295D01*
X91622780Y-43190104D02*
X92118019Y-43190104D01*
X91851352Y-43494866D01*
X91965638Y-43494866D01*
X92041828Y-43532961D01*
X92079923Y-43571057D01*
X92118019Y-43647247D01*
X92118019Y-43837723D01*
X92079923Y-43913914D01*
X92041828Y-43952009D01*
X91965638Y-43990104D01*
X91737066Y-43990104D01*
X91660876Y-43952009D01*
X91622780Y-43913914D01*
X92384685Y-43190104D02*
X92918019Y-43190104D01*
X92575161Y-43990104D01*
X31869314Y-34033314D02*
X31831219Y-34071409D01*
X31716933Y-34109504D01*
X31640742Y-34109504D01*
X31526457Y-34071409D01*
X31450266Y-33995219D01*
X31412171Y-33919028D01*
X31374076Y-33766647D01*
X31374076Y-33652361D01*
X31412171Y-33499980D01*
X31450266Y-33423790D01*
X31526457Y-33347600D01*
X31640742Y-33309504D01*
X31716933Y-33309504D01*
X31831219Y-33347600D01*
X31869314Y-33385695D01*
X32135980Y-33309504D02*
X32631219Y-33309504D01*
X32364552Y-33614266D01*
X32478838Y-33614266D01*
X32555028Y-33652361D01*
X32593123Y-33690457D01*
X32631219Y-33766647D01*
X32631219Y-33957123D01*
X32593123Y-34033314D01*
X32555028Y-34071409D01*
X32478838Y-34109504D01*
X32250266Y-34109504D01*
X32174076Y-34071409D01*
X32135980Y-34033314D01*
X33316933Y-33309504D02*
X33164552Y-33309504D01*
X33088361Y-33347600D01*
X33050266Y-33385695D01*
X32974076Y-33499980D01*
X32935980Y-33652361D01*
X32935980Y-33957123D01*
X32974076Y-34033314D01*
X33012171Y-34071409D01*
X33088361Y-34109504D01*
X33240742Y-34109504D01*
X33316933Y-34071409D01*
X33355028Y-34033314D01*
X33393123Y-33957123D01*
X33393123Y-33766647D01*
X33355028Y-33690457D01*
X33316933Y-33652361D01*
X33240742Y-33614266D01*
X33088361Y-33614266D01*
X33012171Y-33652361D01*
X32974076Y-33690457D01*
X32935980Y-33766647D01*
X86022114Y-27759514D02*
X85984019Y-27797609D01*
X85869733Y-27835704D01*
X85793542Y-27835704D01*
X85679257Y-27797609D01*
X85603066Y-27721419D01*
X85564971Y-27645228D01*
X85526876Y-27492847D01*
X85526876Y-27378561D01*
X85564971Y-27226180D01*
X85603066Y-27149990D01*
X85679257Y-27073800D01*
X85793542Y-27035704D01*
X85869733Y-27035704D01*
X85984019Y-27073800D01*
X86022114Y-27111895D01*
X86288780Y-27035704D02*
X86784019Y-27035704D01*
X86517352Y-27340466D01*
X86631638Y-27340466D01*
X86707828Y-27378561D01*
X86745923Y-27416657D01*
X86784019Y-27492847D01*
X86784019Y-27683323D01*
X86745923Y-27759514D01*
X86707828Y-27797609D01*
X86631638Y-27835704D01*
X86403066Y-27835704D01*
X86326876Y-27797609D01*
X86288780Y-27759514D01*
X87507828Y-27035704D02*
X87126876Y-27035704D01*
X87088780Y-27416657D01*
X87126876Y-27378561D01*
X87203066Y-27340466D01*
X87393542Y-27340466D01*
X87469733Y-27378561D01*
X87507828Y-27416657D01*
X87545923Y-27492847D01*
X87545923Y-27683323D01*
X87507828Y-27759514D01*
X87469733Y-27797609D01*
X87393542Y-27835704D01*
X87203066Y-27835704D01*
X87126876Y-27797609D01*
X87088780Y-27759514D01*
X43858114Y-32331514D02*
X43820019Y-32369609D01*
X43705733Y-32407704D01*
X43629542Y-32407704D01*
X43515257Y-32369609D01*
X43439066Y-32293419D01*
X43400971Y-32217228D01*
X43362876Y-32064847D01*
X43362876Y-31950561D01*
X43400971Y-31798180D01*
X43439066Y-31721990D01*
X43515257Y-31645800D01*
X43629542Y-31607704D01*
X43705733Y-31607704D01*
X43820019Y-31645800D01*
X43858114Y-31683895D01*
X44124780Y-31607704D02*
X44620019Y-31607704D01*
X44353352Y-31912466D01*
X44467638Y-31912466D01*
X44543828Y-31950561D01*
X44581923Y-31988657D01*
X44620019Y-32064847D01*
X44620019Y-32255323D01*
X44581923Y-32331514D01*
X44543828Y-32369609D01*
X44467638Y-32407704D01*
X44239066Y-32407704D01*
X44162876Y-32369609D01*
X44124780Y-32331514D01*
X45305733Y-31874371D02*
X45305733Y-32407704D01*
X45115257Y-31569609D02*
X44924780Y-32141038D01*
X45420019Y-32141038D01*
X92956314Y-31671114D02*
X92918219Y-31709209D01*
X92803933Y-31747304D01*
X92727742Y-31747304D01*
X92613457Y-31709209D01*
X92537266Y-31633019D01*
X92499171Y-31556828D01*
X92461076Y-31404447D01*
X92461076Y-31290161D01*
X92499171Y-31137780D01*
X92537266Y-31061590D01*
X92613457Y-30985400D01*
X92727742Y-30947304D01*
X92803933Y-30947304D01*
X92918219Y-30985400D01*
X92956314Y-31023495D01*
X93222980Y-30947304D02*
X93718219Y-30947304D01*
X93451552Y-31252066D01*
X93565838Y-31252066D01*
X93642028Y-31290161D01*
X93680123Y-31328257D01*
X93718219Y-31404447D01*
X93718219Y-31594923D01*
X93680123Y-31671114D01*
X93642028Y-31709209D01*
X93565838Y-31747304D01*
X93337266Y-31747304D01*
X93261076Y-31709209D01*
X93222980Y-31671114D01*
X93984885Y-30947304D02*
X94480123Y-30947304D01*
X94213457Y-31252066D01*
X94327742Y-31252066D01*
X94403933Y-31290161D01*
X94442028Y-31328257D01*
X94480123Y-31404447D01*
X94480123Y-31594923D01*
X94442028Y-31671114D01*
X94403933Y-31709209D01*
X94327742Y-31747304D01*
X94099171Y-31747304D01*
X94022980Y-31709209D01*
X93984885Y-31671114D01*
X46994914Y-41983485D02*
X47033009Y-42021580D01*
X47071104Y-42135866D01*
X47071104Y-42212057D01*
X47033009Y-42326342D01*
X46956819Y-42402533D01*
X46880628Y-42440628D01*
X46728247Y-42478723D01*
X46613961Y-42478723D01*
X46461580Y-42440628D01*
X46385390Y-42402533D01*
X46309200Y-42326342D01*
X46271104Y-42212057D01*
X46271104Y-42135866D01*
X46309200Y-42021580D01*
X46347295Y-41983485D01*
X46271104Y-41716819D02*
X46271104Y-41221580D01*
X46575866Y-41488247D01*
X46575866Y-41373961D01*
X46613961Y-41297771D01*
X46652057Y-41259676D01*
X46728247Y-41221580D01*
X46918723Y-41221580D01*
X46994914Y-41259676D01*
X47033009Y-41297771D01*
X47071104Y-41373961D01*
X47071104Y-41602533D01*
X47033009Y-41678723D01*
X46994914Y-41716819D01*
X46347295Y-40916819D02*
X46309200Y-40878723D01*
X46271104Y-40802533D01*
X46271104Y-40612057D01*
X46309200Y-40535866D01*
X46347295Y-40497771D01*
X46423485Y-40459676D01*
X46499676Y-40459676D01*
X46613961Y-40497771D01*
X47071104Y-40954914D01*
X47071104Y-40459676D01*
X75950914Y-6804485D02*
X75989009Y-6842580D01*
X76027104Y-6956866D01*
X76027104Y-7033057D01*
X75989009Y-7147342D01*
X75912819Y-7223533D01*
X75836628Y-7261628D01*
X75684247Y-7299723D01*
X75569961Y-7299723D01*
X75417580Y-7261628D01*
X75341390Y-7223533D01*
X75265200Y-7147342D01*
X75227104Y-7033057D01*
X75227104Y-6956866D01*
X75265200Y-6842580D01*
X75303295Y-6804485D01*
X75303295Y-6499723D02*
X75265200Y-6461628D01*
X75227104Y-6385438D01*
X75227104Y-6194961D01*
X75265200Y-6118771D01*
X75303295Y-6080676D01*
X75379485Y-6042580D01*
X75455676Y-6042580D01*
X75569961Y-6080676D01*
X76027104Y-6537819D01*
X76027104Y-6042580D01*
X75303295Y-5737819D02*
X75265200Y-5699723D01*
X75227104Y-5623533D01*
X75227104Y-5433057D01*
X75265200Y-5356866D01*
X75303295Y-5318771D01*
X75379485Y-5280676D01*
X75455676Y-5280676D01*
X75569961Y-5318771D01*
X76027104Y-5775914D01*
X76027104Y-5280676D01*
X66362514Y-4137514D02*
X66324419Y-4175609D01*
X66210133Y-4213704D01*
X66133942Y-4213704D01*
X66019657Y-4175609D01*
X65943466Y-4099419D01*
X65905371Y-4023228D01*
X65867276Y-3870847D01*
X65867276Y-3756561D01*
X65905371Y-3604180D01*
X65943466Y-3527990D01*
X66019657Y-3451800D01*
X66133942Y-3413704D01*
X66210133Y-3413704D01*
X66324419Y-3451800D01*
X66362514Y-3489895D01*
X66667276Y-3489895D02*
X66705371Y-3451800D01*
X66781561Y-3413704D01*
X66972038Y-3413704D01*
X67048228Y-3451800D01*
X67086323Y-3489895D01*
X67124419Y-3566085D01*
X67124419Y-3642276D01*
X67086323Y-3756561D01*
X66629180Y-4213704D01*
X67124419Y-4213704D01*
X67619657Y-3413704D02*
X67695847Y-3413704D01*
X67772038Y-3451800D01*
X67810133Y-3489895D01*
X67848228Y-3566085D01*
X67886323Y-3718466D01*
X67886323Y-3908942D01*
X67848228Y-4061323D01*
X67810133Y-4137514D01*
X67772038Y-4175609D01*
X67695847Y-4213704D01*
X67619657Y-4213704D01*
X67543466Y-4175609D01*
X67505371Y-4137514D01*
X67467276Y-4061323D01*
X67429180Y-3908942D01*
X67429180Y-3718466D01*
X67467276Y-3566085D01*
X67505371Y-3489895D01*
X67543466Y-3451800D01*
X67619657Y-3413704D01*
X66743514Y-19606114D02*
X66705419Y-19644209D01*
X66591133Y-19682304D01*
X66514942Y-19682304D01*
X66400657Y-19644209D01*
X66324466Y-19568019D01*
X66286371Y-19491828D01*
X66248276Y-19339447D01*
X66248276Y-19225161D01*
X66286371Y-19072780D01*
X66324466Y-18996590D01*
X66400657Y-18920400D01*
X66514942Y-18882304D01*
X66591133Y-18882304D01*
X66705419Y-18920400D01*
X66743514Y-18958495D01*
X67505419Y-19682304D02*
X67048276Y-19682304D01*
X67276847Y-19682304D02*
X67276847Y-18882304D01*
X67200657Y-18996590D01*
X67124466Y-19072780D01*
X67048276Y-19110876D01*
X67886371Y-19682304D02*
X68038752Y-19682304D01*
X68114942Y-19644209D01*
X68153038Y-19606114D01*
X68229228Y-19491828D01*
X68267323Y-19339447D01*
X68267323Y-19034685D01*
X68229228Y-18958495D01*
X68191133Y-18920400D01*
X68114942Y-18882304D01*
X67962561Y-18882304D01*
X67886371Y-18920400D01*
X67848276Y-18958495D01*
X67810180Y-19034685D01*
X67810180Y-19225161D01*
X67848276Y-19301352D01*
X67886371Y-19339447D01*
X67962561Y-19377542D01*
X68114942Y-19377542D01*
X68191133Y-19339447D01*
X68229228Y-19301352D01*
X68267323Y-19225161D01*
X38143114Y-27911914D02*
X38105019Y-27950009D01*
X37990733Y-27988104D01*
X37914542Y-27988104D01*
X37800257Y-27950009D01*
X37724066Y-27873819D01*
X37685971Y-27797628D01*
X37647876Y-27645247D01*
X37647876Y-27530961D01*
X37685971Y-27378580D01*
X37724066Y-27302390D01*
X37800257Y-27226200D01*
X37914542Y-27188104D01*
X37990733Y-27188104D01*
X38105019Y-27226200D01*
X38143114Y-27264295D01*
X38905019Y-27988104D02*
X38447876Y-27988104D01*
X38676447Y-27988104D02*
X38676447Y-27188104D01*
X38600257Y-27302390D01*
X38524066Y-27378580D01*
X38447876Y-27416676D01*
X39362161Y-27530961D02*
X39285971Y-27492866D01*
X39247876Y-27454771D01*
X39209780Y-27378580D01*
X39209780Y-27340485D01*
X39247876Y-27264295D01*
X39285971Y-27226200D01*
X39362161Y-27188104D01*
X39514542Y-27188104D01*
X39590733Y-27226200D01*
X39628828Y-27264295D01*
X39666923Y-27340485D01*
X39666923Y-27378580D01*
X39628828Y-27454771D01*
X39590733Y-27492866D01*
X39514542Y-27530961D01*
X39362161Y-27530961D01*
X39285971Y-27569057D01*
X39247876Y-27607152D01*
X39209780Y-27683342D01*
X39209780Y-27835723D01*
X39247876Y-27911914D01*
X39285971Y-27950009D01*
X39362161Y-27988104D01*
X39514542Y-27988104D01*
X39590733Y-27950009D01*
X39628828Y-27911914D01*
X39666923Y-27835723D01*
X39666923Y-27683342D01*
X39628828Y-27607152D01*
X39590733Y-27569057D01*
X39514542Y-27530961D01*
X75633514Y-9852514D02*
X75595419Y-9890609D01*
X75481133Y-9928704D01*
X75404942Y-9928704D01*
X75290657Y-9890609D01*
X75214466Y-9814419D01*
X75176371Y-9738228D01*
X75138276Y-9585847D01*
X75138276Y-9471561D01*
X75176371Y-9319180D01*
X75214466Y-9242990D01*
X75290657Y-9166800D01*
X75404942Y-9128704D01*
X75481133Y-9128704D01*
X75595419Y-9166800D01*
X75633514Y-9204895D01*
X76395419Y-9928704D02*
X75938276Y-9928704D01*
X76166847Y-9928704D02*
X76166847Y-9128704D01*
X76090657Y-9242990D01*
X76014466Y-9319180D01*
X75938276Y-9357276D01*
X76662085Y-9128704D02*
X77195419Y-9128704D01*
X76852561Y-9928704D01*
X40479914Y-19606114D02*
X40441819Y-19644209D01*
X40327533Y-19682304D01*
X40251342Y-19682304D01*
X40137057Y-19644209D01*
X40060866Y-19568019D01*
X40022771Y-19491828D01*
X39984676Y-19339447D01*
X39984676Y-19225161D01*
X40022771Y-19072780D01*
X40060866Y-18996590D01*
X40137057Y-18920400D01*
X40251342Y-18882304D01*
X40327533Y-18882304D01*
X40441819Y-18920400D01*
X40479914Y-18958495D01*
X41241819Y-19682304D02*
X40784676Y-19682304D01*
X41013247Y-19682304D02*
X41013247Y-18882304D01*
X40937057Y-18996590D01*
X40860866Y-19072780D01*
X40784676Y-19110876D01*
X41927533Y-18882304D02*
X41775152Y-18882304D01*
X41698961Y-18920400D01*
X41660866Y-18958495D01*
X41584676Y-19072780D01*
X41546580Y-19225161D01*
X41546580Y-19529923D01*
X41584676Y-19606114D01*
X41622771Y-19644209D01*
X41698961Y-19682304D01*
X41851342Y-19682304D01*
X41927533Y-19644209D01*
X41965628Y-19606114D01*
X42003723Y-19529923D01*
X42003723Y-19339447D01*
X41965628Y-19263257D01*
X41927533Y-19225161D01*
X41851342Y-19187066D01*
X41698961Y-19187066D01*
X41622771Y-19225161D01*
X41584676Y-19263257D01*
X41546580Y-19339447D01*
X25925714Y-17040714D02*
X25887619Y-17078809D01*
X25773333Y-17116904D01*
X25697142Y-17116904D01*
X25582857Y-17078809D01*
X25506666Y-17002619D01*
X25468571Y-16926428D01*
X25430476Y-16774047D01*
X25430476Y-16659761D01*
X25468571Y-16507380D01*
X25506666Y-16431190D01*
X25582857Y-16355000D01*
X25697142Y-16316904D01*
X25773333Y-16316904D01*
X25887619Y-16355000D01*
X25925714Y-16393095D01*
X26687619Y-17116904D02*
X26230476Y-17116904D01*
X26459047Y-17116904D02*
X26459047Y-16316904D01*
X26382857Y-16431190D01*
X26306666Y-16507380D01*
X26230476Y-16545476D01*
X27411428Y-16316904D02*
X27030476Y-16316904D01*
X26992380Y-16697857D01*
X27030476Y-16659761D01*
X27106666Y-16621666D01*
X27297142Y-16621666D01*
X27373333Y-16659761D01*
X27411428Y-16697857D01*
X27449523Y-16774047D01*
X27449523Y-16964523D01*
X27411428Y-17040714D01*
X27373333Y-17078809D01*
X27297142Y-17116904D01*
X27106666Y-17116904D01*
X27030476Y-17078809D01*
X26992380Y-17040714D01*
X42600714Y-8760285D02*
X42638809Y-8798380D01*
X42676904Y-8912666D01*
X42676904Y-8988857D01*
X42638809Y-9103142D01*
X42562619Y-9179333D01*
X42486428Y-9217428D01*
X42334047Y-9255523D01*
X42219761Y-9255523D01*
X42067380Y-9217428D01*
X41991190Y-9179333D01*
X41915000Y-9103142D01*
X41876904Y-8988857D01*
X41876904Y-8912666D01*
X41915000Y-8798380D01*
X41953095Y-8760285D01*
X42676904Y-7998380D02*
X42676904Y-8455523D01*
X42676904Y-8226952D02*
X41876904Y-8226952D01*
X41991190Y-8303142D01*
X42067380Y-8379333D01*
X42105476Y-8455523D01*
X41876904Y-7731714D02*
X41876904Y-7236476D01*
X42181666Y-7503142D01*
X42181666Y-7388857D01*
X42219761Y-7312666D01*
X42257857Y-7274571D01*
X42334047Y-7236476D01*
X42524523Y-7236476D01*
X42600714Y-7274571D01*
X42638809Y-7312666D01*
X42676904Y-7388857D01*
X42676904Y-7617428D01*
X42638809Y-7693619D01*
X42600714Y-7731714D01*
X55669114Y-23212914D02*
X55631019Y-23251009D01*
X55516733Y-23289104D01*
X55440542Y-23289104D01*
X55326257Y-23251009D01*
X55250066Y-23174819D01*
X55211971Y-23098628D01*
X55173876Y-22946247D01*
X55173876Y-22831961D01*
X55211971Y-22679580D01*
X55250066Y-22603390D01*
X55326257Y-22527200D01*
X55440542Y-22489104D01*
X55516733Y-22489104D01*
X55631019Y-22527200D01*
X55669114Y-22565295D01*
X56431019Y-23289104D02*
X55973876Y-23289104D01*
X56202447Y-23289104D02*
X56202447Y-22489104D01*
X56126257Y-22603390D01*
X56050066Y-22679580D01*
X55973876Y-22717676D01*
X56735780Y-22565295D02*
X56773876Y-22527200D01*
X56850066Y-22489104D01*
X57040542Y-22489104D01*
X57116733Y-22527200D01*
X57154828Y-22565295D01*
X57192923Y-22641485D01*
X57192923Y-22717676D01*
X57154828Y-22831961D01*
X56697685Y-23289104D01*
X57192923Y-23289104D01*
X40848114Y-8912685D02*
X40886209Y-8950780D01*
X40924304Y-9065066D01*
X40924304Y-9141257D01*
X40886209Y-9255542D01*
X40810019Y-9331733D01*
X40733828Y-9369828D01*
X40581447Y-9407923D01*
X40467161Y-9407923D01*
X40314780Y-9369828D01*
X40238590Y-9331733D01*
X40162400Y-9255542D01*
X40124304Y-9141257D01*
X40124304Y-9065066D01*
X40162400Y-8950780D01*
X40200495Y-8912685D01*
X40924304Y-8150780D02*
X40924304Y-8607923D01*
X40924304Y-8379352D02*
X40124304Y-8379352D01*
X40238590Y-8455542D01*
X40314780Y-8531733D01*
X40352876Y-8607923D01*
X40924304Y-7388876D02*
X40924304Y-7846019D01*
X40924304Y-7617447D02*
X40124304Y-7617447D01*
X40238590Y-7693638D01*
X40314780Y-7769828D01*
X40352876Y-7846019D01*
X14800514Y-22273114D02*
X14762419Y-22311209D01*
X14648133Y-22349304D01*
X14571942Y-22349304D01*
X14457657Y-22311209D01*
X14381466Y-22235019D01*
X14343371Y-22158828D01*
X14305276Y-22006447D01*
X14305276Y-21892161D01*
X14343371Y-21739780D01*
X14381466Y-21663590D01*
X14457657Y-21587400D01*
X14571942Y-21549304D01*
X14648133Y-21549304D01*
X14762419Y-21587400D01*
X14800514Y-21625495D01*
X15562419Y-22349304D02*
X15105276Y-22349304D01*
X15333847Y-22349304D02*
X15333847Y-21549304D01*
X15257657Y-21663590D01*
X15181466Y-21739780D01*
X15105276Y-21777876D01*
X16057657Y-21549304D02*
X16133847Y-21549304D01*
X16210038Y-21587400D01*
X16248133Y-21625495D01*
X16286228Y-21701685D01*
X16324323Y-21854066D01*
X16324323Y-22044542D01*
X16286228Y-22196923D01*
X16248133Y-22273114D01*
X16210038Y-22311209D01*
X16133847Y-22349304D01*
X16057657Y-22349304D01*
X15981466Y-22311209D01*
X15943371Y-22273114D01*
X15905276Y-22196923D01*
X15867180Y-22044542D01*
X15867180Y-21854066D01*
X15905276Y-21701685D01*
X15943371Y-21625495D01*
X15981466Y-21587400D01*
X16057657Y-21549304D01*
X32237514Y-13535533D02*
X32275609Y-13573628D01*
X32313704Y-13687914D01*
X32313704Y-13764104D01*
X32275609Y-13878390D01*
X32199419Y-13954580D01*
X32123228Y-13992676D01*
X31970847Y-14030771D01*
X31856561Y-14030771D01*
X31704180Y-13992676D01*
X31627990Y-13954580D01*
X31551800Y-13878390D01*
X31513704Y-13764104D01*
X31513704Y-13687914D01*
X31551800Y-13573628D01*
X31589895Y-13535533D01*
X32313704Y-13154580D02*
X32313704Y-13002200D01*
X32275609Y-12926009D01*
X32237514Y-12887914D01*
X32123228Y-12811723D01*
X31970847Y-12773628D01*
X31666085Y-12773628D01*
X31589895Y-12811723D01*
X31551800Y-12849819D01*
X31513704Y-12926009D01*
X31513704Y-13078390D01*
X31551800Y-13154580D01*
X31589895Y-13192676D01*
X31666085Y-13230771D01*
X31856561Y-13230771D01*
X31932752Y-13192676D01*
X31970847Y-13154580D01*
X32008942Y-13078390D01*
X32008942Y-12926009D01*
X31970847Y-12849819D01*
X31932752Y-12811723D01*
X31856561Y-12773628D01*
X20858314Y-19428333D02*
X20896409Y-19466428D01*
X20934504Y-19580714D01*
X20934504Y-19656904D01*
X20896409Y-19771190D01*
X20820219Y-19847380D01*
X20744028Y-19885476D01*
X20591647Y-19923571D01*
X20477361Y-19923571D01*
X20324980Y-19885476D01*
X20248790Y-19847380D01*
X20172600Y-19771190D01*
X20134504Y-19656904D01*
X20134504Y-19580714D01*
X20172600Y-19466428D01*
X20210695Y-19428333D01*
X20134504Y-19161666D02*
X20134504Y-18628333D01*
X20934504Y-18971190D01*
X66718066Y-17574114D02*
X66679971Y-17612209D01*
X66565685Y-17650304D01*
X66489495Y-17650304D01*
X66375209Y-17612209D01*
X66299019Y-17536019D01*
X66260923Y-17459828D01*
X66222828Y-17307447D01*
X66222828Y-17193161D01*
X66260923Y-17040780D01*
X66299019Y-16964590D01*
X66375209Y-16888400D01*
X66489495Y-16850304D01*
X66565685Y-16850304D01*
X66679971Y-16888400D01*
X66718066Y-16926495D01*
X67403780Y-16850304D02*
X67251400Y-16850304D01*
X67175209Y-16888400D01*
X67137114Y-16926495D01*
X67060923Y-17040780D01*
X67022828Y-17193161D01*
X67022828Y-17497923D01*
X67060923Y-17574114D01*
X67099019Y-17612209D01*
X67175209Y-17650304D01*
X67327590Y-17650304D01*
X67403780Y-17612209D01*
X67441876Y-17574114D01*
X67479971Y-17497923D01*
X67479971Y-17307447D01*
X67441876Y-17231257D01*
X67403780Y-17193161D01*
X67327590Y-17155066D01*
X67175209Y-17155066D01*
X67099019Y-17193161D01*
X67060923Y-17231257D01*
X67022828Y-17307447D01*
X15968866Y-17116914D02*
X15930771Y-17155009D01*
X15816485Y-17193104D01*
X15740295Y-17193104D01*
X15626009Y-17155009D01*
X15549819Y-17078819D01*
X15511723Y-17002628D01*
X15473628Y-16850247D01*
X15473628Y-16735961D01*
X15511723Y-16583580D01*
X15549819Y-16507390D01*
X15626009Y-16431200D01*
X15740295Y-16393104D01*
X15816485Y-16393104D01*
X15930771Y-16431200D01*
X15968866Y-16469295D01*
X16692676Y-16393104D02*
X16311723Y-16393104D01*
X16273628Y-16774057D01*
X16311723Y-16735961D01*
X16387914Y-16697866D01*
X16578390Y-16697866D01*
X16654580Y-16735961D01*
X16692676Y-16774057D01*
X16730771Y-16850247D01*
X16730771Y-17040723D01*
X16692676Y-17116914D01*
X16654580Y-17155009D01*
X16578390Y-17193104D01*
X16387914Y-17193104D01*
X16311723Y-17155009D01*
X16273628Y-17116914D01*
X55554714Y-11935333D02*
X55592809Y-11973428D01*
X55630904Y-12087714D01*
X55630904Y-12163904D01*
X55592809Y-12278190D01*
X55516619Y-12354380D01*
X55440428Y-12392476D01*
X55288047Y-12430571D01*
X55173761Y-12430571D01*
X55021380Y-12392476D01*
X54945190Y-12354380D01*
X54869000Y-12278190D01*
X54830904Y-12163904D01*
X54830904Y-12087714D01*
X54869000Y-11973428D01*
X54907095Y-11935333D01*
X55097571Y-11249619D02*
X55630904Y-11249619D01*
X54792809Y-11440095D02*
X55364238Y-11630571D01*
X55364238Y-11135333D01*
X15968866Y-12824314D02*
X15930771Y-12862409D01*
X15816485Y-12900504D01*
X15740295Y-12900504D01*
X15626009Y-12862409D01*
X15549819Y-12786219D01*
X15511723Y-12710028D01*
X15473628Y-12557647D01*
X15473628Y-12443361D01*
X15511723Y-12290980D01*
X15549819Y-12214790D01*
X15626009Y-12138600D01*
X15740295Y-12100504D01*
X15816485Y-12100504D01*
X15930771Y-12138600D01*
X15968866Y-12176695D01*
X16235533Y-12100504D02*
X16730771Y-12100504D01*
X16464104Y-12405266D01*
X16578390Y-12405266D01*
X16654580Y-12443361D01*
X16692676Y-12481457D01*
X16730771Y-12557647D01*
X16730771Y-12748123D01*
X16692676Y-12824314D01*
X16654580Y-12862409D01*
X16578390Y-12900504D01*
X16349819Y-12900504D01*
X16273628Y-12862409D01*
X16235533Y-12824314D01*
X15994266Y-8811114D02*
X15956171Y-8849209D01*
X15841885Y-8887304D01*
X15765695Y-8887304D01*
X15651409Y-8849209D01*
X15575219Y-8773019D01*
X15537123Y-8696828D01*
X15499028Y-8544447D01*
X15499028Y-8430161D01*
X15537123Y-8277780D01*
X15575219Y-8201590D01*
X15651409Y-8125400D01*
X15765695Y-8087304D01*
X15841885Y-8087304D01*
X15956171Y-8125400D01*
X15994266Y-8163495D01*
X16299028Y-8163495D02*
X16337123Y-8125400D01*
X16413314Y-8087304D01*
X16603790Y-8087304D01*
X16679980Y-8125400D01*
X16718076Y-8163495D01*
X16756171Y-8239685D01*
X16756171Y-8315876D01*
X16718076Y-8430161D01*
X16260933Y-8887304D01*
X16756171Y-8887304D01*
X23880914Y-7998333D02*
X23919009Y-8036428D01*
X23957104Y-8150714D01*
X23957104Y-8226904D01*
X23919009Y-8341190D01*
X23842819Y-8417380D01*
X23766628Y-8455476D01*
X23614247Y-8493571D01*
X23499961Y-8493571D01*
X23347580Y-8455476D01*
X23271390Y-8417380D01*
X23195200Y-8341190D01*
X23157104Y-8226904D01*
X23157104Y-8150714D01*
X23195200Y-8036428D01*
X23233295Y-7998333D01*
X23957104Y-7236428D02*
X23957104Y-7693571D01*
X23957104Y-7465000D02*
X23157104Y-7465000D01*
X23271390Y-7541190D01*
X23347580Y-7617380D01*
X23385676Y-7693571D01*
X34510866Y-27861104D02*
X34129914Y-27861104D01*
X34129914Y-27061104D01*
X35120390Y-27061104D02*
X34968009Y-27061104D01*
X34891819Y-27099200D01*
X34853723Y-27137295D01*
X34777533Y-27251580D01*
X34739438Y-27403961D01*
X34739438Y-27708723D01*
X34777533Y-27784914D01*
X34815628Y-27823009D01*
X34891819Y-27861104D01*
X35044200Y-27861104D01*
X35120390Y-27823009D01*
X35158485Y-27784914D01*
X35196580Y-27708723D01*
X35196580Y-27518247D01*
X35158485Y-27442057D01*
X35120390Y-27403961D01*
X35044200Y-27365866D01*
X34891819Y-27365866D01*
X34815628Y-27403961D01*
X34777533Y-27442057D01*
X34739438Y-27518247D01*
D10*
X54524542Y-32523580D02*
X54048352Y-32523580D01*
X54048352Y-31523580D01*
X55381685Y-32523580D02*
X54810257Y-32523580D01*
X55095971Y-32523580D02*
X55095971Y-31523580D01*
X55000733Y-31666438D01*
X54905495Y-31761676D01*
X54810257Y-31809295D01*
X56000733Y-31523580D02*
X56095971Y-31523580D01*
X56191209Y-31571200D01*
X56238828Y-31618819D01*
X56286447Y-31714057D01*
X56334066Y-31904533D01*
X56334066Y-32142628D01*
X56286447Y-32333104D01*
X56238828Y-32428342D01*
X56191209Y-32475961D01*
X56095971Y-32523580D01*
X56000733Y-32523580D01*
X55905495Y-32475961D01*
X55857876Y-32428342D01*
X55810257Y-32333104D01*
X55762638Y-32142628D01*
X55762638Y-31904533D01*
X55810257Y-31714057D01*
X55857876Y-31618819D01*
X55905495Y-31571200D01*
X56000733Y-31523580D01*
X65951666Y-8054380D02*
X65951666Y-8768666D01*
X65904047Y-8911523D01*
X65808809Y-9006761D01*
X65665952Y-9054380D01*
X65570714Y-9054380D01*
X66951666Y-9054380D02*
X66380238Y-9054380D01*
X66665952Y-9054380D02*
X66665952Y-8054380D01*
X66570714Y-8197238D01*
X66475476Y-8292476D01*
X66380238Y-8340095D01*
X93186380Y-1872095D02*
X92186380Y-1872095D01*
X92186380Y-1491142D01*
X92234000Y-1395904D01*
X92281619Y-1348285D01*
X92376857Y-1300666D01*
X92519714Y-1300666D01*
X92614952Y-1348285D01*
X92662571Y-1395904D01*
X92710190Y-1491142D01*
X92710190Y-1872095D01*
X93186380Y-348285D02*
X93186380Y-919714D01*
X93186380Y-634000D02*
X92186380Y-634000D01*
X92329238Y-729238D01*
X92424476Y-824476D01*
X92472095Y-919714D01*
X5850380Y-1467333D02*
X6564666Y-1467333D01*
X6707523Y-1514952D01*
X6802761Y-1610190D01*
X6850380Y-1753047D01*
X6850380Y-1848285D01*
X5850380Y-562571D02*
X5850380Y-753047D01*
X5898000Y-848285D01*
X5945619Y-895904D01*
X6088476Y-991142D01*
X6278952Y-1038761D01*
X6659904Y-1038761D01*
X6755142Y-991142D01*
X6802761Y-943523D01*
X6850380Y-848285D01*
X6850380Y-657809D01*
X6802761Y-562571D01*
X6755142Y-514952D01*
X6659904Y-467333D01*
X6421809Y-467333D01*
X6326571Y-514952D01*
X6278952Y-562571D01*
X6231333Y-657809D01*
X6231333Y-848285D01*
X6278952Y-943523D01*
X6326571Y-991142D01*
X6421809Y-1038761D01*
X87644595Y-3016880D02*
X87644595Y-3826404D01*
X87692214Y-3921642D01*
X87739833Y-3969261D01*
X87835071Y-4016880D01*
X88025547Y-4016880D01*
X88120785Y-3969261D01*
X88168404Y-3921642D01*
X88216023Y-3826404D01*
X88216023Y-3016880D01*
X89120785Y-3016880D02*
X88930309Y-3016880D01*
X88835071Y-3064500D01*
X88787452Y-3112119D01*
X88692214Y-3254976D01*
X88644595Y-3445452D01*
X88644595Y-3826404D01*
X88692214Y-3921642D01*
X88739833Y-3969261D01*
X88835071Y-4016880D01*
X89025547Y-4016880D01*
X89120785Y-3969261D01*
X89168404Y-3921642D01*
X89216023Y-3826404D01*
X89216023Y-3588309D01*
X89168404Y-3493071D01*
X89120785Y-3445452D01*
X89025547Y-3397833D01*
X88835071Y-3397833D01*
X88739833Y-3445452D01*
X88692214Y-3493071D01*
X88644595Y-3588309D01*
D12*
X75646214Y-36227404D02*
X75265261Y-36227404D01*
X75265261Y-35427404D01*
X75874785Y-35503595D02*
X75912880Y-35465500D01*
X75989071Y-35427404D01*
X76179547Y-35427404D01*
X76255738Y-35465500D01*
X76293833Y-35503595D01*
X76331928Y-35579785D01*
X76331928Y-35655976D01*
X76293833Y-35770261D01*
X75836690Y-36227404D01*
X76331928Y-36227404D01*
X76636690Y-35503595D02*
X76674785Y-35465500D01*
X76750976Y-35427404D01*
X76941452Y-35427404D01*
X77017642Y-35465500D01*
X77055738Y-35503595D01*
X77093833Y-35579785D01*
X77093833Y-35655976D01*
X77055738Y-35770261D01*
X76598595Y-36227404D01*
X77093833Y-36227404D01*
D10*
X42449880Y-38352857D02*
X42449880Y-38829047D01*
X41449880Y-38829047D01*
X41545119Y-38067142D02*
X41497500Y-38019523D01*
X41449880Y-37924285D01*
X41449880Y-37686190D01*
X41497500Y-37590952D01*
X41545119Y-37543333D01*
X41640357Y-37495714D01*
X41735595Y-37495714D01*
X41878452Y-37543333D01*
X42449880Y-38114761D01*
X42449880Y-37495714D01*
X42449880Y-36543333D02*
X42449880Y-37114761D01*
X42449880Y-36829047D02*
X41449880Y-36829047D01*
X41592738Y-36924285D01*
X41687976Y-37019523D01*
X41735595Y-37114761D01*
D12*
X82313714Y-36227404D02*
X81932761Y-36227404D01*
X81932761Y-35427404D01*
X82999428Y-36227404D02*
X82542285Y-36227404D01*
X82770857Y-36227404D02*
X82770857Y-35427404D01*
X82694666Y-35541690D01*
X82618476Y-35617880D01*
X82542285Y-35655976D01*
X83456571Y-35770261D02*
X83380380Y-35732166D01*
X83342285Y-35694071D01*
X83304190Y-35617880D01*
X83304190Y-35579785D01*
X83342285Y-35503595D01*
X83380380Y-35465500D01*
X83456571Y-35427404D01*
X83608952Y-35427404D01*
X83685142Y-35465500D01*
X83723238Y-35503595D01*
X83761333Y-35579785D01*
X83761333Y-35617880D01*
X83723238Y-35694071D01*
X83685142Y-35732166D01*
X83608952Y-35770261D01*
X83456571Y-35770261D01*
X83380380Y-35808357D01*
X83342285Y-35846452D01*
X83304190Y-35922642D01*
X83304190Y-36075023D01*
X83342285Y-36151214D01*
X83380380Y-36189309D01*
X83456571Y-36227404D01*
X83608952Y-36227404D01*
X83685142Y-36189309D01*
X83723238Y-36151214D01*
X83761333Y-36075023D01*
X83761333Y-35922642D01*
X83723238Y-35846452D01*
X83685142Y-35808357D01*
X83608952Y-35770261D01*
D10*
X20767942Y-31431380D02*
X20291752Y-31431380D01*
X20291752Y-30431380D01*
X21625085Y-31431380D02*
X21053657Y-31431380D01*
X21339371Y-31431380D02*
X21339371Y-30431380D01*
X21244133Y-30574238D01*
X21148895Y-30669476D01*
X21053657Y-30717095D01*
X21958419Y-30431380D02*
X22625085Y-30431380D01*
X22196514Y-31431380D01*
D12*
X94556514Y-39799104D02*
X94175561Y-39799104D01*
X94175561Y-38999104D01*
X95242228Y-39799104D02*
X94785085Y-39799104D01*
X95013657Y-39799104D02*
X95013657Y-38999104D01*
X94937466Y-39113390D01*
X94861276Y-39189580D01*
X94785085Y-39227676D01*
X95927942Y-38999104D02*
X95775561Y-38999104D01*
X95699371Y-39037200D01*
X95661276Y-39075295D01*
X95585085Y-39189580D01*
X95546990Y-39341961D01*
X95546990Y-39646723D01*
X95585085Y-39722914D01*
X95623180Y-39761009D01*
X95699371Y-39799104D01*
X95851752Y-39799104D01*
X95927942Y-39761009D01*
X95966038Y-39722914D01*
X96004133Y-39646723D01*
X96004133Y-39456247D01*
X95966038Y-39380057D01*
X95927942Y-39341961D01*
X95851752Y-39303866D01*
X95699371Y-39303866D01*
X95623180Y-39341961D01*
X95585085Y-39380057D01*
X95546990Y-39456247D01*
X35958714Y-30477304D02*
X35577761Y-30477304D01*
X35577761Y-29677304D01*
X36644428Y-30477304D02*
X36187285Y-30477304D01*
X36415857Y-30477304D02*
X36415857Y-29677304D01*
X36339666Y-29791590D01*
X36263476Y-29867780D01*
X36187285Y-29905876D01*
X37368238Y-29677304D02*
X36987285Y-29677304D01*
X36949190Y-30058257D01*
X36987285Y-30020161D01*
X37063476Y-29982066D01*
X37253952Y-29982066D01*
X37330142Y-30020161D01*
X37368238Y-30058257D01*
X37406333Y-30134447D01*
X37406333Y-30324923D01*
X37368238Y-30401114D01*
X37330142Y-30439209D01*
X37253952Y-30477304D01*
X37063476Y-30477304D01*
X36987285Y-30439209D01*
X36949190Y-30401114D01*
X38066866Y-24635304D02*
X37685914Y-24635304D01*
X37685914Y-23835304D01*
X38371628Y-24635304D02*
X38524009Y-24635304D01*
X38600200Y-24597209D01*
X38638295Y-24559114D01*
X38714485Y-24444828D01*
X38752580Y-24292447D01*
X38752580Y-23987685D01*
X38714485Y-23911495D01*
X38676390Y-23873400D01*
X38600200Y-23835304D01*
X38447819Y-23835304D01*
X38371628Y-23873400D01*
X38333533Y-23911495D01*
X38295438Y-23987685D01*
X38295438Y-24178161D01*
X38333533Y-24254352D01*
X38371628Y-24292447D01*
X38447819Y-24330542D01*
X38600200Y-24330542D01*
X38676390Y-24292447D01*
X38714485Y-24254352D01*
X38752580Y-24178161D01*
X40784666Y-18005904D02*
X40403714Y-18005904D01*
X40403714Y-17205904D01*
X41165619Y-17548761D02*
X41089428Y-17510666D01*
X41051333Y-17472571D01*
X41013238Y-17396380D01*
X41013238Y-17358285D01*
X41051333Y-17282095D01*
X41089428Y-17244000D01*
X41165619Y-17205904D01*
X41318000Y-17205904D01*
X41394190Y-17244000D01*
X41432285Y-17282095D01*
X41470380Y-17358285D01*
X41470380Y-17396380D01*
X41432285Y-17472571D01*
X41394190Y-17510666D01*
X41318000Y-17548761D01*
X41165619Y-17548761D01*
X41089428Y-17586857D01*
X41051333Y-17624952D01*
X41013238Y-17701142D01*
X41013238Y-17853523D01*
X41051333Y-17929714D01*
X41089428Y-17967809D01*
X41165619Y-18005904D01*
X41318000Y-18005904D01*
X41394190Y-17967809D01*
X41432285Y-17929714D01*
X41470380Y-17853523D01*
X41470380Y-17701142D01*
X41432285Y-17624952D01*
X41394190Y-17586857D01*
X41318000Y-17548761D01*
X39184466Y-11325704D02*
X38803514Y-11325704D01*
X38803514Y-10525704D01*
X39832085Y-10525704D02*
X39451133Y-10525704D01*
X39413038Y-10906657D01*
X39451133Y-10868561D01*
X39527323Y-10830466D01*
X39717800Y-10830466D01*
X39793990Y-10868561D01*
X39832085Y-10906657D01*
X39870180Y-10982847D01*
X39870180Y-11173323D01*
X39832085Y-11249514D01*
X39793990Y-11287609D01*
X39717800Y-11325704D01*
X39527323Y-11325704D01*
X39451133Y-11287609D01*
X39413038Y-11249514D01*
X22090266Y-24203504D02*
X21709314Y-24203504D01*
X21709314Y-23403504D01*
X22699790Y-23670171D02*
X22699790Y-24203504D01*
X22509314Y-23365409D02*
X22318838Y-23936838D01*
X22814076Y-23936838D01*
X24261904Y-16100933D02*
X24261904Y-16481885D01*
X23461904Y-16481885D01*
X23461904Y-15910457D02*
X23461904Y-15415219D01*
X23766666Y-15681885D01*
X23766666Y-15567600D01*
X23804761Y-15491409D01*
X23842857Y-15453314D01*
X23919047Y-15415219D01*
X24109523Y-15415219D01*
X24185714Y-15453314D01*
X24223809Y-15491409D01*
X24261904Y-15567600D01*
X24261904Y-15796171D01*
X24223809Y-15872361D01*
X24185714Y-15910457D01*
X24236504Y-11681333D02*
X24236504Y-12062285D01*
X23436504Y-12062285D01*
X23512695Y-11452761D02*
X23474600Y-11414666D01*
X23436504Y-11338476D01*
X23436504Y-11148000D01*
X23474600Y-11071809D01*
X23512695Y-11033714D01*
X23588885Y-10995619D01*
X23665076Y-10995619D01*
X23779361Y-11033714D01*
X24236504Y-11490857D01*
X24236504Y-10995619D01*
X60215666Y-23162104D02*
X59834714Y-23162104D01*
X59834714Y-22362104D01*
X60901380Y-23162104D02*
X60444238Y-23162104D01*
X60672809Y-23162104D02*
X60672809Y-22362104D01*
X60596619Y-22476390D01*
X60520428Y-22552580D01*
X60444238Y-22590676D01*
X68933333Y-41261904D02*
X68933333Y-41833333D01*
X68895238Y-41947619D01*
X68819047Y-42023809D01*
X68704761Y-42061904D01*
X68628571Y-42061904D01*
X69695238Y-41261904D02*
X69314285Y-41261904D01*
X69276190Y-41642857D01*
X69314285Y-41604761D01*
X69390476Y-41566666D01*
X69580952Y-41566666D01*
X69657142Y-41604761D01*
X69695238Y-41642857D01*
X69733333Y-41719047D01*
X69733333Y-41909523D01*
X69695238Y-41985714D01*
X69657142Y-42023809D01*
X69580952Y-42061904D01*
X69390476Y-42061904D01*
X69314285Y-42023809D01*
X69276190Y-41985714D01*
X36933333Y-41261904D02*
X36933333Y-41833333D01*
X36895238Y-41947619D01*
X36819047Y-42023809D01*
X36704761Y-42061904D01*
X36628571Y-42061904D01*
X37238095Y-41261904D02*
X37733333Y-41261904D01*
X37466666Y-41566666D01*
X37580952Y-41566666D01*
X37657142Y-41604761D01*
X37695238Y-41642857D01*
X37733333Y-41719047D01*
X37733333Y-41909523D01*
X37695238Y-41985714D01*
X37657142Y-42023809D01*
X37580952Y-42061904D01*
X37352380Y-42061904D01*
X37276190Y-42023809D01*
X37238095Y-41985714D01*
X33596523Y-16945904D02*
X33596523Y-16145904D01*
X33787000Y-16145904D01*
X33901285Y-16184000D01*
X33977476Y-16260190D01*
X34015571Y-16336380D01*
X34053666Y-16488761D01*
X34053666Y-16603047D01*
X34015571Y-16755428D01*
X33977476Y-16831619D01*
X33901285Y-16907809D01*
X33787000Y-16945904D01*
X33596523Y-16945904D01*
X34320333Y-16145904D02*
X34815571Y-16145904D01*
X34548904Y-16450666D01*
X34663190Y-16450666D01*
X34739380Y-16488761D01*
X34777476Y-16526857D01*
X34815571Y-16603047D01*
X34815571Y-16793523D01*
X34777476Y-16869714D01*
X34739380Y-16907809D01*
X34663190Y-16945904D01*
X34434619Y-16945904D01*
X34358428Y-16907809D01*
X34320333Y-16869714D01*
X81094523Y-27784904D02*
X81094523Y-26984904D01*
X81285000Y-26984904D01*
X81399285Y-27023000D01*
X81475476Y-27099190D01*
X81513571Y-27175380D01*
X81551666Y-27327761D01*
X81551666Y-27442047D01*
X81513571Y-27594428D01*
X81475476Y-27670619D01*
X81399285Y-27746809D01*
X81285000Y-27784904D01*
X81094523Y-27784904D01*
X82313571Y-27784904D02*
X81856428Y-27784904D01*
X82085000Y-27784904D02*
X82085000Y-26984904D01*
X82008809Y-27099190D01*
X81932619Y-27175380D01*
X81856428Y-27213476D01*
D10*
X72990342Y-32447380D02*
X72514152Y-32447380D01*
X72514152Y-31447380D01*
X73847485Y-32447380D02*
X73276057Y-32447380D01*
X73561771Y-32447380D02*
X73561771Y-31447380D01*
X73466533Y-31590238D01*
X73371295Y-31685476D01*
X73276057Y-31733095D01*
X74228438Y-31542619D02*
X74276057Y-31495000D01*
X74371295Y-31447380D01*
X74609390Y-31447380D01*
X74704628Y-31495000D01*
X74752247Y-31542619D01*
X74799866Y-31637857D01*
X74799866Y-31733095D01*
X74752247Y-31875952D01*
X74180819Y-32447380D01*
X74799866Y-32447380D01*
X63465342Y-32574380D02*
X62989152Y-32574380D01*
X62989152Y-31574380D01*
X64322485Y-32574380D02*
X63751057Y-32574380D01*
X64036771Y-32574380D02*
X64036771Y-31574380D01*
X63941533Y-31717238D01*
X63846295Y-31812476D01*
X63751057Y-31860095D01*
X65274866Y-32574380D02*
X64703438Y-32574380D01*
X64989152Y-32574380D02*
X64989152Y-31574380D01*
X64893914Y-31717238D01*
X64798676Y-31812476D01*
X64703438Y-31860095D01*
D12*
X36961333Y1080096D02*
X36961333Y508667D01*
X36923238Y394381D01*
X36847047Y318191D01*
X36732761Y280096D01*
X36656571Y280096D01*
X37685142Y813429D02*
X37685142Y280096D01*
X37494666Y1118191D02*
X37304190Y546762D01*
X37799428Y546762D01*
X26801333Y1080096D02*
X26801333Y508667D01*
X26763238Y394381D01*
X26687047Y318191D01*
X26572761Y280096D01*
X26496571Y280096D01*
X27144190Y1003905D02*
X27182285Y1042000D01*
X27258476Y1080096D01*
X27448952Y1080096D01*
X27525142Y1042000D01*
X27563238Y1003905D01*
X27601333Y927715D01*
X27601333Y851524D01*
X27563238Y737239D01*
X27106095Y280096D01*
X27601333Y280096D01*
X79075214Y-42694714D02*
X79037119Y-42732809D01*
X78922833Y-42770904D01*
X78846642Y-42770904D01*
X78732357Y-42732809D01*
X78656166Y-42656619D01*
X78618071Y-42580428D01*
X78579976Y-42428047D01*
X78579976Y-42313761D01*
X78618071Y-42161380D01*
X78656166Y-42085190D01*
X78732357Y-42009000D01*
X78846642Y-41970904D01*
X78922833Y-41970904D01*
X79037119Y-42009000D01*
X79075214Y-42047095D01*
X79760928Y-42237571D02*
X79760928Y-42770904D01*
X79570452Y-41932809D02*
X79379976Y-42504238D01*
X79875214Y-42504238D01*
X80141880Y-42047095D02*
X80179976Y-42009000D01*
X80256166Y-41970904D01*
X80446642Y-41970904D01*
X80522833Y-42009000D01*
X80560928Y-42047095D01*
X80599023Y-42123285D01*
X80599023Y-42199476D01*
X80560928Y-42313761D01*
X80103785Y-42770904D01*
X80599023Y-42770904D01*
X39235314Y-13408514D02*
X39197219Y-13446609D01*
X39082933Y-13484704D01*
X39006742Y-13484704D01*
X38892457Y-13446609D01*
X38816266Y-13370419D01*
X38778171Y-13294228D01*
X38740076Y-13141847D01*
X38740076Y-13027561D01*
X38778171Y-12875180D01*
X38816266Y-12798990D01*
X38892457Y-12722800D01*
X39006742Y-12684704D01*
X39082933Y-12684704D01*
X39197219Y-12722800D01*
X39235314Y-12760895D01*
X39997219Y-13484704D02*
X39540076Y-13484704D01*
X39768647Y-13484704D02*
X39768647Y-12684704D01*
X39692457Y-12798990D01*
X39616266Y-12875180D01*
X39540076Y-12913276D01*
X40682933Y-12951371D02*
X40682933Y-13484704D01*
X40492457Y-12646609D02*
X40301980Y-13218038D01*
X40797219Y-13218038D01*
X30396066Y-11020914D02*
X30357971Y-11059009D01*
X30243685Y-11097104D01*
X30167495Y-11097104D01*
X30053209Y-11059009D01*
X29977019Y-10982819D01*
X29938923Y-10906628D01*
X29900828Y-10754247D01*
X29900828Y-10639961D01*
X29938923Y-10487580D01*
X29977019Y-10411390D01*
X30053209Y-10335200D01*
X30167495Y-10297104D01*
X30243685Y-10297104D01*
X30357971Y-10335200D01*
X30396066Y-10373295D01*
X30853209Y-10639961D02*
X30777019Y-10601866D01*
X30738923Y-10563771D01*
X30700828Y-10487580D01*
X30700828Y-10449485D01*
X30738923Y-10373295D01*
X30777019Y-10335200D01*
X30853209Y-10297104D01*
X31005590Y-10297104D01*
X31081780Y-10335200D01*
X31119876Y-10373295D01*
X31157971Y-10449485D01*
X31157971Y-10487580D01*
X31119876Y-10563771D01*
X31081780Y-10601866D01*
X31005590Y-10639961D01*
X30853209Y-10639961D01*
X30777019Y-10678057D01*
X30738923Y-10716152D01*
X30700828Y-10792342D01*
X30700828Y-10944723D01*
X30738923Y-11020914D01*
X30777019Y-11059009D01*
X30853209Y-11097104D01*
X31005590Y-11097104D01*
X31081780Y-11059009D01*
X31119876Y-11020914D01*
X31157971Y-10944723D01*
X31157971Y-10792342D01*
X31119876Y-10716152D01*
X31081780Y-10678057D01*
X31005590Y-10639961D01*
D10*
X69435861Y-4210819D02*
X69340623Y-4163200D01*
X69245385Y-4067961D01*
X69102528Y-3925104D01*
X69007290Y-3877485D01*
X68912052Y-3877485D01*
X68959671Y-4115580D02*
X68864433Y-4067961D01*
X68769195Y-3972723D01*
X68721576Y-3782247D01*
X68721576Y-3448914D01*
X68769195Y-3258438D01*
X68864433Y-3163200D01*
X68959671Y-3115580D01*
X69150147Y-3115580D01*
X69245385Y-3163200D01*
X69340623Y-3258438D01*
X69388242Y-3448914D01*
X69388242Y-3782247D01*
X69340623Y-3972723D01*
X69245385Y-4067961D01*
X69150147Y-4115580D01*
X68959671Y-4115580D01*
X69721576Y-3115580D02*
X70388242Y-3115580D01*
X69959671Y-4115580D01*
X58196361Y-4109219D02*
X58101123Y-4061600D01*
X58005885Y-3966361D01*
X57863028Y-3823504D01*
X57767790Y-3775885D01*
X57672552Y-3775885D01*
X57720171Y-4013980D02*
X57624933Y-3966361D01*
X57529695Y-3871123D01*
X57482076Y-3680647D01*
X57482076Y-3347314D01*
X57529695Y-3156838D01*
X57624933Y-3061600D01*
X57720171Y-3013980D01*
X57910647Y-3013980D01*
X58005885Y-3061600D01*
X58101123Y-3156838D01*
X58148742Y-3347314D01*
X58148742Y-3680647D01*
X58101123Y-3871123D01*
X58005885Y-3966361D01*
X57910647Y-4013980D01*
X57720171Y-4013980D01*
X59005885Y-3013980D02*
X58815409Y-3013980D01*
X58720171Y-3061600D01*
X58672552Y-3109219D01*
X58577314Y-3252076D01*
X58529695Y-3442552D01*
X58529695Y-3823504D01*
X58577314Y-3918742D01*
X58624933Y-3966361D01*
X58720171Y-4013980D01*
X58910647Y-4013980D01*
X59005885Y-3966361D01*
X59053504Y-3918742D01*
X59101123Y-3823504D01*
X59101123Y-3585409D01*
X59053504Y-3490171D01*
X59005885Y-3442552D01*
X58910647Y-3394933D01*
X58720171Y-3394933D01*
X58624933Y-3442552D01*
X58577314Y-3490171D01*
X58529695Y-3585409D01*
X47147361Y-8158619D02*
X47052123Y-8111000D01*
X46956885Y-8015761D01*
X46814028Y-7872904D01*
X46718790Y-7825285D01*
X46623552Y-7825285D01*
X46671171Y-8063380D02*
X46575933Y-8015761D01*
X46480695Y-7920523D01*
X46433076Y-7730047D01*
X46433076Y-7396714D01*
X46480695Y-7206238D01*
X46575933Y-7111000D01*
X46671171Y-7063380D01*
X46861647Y-7063380D01*
X46956885Y-7111000D01*
X47052123Y-7206238D01*
X47099742Y-7396714D01*
X47099742Y-7730047D01*
X47052123Y-7920523D01*
X46956885Y-8015761D01*
X46861647Y-8063380D01*
X46671171Y-8063380D01*
X48004504Y-7063380D02*
X47528314Y-7063380D01*
X47480695Y-7539571D01*
X47528314Y-7491952D01*
X47623552Y-7444333D01*
X47861647Y-7444333D01*
X47956885Y-7491952D01*
X48004504Y-7539571D01*
X48052123Y-7634809D01*
X48052123Y-7872904D01*
X48004504Y-7968142D01*
X47956885Y-8015761D01*
X47861647Y-8063380D01*
X47623552Y-8063380D01*
X47528314Y-8015761D01*
X47480695Y-7968142D01*
D12*
X18052380Y-39961904D02*
X18052380Y-40533333D01*
X18014285Y-40647619D01*
X17938095Y-40723809D01*
X17823809Y-40761904D01*
X17747619Y-40761904D01*
X18852380Y-40761904D02*
X18395238Y-40761904D01*
X18623809Y-40761904D02*
X18623809Y-39961904D01*
X18547619Y-40076190D01*
X18471428Y-40152380D01*
X18395238Y-40190476D01*
X19347619Y-39961904D02*
X19423809Y-39961904D01*
X19500000Y-40000000D01*
X19538095Y-40038095D01*
X19576190Y-40114285D01*
X19614285Y-40266666D01*
X19614285Y-40457142D01*
X19576190Y-40609523D01*
X19538095Y-40685714D01*
X19500000Y-40723809D01*
X19423809Y-40761904D01*
X19347619Y-40761904D01*
X19271428Y-40723809D01*
X19233333Y-40685714D01*
X19195238Y-40609523D01*
X19157142Y-40457142D01*
X19157142Y-40266666D01*
X19195238Y-40114285D01*
X19233333Y-40038095D01*
X19271428Y-40000000D01*
X19347619Y-39961904D01*
D10*
X62557304Y-8539380D02*
X62557304Y-7539380D01*
X62795400Y-7539380D01*
X62938257Y-7587000D01*
X63033495Y-7682238D01*
X63081114Y-7777476D01*
X63128733Y-7967952D01*
X63128733Y-8110809D01*
X63081114Y-8301285D01*
X63033495Y-8396523D01*
X62938257Y-8491761D01*
X62795400Y-8539380D01*
X62557304Y-8539380D01*
X63700161Y-7967952D02*
X63604923Y-7920333D01*
X63557304Y-7872714D01*
X63509685Y-7777476D01*
X63509685Y-7729857D01*
X63557304Y-7634619D01*
X63604923Y-7587000D01*
X63700161Y-7539380D01*
X63890638Y-7539380D01*
X63985876Y-7587000D01*
X64033495Y-7634619D01*
X64081114Y-7729857D01*
X64081114Y-7777476D01*
X64033495Y-7872714D01*
X63985876Y-7920333D01*
X63890638Y-7967952D01*
X63700161Y-7967952D01*
X63604923Y-8015571D01*
X63557304Y-8063190D01*
X63509685Y-8158428D01*
X63509685Y-8348904D01*
X63557304Y-8444142D01*
X63604923Y-8491761D01*
X63700161Y-8539380D01*
X63890638Y-8539380D01*
X63985876Y-8491761D01*
X64033495Y-8444142D01*
X64081114Y-8348904D01*
X64081114Y-8158428D01*
X64033495Y-8063190D01*
X63985876Y-8015571D01*
X63890638Y-7967952D01*
X41575904Y-3586880D02*
X41575904Y-2586880D01*
X41814000Y-2586880D01*
X41956857Y-2634500D01*
X42052095Y-2729738D01*
X42099714Y-2824976D01*
X42147333Y-3015452D01*
X42147333Y-3158309D01*
X42099714Y-3348785D01*
X42052095Y-3444023D01*
X41956857Y-3539261D01*
X41814000Y-3586880D01*
X41575904Y-3586880D01*
X42528285Y-2682119D02*
X42575904Y-2634500D01*
X42671142Y-2586880D01*
X42909238Y-2586880D01*
X43004476Y-2634500D01*
X43052095Y-2682119D01*
X43099714Y-2777357D01*
X43099714Y-2872595D01*
X43052095Y-3015452D01*
X42480666Y-3586880D01*
X43099714Y-3586880D01*
M02*
