G04 #@! TF.GenerationSoftware,KiCad,Pcbnew,5.1.10-88a1d61d58~90~ubuntu20.04.1*
G04 #@! TF.CreationDate,2021-09-05T16:54:04+01:00*
G04 #@! TF.ProjectId,hl2_6xvtr,686c325f-3678-4767-9472-2e6b69636164,1*
G04 #@! TF.SameCoordinates,PX3dfd240PY3473bc0*
G04 #@! TF.FileFunction,Paste,Bot*
G04 #@! TF.FilePolarity,Positive*
%FSLAX46Y46*%
G04 Gerber Fmt 4.6, Leading zero omitted, Abs format (unit mm)*
G04 Created by KiCad (PCBNEW 5.1.10-88a1d61d58~90~ubuntu20.04.1) date 2021-09-05 16:54:04*
%MOMM*%
%LPD*%
G01*
G04 APERTURE LIST*
%ADD10C,0.100000*%
%ADD11R,1.000000X1.500000*%
%ADD12R,1.000000X1.800000*%
%ADD13R,2.200000X1.840000*%
%ADD14R,0.889000X1.397000*%
%ADD15R,0.635000X1.143000*%
%ADD16R,1.143000X0.635000*%
G04 APERTURE END LIST*
D10*
G36*
X35465000Y-36674500D02*
G01*
X34865000Y-35824500D01*
X37065000Y-35824500D01*
X36465000Y-36674500D01*
X35465000Y-36674500D01*
G37*
D11*
X34465000Y-32102500D03*
D12*
X35965000Y-32249000D03*
D11*
X37465000Y-32102500D03*
D13*
X35965000Y-34916000D03*
D10*
G36*
X36365000Y-33006300D02*
G01*
X37065000Y-34006300D01*
X34865000Y-34006300D01*
X35565000Y-33006300D01*
X36365000Y-33006300D01*
G37*
D14*
X82383500Y-27804000D03*
X80478500Y-27804000D03*
D15*
X58444000Y-14469000D03*
X56920000Y-14469000D03*
X27900500Y-39043500D03*
X29424500Y-39043500D03*
D16*
X32028000Y-40567500D03*
X32028000Y-39043500D03*
X32028000Y-35487500D03*
X32028000Y-37011500D03*
X28662500Y-31423500D03*
X28662500Y-32947500D03*
X32028000Y-33455500D03*
X32028000Y-31931500D03*
D15*
X78065500Y-29836000D03*
X76541500Y-29836000D03*
D16*
X73430000Y-27296000D03*
X73430000Y-25772000D03*
D15*
X68032500Y-29836000D03*
X69556500Y-29836000D03*
D16*
X66445000Y-25772000D03*
X66445000Y-27296000D03*
X64286000Y-25772000D03*
X64286000Y-27296000D03*
D15*
X59904500Y-29836000D03*
X58380500Y-29836000D03*
D16*
X55142000Y-27296000D03*
X55142000Y-25772000D03*
D15*
X50214400Y-29836000D03*
X51738400Y-29836000D03*
M02*
