G04 #@! TF.GenerationSoftware,KiCad,Pcbnew,5.1.10-88a1d61d58~88~ubuntu20.04.1*
G04 #@! TF.CreationDate,2021-06-28T19:55:26+01:00*
G04 #@! TF.ProjectId,hl2_6xvtr,686c325f-3678-4767-9472-2e6b69636164,1*
G04 #@! TF.SameCoordinates,PX3dfd240PY3473bc0*
G04 #@! TF.FileFunction,Soldermask,Bot*
G04 #@! TF.FilePolarity,Negative*
%FSLAX46Y46*%
G04 Gerber Fmt 4.6, Leading zero omitted, Abs format (unit mm)*
G04 Created by KiCad (PCBNEW 5.1.10-88a1d61d58~88~ubuntu20.04.1) date 2021-06-28 19:55:26*
%MOMM*%
%LPD*%
G01*
G04 APERTURE LIST*
%ADD10C,2.400000*%
%ADD11O,2.100000X2.100000*%
%ADD12C,0.100000*%
%ADD13C,4.600000*%
%ADD14C,3.900000*%
%ADD15C,2.880000*%
%ADD16C,2.800000*%
%ADD17C,1.000000*%
%ADD18C,0.200000*%
G04 APERTURE END LIST*
G36*
G01*
X28418000Y-38472000D02*
X28418000Y-39615000D01*
G75*
G02*
X28218000Y-39815000I-200000J0D01*
G01*
X27583000Y-39815000D01*
G75*
G02*
X27383000Y-39615000I0J200000D01*
G01*
X27383000Y-38472000D01*
G75*
G02*
X27583000Y-38272000I200000J0D01*
G01*
X28218000Y-38272000D01*
G75*
G02*
X28418000Y-38472000I0J-200000D01*
G01*
G37*
G36*
G01*
X29942000Y-38472000D02*
X29942000Y-39615000D01*
G75*
G02*
X29742000Y-39815000I-200000J0D01*
G01*
X29107000Y-39815000D01*
G75*
G02*
X28907000Y-39615000I0J200000D01*
G01*
X28907000Y-38472000D01*
G75*
G02*
X29107000Y-38272000I200000J0D01*
G01*
X29742000Y-38272000D01*
G75*
G02*
X29942000Y-38472000I0J-200000D01*
G01*
G37*
G36*
G01*
X31456500Y-40050000D02*
X32599500Y-40050000D01*
G75*
G02*
X32799500Y-40250000I0J-200000D01*
G01*
X32799500Y-40885000D01*
G75*
G02*
X32599500Y-41085000I-200000J0D01*
G01*
X31456500Y-41085000D01*
G75*
G02*
X31256500Y-40885000I0J200000D01*
G01*
X31256500Y-40250000D01*
G75*
G02*
X31456500Y-40050000I200000J0D01*
G01*
G37*
G36*
G01*
X31456500Y-38526000D02*
X32599500Y-38526000D01*
G75*
G02*
X32799500Y-38726000I0J-200000D01*
G01*
X32799500Y-39361000D01*
G75*
G02*
X32599500Y-39561000I-200000J0D01*
G01*
X31456500Y-39561000D01*
G75*
G02*
X31256500Y-39361000I0J200000D01*
G01*
X31256500Y-38726000D01*
G75*
G02*
X31456500Y-38526000I200000J0D01*
G01*
G37*
G36*
G01*
X32599500Y-36005000D02*
X31456500Y-36005000D01*
G75*
G02*
X31256500Y-35805000I0J200000D01*
G01*
X31256500Y-35170000D01*
G75*
G02*
X31456500Y-34970000I200000J0D01*
G01*
X32599500Y-34970000D01*
G75*
G02*
X32799500Y-35170000I0J-200000D01*
G01*
X32799500Y-35805000D01*
G75*
G02*
X32599500Y-36005000I-200000J0D01*
G01*
G37*
G36*
G01*
X32599500Y-37529000D02*
X31456500Y-37529000D01*
G75*
G02*
X31256500Y-37329000I0J200000D01*
G01*
X31256500Y-36694000D01*
G75*
G02*
X31456500Y-36494000I200000J0D01*
G01*
X32599500Y-36494000D01*
G75*
G02*
X32799500Y-36694000I0J-200000D01*
G01*
X32799500Y-37329000D01*
G75*
G02*
X32599500Y-37529000I-200000J0D01*
G01*
G37*
G36*
G01*
X29234000Y-31941000D02*
X28091000Y-31941000D01*
G75*
G02*
X27891000Y-31741000I0J200000D01*
G01*
X27891000Y-31106000D01*
G75*
G02*
X28091000Y-30906000I200000J0D01*
G01*
X29234000Y-30906000D01*
G75*
G02*
X29434000Y-31106000I0J-200000D01*
G01*
X29434000Y-31741000D01*
G75*
G02*
X29234000Y-31941000I-200000J0D01*
G01*
G37*
G36*
G01*
X29234000Y-33465000D02*
X28091000Y-33465000D01*
G75*
G02*
X27891000Y-33265000I0J200000D01*
G01*
X27891000Y-32630000D01*
G75*
G02*
X28091000Y-32430000I200000J0D01*
G01*
X29234000Y-32430000D01*
G75*
G02*
X29434000Y-32630000I0J-200000D01*
G01*
X29434000Y-33265000D01*
G75*
G02*
X29234000Y-33465000I-200000J0D01*
G01*
G37*
G36*
G01*
X31456500Y-32938000D02*
X32599500Y-32938000D01*
G75*
G02*
X32799500Y-33138000I0J-200000D01*
G01*
X32799500Y-33773000D01*
G75*
G02*
X32599500Y-33973000I-200000J0D01*
G01*
X31456500Y-33973000D01*
G75*
G02*
X31256500Y-33773000I0J200000D01*
G01*
X31256500Y-33138000D01*
G75*
G02*
X31456500Y-32938000I200000J0D01*
G01*
G37*
G36*
G01*
X31456500Y-31414000D02*
X32599500Y-31414000D01*
G75*
G02*
X32799500Y-31614000I0J-200000D01*
G01*
X32799500Y-32249000D01*
G75*
G02*
X32599500Y-32449000I-200000J0D01*
G01*
X31456500Y-32449000D01*
G75*
G02*
X31256500Y-32249000I0J200000D01*
G01*
X31256500Y-31614000D01*
G75*
G02*
X31456500Y-31414000I200000J0D01*
G01*
G37*
G36*
G01*
X77548000Y-30407500D02*
X77548000Y-29264500D01*
G75*
G02*
X77748000Y-29064500I200000J0D01*
G01*
X78383000Y-29064500D01*
G75*
G02*
X78583000Y-29264500I0J-200000D01*
G01*
X78583000Y-30407500D01*
G75*
G02*
X78383000Y-30607500I-200000J0D01*
G01*
X77748000Y-30607500D01*
G75*
G02*
X77548000Y-30407500I0J200000D01*
G01*
G37*
G36*
G01*
X76024000Y-30407500D02*
X76024000Y-29264500D01*
G75*
G02*
X76224000Y-29064500I200000J0D01*
G01*
X76859000Y-29064500D01*
G75*
G02*
X77059000Y-29264500I0J-200000D01*
G01*
X77059000Y-30407500D01*
G75*
G02*
X76859000Y-30607500I-200000J0D01*
G01*
X76224000Y-30607500D01*
G75*
G02*
X76024000Y-30407500I0J200000D01*
G01*
G37*
G36*
G01*
X72858500Y-26778500D02*
X74001500Y-26778500D01*
G75*
G02*
X74201500Y-26978500I0J-200000D01*
G01*
X74201500Y-27613500D01*
G75*
G02*
X74001500Y-27813500I-200000J0D01*
G01*
X72858500Y-27813500D01*
G75*
G02*
X72658500Y-27613500I0J200000D01*
G01*
X72658500Y-26978500D01*
G75*
G02*
X72858500Y-26778500I200000J0D01*
G01*
G37*
G36*
G01*
X72858500Y-25254500D02*
X74001500Y-25254500D01*
G75*
G02*
X74201500Y-25454500I0J-200000D01*
G01*
X74201500Y-26089500D01*
G75*
G02*
X74001500Y-26289500I-200000J0D01*
G01*
X72858500Y-26289500D01*
G75*
G02*
X72658500Y-26089500I0J200000D01*
G01*
X72658500Y-25454500D01*
G75*
G02*
X72858500Y-25254500I200000J0D01*
G01*
G37*
G36*
G01*
X68550000Y-29264500D02*
X68550000Y-30407500D01*
G75*
G02*
X68350000Y-30607500I-200000J0D01*
G01*
X67715000Y-30607500D01*
G75*
G02*
X67515000Y-30407500I0J200000D01*
G01*
X67515000Y-29264500D01*
G75*
G02*
X67715000Y-29064500I200000J0D01*
G01*
X68350000Y-29064500D01*
G75*
G02*
X68550000Y-29264500I0J-200000D01*
G01*
G37*
G36*
G01*
X70074000Y-29264500D02*
X70074000Y-30407500D01*
G75*
G02*
X69874000Y-30607500I-200000J0D01*
G01*
X69239000Y-30607500D01*
G75*
G02*
X69039000Y-30407500I0J200000D01*
G01*
X69039000Y-29264500D01*
G75*
G02*
X69239000Y-29064500I200000J0D01*
G01*
X69874000Y-29064500D01*
G75*
G02*
X70074000Y-29264500I0J-200000D01*
G01*
G37*
G36*
G01*
X67016500Y-26289500D02*
X65873500Y-26289500D01*
G75*
G02*
X65673500Y-26089500I0J200000D01*
G01*
X65673500Y-25454500D01*
G75*
G02*
X65873500Y-25254500I200000J0D01*
G01*
X67016500Y-25254500D01*
G75*
G02*
X67216500Y-25454500I0J-200000D01*
G01*
X67216500Y-26089500D01*
G75*
G02*
X67016500Y-26289500I-200000J0D01*
G01*
G37*
G36*
G01*
X67016500Y-27813500D02*
X65873500Y-27813500D01*
G75*
G02*
X65673500Y-27613500I0J200000D01*
G01*
X65673500Y-26978500D01*
G75*
G02*
X65873500Y-26778500I200000J0D01*
G01*
X67016500Y-26778500D01*
G75*
G02*
X67216500Y-26978500I0J-200000D01*
G01*
X67216500Y-27613500D01*
G75*
G02*
X67016500Y-27813500I-200000J0D01*
G01*
G37*
G36*
G01*
X64857500Y-26289500D02*
X63714500Y-26289500D01*
G75*
G02*
X63514500Y-26089500I0J200000D01*
G01*
X63514500Y-25454500D01*
G75*
G02*
X63714500Y-25254500I200000J0D01*
G01*
X64857500Y-25254500D01*
G75*
G02*
X65057500Y-25454500I0J-200000D01*
G01*
X65057500Y-26089500D01*
G75*
G02*
X64857500Y-26289500I-200000J0D01*
G01*
G37*
G36*
G01*
X64857500Y-27813500D02*
X63714500Y-27813500D01*
G75*
G02*
X63514500Y-27613500I0J200000D01*
G01*
X63514500Y-26978500D01*
G75*
G02*
X63714500Y-26778500I200000J0D01*
G01*
X64857500Y-26778500D01*
G75*
G02*
X65057500Y-26978500I0J-200000D01*
G01*
X65057500Y-27613500D01*
G75*
G02*
X64857500Y-27813500I-200000J0D01*
G01*
G37*
G36*
G01*
X59387000Y-30407500D02*
X59387000Y-29264500D01*
G75*
G02*
X59587000Y-29064500I200000J0D01*
G01*
X60222000Y-29064500D01*
G75*
G02*
X60422000Y-29264500I0J-200000D01*
G01*
X60422000Y-30407500D01*
G75*
G02*
X60222000Y-30607500I-200000J0D01*
G01*
X59587000Y-30607500D01*
G75*
G02*
X59387000Y-30407500I0J200000D01*
G01*
G37*
G36*
G01*
X57863000Y-30407500D02*
X57863000Y-29264500D01*
G75*
G02*
X58063000Y-29064500I200000J0D01*
G01*
X58698000Y-29064500D01*
G75*
G02*
X58898000Y-29264500I0J-200000D01*
G01*
X58898000Y-30407500D01*
G75*
G02*
X58698000Y-30607500I-200000J0D01*
G01*
X58063000Y-30607500D01*
G75*
G02*
X57863000Y-30407500I0J200000D01*
G01*
G37*
G36*
G01*
X54570500Y-26778500D02*
X55713500Y-26778500D01*
G75*
G02*
X55913500Y-26978500I0J-200000D01*
G01*
X55913500Y-27613500D01*
G75*
G02*
X55713500Y-27813500I-200000J0D01*
G01*
X54570500Y-27813500D01*
G75*
G02*
X54370500Y-27613500I0J200000D01*
G01*
X54370500Y-26978500D01*
G75*
G02*
X54570500Y-26778500I200000J0D01*
G01*
G37*
G36*
G01*
X54570500Y-25254500D02*
X55713500Y-25254500D01*
G75*
G02*
X55913500Y-25454500I0J-200000D01*
G01*
X55913500Y-26089500D01*
G75*
G02*
X55713500Y-26289500I-200000J0D01*
G01*
X54570500Y-26289500D01*
G75*
G02*
X54370500Y-26089500I0J200000D01*
G01*
X54370500Y-25454500D01*
G75*
G02*
X54570500Y-25254500I200000J0D01*
G01*
G37*
G36*
G01*
X50731900Y-29264500D02*
X50731900Y-30407500D01*
G75*
G02*
X50531900Y-30607500I-200000J0D01*
G01*
X49896900Y-30607500D01*
G75*
G02*
X49696900Y-30407500I0J200000D01*
G01*
X49696900Y-29264500D01*
G75*
G02*
X49896900Y-29064500I200000J0D01*
G01*
X50531900Y-29064500D01*
G75*
G02*
X50731900Y-29264500I0J-200000D01*
G01*
G37*
G36*
G01*
X52255900Y-29264500D02*
X52255900Y-30407500D01*
G75*
G02*
X52055900Y-30607500I-200000J0D01*
G01*
X51420900Y-30607500D01*
G75*
G02*
X51220900Y-30407500I0J200000D01*
G01*
X51220900Y-29264500D01*
G75*
G02*
X51420900Y-29064500I200000J0D01*
G01*
X52055900Y-29064500D01*
G75*
G02*
X52255900Y-29264500I0J-200000D01*
G01*
G37*
D10*
X59642000Y-25336000D03*
X55142000Y-29836000D03*
D11*
X85378000Y-1134000D03*
X87918000Y-1134000D03*
G36*
G01*
X89608000Y-84000D02*
X91308000Y-84000D01*
G75*
G02*
X91508000Y-284000I0J-200000D01*
G01*
X91508000Y-1984000D01*
G75*
G02*
X91308000Y-2184000I-200000J0D01*
G01*
X89608000Y-2184000D01*
G75*
G02*
X89408000Y-1984000I0J200000D01*
G01*
X89408000Y-284000D01*
G75*
G02*
X89608000Y-84000I200000J0D01*
G01*
G37*
X57428000Y-1134000D03*
X54888000Y-1134000D03*
X52348000Y-1134000D03*
X49808000Y-1134000D03*
X47268000Y-1134000D03*
X44728000Y-1134000D03*
X42188000Y-1134000D03*
X39648000Y-1134000D03*
X37108000Y-1134000D03*
X34568000Y-1134000D03*
X32028000Y-1134000D03*
X29488000Y-1134000D03*
X26948000Y-1134000D03*
X24408000Y-1134000D03*
X21868000Y-1134000D03*
X19328000Y-1134000D03*
X16788000Y-1134000D03*
X14248000Y-1134000D03*
X11708000Y-1134000D03*
G36*
G01*
X10018000Y-2184000D02*
X8318000Y-2184000D01*
G75*
G02*
X8118000Y-1984000I0J200000D01*
G01*
X8118000Y-284000D01*
G75*
G02*
X8318000Y-84000I200000J0D01*
G01*
X10018000Y-84000D01*
G75*
G02*
X10218000Y-284000I0J-200000D01*
G01*
X10218000Y-1984000D01*
G75*
G02*
X10018000Y-2184000I-200000J0D01*
G01*
G37*
D10*
X35465500Y-39098500D03*
X39965500Y-34598500D03*
X28717500Y-35479000D03*
X24217500Y-30979000D03*
G36*
G01*
X63000000Y-47600000D02*
X63000000Y-42400000D01*
G75*
G02*
X63200000Y-42200000I200000J0D01*
G01*
X64800000Y-42200000D01*
G75*
G02*
X65000000Y-42400000I0J-200000D01*
G01*
X65000000Y-47600000D01*
G75*
G02*
X64800000Y-47800000I-200000J0D01*
G01*
X63200000Y-47800000D01*
G75*
G02*
X63000000Y-47600000I0J200000D01*
G01*
G37*
G36*
G01*
X57800000Y-47600000D02*
X57800000Y-42400000D01*
G75*
G02*
X58000000Y-42200000I200000J0D01*
G01*
X62400000Y-42200000D01*
G75*
G02*
X62600000Y-42400000I0J-200000D01*
G01*
X62600000Y-47600000D01*
G75*
G02*
X62400000Y-47800000I-200000J0D01*
G01*
X58000000Y-47800000D01*
G75*
G02*
X57800000Y-47600000I0J200000D01*
G01*
G37*
G36*
G01*
X65400000Y-47600000D02*
X65400000Y-42400000D01*
G75*
G02*
X65600000Y-42200000I200000J0D01*
G01*
X70000000Y-42200000D01*
G75*
G02*
X70200000Y-42400000I0J-200000D01*
G01*
X70200000Y-47600000D01*
G75*
G02*
X70000000Y-47800000I-200000J0D01*
G01*
X65600000Y-47800000D01*
G75*
G02*
X65400000Y-47600000I0J200000D01*
G01*
G37*
G36*
G01*
X31000000Y-47600000D02*
X31000000Y-42400000D01*
G75*
G02*
X31200000Y-42200000I200000J0D01*
G01*
X32800000Y-42200000D01*
G75*
G02*
X33000000Y-42400000I0J-200000D01*
G01*
X33000000Y-47600000D01*
G75*
G02*
X32800000Y-47800000I-200000J0D01*
G01*
X31200000Y-47800000D01*
G75*
G02*
X31000000Y-47600000I0J200000D01*
G01*
G37*
G36*
G01*
X25800000Y-47600000D02*
X25800000Y-42400000D01*
G75*
G02*
X26000000Y-42200000I200000J0D01*
G01*
X30400000Y-42200000D01*
G75*
G02*
X30600000Y-42400000I0J-200000D01*
G01*
X30600000Y-47600000D01*
G75*
G02*
X30400000Y-47800000I-200000J0D01*
G01*
X26000000Y-47800000D01*
G75*
G02*
X25800000Y-47600000I0J200000D01*
G01*
G37*
G36*
G01*
X33400000Y-47600000D02*
X33400000Y-42400000D01*
G75*
G02*
X33600000Y-42200000I200000J0D01*
G01*
X38000000Y-42200000D01*
G75*
G02*
X38200000Y-42400000I0J-200000D01*
G01*
X38200000Y-47600000D01*
G75*
G02*
X38000000Y-47800000I-200000J0D01*
G01*
X33600000Y-47800000D01*
G75*
G02*
X33400000Y-47600000I0J200000D01*
G01*
G37*
X77930000Y-25336000D03*
X73430000Y-29836000D03*
X68786000Y-25336000D03*
X64286000Y-29836000D03*
G36*
G01*
X31028000Y-5258000D02*
X31028000Y-58000D01*
G75*
G02*
X31228000Y142000I200000J0D01*
G01*
X32828000Y142000D01*
G75*
G02*
X33028000Y-58000I0J-200000D01*
G01*
X33028000Y-5258000D01*
G75*
G02*
X32828000Y-5458000I-200000J0D01*
G01*
X31228000Y-5458000D01*
G75*
G02*
X31028000Y-5258000I0J200000D01*
G01*
G37*
G36*
G01*
X25828000Y-5258000D02*
X25828000Y-58000D01*
G75*
G02*
X26028000Y142000I200000J0D01*
G01*
X30428000Y142000D01*
G75*
G02*
X30628000Y-58000I0J-200000D01*
G01*
X30628000Y-5258000D01*
G75*
G02*
X30428000Y-5458000I-200000J0D01*
G01*
X26028000Y-5458000D01*
G75*
G02*
X25828000Y-5258000I0J200000D01*
G01*
G37*
G36*
G01*
X33428000Y-5258000D02*
X33428000Y-58000D01*
G75*
G02*
X33628000Y142000I200000J0D01*
G01*
X38028000Y142000D01*
G75*
G02*
X38228000Y-58000I0J-200000D01*
G01*
X38228000Y-5258000D01*
G75*
G02*
X38028000Y-5458000I-200000J0D01*
G01*
X33628000Y-5458000D01*
G75*
G02*
X33428000Y-5258000I0J200000D01*
G01*
G37*
G36*
G01*
X20868000Y-5258000D02*
X20868000Y-58000D01*
G75*
G02*
X21068000Y142000I200000J0D01*
G01*
X22668000Y142000D01*
G75*
G02*
X22868000Y-58000I0J-200000D01*
G01*
X22868000Y-5258000D01*
G75*
G02*
X22668000Y-5458000I-200000J0D01*
G01*
X21068000Y-5458000D01*
G75*
G02*
X20868000Y-5258000I0J200000D01*
G01*
G37*
G36*
G01*
X15668000Y-5258000D02*
X15668000Y-58000D01*
G75*
G02*
X15868000Y142000I200000J0D01*
G01*
X20268000Y142000D01*
G75*
G02*
X20468000Y-58000I0J-200000D01*
G01*
X20468000Y-5258000D01*
G75*
G02*
X20268000Y-5458000I-200000J0D01*
G01*
X15868000Y-5458000D01*
G75*
G02*
X15668000Y-5258000I0J200000D01*
G01*
G37*
G36*
G01*
X23268000Y-5258000D02*
X23268000Y-58000D01*
G75*
G02*
X23468000Y142000I200000J0D01*
G01*
X27868000Y142000D01*
G75*
G02*
X28068000Y-58000I0J-200000D01*
G01*
X28068000Y-5258000D01*
G75*
G02*
X27868000Y-5458000I-200000J0D01*
G01*
X23468000Y-5458000D01*
G75*
G02*
X23268000Y-5258000I0J200000D01*
G01*
G37*
D12*
G36*
X37027657Y-35921518D02*
G01*
X37016276Y-35959037D01*
X36997794Y-35993614D01*
X36972921Y-36023921D01*
X36942614Y-36048794D01*
X36908037Y-36067276D01*
X36870518Y-36078657D01*
X36831500Y-36082500D01*
X35098500Y-36082500D01*
X35059482Y-36078657D01*
X35021963Y-36067276D01*
X34987386Y-36048794D01*
X34957079Y-36023921D01*
X34932206Y-35993614D01*
X34913724Y-35959037D01*
X34902343Y-35921518D01*
X34898500Y-35882500D01*
X34898500Y-32757500D01*
X34902343Y-32718482D01*
X34913724Y-32680963D01*
X34932206Y-32646386D01*
X34957079Y-32616079D01*
X34987386Y-32591206D01*
X35021963Y-32572724D01*
X35059482Y-32561343D01*
X35098500Y-32557500D01*
X35315000Y-32557500D01*
X35315000Y-31282500D01*
X35318843Y-31243482D01*
X35330224Y-31205963D01*
X35348706Y-31171386D01*
X35373579Y-31141079D01*
X35403886Y-31116206D01*
X35438463Y-31097724D01*
X35475982Y-31086343D01*
X35515000Y-31082500D01*
X36415000Y-31082500D01*
X36454018Y-31086343D01*
X36491537Y-31097724D01*
X36526114Y-31116206D01*
X36556421Y-31141079D01*
X36581294Y-31171386D01*
X36599776Y-31205963D01*
X36611157Y-31243482D01*
X36615000Y-31282500D01*
X36615000Y-32557500D01*
X36831500Y-32557500D01*
X36870518Y-32561343D01*
X36908037Y-32572724D01*
X36942614Y-32591206D01*
X36972921Y-32616079D01*
X36997794Y-32646386D01*
X37016276Y-32680963D01*
X37027657Y-32718482D01*
X37031500Y-32757500D01*
X37031500Y-35882500D01*
X37027657Y-35921518D01*
G37*
G36*
G01*
X37015000Y-31082500D02*
X37915000Y-31082500D01*
G75*
G02*
X38115000Y-31282500I0J-200000D01*
G01*
X38115000Y-32582500D01*
G75*
G02*
X37915000Y-32782500I-200000J0D01*
G01*
X37015000Y-32782500D01*
G75*
G02*
X36815000Y-32582500I0J200000D01*
G01*
X36815000Y-31282500D01*
G75*
G02*
X37015000Y-31082500I200000J0D01*
G01*
G37*
G36*
G01*
X34015000Y-31082500D02*
X34915000Y-31082500D01*
G75*
G02*
X35115000Y-31282500I0J-200000D01*
G01*
X35115000Y-32582500D01*
G75*
G02*
X34915000Y-32782500I-200000J0D01*
G01*
X34015000Y-32782500D01*
G75*
G02*
X33815000Y-32582500I0J200000D01*
G01*
X33815000Y-31282500D01*
G75*
G02*
X34015000Y-31082500I200000J0D01*
G01*
G37*
D13*
X12000000Y-44400000D03*
D14*
X12000000Y-39900000D03*
D15*
X16250000Y-47550000D03*
D16*
X7750000Y-47550000D03*
D17*
X12266800Y-8550800D03*
X26821000Y-15129400D03*
X15619600Y-19549000D03*
X47191800Y-37049600D03*
X31875600Y-27550000D03*
X62076200Y-2505600D03*
X79551400Y-29836000D03*
X41172000Y-15637400D03*
X72693400Y-2023000D03*
X91464000Y-25010000D03*
X47344200Y-29836000D03*
X38771700Y-31931500D03*
X47532200Y-9373800D03*
X55888800Y-7011600D03*
X52094000Y-5121800D03*
X71194800Y-8500000D03*
D18*
X2900000Y-49800000D02*
X100000Y-49800000D01*
X100000Y-100000D01*
X2900000Y-100000D01*
X2900000Y-49800000D01*
D12*
G36*
X2900000Y-49800000D02*
G01*
X100000Y-49800000D01*
X100000Y-100000D01*
X2900000Y-100000D01*
X2900000Y-49800000D01*
G37*
D18*
X99900000Y-49800000D02*
X97100000Y-49800000D01*
X97100000Y-100000D01*
X99900000Y-100000D01*
X99900000Y-49800000D01*
D12*
G36*
X99900000Y-49800000D02*
G01*
X97100000Y-49800000D01*
X97100000Y-100000D01*
X99900000Y-100000D01*
X99900000Y-49800000D01*
G37*
G36*
X35116990Y-31110676D02*
G01*
X35119372Y-31134863D01*
X35126372Y-31157938D01*
X35137737Y-31179202D01*
X35153032Y-31197839D01*
X35171669Y-31213134D01*
X35192933Y-31224499D01*
X35216008Y-31231499D01*
X35239999Y-31233862D01*
X35263990Y-31231499D01*
X35287065Y-31224499D01*
X35308329Y-31213134D01*
X35326966Y-31197839D01*
X35342386Y-31179049D01*
X35344258Y-31178345D01*
X35345804Y-31179613D01*
X35345696Y-31181261D01*
X35332081Y-31206732D01*
X35320813Y-31243877D01*
X35317000Y-31282594D01*
X35317000Y-32557500D01*
X35316000Y-32559232D01*
X35315000Y-32559500D01*
X35115000Y-32559500D01*
X35113268Y-32558500D01*
X35113000Y-32557500D01*
X35113000Y-31110872D01*
X35114000Y-31109140D01*
X35116000Y-31109140D01*
X35116990Y-31110676D01*
G37*
G36*
X36816084Y-31109191D02*
G01*
X36817000Y-31110872D01*
X36817000Y-32557500D01*
X36816000Y-32559232D01*
X36815000Y-32559500D01*
X36615000Y-32559500D01*
X36613268Y-32558500D01*
X36613000Y-32557500D01*
X36613000Y-31282594D01*
X36609187Y-31243877D01*
X36597919Y-31206732D01*
X36581408Y-31175843D01*
X36581474Y-31173844D01*
X36583237Y-31172901D01*
X36584835Y-31173789D01*
X36594928Y-31188894D01*
X36611974Y-31205942D01*
X36632021Y-31219337D01*
X36654295Y-31228564D01*
X36677945Y-31233269D01*
X36702051Y-31233269D01*
X36725702Y-31228565D01*
X36747976Y-31219340D01*
X36768023Y-31205945D01*
X36785071Y-31188899D01*
X36798466Y-31168852D01*
X36807693Y-31146578D01*
X36812407Y-31122882D01*
X36813002Y-31110774D01*
X36814086Y-31109093D01*
X36816084Y-31109191D01*
G37*
G36*
X38116990Y-31607500D02*
G01*
X38119372Y-31631687D01*
X38126372Y-31654762D01*
X38137737Y-31676026D01*
X38153032Y-31694663D01*
X38171669Y-31709958D01*
X38192933Y-31721323D01*
X38216008Y-31728323D01*
X38239999Y-31730686D01*
X38263990Y-31728323D01*
X38287065Y-31721323D01*
X38308329Y-31709958D01*
X38326966Y-31694663D01*
X38338488Y-31680622D01*
X38340360Y-31679918D01*
X38341906Y-31681186D01*
X38341697Y-31683002D01*
X38332512Y-31696749D01*
X38295154Y-31786940D01*
X38276108Y-31882690D01*
X38276108Y-31980310D01*
X38295154Y-32076060D01*
X38332512Y-32166251D01*
X38341698Y-32179999D01*
X38341829Y-32181995D01*
X38340166Y-32183106D01*
X38338489Y-32182379D01*
X38326966Y-32168338D01*
X38308329Y-32153043D01*
X38287066Y-32141677D01*
X38263991Y-32134677D01*
X38240000Y-32132314D01*
X38216009Y-32134677D01*
X38192934Y-32141677D01*
X38171670Y-32153042D01*
X38153033Y-32168337D01*
X38137738Y-32186974D01*
X38126372Y-32208237D01*
X38119372Y-32231312D01*
X38116990Y-32255500D01*
X38115825Y-32257126D01*
X38113835Y-32256930D01*
X38113000Y-32255304D01*
X38113000Y-31607696D01*
X38114000Y-31605964D01*
X38116000Y-31605964D01*
X38116990Y-31607500D01*
G37*
M02*
