G04 #@! TF.GenerationSoftware,KiCad,Pcbnew,5.1.10-88a1d61d58~88~ubuntu20.04.1*
G04 #@! TF.CreationDate,2021-06-28T19:55:26+01:00*
G04 #@! TF.ProjectId,hl2_6xvtr,686c325f-3678-4767-9472-2e6b69636164,1*
G04 #@! TF.SameCoordinates,PX3dfd240PY3473bc0*
G04 #@! TF.FileFunction,Soldermask,Top*
G04 #@! TF.FilePolarity,Negative*
%FSLAX46Y46*%
G04 Gerber Fmt 4.6, Leading zero omitted, Abs format (unit mm)*
G04 Created by KiCad (PCBNEW 5.1.10-88a1d61d58~88~ubuntu20.04.1) date 2021-06-28 19:55:26*
%MOMM*%
%LPD*%
G01*
G04 APERTURE LIST*
%ADD10C,2.400000*%
%ADD11O,2.100000X2.100000*%
%ADD12C,0.100000*%
%ADD13C,4.600000*%
%ADD14C,3.900000*%
%ADD15C,2.880000*%
%ADD16C,2.800000*%
%ADD17C,1.000000*%
%ADD18C,0.200000*%
G04 APERTURE END LIST*
G36*
G01*
X77314400Y-16372300D02*
X77314400Y-17747300D01*
G75*
G02*
X77001900Y-18059800I-312500J0D01*
G01*
X74226900Y-18059800D01*
G75*
G02*
X73914400Y-17747300I0J312500D01*
G01*
X73914400Y-16372300D01*
G75*
G02*
X74226900Y-16059800I312500J0D01*
G01*
X77001900Y-16059800D01*
G75*
G02*
X77314400Y-16372300I0J-312500D01*
G01*
G37*
G36*
G01*
X81714400Y-16372300D02*
X81714400Y-17747300D01*
G75*
G02*
X81401900Y-18059800I-312500J0D01*
G01*
X78626900Y-18059800D01*
G75*
G02*
X78314400Y-17747300I0J312500D01*
G01*
X78314400Y-16372300D01*
G75*
G02*
X78626900Y-16059800I312500J0D01*
G01*
X81401900Y-16059800D01*
G75*
G02*
X81714400Y-16372300I0J-312500D01*
G01*
G37*
G36*
G01*
X78924400Y-3062700D02*
X78924400Y-4437700D01*
G75*
G02*
X78611900Y-4750200I-312500J0D01*
G01*
X75836900Y-4750200D01*
G75*
G02*
X75524400Y-4437700I0J312500D01*
G01*
X75524400Y-3062700D01*
G75*
G02*
X75836900Y-2750200I312500J0D01*
G01*
X78611900Y-2750200D01*
G75*
G02*
X78924400Y-3062700I0J-312500D01*
G01*
G37*
G36*
G01*
X83324400Y-3062700D02*
X83324400Y-4437700D01*
G75*
G02*
X83011900Y-4750200I-312500J0D01*
G01*
X80236900Y-4750200D01*
G75*
G02*
X79924400Y-4437700I0J312500D01*
G01*
X79924400Y-3062700D01*
G75*
G02*
X80236900Y-2750200I312500J0D01*
G01*
X83011900Y-2750200D01*
G75*
G02*
X83324400Y-3062700I0J-312500D01*
G01*
G37*
G36*
G01*
X42140400Y-22025500D02*
X42140400Y-20374500D01*
G75*
G02*
X42340400Y-20174500I200000J0D01*
G01*
X44880400Y-20174500D01*
G75*
G02*
X45080400Y-20374500I0J-200000D01*
G01*
X45080400Y-22025500D01*
G75*
G02*
X44880400Y-22225500I-200000J0D01*
G01*
X42340400Y-22225500D01*
G75*
G02*
X42140400Y-22025500I0J200000D01*
G01*
G37*
G36*
G01*
X42140400Y-24565500D02*
X42140400Y-22914500D01*
G75*
G02*
X42340400Y-22714500I200000J0D01*
G01*
X44880400Y-22714500D01*
G75*
G02*
X45080400Y-22914500I0J-200000D01*
G01*
X45080400Y-24565500D01*
G75*
G02*
X44880400Y-24765500I-200000J0D01*
G01*
X42340400Y-24765500D01*
G75*
G02*
X42140400Y-24565500I0J200000D01*
G01*
G37*
G36*
G01*
X42140400Y-27105500D02*
X42140400Y-25454500D01*
G75*
G02*
X42340400Y-25254500I200000J0D01*
G01*
X44880400Y-25254500D01*
G75*
G02*
X45080400Y-25454500I0J-200000D01*
G01*
X45080400Y-27105500D01*
G75*
G02*
X44880400Y-27305500I-200000J0D01*
G01*
X42340400Y-27305500D01*
G75*
G02*
X42140400Y-27105500I0J200000D01*
G01*
G37*
G36*
G01*
X47220400Y-22025500D02*
X47220400Y-20374500D01*
G75*
G02*
X47420400Y-20174500I200000J0D01*
G01*
X49960400Y-20174500D01*
G75*
G02*
X50160400Y-20374500I0J-200000D01*
G01*
X50160400Y-22025500D01*
G75*
G02*
X49960400Y-22225500I-200000J0D01*
G01*
X47420400Y-22225500D01*
G75*
G02*
X47220400Y-22025500I0J200000D01*
G01*
G37*
G36*
G01*
X47220400Y-24565500D02*
X47220400Y-22914500D01*
G75*
G02*
X47420400Y-22714500I200000J0D01*
G01*
X49960400Y-22714500D01*
G75*
G02*
X50160400Y-22914500I0J-200000D01*
G01*
X50160400Y-24565500D01*
G75*
G02*
X49960400Y-24765500I-200000J0D01*
G01*
X47420400Y-24765500D01*
G75*
G02*
X47220400Y-24565500I0J200000D01*
G01*
G37*
G36*
G01*
X47220400Y-27105500D02*
X47220400Y-25454500D01*
G75*
G02*
X47420400Y-25254500I200000J0D01*
G01*
X49960400Y-25254500D01*
G75*
G02*
X50160400Y-25454500I0J-200000D01*
G01*
X50160400Y-27105500D01*
G75*
G02*
X49960400Y-27305500I-200000J0D01*
G01*
X47420400Y-27305500D01*
G75*
G02*
X47220400Y-27105500I0J200000D01*
G01*
G37*
G36*
G01*
X32393100Y-29416900D02*
X32393100Y-30559900D01*
G75*
G02*
X32193100Y-30759900I-200000J0D01*
G01*
X31558100Y-30759900D01*
G75*
G02*
X31358100Y-30559900I0J200000D01*
G01*
X31358100Y-29416900D01*
G75*
G02*
X31558100Y-29216900I200000J0D01*
G01*
X32193100Y-29216900D01*
G75*
G02*
X32393100Y-29416900I0J-200000D01*
G01*
G37*
G36*
G01*
X33917100Y-29416900D02*
X33917100Y-30559900D01*
G75*
G02*
X33717100Y-30759900I-200000J0D01*
G01*
X33082100Y-30759900D01*
G75*
G02*
X32882100Y-30559900I0J200000D01*
G01*
X32882100Y-29416900D01*
G75*
G02*
X33082100Y-29216900I200000J0D01*
G01*
X33717100Y-29216900D01*
G75*
G02*
X33917100Y-29416900I0J-200000D01*
G01*
G37*
G36*
G01*
X90457500Y-28312000D02*
X90457500Y-29455000D01*
G75*
G02*
X90257500Y-29655000I-200000J0D01*
G01*
X89622500Y-29655000D01*
G75*
G02*
X89422500Y-29455000I0J200000D01*
G01*
X89422500Y-28312000D01*
G75*
G02*
X89622500Y-28112000I200000J0D01*
G01*
X90257500Y-28112000D01*
G75*
G02*
X90457500Y-28312000I0J-200000D01*
G01*
G37*
G36*
G01*
X91981500Y-28312000D02*
X91981500Y-29455000D01*
G75*
G02*
X91781500Y-29655000I-200000J0D01*
G01*
X91146500Y-29655000D01*
G75*
G02*
X90946500Y-29455000I0J200000D01*
G01*
X90946500Y-28312000D01*
G75*
G02*
X91146500Y-28112000I200000J0D01*
G01*
X91781500Y-28112000D01*
G75*
G02*
X91981500Y-28312000I0J-200000D01*
G01*
G37*
G36*
G01*
X44258100Y-36532100D02*
X45401100Y-36532100D01*
G75*
G02*
X45601100Y-36732100I0J-200000D01*
G01*
X45601100Y-37367100D01*
G75*
G02*
X45401100Y-37567100I-200000J0D01*
G01*
X44258100Y-37567100D01*
G75*
G02*
X44058100Y-37367100I0J200000D01*
G01*
X44058100Y-36732100D01*
G75*
G02*
X44258100Y-36532100I200000J0D01*
G01*
G37*
G36*
G01*
X44258100Y-35008100D02*
X45401100Y-35008100D01*
G75*
G02*
X45601100Y-35208100I0J-200000D01*
G01*
X45601100Y-35843100D01*
G75*
G02*
X45401100Y-36043100I-200000J0D01*
G01*
X44258100Y-36043100D01*
G75*
G02*
X44058100Y-35843100I0J200000D01*
G01*
X44058100Y-35208100D01*
G75*
G02*
X44258100Y-35008100I200000J0D01*
G01*
G37*
G36*
G01*
X73699900Y-4448700D02*
X73699900Y-3305700D01*
G75*
G02*
X73899900Y-3105700I200000J0D01*
G01*
X74534900Y-3105700D01*
G75*
G02*
X74734900Y-3305700I0J-200000D01*
G01*
X74734900Y-4448700D01*
G75*
G02*
X74534900Y-4648700I-200000J0D01*
G01*
X73899900Y-4648700D01*
G75*
G02*
X73699900Y-4448700I0J200000D01*
G01*
G37*
G36*
G01*
X72175900Y-4448700D02*
X72175900Y-3305700D01*
G75*
G02*
X72375900Y-3105700I200000J0D01*
G01*
X73010900Y-3105700D01*
G75*
G02*
X73210900Y-3305700I0J-200000D01*
G01*
X73210900Y-4448700D01*
G75*
G02*
X73010900Y-4648700I-200000J0D01*
G01*
X72375900Y-4648700D01*
G75*
G02*
X72175900Y-4448700I0J200000D01*
G01*
G37*
G36*
G01*
X64428900Y-2188100D02*
X64428900Y-1045100D01*
G75*
G02*
X64628900Y-845100I200000J0D01*
G01*
X65263900Y-845100D01*
G75*
G02*
X65463900Y-1045100I0J-200000D01*
G01*
X65463900Y-2188100D01*
G75*
G02*
X65263900Y-2388100I-200000J0D01*
G01*
X64628900Y-2388100D01*
G75*
G02*
X64428900Y-2188100I0J200000D01*
G01*
G37*
G36*
G01*
X62904900Y-2188100D02*
X62904900Y-1045100D01*
G75*
G02*
X63104900Y-845100I200000J0D01*
G01*
X63739900Y-845100D01*
G75*
G02*
X63939900Y-1045100I0J-200000D01*
G01*
X63939900Y-2188100D01*
G75*
G02*
X63739900Y-2388100I-200000J0D01*
G01*
X63104900Y-2388100D01*
G75*
G02*
X62904900Y-2188100I0J200000D01*
G01*
G37*
G36*
G01*
X34653700Y-22685900D02*
X34653700Y-23828900D01*
G75*
G02*
X34453700Y-24028900I-200000J0D01*
G01*
X33818700Y-24028900D01*
G75*
G02*
X33618700Y-23828900I0J200000D01*
G01*
X33618700Y-22685900D01*
G75*
G02*
X33818700Y-22485900I200000J0D01*
G01*
X34453700Y-22485900D01*
G75*
G02*
X34653700Y-22685900I0J-200000D01*
G01*
G37*
G36*
G01*
X36177700Y-22685900D02*
X36177700Y-23828900D01*
G75*
G02*
X35977700Y-24028900I-200000J0D01*
G01*
X35342700Y-24028900D01*
G75*
G02*
X35142700Y-23828900I0J200000D01*
G01*
X35142700Y-22685900D01*
G75*
G02*
X35342700Y-22485900I200000J0D01*
G01*
X35977700Y-22485900D01*
G75*
G02*
X36177700Y-22685900I0J-200000D01*
G01*
G37*
G36*
G01*
X59777500Y-3308900D02*
X60920500Y-3308900D01*
G75*
G02*
X61120500Y-3508900I0J-200000D01*
G01*
X61120500Y-4143900D01*
G75*
G02*
X60920500Y-4343900I-200000J0D01*
G01*
X59777500Y-4343900D01*
G75*
G02*
X59577500Y-4143900I0J200000D01*
G01*
X59577500Y-3508900D01*
G75*
G02*
X59777500Y-3308900I200000J0D01*
G01*
G37*
G36*
G01*
X59777500Y-1784900D02*
X60920500Y-1784900D01*
G75*
G02*
X61120500Y-1984900I0J-200000D01*
G01*
X61120500Y-2619900D01*
G75*
G02*
X60920500Y-2819900I-200000J0D01*
G01*
X59777500Y-2819900D01*
G75*
G02*
X59577500Y-2619900I0J200000D01*
G01*
X59577500Y-1984900D01*
G75*
G02*
X59777500Y-1784900I200000J0D01*
G01*
G37*
G36*
G01*
X36584100Y-15065900D02*
X36584100Y-16208900D01*
G75*
G02*
X36384100Y-16408900I-200000J0D01*
G01*
X35749100Y-16408900D01*
G75*
G02*
X35549100Y-16208900I0J200000D01*
G01*
X35549100Y-15065900D01*
G75*
G02*
X35749100Y-14865900I200000J0D01*
G01*
X36384100Y-14865900D01*
G75*
G02*
X36584100Y-15065900I0J-200000D01*
G01*
G37*
G36*
G01*
X38108100Y-15065900D02*
X38108100Y-16208900D01*
G75*
G02*
X37908100Y-16408900I-200000J0D01*
G01*
X37273100Y-16408900D01*
G75*
G02*
X37073100Y-16208900I0J200000D01*
G01*
X37073100Y-15065900D01*
G75*
G02*
X37273100Y-14865900I200000J0D01*
G01*
X37908100Y-14865900D01*
G75*
G02*
X38108100Y-15065900I0J-200000D01*
G01*
G37*
G36*
G01*
X29116500Y-13770500D02*
X29116500Y-14913500D01*
G75*
G02*
X28916500Y-15113500I-200000J0D01*
G01*
X28281500Y-15113500D01*
G75*
G02*
X28081500Y-14913500I0J200000D01*
G01*
X28081500Y-13770500D01*
G75*
G02*
X28281500Y-13570500I200000J0D01*
G01*
X28916500Y-13570500D01*
G75*
G02*
X29116500Y-13770500I0J-200000D01*
G01*
G37*
G36*
G01*
X30640500Y-13770500D02*
X30640500Y-14913500D01*
G75*
G02*
X30440500Y-15113500I-200000J0D01*
G01*
X29805500Y-15113500D01*
G75*
G02*
X29605500Y-14913500I0J200000D01*
G01*
X29605500Y-13770500D01*
G75*
G02*
X29805500Y-13570500I200000J0D01*
G01*
X30440500Y-13570500D01*
G75*
G02*
X30640500Y-13770500I0J-200000D01*
G01*
G37*
G36*
G01*
X54186300Y-4550300D02*
X54186300Y-5693300D01*
G75*
G02*
X53986300Y-5893300I-200000J0D01*
G01*
X53351300Y-5893300D01*
G75*
G02*
X53151300Y-5693300I0J200000D01*
G01*
X53151300Y-4550300D01*
G75*
G02*
X53351300Y-4350300I200000J0D01*
G01*
X53986300Y-4350300D01*
G75*
G02*
X54186300Y-4550300I0J-200000D01*
G01*
G37*
G36*
G01*
X55710300Y-4550300D02*
X55710300Y-5693300D01*
G75*
G02*
X55510300Y-5893300I-200000J0D01*
G01*
X54875300Y-5893300D01*
G75*
G02*
X54675300Y-5693300I0J200000D01*
G01*
X54675300Y-4550300D01*
G75*
G02*
X54875300Y-4350300I200000J0D01*
G01*
X55510300Y-4350300D01*
G75*
G02*
X55710300Y-4550300I0J-200000D01*
G01*
G37*
G36*
G01*
X48318900Y-11103500D02*
X48318900Y-12246500D01*
G75*
G02*
X48118900Y-12446500I-200000J0D01*
G01*
X47483900Y-12446500D01*
G75*
G02*
X47283900Y-12246500I0J200000D01*
G01*
X47283900Y-11103500D01*
G75*
G02*
X47483900Y-10903500I200000J0D01*
G01*
X48118900Y-10903500D01*
G75*
G02*
X48318900Y-11103500I0J-200000D01*
G01*
G37*
G36*
G01*
X49842900Y-11103500D02*
X49842900Y-12246500D01*
G75*
G02*
X49642900Y-12446500I-200000J0D01*
G01*
X49007900Y-12446500D01*
G75*
G02*
X48807900Y-12246500I0J200000D01*
G01*
X48807900Y-11103500D01*
G75*
G02*
X49007900Y-10903500I200000J0D01*
G01*
X49642900Y-10903500D01*
G75*
G02*
X49842900Y-11103500I0J-200000D01*
G01*
G37*
G36*
G01*
X46464700Y-4550300D02*
X46464700Y-5693300D01*
G75*
G02*
X46264700Y-5893300I-200000J0D01*
G01*
X45629700Y-5893300D01*
G75*
G02*
X45429700Y-5693300I0J200000D01*
G01*
X45429700Y-4550300D01*
G75*
G02*
X45629700Y-4350300I200000J0D01*
G01*
X46264700Y-4350300D01*
G75*
G02*
X46464700Y-4550300I0J-200000D01*
G01*
G37*
G36*
G01*
X47988700Y-4550300D02*
X47988700Y-5693300D01*
G75*
G02*
X47788700Y-5893300I-200000J0D01*
G01*
X47153700Y-5893300D01*
G75*
G02*
X46953700Y-5693300I0J200000D01*
G01*
X46953700Y-4550300D01*
G75*
G02*
X47153700Y-4350300I200000J0D01*
G01*
X47788700Y-4350300D01*
G75*
G02*
X47988700Y-4550300I0J-200000D01*
G01*
G37*
G36*
G01*
X49868300Y-4550300D02*
X49868300Y-5693300D01*
G75*
G02*
X49668300Y-5893300I-200000J0D01*
G01*
X49033300Y-5893300D01*
G75*
G02*
X48833300Y-5693300I0J200000D01*
G01*
X48833300Y-4550300D01*
G75*
G02*
X49033300Y-4350300I200000J0D01*
G01*
X49668300Y-4350300D01*
G75*
G02*
X49868300Y-4550300I0J-200000D01*
G01*
G37*
G36*
G01*
X51392300Y-4550300D02*
X51392300Y-5693300D01*
G75*
G02*
X51192300Y-5893300I-200000J0D01*
G01*
X50557300Y-5893300D01*
G75*
G02*
X50357300Y-5693300I0J200000D01*
G01*
X50357300Y-4550300D01*
G75*
G02*
X50557300Y-4350300I200000J0D01*
G01*
X51192300Y-4350300D01*
G75*
G02*
X51392300Y-4550300I0J-200000D01*
G01*
G37*
G36*
G01*
X17940500Y-18977500D02*
X17940500Y-20120500D01*
G75*
G02*
X17740500Y-20320500I-200000J0D01*
G01*
X17105500Y-20320500D01*
G75*
G02*
X16905500Y-20120500I0J200000D01*
G01*
X16905500Y-18977500D01*
G75*
G02*
X17105500Y-18777500I200000J0D01*
G01*
X17740500Y-18777500D01*
G75*
G02*
X17940500Y-18977500I0J-200000D01*
G01*
G37*
G36*
G01*
X19464500Y-18977500D02*
X19464500Y-20120500D01*
G75*
G02*
X19264500Y-20320500I-200000J0D01*
G01*
X18629500Y-20320500D01*
G75*
G02*
X18429500Y-20120500I0J200000D01*
G01*
X18429500Y-18977500D01*
G75*
G02*
X18629500Y-18777500I200000J0D01*
G01*
X19264500Y-18777500D01*
G75*
G02*
X19464500Y-18977500I0J-200000D01*
G01*
G37*
G36*
G01*
X29192700Y-8182500D02*
X29192700Y-9325500D01*
G75*
G02*
X28992700Y-9525500I-200000J0D01*
G01*
X28357700Y-9525500D01*
G75*
G02*
X28157700Y-9325500I0J200000D01*
G01*
X28157700Y-8182500D01*
G75*
G02*
X28357700Y-7982500I200000J0D01*
G01*
X28992700Y-7982500D01*
G75*
G02*
X29192700Y-8182500I0J-200000D01*
G01*
G37*
G36*
G01*
X30716700Y-8182500D02*
X30716700Y-9325500D01*
G75*
G02*
X30516700Y-9525500I-200000J0D01*
G01*
X29881700Y-9525500D01*
G75*
G02*
X29681700Y-9325500I0J200000D01*
G01*
X29681700Y-8182500D01*
G75*
G02*
X29881700Y-7982500I200000J0D01*
G01*
X30516700Y-7982500D01*
G75*
G02*
X30716700Y-8182500I0J-200000D01*
G01*
G37*
G36*
G01*
X32726500Y-7747500D02*
X31583500Y-7747500D01*
G75*
G02*
X31383500Y-7547500I0J200000D01*
G01*
X31383500Y-6912500D01*
G75*
G02*
X31583500Y-6712500I200000J0D01*
G01*
X32726500Y-6712500D01*
G75*
G02*
X32926500Y-6912500I0J-200000D01*
G01*
X32926500Y-7547500D01*
G75*
G02*
X32726500Y-7747500I-200000J0D01*
G01*
G37*
G36*
G01*
X32726500Y-9271500D02*
X31583500Y-9271500D01*
G75*
G02*
X31383500Y-9071500I0J200000D01*
G01*
X31383500Y-8436500D01*
G75*
G02*
X31583500Y-8236500I200000J0D01*
G01*
X32726500Y-8236500D01*
G75*
G02*
X32926500Y-8436500I0J-200000D01*
G01*
X32926500Y-9071500D01*
G75*
G02*
X32726500Y-9271500I-200000J0D01*
G01*
G37*
G36*
G01*
X35142700Y-7801500D02*
X35142700Y-6658500D01*
G75*
G02*
X35342700Y-6458500I200000J0D01*
G01*
X35977700Y-6458500D01*
G75*
G02*
X36177700Y-6658500I0J-200000D01*
G01*
X36177700Y-7801500D01*
G75*
G02*
X35977700Y-8001500I-200000J0D01*
G01*
X35342700Y-8001500D01*
G75*
G02*
X35142700Y-7801500I0J200000D01*
G01*
G37*
G36*
G01*
X33618700Y-7801500D02*
X33618700Y-6658500D01*
G75*
G02*
X33818700Y-6458500I200000J0D01*
G01*
X34453700Y-6458500D01*
G75*
G02*
X34653700Y-6658500I0J-200000D01*
G01*
X34653700Y-7801500D01*
G75*
G02*
X34453700Y-8001500I-200000J0D01*
G01*
X33818700Y-8001500D01*
G75*
G02*
X33618700Y-7801500I0J200000D01*
G01*
G37*
G36*
G01*
X58380500Y-9728700D02*
X57237500Y-9728700D01*
G75*
G02*
X57037500Y-9528700I0J200000D01*
G01*
X57037500Y-8893700D01*
G75*
G02*
X57237500Y-8693700I200000J0D01*
G01*
X58380500Y-8693700D01*
G75*
G02*
X58580500Y-8893700I0J-200000D01*
G01*
X58580500Y-9528700D01*
G75*
G02*
X58380500Y-9728700I-200000J0D01*
G01*
G37*
G36*
G01*
X58380500Y-11252700D02*
X57237500Y-11252700D01*
G75*
G02*
X57037500Y-11052700I0J200000D01*
G01*
X57037500Y-10417700D01*
G75*
G02*
X57237500Y-10217700I200000J0D01*
G01*
X58380500Y-10217700D01*
G75*
G02*
X58580500Y-10417700I0J-200000D01*
G01*
X58580500Y-11052700D01*
G75*
G02*
X58380500Y-11252700I-200000J0D01*
G01*
G37*
G36*
G01*
X60339500Y-13465700D02*
X60339500Y-12322700D01*
G75*
G02*
X60539500Y-12122700I200000J0D01*
G01*
X61174500Y-12122700D01*
G75*
G02*
X61374500Y-12322700I0J-200000D01*
G01*
X61374500Y-13465700D01*
G75*
G02*
X61174500Y-13665700I-200000J0D01*
G01*
X60539500Y-13665700D01*
G75*
G02*
X60339500Y-13465700I0J200000D01*
G01*
G37*
G36*
G01*
X58815500Y-13465700D02*
X58815500Y-12322700D01*
G75*
G02*
X59015500Y-12122700I200000J0D01*
G01*
X59650500Y-12122700D01*
G75*
G02*
X59850500Y-12322700I0J-200000D01*
G01*
X59850500Y-13465700D01*
G75*
G02*
X59650500Y-13665700I-200000J0D01*
G01*
X59015500Y-13665700D01*
G75*
G02*
X58815500Y-13465700I0J200000D01*
G01*
G37*
G36*
G01*
X63587500Y-9728700D02*
X62444500Y-9728700D01*
G75*
G02*
X62244500Y-9528700I0J200000D01*
G01*
X62244500Y-8893700D01*
G75*
G02*
X62444500Y-8693700I200000J0D01*
G01*
X63587500Y-8693700D01*
G75*
G02*
X63787500Y-8893700I0J-200000D01*
G01*
X63787500Y-9528700D01*
G75*
G02*
X63587500Y-9728700I-200000J0D01*
G01*
G37*
G36*
G01*
X63587500Y-11252700D02*
X62444500Y-11252700D01*
G75*
G02*
X62244500Y-11052700I0J200000D01*
G01*
X62244500Y-10417700D01*
G75*
G02*
X62444500Y-10217700I200000J0D01*
G01*
X63587500Y-10217700D01*
G75*
G02*
X63787500Y-10417700I0J-200000D01*
G01*
X63787500Y-11052700D01*
G75*
G02*
X63587500Y-11252700I-200000J0D01*
G01*
G37*
G36*
G01*
X63460500Y-39986500D02*
X64603500Y-39986500D01*
G75*
G02*
X64803500Y-40186500I0J-200000D01*
G01*
X64803500Y-40821500D01*
G75*
G02*
X64603500Y-41021500I-200000J0D01*
G01*
X63460500Y-41021500D01*
G75*
G02*
X63260500Y-40821500I0J200000D01*
G01*
X63260500Y-40186500D01*
G75*
G02*
X63460500Y-39986500I200000J0D01*
G01*
G37*
G36*
G01*
X63460500Y-38462500D02*
X64603500Y-38462500D01*
G75*
G02*
X64803500Y-38662500I0J-200000D01*
G01*
X64803500Y-39297500D01*
G75*
G02*
X64603500Y-39497500I-200000J0D01*
G01*
X63460500Y-39497500D01*
G75*
G02*
X63260500Y-39297500I0J200000D01*
G01*
X63260500Y-38662500D01*
G75*
G02*
X63460500Y-38462500I200000J0D01*
G01*
G37*
G36*
G01*
X73747500Y-39878500D02*
X72604500Y-39878500D01*
G75*
G02*
X72404500Y-39678500I0J200000D01*
G01*
X72404500Y-39043500D01*
G75*
G02*
X72604500Y-38843500I200000J0D01*
G01*
X73747500Y-38843500D01*
G75*
G02*
X73947500Y-39043500I0J-200000D01*
G01*
X73947500Y-39678500D01*
G75*
G02*
X73747500Y-39878500I-200000J0D01*
G01*
G37*
G36*
G01*
X73747500Y-41402500D02*
X72604500Y-41402500D01*
G75*
G02*
X72404500Y-41202500I0J200000D01*
G01*
X72404500Y-40567500D01*
G75*
G02*
X72604500Y-40367500I200000J0D01*
G01*
X73747500Y-40367500D01*
G75*
G02*
X73947500Y-40567500I0J-200000D01*
G01*
X73947500Y-41202500D01*
G75*
G02*
X73747500Y-41402500I-200000J0D01*
G01*
G37*
G36*
G01*
X76468500Y-40377000D02*
X76468500Y-39234000D01*
G75*
G02*
X76668500Y-39034000I200000J0D01*
G01*
X77303500Y-39034000D01*
G75*
G02*
X77503500Y-39234000I0J-200000D01*
G01*
X77503500Y-40377000D01*
G75*
G02*
X77303500Y-40577000I-200000J0D01*
G01*
X76668500Y-40577000D01*
G75*
G02*
X76468500Y-40377000I0J200000D01*
G01*
G37*
G36*
G01*
X74944500Y-40377000D02*
X74944500Y-39234000D01*
G75*
G02*
X75144500Y-39034000I200000J0D01*
G01*
X75779500Y-39034000D01*
G75*
G02*
X75979500Y-39234000I0J-200000D01*
G01*
X75979500Y-40377000D01*
G75*
G02*
X75779500Y-40577000I-200000J0D01*
G01*
X75144500Y-40577000D01*
G75*
G02*
X74944500Y-40377000I0J200000D01*
G01*
G37*
G36*
G01*
X82647000Y-39234000D02*
X82647000Y-40377000D01*
G75*
G02*
X82447000Y-40577000I-200000J0D01*
G01*
X81812000Y-40577000D01*
G75*
G02*
X81612000Y-40377000I0J200000D01*
G01*
X81612000Y-39234000D01*
G75*
G02*
X81812000Y-39034000I200000J0D01*
G01*
X82447000Y-39034000D01*
G75*
G02*
X82647000Y-39234000I0J-200000D01*
G01*
G37*
G36*
G01*
X84171000Y-39234000D02*
X84171000Y-40377000D01*
G75*
G02*
X83971000Y-40577000I-200000J0D01*
G01*
X83336000Y-40577000D01*
G75*
G02*
X83136000Y-40377000I0J200000D01*
G01*
X83136000Y-39234000D01*
G75*
G02*
X83336000Y-39034000I200000J0D01*
G01*
X83971000Y-39034000D01*
G75*
G02*
X84171000Y-39234000I0J-200000D01*
G01*
G37*
G36*
G01*
X87146000Y-39878500D02*
X86003000Y-39878500D01*
G75*
G02*
X85803000Y-39678500I0J200000D01*
G01*
X85803000Y-39043500D01*
G75*
G02*
X86003000Y-38843500I200000J0D01*
G01*
X87146000Y-38843500D01*
G75*
G02*
X87346000Y-39043500I0J-200000D01*
G01*
X87346000Y-39678500D01*
G75*
G02*
X87146000Y-39878500I-200000J0D01*
G01*
G37*
G36*
G01*
X87146000Y-41402500D02*
X86003000Y-41402500D01*
G75*
G02*
X85803000Y-41202500I0J200000D01*
G01*
X85803000Y-40567500D01*
G75*
G02*
X86003000Y-40367500I200000J0D01*
G01*
X87146000Y-40367500D01*
G75*
G02*
X87346000Y-40567500I0J-200000D01*
G01*
X87346000Y-41202500D01*
G75*
G02*
X87146000Y-41402500I-200000J0D01*
G01*
G37*
G36*
G01*
X92216500Y-42409000D02*
X92216500Y-41266000D01*
G75*
G02*
X92416500Y-41066000I200000J0D01*
G01*
X93051500Y-41066000D01*
G75*
G02*
X93251500Y-41266000I0J-200000D01*
G01*
X93251500Y-42409000D01*
G75*
G02*
X93051500Y-42609000I-200000J0D01*
G01*
X92416500Y-42609000D01*
G75*
G02*
X92216500Y-42409000I0J200000D01*
G01*
G37*
G36*
G01*
X90692500Y-42409000D02*
X90692500Y-41266000D01*
G75*
G02*
X90892500Y-41066000I200000J0D01*
G01*
X91527500Y-41066000D01*
G75*
G02*
X91727500Y-41266000I0J-200000D01*
G01*
X91727500Y-42409000D01*
G75*
G02*
X91527500Y-42609000I-200000J0D01*
G01*
X90892500Y-42609000D01*
G75*
G02*
X90692500Y-42409000I0J200000D01*
G01*
G37*
G36*
G01*
X32393100Y-31372700D02*
X32393100Y-32515700D01*
G75*
G02*
X32193100Y-32715700I-200000J0D01*
G01*
X31558100Y-32715700D01*
G75*
G02*
X31358100Y-32515700I0J200000D01*
G01*
X31358100Y-31372700D01*
G75*
G02*
X31558100Y-31172700I200000J0D01*
G01*
X32193100Y-31172700D01*
G75*
G02*
X32393100Y-31372700I0J-200000D01*
G01*
G37*
G36*
G01*
X33917100Y-31372700D02*
X33917100Y-32515700D01*
G75*
G02*
X33717100Y-32715700I-200000J0D01*
G01*
X33082100Y-32715700D01*
G75*
G02*
X32882100Y-32515700I0J200000D01*
G01*
X32882100Y-31372700D01*
G75*
G02*
X33082100Y-31172700I200000J0D01*
G01*
X33717100Y-31172700D01*
G75*
G02*
X33917100Y-31372700I0J-200000D01*
G01*
G37*
G36*
G01*
X87146000Y-29401000D02*
X86003000Y-29401000D01*
G75*
G02*
X85803000Y-29201000I0J200000D01*
G01*
X85803000Y-28566000D01*
G75*
G02*
X86003000Y-28366000I200000J0D01*
G01*
X87146000Y-28366000D01*
G75*
G02*
X87346000Y-28566000I0J-200000D01*
G01*
X87346000Y-29201000D01*
G75*
G02*
X87146000Y-29401000I-200000J0D01*
G01*
G37*
G36*
G01*
X87146000Y-30925000D02*
X86003000Y-30925000D01*
G75*
G02*
X85803000Y-30725000I0J200000D01*
G01*
X85803000Y-30090000D01*
G75*
G02*
X86003000Y-29890000I200000J0D01*
G01*
X87146000Y-29890000D01*
G75*
G02*
X87346000Y-30090000I0J-200000D01*
G01*
X87346000Y-30725000D01*
G75*
G02*
X87146000Y-30925000I-200000J0D01*
G01*
G37*
G36*
G01*
X44337500Y-34166700D02*
X44337500Y-33023700D01*
G75*
G02*
X44537500Y-32823700I200000J0D01*
G01*
X45172500Y-32823700D01*
G75*
G02*
X45372500Y-33023700I0J-200000D01*
G01*
X45372500Y-34166700D01*
G75*
G02*
X45172500Y-34366700I-200000J0D01*
G01*
X44537500Y-34366700D01*
G75*
G02*
X44337500Y-34166700I0J200000D01*
G01*
G37*
G36*
G01*
X42813500Y-34166700D02*
X42813500Y-33023700D01*
G75*
G02*
X43013500Y-32823700I200000J0D01*
G01*
X43648500Y-32823700D01*
G75*
G02*
X43848500Y-33023700I0J-200000D01*
G01*
X43848500Y-34166700D01*
G75*
G02*
X43648500Y-34366700I-200000J0D01*
G01*
X43013500Y-34366700D01*
G75*
G02*
X42813500Y-34166700I0J200000D01*
G01*
G37*
G36*
G01*
X90946500Y-31804500D02*
X90946500Y-30661500D01*
G75*
G02*
X91146500Y-30461500I200000J0D01*
G01*
X91781500Y-30461500D01*
G75*
G02*
X91981500Y-30661500I0J-200000D01*
G01*
X91981500Y-31804500D01*
G75*
G02*
X91781500Y-32004500I-200000J0D01*
G01*
X91146500Y-32004500D01*
G75*
G02*
X90946500Y-31804500I0J200000D01*
G01*
G37*
G36*
G01*
X89422500Y-31804500D02*
X89422500Y-30661500D01*
G75*
G02*
X89622500Y-30461500I200000J0D01*
G01*
X90257500Y-30461500D01*
G75*
G02*
X90457500Y-30661500I0J-200000D01*
G01*
X90457500Y-31804500D01*
G75*
G02*
X90257500Y-32004500I-200000J0D01*
G01*
X89622500Y-32004500D01*
G75*
G02*
X89422500Y-31804500I0J200000D01*
G01*
G37*
G36*
G01*
X44258100Y-41637500D02*
X45401100Y-41637500D01*
G75*
G02*
X45601100Y-41837500I0J-200000D01*
G01*
X45601100Y-42472500D01*
G75*
G02*
X45401100Y-42672500I-200000J0D01*
G01*
X44258100Y-42672500D01*
G75*
G02*
X44058100Y-42472500I0J200000D01*
G01*
X44058100Y-41837500D01*
G75*
G02*
X44258100Y-41637500I200000J0D01*
G01*
G37*
G36*
G01*
X44258100Y-40113500D02*
X45401100Y-40113500D01*
G75*
G02*
X45601100Y-40313500I0J-200000D01*
G01*
X45601100Y-40948500D01*
G75*
G02*
X45401100Y-41148500I-200000J0D01*
G01*
X44258100Y-41148500D01*
G75*
G02*
X44058100Y-40948500I0J200000D01*
G01*
X44058100Y-40313500D01*
G75*
G02*
X44258100Y-40113500I200000J0D01*
G01*
G37*
G36*
G01*
X73210900Y-5591700D02*
X73210900Y-6734700D01*
G75*
G02*
X73010900Y-6934700I-200000J0D01*
G01*
X72375900Y-6934700D01*
G75*
G02*
X72175900Y-6734700I0J200000D01*
G01*
X72175900Y-5591700D01*
G75*
G02*
X72375900Y-5391700I200000J0D01*
G01*
X73010900Y-5391700D01*
G75*
G02*
X73210900Y-5591700I0J-200000D01*
G01*
G37*
G36*
G01*
X74734900Y-5591700D02*
X74734900Y-6734700D01*
G75*
G02*
X74534900Y-6934700I-200000J0D01*
G01*
X73899900Y-6934700D01*
G75*
G02*
X73699900Y-6734700I0J200000D01*
G01*
X73699900Y-5591700D01*
G75*
G02*
X73899900Y-5391700I200000J0D01*
G01*
X74534900Y-5391700D01*
G75*
G02*
X74734900Y-5591700I0J-200000D01*
G01*
G37*
G36*
G01*
X64403500Y-4347100D02*
X64403500Y-3204100D01*
G75*
G02*
X64603500Y-3004100I200000J0D01*
G01*
X65238500Y-3004100D01*
G75*
G02*
X65438500Y-3204100I0J-200000D01*
G01*
X65438500Y-4347100D01*
G75*
G02*
X65238500Y-4547100I-200000J0D01*
G01*
X64603500Y-4547100D01*
G75*
G02*
X64403500Y-4347100I0J200000D01*
G01*
G37*
G36*
G01*
X62879500Y-4347100D02*
X62879500Y-3204100D01*
G75*
G02*
X63079500Y-3004100I200000J0D01*
G01*
X63714500Y-3004100D01*
G75*
G02*
X63914500Y-3204100I0J-200000D01*
G01*
X63914500Y-4347100D01*
G75*
G02*
X63714500Y-4547100I-200000J0D01*
G01*
X63079500Y-4547100D01*
G75*
G02*
X62879500Y-4347100I0J200000D01*
G01*
G37*
G36*
G01*
X62625500Y-19053700D02*
X62625500Y-17910700D01*
G75*
G02*
X62825500Y-17710700I200000J0D01*
G01*
X63460500Y-17710700D01*
G75*
G02*
X63660500Y-17910700I0J-200000D01*
G01*
X63660500Y-19053700D01*
G75*
G02*
X63460500Y-19253700I-200000J0D01*
G01*
X62825500Y-19253700D01*
G75*
G02*
X62625500Y-19053700I0J200000D01*
G01*
G37*
G36*
G01*
X61101500Y-19053700D02*
X61101500Y-17910700D01*
G75*
G02*
X61301500Y-17710700I200000J0D01*
G01*
X61936500Y-17710700D01*
G75*
G02*
X62136500Y-17910700I0J-200000D01*
G01*
X62136500Y-19053700D01*
G75*
G02*
X61936500Y-19253700I-200000J0D01*
G01*
X61301500Y-19253700D01*
G75*
G02*
X61101500Y-19053700I0J200000D01*
G01*
G37*
G36*
G01*
X38362100Y-25200500D02*
X38362100Y-26343500D01*
G75*
G02*
X38162100Y-26543500I-200000J0D01*
G01*
X37527100Y-26543500D01*
G75*
G02*
X37327100Y-26343500I0J200000D01*
G01*
X37327100Y-25200500D01*
G75*
G02*
X37527100Y-25000500I200000J0D01*
G01*
X38162100Y-25000500D01*
G75*
G02*
X38362100Y-25200500I0J-200000D01*
G01*
G37*
G36*
G01*
X39886100Y-25200500D02*
X39886100Y-26343500D01*
G75*
G02*
X39686100Y-26543500I-200000J0D01*
G01*
X39051100Y-26543500D01*
G75*
G02*
X38851100Y-26343500I0J200000D01*
G01*
X38851100Y-25200500D01*
G75*
G02*
X39051100Y-25000500I200000J0D01*
G01*
X39686100Y-25000500D01*
G75*
G02*
X39886100Y-25200500I0J-200000D01*
G01*
G37*
G36*
G01*
X73185500Y-7979300D02*
X73185500Y-9122300D01*
G75*
G02*
X72985500Y-9322300I-200000J0D01*
G01*
X72350500Y-9322300D01*
G75*
G02*
X72150500Y-9122300I0J200000D01*
G01*
X72150500Y-7979300D01*
G75*
G02*
X72350500Y-7779300I200000J0D01*
G01*
X72985500Y-7779300D01*
G75*
G02*
X73185500Y-7979300I0J-200000D01*
G01*
G37*
G36*
G01*
X74709500Y-7979300D02*
X74709500Y-9122300D01*
G75*
G02*
X74509500Y-9322300I-200000J0D01*
G01*
X73874500Y-9322300D01*
G75*
G02*
X73674500Y-9122300I0J200000D01*
G01*
X73674500Y-7979300D01*
G75*
G02*
X73874500Y-7779300I200000J0D01*
G01*
X74509500Y-7779300D01*
G75*
G02*
X74709500Y-7979300I0J-200000D01*
G01*
G37*
G36*
G01*
X38006500Y-19612500D02*
X38006500Y-20755500D01*
G75*
G02*
X37806500Y-20955500I-200000J0D01*
G01*
X37171500Y-20955500D01*
G75*
G02*
X36971500Y-20755500I0J200000D01*
G01*
X36971500Y-19612500D01*
G75*
G02*
X37171500Y-19412500I200000J0D01*
G01*
X37806500Y-19412500D01*
G75*
G02*
X38006500Y-19612500I0J-200000D01*
G01*
G37*
G36*
G01*
X39530500Y-19612500D02*
X39530500Y-20755500D01*
G75*
G02*
X39330500Y-20955500I-200000J0D01*
G01*
X38695500Y-20955500D01*
G75*
G02*
X38495500Y-20755500I0J200000D01*
G01*
X38495500Y-19612500D01*
G75*
G02*
X38695500Y-19412500I200000J0D01*
G01*
X39330500Y-19412500D01*
G75*
G02*
X39530500Y-19612500I0J-200000D01*
G01*
G37*
G36*
G01*
X29605500Y-17326500D02*
X29605500Y-16183500D01*
G75*
G02*
X29805500Y-15983500I200000J0D01*
G01*
X30440500Y-15983500D01*
G75*
G02*
X30640500Y-16183500I0J-200000D01*
G01*
X30640500Y-17326500D01*
G75*
G02*
X30440500Y-17526500I-200000J0D01*
G01*
X29805500Y-17526500D01*
G75*
G02*
X29605500Y-17326500I0J200000D01*
G01*
G37*
G36*
G01*
X28081500Y-17326500D02*
X28081500Y-16183500D01*
G75*
G02*
X28281500Y-15983500I200000J0D01*
G01*
X28916500Y-15983500D01*
G75*
G02*
X29116500Y-16183500I0J-200000D01*
G01*
X29116500Y-17326500D01*
G75*
G02*
X28916500Y-17526500I-200000J0D01*
G01*
X28281500Y-17526500D01*
G75*
G02*
X28081500Y-17326500I0J200000D01*
G01*
G37*
G36*
G01*
X44537500Y-8001500D02*
X43394500Y-8001500D01*
G75*
G02*
X43194500Y-7801500I0J200000D01*
G01*
X43194500Y-7166500D01*
G75*
G02*
X43394500Y-6966500I200000J0D01*
G01*
X44537500Y-6966500D01*
G75*
G02*
X44737500Y-7166500I0J-200000D01*
G01*
X44737500Y-7801500D01*
G75*
G02*
X44537500Y-8001500I-200000J0D01*
G01*
G37*
G36*
G01*
X44537500Y-9525500D02*
X43394500Y-9525500D01*
G75*
G02*
X43194500Y-9325500I0J200000D01*
G01*
X43194500Y-8690500D01*
G75*
G02*
X43394500Y-8490500I200000J0D01*
G01*
X44537500Y-8490500D01*
G75*
G02*
X44737500Y-8690500I0J-200000D01*
G01*
X44737500Y-9325500D01*
G75*
G02*
X44537500Y-9525500I-200000J0D01*
G01*
G37*
G36*
G01*
X54008500Y-20577700D02*
X54008500Y-21720700D01*
G75*
G02*
X53808500Y-21920700I-200000J0D01*
G01*
X53173500Y-21920700D01*
G75*
G02*
X52973500Y-21720700I0J200000D01*
G01*
X52973500Y-20577700D01*
G75*
G02*
X53173500Y-20377700I200000J0D01*
G01*
X53808500Y-20377700D01*
G75*
G02*
X54008500Y-20577700I0J-200000D01*
G01*
G37*
G36*
G01*
X55532500Y-20577700D02*
X55532500Y-21720700D01*
G75*
G02*
X55332500Y-21920700I-200000J0D01*
G01*
X54697500Y-21920700D01*
G75*
G02*
X54497500Y-21720700I0J200000D01*
G01*
X54497500Y-20577700D01*
G75*
G02*
X54697500Y-20377700I200000J0D01*
G01*
X55332500Y-20377700D01*
G75*
G02*
X55532500Y-20577700I0J-200000D01*
G01*
G37*
G36*
G01*
X38082700Y-7903100D02*
X38082700Y-9046100D01*
G75*
G02*
X37882700Y-9246100I-200000J0D01*
G01*
X37247700Y-9246100D01*
G75*
G02*
X37047700Y-9046100I0J200000D01*
G01*
X37047700Y-7903100D01*
G75*
G02*
X37247700Y-7703100I200000J0D01*
G01*
X37882700Y-7703100D01*
G75*
G02*
X38082700Y-7903100I0J-200000D01*
G01*
G37*
G36*
G01*
X39606700Y-7903100D02*
X39606700Y-9046100D01*
G75*
G02*
X39406700Y-9246100I-200000J0D01*
G01*
X38771700Y-9246100D01*
G75*
G02*
X38571700Y-9046100I0J200000D01*
G01*
X38571700Y-7903100D01*
G75*
G02*
X38771700Y-7703100I200000J0D01*
G01*
X39406700Y-7703100D01*
G75*
G02*
X39606700Y-7903100I0J-200000D01*
G01*
G37*
G36*
G01*
X18429500Y-22533500D02*
X18429500Y-21390500D01*
G75*
G02*
X18629500Y-21190500I200000J0D01*
G01*
X19264500Y-21190500D01*
G75*
G02*
X19464500Y-21390500I0J-200000D01*
G01*
X19464500Y-22533500D01*
G75*
G02*
X19264500Y-22733500I-200000J0D01*
G01*
X18629500Y-22733500D01*
G75*
G02*
X18429500Y-22533500I0J200000D01*
G01*
G37*
G36*
G01*
X16905500Y-22533500D02*
X16905500Y-21390500D01*
G75*
G02*
X17105500Y-21190500I200000J0D01*
G01*
X17740500Y-21190500D01*
G75*
G02*
X17940500Y-21390500I0J-200000D01*
G01*
X17940500Y-22533500D01*
G75*
G02*
X17740500Y-22733500I-200000J0D01*
G01*
X17105500Y-22733500D01*
G75*
G02*
X16905500Y-22533500I0J200000D01*
G01*
G37*
G36*
G01*
X34250500Y-13310100D02*
X33107500Y-13310100D01*
G75*
G02*
X32907500Y-13110100I0J200000D01*
G01*
X32907500Y-12475100D01*
G75*
G02*
X33107500Y-12275100I200000J0D01*
G01*
X34250500Y-12275100D01*
G75*
G02*
X34450500Y-12475100I0J-200000D01*
G01*
X34450500Y-13110100D01*
G75*
G02*
X34250500Y-13310100I-200000J0D01*
G01*
G37*
G36*
G01*
X34250500Y-14834100D02*
X33107500Y-14834100D01*
G75*
G02*
X32907500Y-14634100I0J200000D01*
G01*
X32907500Y-13999100D01*
G75*
G02*
X33107500Y-13799100I200000J0D01*
G01*
X34250500Y-13799100D01*
G75*
G02*
X34450500Y-13999100I0J-200000D01*
G01*
X34450500Y-14634100D01*
G75*
G02*
X34250500Y-14834100I-200000J0D01*
G01*
G37*
G36*
G01*
X22385500Y-18723500D02*
X22385500Y-19866500D01*
G75*
G02*
X22185500Y-20066500I-200000J0D01*
G01*
X21550500Y-20066500D01*
G75*
G02*
X21350500Y-19866500I0J200000D01*
G01*
X21350500Y-18723500D01*
G75*
G02*
X21550500Y-18523500I200000J0D01*
G01*
X22185500Y-18523500D01*
G75*
G02*
X22385500Y-18723500I0J-200000D01*
G01*
G37*
G36*
G01*
X23909500Y-18723500D02*
X23909500Y-19866500D01*
G75*
G02*
X23709500Y-20066500I-200000J0D01*
G01*
X23074500Y-20066500D01*
G75*
G02*
X22874500Y-19866500I0J200000D01*
G01*
X22874500Y-18723500D01*
G75*
G02*
X23074500Y-18523500I200000J0D01*
G01*
X23709500Y-18523500D01*
G75*
G02*
X23909500Y-18723500I0J-200000D01*
G01*
G37*
G36*
G01*
X62625500Y-16640700D02*
X62625500Y-15497700D01*
G75*
G02*
X62825500Y-15297700I200000J0D01*
G01*
X63460500Y-15297700D01*
G75*
G02*
X63660500Y-15497700I0J-200000D01*
G01*
X63660500Y-16640700D01*
G75*
G02*
X63460500Y-16840700I-200000J0D01*
G01*
X62825500Y-16840700D01*
G75*
G02*
X62625500Y-16640700I0J200000D01*
G01*
G37*
G36*
G01*
X61101500Y-16640700D02*
X61101500Y-15497700D01*
G75*
G02*
X61301500Y-15297700I200000J0D01*
G01*
X61936500Y-15297700D01*
G75*
G02*
X62136500Y-15497700I0J-200000D01*
G01*
X62136500Y-16640700D01*
G75*
G02*
X61936500Y-16840700I-200000J0D01*
G01*
X61301500Y-16840700D01*
G75*
G02*
X61101500Y-16640700I0J200000D01*
G01*
G37*
G36*
G01*
X18448500Y-16310500D02*
X18448500Y-17453500D01*
G75*
G02*
X18248500Y-17653500I-200000J0D01*
G01*
X17613500Y-17653500D01*
G75*
G02*
X17413500Y-17453500I0J200000D01*
G01*
X17413500Y-16310500D01*
G75*
G02*
X17613500Y-16110500I200000J0D01*
G01*
X18248500Y-16110500D01*
G75*
G02*
X18448500Y-16310500I0J-200000D01*
G01*
G37*
G36*
G01*
X19972500Y-16310500D02*
X19972500Y-17453500D01*
G75*
G02*
X19772500Y-17653500I-200000J0D01*
G01*
X19137500Y-17653500D01*
G75*
G02*
X18937500Y-17453500I0J200000D01*
G01*
X18937500Y-16310500D01*
G75*
G02*
X19137500Y-16110500I200000J0D01*
G01*
X19772500Y-16110500D01*
G75*
G02*
X19972500Y-16310500I0J-200000D01*
G01*
G37*
G36*
G01*
X56021500Y-13465700D02*
X56021500Y-12322700D01*
G75*
G02*
X56221500Y-12122700I200000J0D01*
G01*
X56856500Y-12122700D01*
G75*
G02*
X57056500Y-12322700I0J-200000D01*
G01*
X57056500Y-13465700D01*
G75*
G02*
X56856500Y-13665700I-200000J0D01*
G01*
X56221500Y-13665700D01*
G75*
G02*
X56021500Y-13465700I0J200000D01*
G01*
G37*
G36*
G01*
X54497500Y-13465700D02*
X54497500Y-12322700D01*
G75*
G02*
X54697500Y-12122700I200000J0D01*
G01*
X55332500Y-12122700D01*
G75*
G02*
X55532500Y-12322700I0J-200000D01*
G01*
X55532500Y-13465700D01*
G75*
G02*
X55332500Y-13665700I-200000J0D01*
G01*
X54697500Y-13665700D01*
G75*
G02*
X54497500Y-13465700I0J200000D01*
G01*
G37*
G36*
G01*
X18448500Y-11992500D02*
X18448500Y-13135500D01*
G75*
G02*
X18248500Y-13335500I-200000J0D01*
G01*
X17613500Y-13335500D01*
G75*
G02*
X17413500Y-13135500I0J200000D01*
G01*
X17413500Y-11992500D01*
G75*
G02*
X17613500Y-11792500I200000J0D01*
G01*
X18248500Y-11792500D01*
G75*
G02*
X18448500Y-11992500I0J-200000D01*
G01*
G37*
G36*
G01*
X19972500Y-11992500D02*
X19972500Y-13135500D01*
G75*
G02*
X19772500Y-13335500I-200000J0D01*
G01*
X19137500Y-13335500D01*
G75*
G02*
X18937500Y-13135500I0J200000D01*
G01*
X18937500Y-11992500D01*
G75*
G02*
X19137500Y-11792500I200000J0D01*
G01*
X19772500Y-11792500D01*
G75*
G02*
X19972500Y-11992500I0J-200000D01*
G01*
G37*
G36*
G01*
X18448500Y-8055500D02*
X18448500Y-9198500D01*
G75*
G02*
X18248500Y-9398500I-200000J0D01*
G01*
X17613500Y-9398500D01*
G75*
G02*
X17413500Y-9198500I0J200000D01*
G01*
X17413500Y-8055500D01*
G75*
G02*
X17613500Y-7855500I200000J0D01*
G01*
X18248500Y-7855500D01*
G75*
G02*
X18448500Y-8055500I0J-200000D01*
G01*
G37*
G36*
G01*
X19972500Y-8055500D02*
X19972500Y-9198500D01*
G75*
G02*
X19772500Y-9398500I-200000J0D01*
G01*
X19137500Y-9398500D01*
G75*
G02*
X18937500Y-9198500I0J200000D01*
G01*
X18937500Y-8055500D01*
G75*
G02*
X19137500Y-7855500I200000J0D01*
G01*
X19772500Y-7855500D01*
G75*
G02*
X19972500Y-8055500I0J-200000D01*
G01*
G37*
G36*
G01*
X22439500Y-7620500D02*
X21296500Y-7620500D01*
G75*
G02*
X21096500Y-7420500I0J200000D01*
G01*
X21096500Y-6785500D01*
G75*
G02*
X21296500Y-6585500I200000J0D01*
G01*
X22439500Y-6585500D01*
G75*
G02*
X22639500Y-6785500I0J-200000D01*
G01*
X22639500Y-7420500D01*
G75*
G02*
X22439500Y-7620500I-200000J0D01*
G01*
G37*
G36*
G01*
X22439500Y-9144500D02*
X21296500Y-9144500D01*
G75*
G02*
X21096500Y-8944500I0J200000D01*
G01*
X21096500Y-8309500D01*
G75*
G02*
X21296500Y-8109500I200000J0D01*
G01*
X22439500Y-8109500D01*
G75*
G02*
X22639500Y-8309500I0J-200000D01*
G01*
X22639500Y-8944500D01*
G75*
G02*
X22439500Y-9144500I-200000J0D01*
G01*
G37*
G36*
G01*
X34387000Y-25073499D02*
X34387000Y-26470501D01*
G75*
G02*
X34187001Y-26670500I-199999J0D01*
G01*
X33297999Y-26670500D01*
G75*
G02*
X33098000Y-26470501I0J199999D01*
G01*
X33098000Y-25073499D01*
G75*
G02*
X33297999Y-24873500I199999J0D01*
G01*
X34187001Y-24873500D01*
G75*
G02*
X34387000Y-25073499I0J-199999D01*
G01*
G37*
G36*
G01*
X36292000Y-25073499D02*
X36292000Y-26470501D01*
G75*
G02*
X36092001Y-26670500I-199999J0D01*
G01*
X35202999Y-26670500D01*
G75*
G02*
X35003000Y-26470501I0J199999D01*
G01*
X35003000Y-25073499D01*
G75*
G02*
X35202999Y-24873500I199999J0D01*
G01*
X36092001Y-24873500D01*
G75*
G02*
X36292000Y-25073499I0J-199999D01*
G01*
G37*
D10*
X59642000Y-25336000D03*
X55142000Y-29836000D03*
G36*
G01*
X65874000Y-11944200D02*
X65874000Y-10894200D01*
G75*
G02*
X66074000Y-10694200I200000J0D01*
G01*
X68274000Y-10694200D01*
G75*
G02*
X68474000Y-10894200I0J-200000D01*
G01*
X68474000Y-11944200D01*
G75*
G02*
X68274000Y-12144200I-200000J0D01*
G01*
X66074000Y-12144200D01*
G75*
G02*
X65874000Y-11944200I0J200000D01*
G01*
G37*
G36*
G01*
X64924000Y-13394200D02*
X64924000Y-12394200D01*
G75*
G02*
X65124000Y-12194200I200000J0D01*
G01*
X66174000Y-12194200D01*
G75*
G02*
X66374000Y-12394200I0J-200000D01*
G01*
X66374000Y-13394200D01*
G75*
G02*
X66174000Y-13594200I-200000J0D01*
G01*
X65124000Y-13594200D01*
G75*
G02*
X64924000Y-13394200I0J200000D01*
G01*
G37*
G36*
G01*
X65874000Y-14894200D02*
X65874000Y-13844200D01*
G75*
G02*
X66074000Y-13644200I200000J0D01*
G01*
X68274000Y-13644200D01*
G75*
G02*
X68474000Y-13844200I0J-200000D01*
G01*
X68474000Y-14894200D01*
G75*
G02*
X68274000Y-15094200I-200000J0D01*
G01*
X66074000Y-15094200D01*
G75*
G02*
X65874000Y-14894200I0J200000D01*
G01*
G37*
D11*
X85378000Y-1134000D03*
X87918000Y-1134000D03*
G36*
G01*
X89608000Y-84000D02*
X91308000Y-84000D01*
G75*
G02*
X91508000Y-284000I0J-200000D01*
G01*
X91508000Y-1984000D01*
G75*
G02*
X91308000Y-2184000I-200000J0D01*
G01*
X89608000Y-2184000D01*
G75*
G02*
X89408000Y-1984000I0J200000D01*
G01*
X89408000Y-284000D01*
G75*
G02*
X89608000Y-84000I200000J0D01*
G01*
G37*
X57428000Y-1134000D03*
X54888000Y-1134000D03*
X52348000Y-1134000D03*
X49808000Y-1134000D03*
X47268000Y-1134000D03*
X44728000Y-1134000D03*
X42188000Y-1134000D03*
X39648000Y-1134000D03*
X37108000Y-1134000D03*
X34568000Y-1134000D03*
X32028000Y-1134000D03*
X29488000Y-1134000D03*
X26948000Y-1134000D03*
X24408000Y-1134000D03*
X21868000Y-1134000D03*
X19328000Y-1134000D03*
X16788000Y-1134000D03*
X14248000Y-1134000D03*
X11708000Y-1134000D03*
G36*
G01*
X10018000Y-2184000D02*
X8318000Y-2184000D01*
G75*
G02*
X8118000Y-1984000I0J200000D01*
G01*
X8118000Y-284000D01*
G75*
G02*
X8318000Y-84000I200000J0D01*
G01*
X10018000Y-84000D01*
G75*
G02*
X10218000Y-284000I0J-200000D01*
G01*
X10218000Y-1984000D01*
G75*
G02*
X10018000Y-2184000I-200000J0D01*
G01*
G37*
G36*
G01*
X86881500Y-15614501D02*
X86881500Y-4814499D01*
G75*
G02*
X87081499Y-4614500I199999J0D01*
G01*
X96481501Y-4614500D01*
G75*
G02*
X96681500Y-4814499I0J-199999D01*
G01*
X96681500Y-15614501D01*
G75*
G02*
X96481501Y-15814500I-199999J0D01*
G01*
X87081499Y-15814500D01*
G75*
G02*
X86881500Y-15614501I0J199999D01*
G01*
G37*
G36*
G01*
X80131500Y-13304500D02*
X80131500Y-12204500D01*
G75*
G02*
X80331500Y-12004500I200000J0D01*
G01*
X84931500Y-12004500D01*
G75*
G02*
X85131500Y-12204500I0J-200000D01*
G01*
X85131500Y-13304500D01*
G75*
G02*
X84931500Y-13504500I-200000J0D01*
G01*
X80331500Y-13504500D01*
G75*
G02*
X80131500Y-13304500I0J200000D01*
G01*
G37*
G36*
G01*
X80131500Y-8224500D02*
X80131500Y-7124500D01*
G75*
G02*
X80331500Y-6924500I200000J0D01*
G01*
X84931500Y-6924500D01*
G75*
G02*
X85131500Y-7124500I0J-200000D01*
G01*
X85131500Y-8224500D01*
G75*
G02*
X84931500Y-8424500I-200000J0D01*
G01*
X80331500Y-8424500D01*
G75*
G02*
X80131500Y-8224500I0J200000D01*
G01*
G37*
G36*
G01*
X75852500Y-36566999D02*
X75852500Y-37964001D01*
G75*
G02*
X75652501Y-38164000I-199999J0D01*
G01*
X74763499Y-38164000D01*
G75*
G02*
X74563500Y-37964001I0J199999D01*
G01*
X74563500Y-36566999D01*
G75*
G02*
X74763499Y-36367000I199999J0D01*
G01*
X75652501Y-36367000D01*
G75*
G02*
X75852500Y-36566999I0J-199999D01*
G01*
G37*
G36*
G01*
X77757500Y-36566999D02*
X77757500Y-37964001D01*
G75*
G02*
X77557501Y-38164000I-199999J0D01*
G01*
X76668499Y-38164000D01*
G75*
G02*
X76468500Y-37964001I0J199999D01*
G01*
X76468500Y-36566999D01*
G75*
G02*
X76668499Y-36367000I199999J0D01*
G01*
X77557501Y-36367000D01*
G75*
G02*
X77757500Y-36566999I0J-199999D01*
G01*
G37*
D10*
X35465500Y-39098500D03*
X39965500Y-34598500D03*
G36*
G01*
X82520000Y-36566999D02*
X82520000Y-37964001D01*
G75*
G02*
X82320001Y-38164000I-199999J0D01*
G01*
X81430999Y-38164000D01*
G75*
G02*
X81231000Y-37964001I0J199999D01*
G01*
X81231000Y-36566999D01*
G75*
G02*
X81430999Y-36367000I199999J0D01*
G01*
X82320001Y-36367000D01*
G75*
G02*
X82520000Y-36566999I0J-199999D01*
G01*
G37*
G36*
G01*
X84425000Y-36566999D02*
X84425000Y-37964001D01*
G75*
G02*
X84225001Y-38164000I-199999J0D01*
G01*
X83335999Y-38164000D01*
G75*
G02*
X83136000Y-37964001I0J199999D01*
G01*
X83136000Y-36566999D01*
G75*
G02*
X83335999Y-36367000I199999J0D01*
G01*
X84225001Y-36367000D01*
G75*
G02*
X84425000Y-36566999I0J-199999D01*
G01*
G37*
X28717500Y-35479000D03*
X24217500Y-30979000D03*
G36*
G01*
X91473500Y-38662499D02*
X91473500Y-40059501D01*
G75*
G02*
X91273501Y-40259500I-199999J0D01*
G01*
X90384499Y-40259500D01*
G75*
G02*
X90184500Y-40059501I0J199999D01*
G01*
X90184500Y-38662499D01*
G75*
G02*
X90384499Y-38462500I199999J0D01*
G01*
X91273501Y-38462500D01*
G75*
G02*
X91473500Y-38662499I0J-199999D01*
G01*
G37*
G36*
G01*
X93378500Y-38662499D02*
X93378500Y-40059501D01*
G75*
G02*
X93178501Y-40259500I-199999J0D01*
G01*
X92289499Y-40259500D01*
G75*
G02*
X92089500Y-40059501I0J199999D01*
G01*
X92089500Y-38662499D01*
G75*
G02*
X92289499Y-38462500I199999J0D01*
G01*
X93178501Y-38462500D01*
G75*
G02*
X93378500Y-38662499I0J-199999D01*
G01*
G37*
G36*
G01*
X36165000Y-31232999D02*
X36165000Y-32630001D01*
G75*
G02*
X35965001Y-32830000I-199999J0D01*
G01*
X35075999Y-32830000D01*
G75*
G02*
X34876000Y-32630001I0J199999D01*
G01*
X34876000Y-31232999D01*
G75*
G02*
X35075999Y-31033000I199999J0D01*
G01*
X35965001Y-31033000D01*
G75*
G02*
X36165000Y-31232999I0J-199999D01*
G01*
G37*
G36*
G01*
X38070000Y-31232999D02*
X38070000Y-32630001D01*
G75*
G02*
X37870001Y-32830000I-199999J0D01*
G01*
X36980999Y-32830000D01*
G75*
G02*
X36781000Y-32630001I0J199999D01*
G01*
X36781000Y-31232999D01*
G75*
G02*
X36980999Y-31033000I199999J0D01*
G01*
X37870001Y-31033000D01*
G75*
G02*
X38070000Y-31232999I0J-199999D01*
G01*
G37*
G36*
G01*
X38711400Y-23193901D02*
X38711400Y-21796899D01*
G75*
G02*
X38911399Y-21596900I199999J0D01*
G01*
X39800401Y-21596900D01*
G75*
G02*
X40000400Y-21796899I0J-199999D01*
G01*
X40000400Y-23193901D01*
G75*
G02*
X39800401Y-23393900I-199999J0D01*
G01*
X38911399Y-23393900D01*
G75*
G02*
X38711400Y-23193901I0J199999D01*
G01*
G37*
G36*
G01*
X36806400Y-23193901D02*
X36806400Y-21796899D01*
G75*
G02*
X37006399Y-21596900I199999J0D01*
G01*
X37895401Y-21596900D01*
G75*
G02*
X38095400Y-21796899I0J-199999D01*
G01*
X38095400Y-23193901D01*
G75*
G02*
X37895401Y-23393900I-199999J0D01*
G01*
X37006399Y-23393900D01*
G75*
G02*
X36806400Y-23193901I0J199999D01*
G01*
G37*
G36*
G01*
X38686000Y-18342501D02*
X38686000Y-16945499D01*
G75*
G02*
X38885999Y-16745500I199999J0D01*
G01*
X39775001Y-16745500D01*
G75*
G02*
X39975000Y-16945499I0J-199999D01*
G01*
X39975000Y-18342501D01*
G75*
G02*
X39775001Y-18542500I-199999J0D01*
G01*
X38885999Y-18542500D01*
G75*
G02*
X38686000Y-18342501I0J199999D01*
G01*
G37*
G36*
G01*
X36781000Y-18342501D02*
X36781000Y-16945499D01*
G75*
G02*
X36980999Y-16745500I199999J0D01*
G01*
X37870001Y-16745500D01*
G75*
G02*
X38070000Y-16945499I0J-199999D01*
G01*
X38070000Y-18342501D01*
G75*
G02*
X37870001Y-18542500I-199999J0D01*
G01*
X36980999Y-18542500D01*
G75*
G02*
X36781000Y-18342501I0J199999D01*
G01*
G37*
G36*
G01*
X36908000Y-11535301D02*
X36908000Y-10138299D01*
G75*
G02*
X37107999Y-9938300I199999J0D01*
G01*
X37997001Y-9938300D01*
G75*
G02*
X38197000Y-10138299I0J-199999D01*
G01*
X38197000Y-11535301D01*
G75*
G02*
X37997001Y-11735300I-199999J0D01*
G01*
X37107999Y-11735300D01*
G75*
G02*
X36908000Y-11535301I0J199999D01*
G01*
G37*
G36*
G01*
X35003000Y-11535301D02*
X35003000Y-10138299D01*
G75*
G02*
X35202999Y-9938300I199999J0D01*
G01*
X36092001Y-9938300D01*
G75*
G02*
X36292000Y-10138299I0J-199999D01*
G01*
X36292000Y-11535301D01*
G75*
G02*
X36092001Y-11735300I-199999J0D01*
G01*
X35202999Y-11735300D01*
G75*
G02*
X35003000Y-11535301I0J199999D01*
G01*
G37*
G36*
G01*
X22684000Y-22660501D02*
X22684000Y-21263499D01*
G75*
G02*
X22883999Y-21063500I199999J0D01*
G01*
X23773001Y-21063500D01*
G75*
G02*
X23973000Y-21263499I0J-199999D01*
G01*
X23973000Y-22660501D01*
G75*
G02*
X23773001Y-22860500I-199999J0D01*
G01*
X22883999Y-22860500D01*
G75*
G02*
X22684000Y-22660501I0J199999D01*
G01*
G37*
G36*
G01*
X20779000Y-22660501D02*
X20779000Y-21263499D01*
G75*
G02*
X20978999Y-21063500I199999J0D01*
G01*
X21868001Y-21063500D01*
G75*
G02*
X22068000Y-21263499I0J-199999D01*
G01*
X22068000Y-22660501D01*
G75*
G02*
X21868001Y-22860500I-199999J0D01*
G01*
X20978999Y-22860500D01*
G75*
G02*
X20779000Y-22660501I0J199999D01*
G01*
G37*
G36*
G01*
X21169499Y-16301000D02*
X22566501Y-16301000D01*
G75*
G02*
X22766500Y-16500999I0J-199999D01*
G01*
X22766500Y-17390001D01*
G75*
G02*
X22566501Y-17590000I-199999J0D01*
G01*
X21169499Y-17590000D01*
G75*
G02*
X20969500Y-17390001I0J199999D01*
G01*
X20969500Y-16500999D01*
G75*
G02*
X21169499Y-16301000I199999J0D01*
G01*
G37*
G36*
G01*
X21169499Y-14396000D02*
X22566501Y-14396000D01*
G75*
G02*
X22766500Y-14595999I0J-199999D01*
G01*
X22766500Y-15485001D01*
G75*
G02*
X22566501Y-15685000I-199999J0D01*
G01*
X21169499Y-15685000D01*
G75*
G02*
X20969500Y-15485001I0J199999D01*
G01*
X20969500Y-14595999D01*
G75*
G02*
X21169499Y-14396000I199999J0D01*
G01*
G37*
G36*
G01*
X21169499Y-11856000D02*
X22566501Y-11856000D01*
G75*
G02*
X22766500Y-12055999I0J-199999D01*
G01*
X22766500Y-12945001D01*
G75*
G02*
X22566501Y-13145000I-199999J0D01*
G01*
X21169499Y-13145000D01*
G75*
G02*
X20969500Y-12945001I0J199999D01*
G01*
X20969500Y-12055999D01*
G75*
G02*
X21169499Y-11856000I199999J0D01*
G01*
G37*
G36*
G01*
X21169499Y-9951000D02*
X22566501Y-9951000D01*
G75*
G02*
X22766500Y-10150999I0J-199999D01*
G01*
X22766500Y-11040001D01*
G75*
G02*
X22566501Y-11240000I-199999J0D01*
G01*
X21169499Y-11240000D01*
G75*
G02*
X20969500Y-11040001I0J199999D01*
G01*
X20969500Y-10150999D01*
G75*
G02*
X21169499Y-9951000I199999J0D01*
G01*
G37*
G36*
G01*
X60358500Y-20450699D02*
X60358500Y-21847701D01*
G75*
G02*
X60158501Y-22047700I-199999J0D01*
G01*
X59269499Y-22047700D01*
G75*
G02*
X59069500Y-21847701I0J199999D01*
G01*
X59069500Y-20450699D01*
G75*
G02*
X59269499Y-20250700I199999J0D01*
G01*
X60158501Y-20250700D01*
G75*
G02*
X60358500Y-20450699I0J-199999D01*
G01*
G37*
G36*
G01*
X62263500Y-20450699D02*
X62263500Y-21847701D01*
G75*
G02*
X62063501Y-22047700I-199999J0D01*
G01*
X61174499Y-22047700D01*
G75*
G02*
X60974500Y-21847701I0J199999D01*
G01*
X60974500Y-20450699D01*
G75*
G02*
X61174499Y-20250700I199999J0D01*
G01*
X62063501Y-20250700D01*
G75*
G02*
X62263500Y-20450699I0J-199999D01*
G01*
G37*
G36*
G01*
X63000000Y-47600000D02*
X63000000Y-42400000D01*
G75*
G02*
X63200000Y-42200000I200000J0D01*
G01*
X64800000Y-42200000D01*
G75*
G02*
X65000000Y-42400000I0J-200000D01*
G01*
X65000000Y-47600000D01*
G75*
G02*
X64800000Y-47800000I-200000J0D01*
G01*
X63200000Y-47800000D01*
G75*
G02*
X63000000Y-47600000I0J200000D01*
G01*
G37*
G36*
G01*
X57800000Y-47600000D02*
X57800000Y-42400000D01*
G75*
G02*
X58000000Y-42200000I200000J0D01*
G01*
X62400000Y-42200000D01*
G75*
G02*
X62600000Y-42400000I0J-200000D01*
G01*
X62600000Y-47600000D01*
G75*
G02*
X62400000Y-47800000I-200000J0D01*
G01*
X58000000Y-47800000D01*
G75*
G02*
X57800000Y-47600000I0J200000D01*
G01*
G37*
G36*
G01*
X65400000Y-47600000D02*
X65400000Y-42400000D01*
G75*
G02*
X65600000Y-42200000I200000J0D01*
G01*
X70000000Y-42200000D01*
G75*
G02*
X70200000Y-42400000I0J-200000D01*
G01*
X70200000Y-47600000D01*
G75*
G02*
X70000000Y-47800000I-200000J0D01*
G01*
X65600000Y-47800000D01*
G75*
G02*
X65400000Y-47600000I0J200000D01*
G01*
G37*
G36*
G01*
X31000000Y-47600000D02*
X31000000Y-42400000D01*
G75*
G02*
X31200000Y-42200000I200000J0D01*
G01*
X32800000Y-42200000D01*
G75*
G02*
X33000000Y-42400000I0J-200000D01*
G01*
X33000000Y-47600000D01*
G75*
G02*
X32800000Y-47800000I-200000J0D01*
G01*
X31200000Y-47800000D01*
G75*
G02*
X31000000Y-47600000I0J200000D01*
G01*
G37*
G36*
G01*
X25800000Y-47600000D02*
X25800000Y-42400000D01*
G75*
G02*
X26000000Y-42200000I200000J0D01*
G01*
X30400000Y-42200000D01*
G75*
G02*
X30600000Y-42400000I0J-200000D01*
G01*
X30600000Y-47600000D01*
G75*
G02*
X30400000Y-47800000I-200000J0D01*
G01*
X26000000Y-47800000D01*
G75*
G02*
X25800000Y-47600000I0J200000D01*
G01*
G37*
G36*
G01*
X33400000Y-47600000D02*
X33400000Y-42400000D01*
G75*
G02*
X33600000Y-42200000I200000J0D01*
G01*
X38000000Y-42200000D01*
G75*
G02*
X38200000Y-42400000I0J-200000D01*
G01*
X38200000Y-47600000D01*
G75*
G02*
X38000000Y-47800000I-200000J0D01*
G01*
X33600000Y-47800000D01*
G75*
G02*
X33400000Y-47600000I0J200000D01*
G01*
G37*
G36*
G01*
X33837000Y-17734000D02*
X33837000Y-18634000D01*
G75*
G02*
X33637000Y-18834000I-200000J0D01*
G01*
X32837000Y-18834000D01*
G75*
G02*
X32637000Y-18634000I0J200000D01*
G01*
X32637000Y-17734000D01*
G75*
G02*
X32837000Y-17534000I200000J0D01*
G01*
X33637000Y-17534000D01*
G75*
G02*
X33837000Y-17734000I0J-200000D01*
G01*
G37*
G36*
G01*
X34787000Y-19734000D02*
X34787000Y-20634000D01*
G75*
G02*
X34587000Y-20834000I-200000J0D01*
G01*
X33787000Y-20834000D01*
G75*
G02*
X33587000Y-20634000I0J200000D01*
G01*
X33587000Y-19734000D01*
G75*
G02*
X33787000Y-19534000I200000J0D01*
G01*
X34587000Y-19534000D01*
G75*
G02*
X34787000Y-19734000I0J-200000D01*
G01*
G37*
G36*
G01*
X35737000Y-17734000D02*
X35737000Y-18634000D01*
G75*
G02*
X35537000Y-18834000I-200000J0D01*
G01*
X34737000Y-18834000D01*
G75*
G02*
X34537000Y-18634000I0J200000D01*
G01*
X34537000Y-17734000D01*
G75*
G02*
X34737000Y-17534000I200000J0D01*
G01*
X35537000Y-17534000D01*
G75*
G02*
X35737000Y-17734000I0J-200000D01*
G01*
G37*
G36*
G01*
X83786000Y-29486000D02*
X82886000Y-29486000D01*
G75*
G02*
X82686000Y-29286000I0J200000D01*
G01*
X82686000Y-28486000D01*
G75*
G02*
X82886000Y-28286000I200000J0D01*
G01*
X83786000Y-28286000D01*
G75*
G02*
X83986000Y-28486000I0J-200000D01*
G01*
X83986000Y-29286000D01*
G75*
G02*
X83786000Y-29486000I-200000J0D01*
G01*
G37*
G36*
G01*
X81786000Y-30436000D02*
X80886000Y-30436000D01*
G75*
G02*
X80686000Y-30236000I0J200000D01*
G01*
X80686000Y-29436000D01*
G75*
G02*
X80886000Y-29236000I200000J0D01*
G01*
X81786000Y-29236000D01*
G75*
G02*
X81986000Y-29436000I0J-200000D01*
G01*
X81986000Y-30236000D01*
G75*
G02*
X81786000Y-30436000I-200000J0D01*
G01*
G37*
G36*
G01*
X83786000Y-31386000D02*
X82886000Y-31386000D01*
G75*
G02*
X82686000Y-31186000I0J200000D01*
G01*
X82686000Y-30386000D01*
G75*
G02*
X82886000Y-30186000I200000J0D01*
G01*
X83786000Y-30186000D01*
G75*
G02*
X83986000Y-30386000I0J-200000D01*
G01*
X83986000Y-31186000D01*
G75*
G02*
X83786000Y-31386000I-200000J0D01*
G01*
G37*
X77930000Y-25336000D03*
X73430000Y-29836000D03*
X68786000Y-25336000D03*
X64286000Y-29836000D03*
G36*
G01*
X31028000Y-5258000D02*
X31028000Y-58000D01*
G75*
G02*
X31228000Y142000I200000J0D01*
G01*
X32828000Y142000D01*
G75*
G02*
X33028000Y-58000I0J-200000D01*
G01*
X33028000Y-5258000D01*
G75*
G02*
X32828000Y-5458000I-200000J0D01*
G01*
X31228000Y-5458000D01*
G75*
G02*
X31028000Y-5258000I0J200000D01*
G01*
G37*
G36*
G01*
X25828000Y-5258000D02*
X25828000Y-58000D01*
G75*
G02*
X26028000Y142000I200000J0D01*
G01*
X30428000Y142000D01*
G75*
G02*
X30628000Y-58000I0J-200000D01*
G01*
X30628000Y-5258000D01*
G75*
G02*
X30428000Y-5458000I-200000J0D01*
G01*
X26028000Y-5458000D01*
G75*
G02*
X25828000Y-5258000I0J200000D01*
G01*
G37*
G36*
G01*
X33428000Y-5258000D02*
X33428000Y-58000D01*
G75*
G02*
X33628000Y142000I200000J0D01*
G01*
X38028000Y142000D01*
G75*
G02*
X38228000Y-58000I0J-200000D01*
G01*
X38228000Y-5258000D01*
G75*
G02*
X38028000Y-5458000I-200000J0D01*
G01*
X33628000Y-5458000D01*
G75*
G02*
X33428000Y-5258000I0J200000D01*
G01*
G37*
G36*
G01*
X20868000Y-5258000D02*
X20868000Y-58000D01*
G75*
G02*
X21068000Y142000I200000J0D01*
G01*
X22668000Y142000D01*
G75*
G02*
X22868000Y-58000I0J-200000D01*
G01*
X22868000Y-5258000D01*
G75*
G02*
X22668000Y-5458000I-200000J0D01*
G01*
X21068000Y-5458000D01*
G75*
G02*
X20868000Y-5258000I0J200000D01*
G01*
G37*
G36*
G01*
X15668000Y-5258000D02*
X15668000Y-58000D01*
G75*
G02*
X15868000Y142000I200000J0D01*
G01*
X20268000Y142000D01*
G75*
G02*
X20468000Y-58000I0J-200000D01*
G01*
X20468000Y-5258000D01*
G75*
G02*
X20268000Y-5458000I-200000J0D01*
G01*
X15868000Y-5458000D01*
G75*
G02*
X15668000Y-5258000I0J200000D01*
G01*
G37*
G36*
G01*
X23268000Y-5258000D02*
X23268000Y-58000D01*
G75*
G02*
X23468000Y142000I200000J0D01*
G01*
X27868000Y142000D01*
G75*
G02*
X28068000Y-58000I0J-200000D01*
G01*
X28068000Y-5258000D01*
G75*
G02*
X27868000Y-5458000I-200000J0D01*
G01*
X23468000Y-5458000D01*
G75*
G02*
X23268000Y-5258000I0J200000D01*
G01*
G37*
G36*
G01*
X79018000Y-40367500D02*
X80161000Y-40367500D01*
G75*
G02*
X80361000Y-40567500I0J-200000D01*
G01*
X80361000Y-41202500D01*
G75*
G02*
X80161000Y-41402500I-200000J0D01*
G01*
X79018000Y-41402500D01*
G75*
G02*
X78818000Y-41202500I0J200000D01*
G01*
X78818000Y-40567500D01*
G75*
G02*
X79018000Y-40367500I200000J0D01*
G01*
G37*
G36*
G01*
X79018000Y-38843500D02*
X80161000Y-38843500D01*
G75*
G02*
X80361000Y-39043500I0J-200000D01*
G01*
X80361000Y-39678500D01*
G75*
G02*
X80161000Y-39878500I-200000J0D01*
G01*
X79018000Y-39878500D01*
G75*
G02*
X78818000Y-39678500I0J200000D01*
G01*
X78818000Y-39043500D01*
G75*
G02*
X79018000Y-38843500I200000J0D01*
G01*
G37*
G36*
G01*
X36558700Y-12779900D02*
X36558700Y-13922900D01*
G75*
G02*
X36358700Y-14122900I-200000J0D01*
G01*
X35723700Y-14122900D01*
G75*
G02*
X35523700Y-13922900I0J200000D01*
G01*
X35523700Y-12779900D01*
G75*
G02*
X35723700Y-12579900I200000J0D01*
G01*
X36358700Y-12579900D01*
G75*
G02*
X36558700Y-12779900I0J-200000D01*
G01*
G37*
G36*
G01*
X38082700Y-12779900D02*
X38082700Y-13922900D01*
G75*
G02*
X37882700Y-14122900I-200000J0D01*
G01*
X37247700Y-14122900D01*
G75*
G02*
X37047700Y-13922900I0J200000D01*
G01*
X37047700Y-12779900D01*
G75*
G02*
X37247700Y-12579900I200000J0D01*
G01*
X37882700Y-12579900D01*
G75*
G02*
X38082700Y-12779900I0J-200000D01*
G01*
G37*
G36*
G01*
X33161500Y-11408300D02*
X33161500Y-10265300D01*
G75*
G02*
X33361500Y-10065300I200000J0D01*
G01*
X33996500Y-10065300D01*
G75*
G02*
X34196500Y-10265300I0J-200000D01*
G01*
X34196500Y-11408300D01*
G75*
G02*
X33996500Y-11608300I-200000J0D01*
G01*
X33361500Y-11608300D01*
G75*
G02*
X33161500Y-11408300I0J200000D01*
G01*
G37*
G36*
G01*
X31637500Y-11408300D02*
X31637500Y-10265300D01*
G75*
G02*
X31837500Y-10065300I200000J0D01*
G01*
X32472500Y-10065300D01*
G75*
G02*
X32672500Y-10265300I0J-200000D01*
G01*
X32672500Y-11408300D01*
G75*
G02*
X32472500Y-11608300I-200000J0D01*
G01*
X31837500Y-11608300D01*
G75*
G02*
X31637500Y-11408300I0J200000D01*
G01*
G37*
D12*
G36*
X59005018Y-16149543D02*
G01*
X59042537Y-16160924D01*
X59077114Y-16179406D01*
X59107421Y-16204279D01*
X59132294Y-16234586D01*
X59150776Y-16269163D01*
X59162157Y-16306682D01*
X59166000Y-16345700D01*
X59166000Y-18078700D01*
X59162157Y-18117718D01*
X59150776Y-18155237D01*
X59132294Y-18189814D01*
X59107421Y-18220121D01*
X59077114Y-18244994D01*
X59042537Y-18263476D01*
X59005018Y-18274857D01*
X58966000Y-18278700D01*
X55841000Y-18278700D01*
X55801982Y-18274857D01*
X55764463Y-18263476D01*
X55729886Y-18244994D01*
X55699579Y-18220121D01*
X55674706Y-18189814D01*
X55656224Y-18155237D01*
X55644843Y-18117718D01*
X55641000Y-18078700D01*
X55641000Y-17862200D01*
X54366000Y-17862200D01*
X54326982Y-17858357D01*
X54289463Y-17846976D01*
X54254886Y-17828494D01*
X54224579Y-17803621D01*
X54199706Y-17773314D01*
X54181224Y-17738737D01*
X54169843Y-17701218D01*
X54166000Y-17662200D01*
X54166000Y-16762200D01*
X54169843Y-16723182D01*
X54181224Y-16685663D01*
X54199706Y-16651086D01*
X54224579Y-16620779D01*
X54254886Y-16595906D01*
X54289463Y-16577424D01*
X54326982Y-16566043D01*
X54366000Y-16562200D01*
X55641000Y-16562200D01*
X55641000Y-16345700D01*
X55644843Y-16306682D01*
X55656224Y-16269163D01*
X55674706Y-16234586D01*
X55699579Y-16204279D01*
X55729886Y-16179406D01*
X55764463Y-16160924D01*
X55801982Y-16149543D01*
X55841000Y-16145700D01*
X58966000Y-16145700D01*
X59005018Y-16149543D01*
G37*
G36*
G01*
X54166000Y-19162200D02*
X54166000Y-18262200D01*
G75*
G02*
X54366000Y-18062200I200000J0D01*
G01*
X55666000Y-18062200D01*
G75*
G02*
X55866000Y-18262200I0J-200000D01*
G01*
X55866000Y-19162200D01*
G75*
G02*
X55666000Y-19362200I-200000J0D01*
G01*
X54366000Y-19362200D01*
G75*
G02*
X54166000Y-19162200I0J200000D01*
G01*
G37*
G36*
G01*
X54166000Y-16162200D02*
X54166000Y-15262200D01*
G75*
G02*
X54366000Y-15062200I200000J0D01*
G01*
X55666000Y-15062200D01*
G75*
G02*
X55866000Y-15262200I0J-200000D01*
G01*
X55866000Y-16162200D01*
G75*
G02*
X55666000Y-16362200I-200000J0D01*
G01*
X54366000Y-16362200D01*
G75*
G02*
X54166000Y-16162200I0J200000D01*
G01*
G37*
G36*
X90564518Y-34615343D02*
G01*
X90602037Y-34626724D01*
X90636614Y-34645206D01*
X90666921Y-34670079D01*
X90691794Y-34700386D01*
X90710276Y-34734963D01*
X90721657Y-34772482D01*
X90725500Y-34811500D01*
X90725500Y-36544500D01*
X90721657Y-36583518D01*
X90710276Y-36621037D01*
X90691794Y-36655614D01*
X90666921Y-36685921D01*
X90636614Y-36710794D01*
X90602037Y-36729276D01*
X90564518Y-36740657D01*
X90525500Y-36744500D01*
X87400500Y-36744500D01*
X87361482Y-36740657D01*
X87323963Y-36729276D01*
X87289386Y-36710794D01*
X87259079Y-36685921D01*
X87234206Y-36655614D01*
X87215724Y-36621037D01*
X87204343Y-36583518D01*
X87200500Y-36544500D01*
X87200500Y-36328000D01*
X85925500Y-36328000D01*
X85886482Y-36324157D01*
X85848963Y-36312776D01*
X85814386Y-36294294D01*
X85784079Y-36269421D01*
X85759206Y-36239114D01*
X85740724Y-36204537D01*
X85729343Y-36167018D01*
X85725500Y-36128000D01*
X85725500Y-35228000D01*
X85729343Y-35188982D01*
X85740724Y-35151463D01*
X85759206Y-35116886D01*
X85784079Y-35086579D01*
X85814386Y-35061706D01*
X85848963Y-35043224D01*
X85886482Y-35031843D01*
X85925500Y-35028000D01*
X87200500Y-35028000D01*
X87200500Y-34811500D01*
X87204343Y-34772482D01*
X87215724Y-34734963D01*
X87234206Y-34700386D01*
X87259079Y-34670079D01*
X87289386Y-34645206D01*
X87323963Y-34626724D01*
X87361482Y-34615343D01*
X87400500Y-34611500D01*
X90525500Y-34611500D01*
X90564518Y-34615343D01*
G37*
G36*
G01*
X85725500Y-37628000D02*
X85725500Y-36728000D01*
G75*
G02*
X85925500Y-36528000I200000J0D01*
G01*
X87225500Y-36528000D01*
G75*
G02*
X87425500Y-36728000I0J-200000D01*
G01*
X87425500Y-37628000D01*
G75*
G02*
X87225500Y-37828000I-200000J0D01*
G01*
X85925500Y-37828000D01*
G75*
G02*
X85725500Y-37628000I0J200000D01*
G01*
G37*
G36*
G01*
X85725500Y-34628000D02*
X85725500Y-33728000D01*
G75*
G02*
X85925500Y-33528000I200000J0D01*
G01*
X87225500Y-33528000D01*
G75*
G02*
X87425500Y-33728000I0J-200000D01*
G01*
X87425500Y-34628000D01*
G75*
G02*
X87225500Y-34828000I-200000J0D01*
G01*
X85925500Y-34828000D01*
G75*
G02*
X85725500Y-34628000I0J200000D01*
G01*
G37*
G36*
X28137657Y-23285018D02*
G01*
X28126276Y-23322537D01*
X28107794Y-23357114D01*
X28082921Y-23387421D01*
X28052614Y-23412294D01*
X28018037Y-23430776D01*
X27980518Y-23442157D01*
X27941500Y-23446000D01*
X26208500Y-23446000D01*
X26169482Y-23442157D01*
X26131963Y-23430776D01*
X26097386Y-23412294D01*
X26067079Y-23387421D01*
X26042206Y-23357114D01*
X26023724Y-23322537D01*
X26012343Y-23285018D01*
X26008500Y-23246000D01*
X26008500Y-20121000D01*
X26012343Y-20081982D01*
X26023724Y-20044463D01*
X26042206Y-20009886D01*
X26067079Y-19979579D01*
X26097386Y-19954706D01*
X26131963Y-19936224D01*
X26169482Y-19924843D01*
X26208500Y-19921000D01*
X26425000Y-19921000D01*
X26425000Y-18646000D01*
X26428843Y-18606982D01*
X26440224Y-18569463D01*
X26458706Y-18534886D01*
X26483579Y-18504579D01*
X26513886Y-18479706D01*
X26548463Y-18461224D01*
X26585982Y-18449843D01*
X26625000Y-18446000D01*
X27525000Y-18446000D01*
X27564018Y-18449843D01*
X27601537Y-18461224D01*
X27636114Y-18479706D01*
X27666421Y-18504579D01*
X27691294Y-18534886D01*
X27709776Y-18569463D01*
X27721157Y-18606982D01*
X27725000Y-18646000D01*
X27725000Y-19921000D01*
X27941500Y-19921000D01*
X27980518Y-19924843D01*
X28018037Y-19936224D01*
X28052614Y-19954706D01*
X28082921Y-19979579D01*
X28107794Y-20009886D01*
X28126276Y-20044463D01*
X28137657Y-20081982D01*
X28141500Y-20121000D01*
X28141500Y-23246000D01*
X28137657Y-23285018D01*
G37*
G36*
G01*
X25125000Y-18446000D02*
X26025000Y-18446000D01*
G75*
G02*
X26225000Y-18646000I0J-200000D01*
G01*
X26225000Y-19946000D01*
G75*
G02*
X26025000Y-20146000I-200000J0D01*
G01*
X25125000Y-20146000D01*
G75*
G02*
X24925000Y-19946000I0J200000D01*
G01*
X24925000Y-18646000D01*
G75*
G02*
X25125000Y-18446000I200000J0D01*
G01*
G37*
G36*
G01*
X28125000Y-18446000D02*
X29025000Y-18446000D01*
G75*
G02*
X29225000Y-18646000I0J-200000D01*
G01*
X29225000Y-19946000D01*
G75*
G02*
X29025000Y-20146000I-200000J0D01*
G01*
X28125000Y-20146000D01*
G75*
G02*
X27925000Y-19946000I0J200000D01*
G01*
X27925000Y-18646000D01*
G75*
G02*
X28125000Y-18446000I200000J0D01*
G01*
G37*
G36*
G01*
X69881100Y-6563200D02*
X69881100Y-5763200D01*
G75*
G02*
X70081100Y-5563200I200000J0D01*
G01*
X70981100Y-5563200D01*
G75*
G02*
X71181100Y-5763200I0J-200000D01*
G01*
X71181100Y-6563200D01*
G75*
G02*
X70981100Y-6763200I-200000J0D01*
G01*
X70081100Y-6763200D01*
G75*
G02*
X69881100Y-6563200I0J200000D01*
G01*
G37*
G36*
G01*
X67881100Y-7513200D02*
X67881100Y-6713200D01*
G75*
G02*
X68081100Y-6513200I200000J0D01*
G01*
X68981100Y-6513200D01*
G75*
G02*
X69181100Y-6713200I0J-200000D01*
G01*
X69181100Y-7513200D01*
G75*
G02*
X68981100Y-7713200I-200000J0D01*
G01*
X68081100Y-7713200D01*
G75*
G02*
X67881100Y-7513200I0J200000D01*
G01*
G37*
G36*
G01*
X67881100Y-5613200D02*
X67881100Y-4813200D01*
G75*
G02*
X68081100Y-4613200I200000J0D01*
G01*
X68981100Y-4613200D01*
G75*
G02*
X69181100Y-4813200I0J-200000D01*
G01*
X69181100Y-5613200D01*
G75*
G02*
X68981100Y-5813200I-200000J0D01*
G01*
X68081100Y-5813200D01*
G75*
G02*
X67881100Y-5613200I0J200000D01*
G01*
G37*
G36*
G01*
X58641600Y-6461600D02*
X58641600Y-5661600D01*
G75*
G02*
X58841600Y-5461600I200000J0D01*
G01*
X59741600Y-5461600D01*
G75*
G02*
X59941600Y-5661600I0J-200000D01*
G01*
X59941600Y-6461600D01*
G75*
G02*
X59741600Y-6661600I-200000J0D01*
G01*
X58841600Y-6661600D01*
G75*
G02*
X58641600Y-6461600I0J200000D01*
G01*
G37*
G36*
G01*
X56641600Y-7411600D02*
X56641600Y-6611600D01*
G75*
G02*
X56841600Y-6411600I200000J0D01*
G01*
X57741600Y-6411600D01*
G75*
G02*
X57941600Y-6611600I0J-200000D01*
G01*
X57941600Y-7411600D01*
G75*
G02*
X57741600Y-7611600I-200000J0D01*
G01*
X56841600Y-7611600D01*
G75*
G02*
X56641600Y-7411600I0J200000D01*
G01*
G37*
G36*
G01*
X56641600Y-5511600D02*
X56641600Y-4711600D01*
G75*
G02*
X56841600Y-4511600I200000J0D01*
G01*
X57741600Y-4511600D01*
G75*
G02*
X57941600Y-4711600I0J-200000D01*
G01*
X57941600Y-5511600D01*
G75*
G02*
X57741600Y-5711600I-200000J0D01*
G01*
X56841600Y-5711600D01*
G75*
G02*
X56641600Y-5511600I0J200000D01*
G01*
G37*
G36*
G01*
X50691400Y-8823800D02*
X50691400Y-8023800D01*
G75*
G02*
X50891400Y-7823800I200000J0D01*
G01*
X51791400Y-7823800D01*
G75*
G02*
X51991400Y-8023800I0J-200000D01*
G01*
X51991400Y-8823800D01*
G75*
G02*
X51791400Y-9023800I-200000J0D01*
G01*
X50891400Y-9023800D01*
G75*
G02*
X50691400Y-8823800I0J200000D01*
G01*
G37*
G36*
G01*
X48691400Y-9773800D02*
X48691400Y-8973800D01*
G75*
G02*
X48891400Y-8773800I200000J0D01*
G01*
X49791400Y-8773800D01*
G75*
G02*
X49991400Y-8973800I0J-200000D01*
G01*
X49991400Y-9773800D01*
G75*
G02*
X49791400Y-9973800I-200000J0D01*
G01*
X48891400Y-9973800D01*
G75*
G02*
X48691400Y-9773800I0J200000D01*
G01*
G37*
G36*
G01*
X48691400Y-7873800D02*
X48691400Y-7073800D01*
G75*
G02*
X48891400Y-6873800I200000J0D01*
G01*
X49791400Y-6873800D01*
G75*
G02*
X49991400Y-7073800I0J-200000D01*
G01*
X49991400Y-7873800D01*
G75*
G02*
X49791400Y-8073800I-200000J0D01*
G01*
X48891400Y-8073800D01*
G75*
G02*
X48691400Y-7873800I0J200000D01*
G01*
G37*
D13*
X12000000Y-44400000D03*
D14*
X12000000Y-39900000D03*
D15*
X16250000Y-47550000D03*
D16*
X7750000Y-47550000D03*
G36*
G01*
X62295400Y-5487000D02*
X62295400Y-6687000D01*
G75*
G02*
X62095400Y-6887000I-200000J0D01*
G01*
X61195400Y-6887000D01*
G75*
G02*
X60995400Y-6687000I0J200000D01*
G01*
X60995400Y-5487000D01*
G75*
G02*
X61195400Y-5287000I200000J0D01*
G01*
X62095400Y-5287000D01*
G75*
G02*
X62295400Y-5487000I0J-200000D01*
G01*
G37*
G36*
G01*
X65595400Y-5487000D02*
X65595400Y-6687000D01*
G75*
G02*
X65395400Y-6887000I-200000J0D01*
G01*
X64495400Y-6887000D01*
G75*
G02*
X64295400Y-6687000I0J200000D01*
G01*
X64295400Y-5487000D01*
G75*
G02*
X64495400Y-5287000I200000J0D01*
G01*
X65395400Y-5287000D01*
G75*
G02*
X65595400Y-5487000I0J-200000D01*
G01*
G37*
G36*
G01*
X43314000Y-5734500D02*
X43314000Y-4534500D01*
G75*
G02*
X43514000Y-4334500I200000J0D01*
G01*
X44414000Y-4334500D01*
G75*
G02*
X44614000Y-4534500I0J-200000D01*
G01*
X44614000Y-5734500D01*
G75*
G02*
X44414000Y-5934500I-200000J0D01*
G01*
X43514000Y-5934500D01*
G75*
G02*
X43314000Y-5734500I0J200000D01*
G01*
G37*
G36*
G01*
X40014000Y-5734500D02*
X40014000Y-4534500D01*
G75*
G02*
X40214000Y-4334500I200000J0D01*
G01*
X41114000Y-4334500D01*
G75*
G02*
X41314000Y-4534500I0J-200000D01*
G01*
X41314000Y-5734500D01*
G75*
G02*
X41114000Y-5934500I-200000J0D01*
G01*
X40214000Y-5934500D01*
G75*
G02*
X40014000Y-5734500I0J200000D01*
G01*
G37*
D17*
X12266800Y-8550800D03*
X26821000Y-15129400D03*
X15619600Y-19549000D03*
X47191800Y-37049600D03*
X31875600Y-27550000D03*
X62076200Y-2505600D03*
X79551400Y-29836000D03*
X41172000Y-15637400D03*
X72693400Y-2023000D03*
X91464000Y-25010000D03*
X47344200Y-29836000D03*
X38771700Y-31931500D03*
X47532200Y-9373800D03*
X55888800Y-7011600D03*
X52094000Y-5121800D03*
X71194800Y-8500000D03*
D18*
X2900000Y-49800000D02*
X100000Y-49800000D01*
X100000Y-100000D01*
X2900000Y-100000D01*
X2900000Y-49800000D01*
D12*
G36*
X2900000Y-49800000D02*
G01*
X100000Y-49800000D01*
X100000Y-100000D01*
X2900000Y-100000D01*
X2900000Y-49800000D01*
G37*
D18*
X99900000Y-49800000D02*
X97100000Y-49800000D01*
X97100000Y-100000D01*
X99900000Y-100000D01*
X99900000Y-49800000D01*
D12*
G36*
X99900000Y-49800000D02*
G01*
X97100000Y-49800000D01*
X97100000Y-100000D01*
X99900000Y-100000D01*
X99900000Y-49800000D01*
G37*
G36*
X85824262Y-36297305D02*
G01*
X85849732Y-36310919D01*
X85886877Y-36322187D01*
X85925594Y-36326000D01*
X87200500Y-36326000D01*
X87202232Y-36327000D01*
X87202500Y-36328000D01*
X87202500Y-36528000D01*
X87201500Y-36529732D01*
X87200500Y-36530000D01*
X85753872Y-36530000D01*
X85752140Y-36529000D01*
X85752140Y-36527000D01*
X85753676Y-36526010D01*
X85777863Y-36523628D01*
X85800938Y-36516628D01*
X85822202Y-36505263D01*
X85840839Y-36489968D01*
X85856134Y-36471331D01*
X85867499Y-36450067D01*
X85874499Y-36426992D01*
X85876862Y-36403001D01*
X85874499Y-36379010D01*
X85867499Y-36355935D01*
X85856134Y-36334671D01*
X85840839Y-36316034D01*
X85822050Y-36300615D01*
X85821346Y-36298743D01*
X85822614Y-36297197D01*
X85824262Y-36297305D01*
G37*
G36*
X87202232Y-34827000D02*
G01*
X87202500Y-34828000D01*
X87202500Y-35028000D01*
X87201500Y-35029732D01*
X87200500Y-35030000D01*
X85925594Y-35030000D01*
X85886877Y-35033813D01*
X85849732Y-35045081D01*
X85818843Y-35061592D01*
X85816844Y-35061526D01*
X85815901Y-35059763D01*
X85816789Y-35058165D01*
X85831894Y-35048072D01*
X85848942Y-35031026D01*
X85862337Y-35010979D01*
X85871564Y-34988705D01*
X85876269Y-34965055D01*
X85876269Y-34940949D01*
X85871565Y-34917298D01*
X85862340Y-34895024D01*
X85848945Y-34874977D01*
X85831899Y-34857929D01*
X85811852Y-34844534D01*
X85789578Y-34835307D01*
X85765882Y-34830593D01*
X85753774Y-34829998D01*
X85752093Y-34828914D01*
X85752191Y-34826916D01*
X85753872Y-34826000D01*
X87200500Y-34826000D01*
X87202232Y-34827000D01*
G37*
G36*
X38071990Y-31698246D02*
G01*
X38074372Y-31722433D01*
X38081372Y-31745508D01*
X38092737Y-31766772D01*
X38108032Y-31785409D01*
X38126669Y-31800704D01*
X38147933Y-31812069D01*
X38171008Y-31819069D01*
X38194999Y-31821432D01*
X38218990Y-31819069D01*
X38242065Y-31812069D01*
X38263329Y-31800704D01*
X38281966Y-31785409D01*
X38297261Y-31766772D01*
X38305824Y-31750750D01*
X38307523Y-31749694D01*
X38309286Y-31750637D01*
X38309436Y-31752458D01*
X38295154Y-31786940D01*
X38276108Y-31882690D01*
X38276108Y-31980310D01*
X38295154Y-32076060D01*
X38309436Y-32110542D01*
X38309175Y-32112525D01*
X38307327Y-32113290D01*
X38305824Y-32112250D01*
X38297261Y-32096228D01*
X38281965Y-32077591D01*
X38263328Y-32062296D01*
X38242064Y-32050931D01*
X38218989Y-32043931D01*
X38194998Y-32041568D01*
X38171007Y-32043931D01*
X38147932Y-32050931D01*
X38126669Y-32062296D01*
X38108032Y-32077592D01*
X38092737Y-32096229D01*
X38081372Y-32117493D01*
X38074372Y-32140568D01*
X38071990Y-32164754D01*
X38070825Y-32166380D01*
X38068835Y-32166184D01*
X38068000Y-32164558D01*
X38068000Y-31698442D01*
X38069000Y-31696710D01*
X38071000Y-31696710D01*
X38071990Y-31698246D01*
G37*
G36*
X26226990Y-18474176D02*
G01*
X26229372Y-18498363D01*
X26236372Y-18521438D01*
X26247737Y-18542702D01*
X26263032Y-18561339D01*
X26281669Y-18576634D01*
X26302933Y-18587999D01*
X26326008Y-18594999D01*
X26349999Y-18597362D01*
X26373990Y-18594999D01*
X26397065Y-18587999D01*
X26418329Y-18576634D01*
X26436966Y-18561339D01*
X26452386Y-18542549D01*
X26454258Y-18541845D01*
X26455804Y-18543113D01*
X26455696Y-18544761D01*
X26442081Y-18570232D01*
X26430813Y-18607377D01*
X26427000Y-18646094D01*
X26427000Y-19921000D01*
X26426000Y-19922732D01*
X26425000Y-19923000D01*
X26225000Y-19923000D01*
X26223268Y-19922000D01*
X26223000Y-19921000D01*
X26223000Y-18474372D01*
X26224000Y-18472640D01*
X26226000Y-18472640D01*
X26226990Y-18474176D01*
G37*
G36*
X27926084Y-18472691D02*
G01*
X27927000Y-18474372D01*
X27927000Y-19921000D01*
X27926000Y-19922732D01*
X27925000Y-19923000D01*
X27725000Y-19923000D01*
X27723268Y-19922000D01*
X27723000Y-19921000D01*
X27723000Y-18646094D01*
X27719187Y-18607377D01*
X27707919Y-18570232D01*
X27691408Y-18539343D01*
X27691474Y-18537344D01*
X27693237Y-18536401D01*
X27694835Y-18537289D01*
X27704928Y-18552394D01*
X27721974Y-18569442D01*
X27742021Y-18582837D01*
X27764295Y-18592064D01*
X27787945Y-18596769D01*
X27812051Y-18596769D01*
X27835702Y-18592065D01*
X27857976Y-18582840D01*
X27878023Y-18569445D01*
X27895071Y-18552399D01*
X27908466Y-18532352D01*
X27917693Y-18510078D01*
X27922407Y-18486382D01*
X27923002Y-18474274D01*
X27924086Y-18472593D01*
X27926084Y-18472691D01*
G37*
G36*
X54264762Y-17831505D02*
G01*
X54290232Y-17845119D01*
X54327377Y-17856387D01*
X54366094Y-17860200D01*
X55641000Y-17860200D01*
X55642732Y-17861200D01*
X55643000Y-17862200D01*
X55643000Y-18062200D01*
X55642000Y-18063932D01*
X55641000Y-18064200D01*
X54194372Y-18064200D01*
X54192640Y-18063200D01*
X54192640Y-18061200D01*
X54194176Y-18060210D01*
X54218363Y-18057828D01*
X54241438Y-18050828D01*
X54262702Y-18039463D01*
X54281339Y-18024168D01*
X54296634Y-18005531D01*
X54307999Y-17984267D01*
X54314999Y-17961192D01*
X54317362Y-17937201D01*
X54314999Y-17913210D01*
X54307999Y-17890135D01*
X54296634Y-17868871D01*
X54281339Y-17850234D01*
X54262550Y-17834815D01*
X54261846Y-17832943D01*
X54263114Y-17831397D01*
X54264762Y-17831505D01*
G37*
G36*
X81715565Y-17745674D02*
G01*
X81716400Y-17747300D01*
X81716400Y-17827097D01*
X81716390Y-17827293D01*
X81711444Y-17877513D01*
X81711368Y-17877898D01*
X81698509Y-17920289D01*
X81698359Y-17920651D01*
X81677478Y-17959716D01*
X81677260Y-17960042D01*
X81649160Y-17994283D01*
X81648883Y-17994560D01*
X81614642Y-18022660D01*
X81614316Y-18022878D01*
X81575251Y-18043759D01*
X81574889Y-18043909D01*
X81532498Y-18056768D01*
X81532113Y-18056844D01*
X81481893Y-18061790D01*
X81481697Y-18061800D01*
X81401900Y-18061800D01*
X81400168Y-18060800D01*
X81400168Y-18058800D01*
X81401704Y-18057810D01*
X81462471Y-18051825D01*
X81520720Y-18034155D01*
X81574400Y-18005463D01*
X81621450Y-17966850D01*
X81660063Y-17919800D01*
X81688755Y-17866120D01*
X81706425Y-17807871D01*
X81712410Y-17747104D01*
X81713575Y-17745478D01*
X81715565Y-17745674D01*
G37*
G36*
X77315565Y-17745674D02*
G01*
X77316400Y-17747300D01*
X77316400Y-17827097D01*
X77316390Y-17827293D01*
X77311444Y-17877513D01*
X77311368Y-17877898D01*
X77298509Y-17920289D01*
X77298359Y-17920651D01*
X77277478Y-17959716D01*
X77277260Y-17960042D01*
X77249160Y-17994283D01*
X77248883Y-17994560D01*
X77214642Y-18022660D01*
X77214316Y-18022878D01*
X77175251Y-18043759D01*
X77174889Y-18043909D01*
X77132498Y-18056768D01*
X77132113Y-18056844D01*
X77081893Y-18061790D01*
X77081697Y-18061800D01*
X77001900Y-18061800D01*
X77000168Y-18060800D01*
X77000168Y-18058800D01*
X77001704Y-18057810D01*
X77062471Y-18051825D01*
X77120720Y-18034155D01*
X77174400Y-18005463D01*
X77221450Y-17966850D01*
X77260063Y-17919800D01*
X77288755Y-17866120D01*
X77306425Y-17807871D01*
X77312410Y-17747104D01*
X77313575Y-17745478D01*
X77315565Y-17745674D01*
G37*
G36*
X78316390Y-17747104D02*
G01*
X78322375Y-17807871D01*
X78340045Y-17866120D01*
X78368737Y-17919800D01*
X78407350Y-17966850D01*
X78454400Y-18005463D01*
X78508080Y-18034155D01*
X78566329Y-18051825D01*
X78627096Y-18057810D01*
X78628722Y-18058975D01*
X78628526Y-18060965D01*
X78626900Y-18061800D01*
X78547103Y-18061800D01*
X78546907Y-18061790D01*
X78496687Y-18056844D01*
X78496302Y-18056768D01*
X78453911Y-18043909D01*
X78453549Y-18043759D01*
X78414484Y-18022878D01*
X78414158Y-18022660D01*
X78379917Y-17994560D01*
X78379640Y-17994283D01*
X78351540Y-17960042D01*
X78351322Y-17959716D01*
X78330441Y-17920651D01*
X78330291Y-17920289D01*
X78317432Y-17877898D01*
X78317356Y-17877513D01*
X78312410Y-17827293D01*
X78312400Y-17827097D01*
X78312400Y-17747300D01*
X78313400Y-17745568D01*
X78315400Y-17745568D01*
X78316390Y-17747104D01*
G37*
G36*
X73916390Y-17747104D02*
G01*
X73922375Y-17807871D01*
X73940045Y-17866120D01*
X73968737Y-17919800D01*
X74007350Y-17966850D01*
X74054400Y-18005463D01*
X74108080Y-18034155D01*
X74166329Y-18051825D01*
X74227096Y-18057810D01*
X74228722Y-18058975D01*
X74228526Y-18060965D01*
X74226900Y-18061800D01*
X74147103Y-18061800D01*
X74146907Y-18061790D01*
X74096687Y-18056844D01*
X74096302Y-18056768D01*
X74053911Y-18043909D01*
X74053549Y-18043759D01*
X74014484Y-18022878D01*
X74014158Y-18022660D01*
X73979917Y-17994560D01*
X73979640Y-17994283D01*
X73951540Y-17960042D01*
X73951322Y-17959716D01*
X73930441Y-17920651D01*
X73930291Y-17920289D01*
X73917432Y-17877898D01*
X73917356Y-17877513D01*
X73912410Y-17827293D01*
X73912400Y-17827097D01*
X73912400Y-17747300D01*
X73913400Y-17745568D01*
X73915400Y-17745568D01*
X73916390Y-17747104D01*
G37*
G36*
X55642732Y-16361200D02*
G01*
X55643000Y-16362200D01*
X55643000Y-16562200D01*
X55642000Y-16563932D01*
X55641000Y-16564200D01*
X54366094Y-16564200D01*
X54327377Y-16568013D01*
X54290232Y-16579281D01*
X54259343Y-16595792D01*
X54257344Y-16595726D01*
X54256401Y-16593963D01*
X54257289Y-16592365D01*
X54272394Y-16582272D01*
X54289442Y-16565226D01*
X54302837Y-16545179D01*
X54312064Y-16522905D01*
X54316769Y-16499255D01*
X54316769Y-16475149D01*
X54312065Y-16451498D01*
X54302840Y-16429224D01*
X54289445Y-16409177D01*
X54272399Y-16392129D01*
X54252352Y-16378734D01*
X54230078Y-16369507D01*
X54206382Y-16364793D01*
X54194274Y-16364198D01*
X54192593Y-16363114D01*
X54192691Y-16361116D01*
X54194372Y-16360200D01*
X55641000Y-16360200D01*
X55642732Y-16361200D01*
G37*
G36*
X78628632Y-16058800D02*
G01*
X78628632Y-16060800D01*
X78627096Y-16061790D01*
X78566329Y-16067775D01*
X78508080Y-16085445D01*
X78454400Y-16114137D01*
X78407350Y-16152750D01*
X78368737Y-16199800D01*
X78340045Y-16253480D01*
X78322375Y-16311729D01*
X78316390Y-16372496D01*
X78315225Y-16374122D01*
X78313235Y-16373926D01*
X78312400Y-16372300D01*
X78312400Y-16292503D01*
X78312410Y-16292307D01*
X78317356Y-16242087D01*
X78317432Y-16241702D01*
X78330291Y-16199311D01*
X78330441Y-16198949D01*
X78351322Y-16159884D01*
X78351540Y-16159558D01*
X78379640Y-16125317D01*
X78379917Y-16125040D01*
X78414158Y-16096940D01*
X78414484Y-16096722D01*
X78453549Y-16075841D01*
X78453911Y-16075691D01*
X78496302Y-16062832D01*
X78496687Y-16062756D01*
X78546907Y-16057810D01*
X78547103Y-16057800D01*
X78626900Y-16057800D01*
X78628632Y-16058800D01*
G37*
G36*
X74228632Y-16058800D02*
G01*
X74228632Y-16060800D01*
X74227096Y-16061790D01*
X74166329Y-16067775D01*
X74108080Y-16085445D01*
X74054400Y-16114137D01*
X74007350Y-16152750D01*
X73968737Y-16199800D01*
X73940045Y-16253480D01*
X73922375Y-16311729D01*
X73916390Y-16372496D01*
X73915225Y-16374122D01*
X73913235Y-16373926D01*
X73912400Y-16372300D01*
X73912400Y-16292503D01*
X73912410Y-16292307D01*
X73917356Y-16242087D01*
X73917432Y-16241702D01*
X73930291Y-16199311D01*
X73930441Y-16198949D01*
X73951322Y-16159884D01*
X73951540Y-16159558D01*
X73979640Y-16125317D01*
X73979917Y-16125040D01*
X74014158Y-16096940D01*
X74014484Y-16096722D01*
X74053549Y-16075841D01*
X74053911Y-16075691D01*
X74096302Y-16062832D01*
X74096687Y-16062756D01*
X74146907Y-16057810D01*
X74147103Y-16057800D01*
X74226900Y-16057800D01*
X74228632Y-16058800D01*
G37*
G36*
X81481893Y-16057810D02*
G01*
X81532113Y-16062756D01*
X81532498Y-16062832D01*
X81574889Y-16075691D01*
X81575251Y-16075841D01*
X81614316Y-16096722D01*
X81614642Y-16096940D01*
X81648883Y-16125040D01*
X81649160Y-16125317D01*
X81677260Y-16159558D01*
X81677478Y-16159884D01*
X81698359Y-16198949D01*
X81698509Y-16199311D01*
X81711368Y-16241702D01*
X81711444Y-16242087D01*
X81716390Y-16292307D01*
X81716400Y-16292503D01*
X81716400Y-16372300D01*
X81715400Y-16374032D01*
X81713400Y-16374032D01*
X81712410Y-16372496D01*
X81706425Y-16311729D01*
X81688755Y-16253480D01*
X81660063Y-16199800D01*
X81621450Y-16152750D01*
X81574400Y-16114137D01*
X81520720Y-16085445D01*
X81462471Y-16067775D01*
X81401704Y-16061790D01*
X81400078Y-16060625D01*
X81400274Y-16058635D01*
X81401900Y-16057800D01*
X81481697Y-16057800D01*
X81481893Y-16057810D01*
G37*
G36*
X77081893Y-16057810D02*
G01*
X77132113Y-16062756D01*
X77132498Y-16062832D01*
X77174889Y-16075691D01*
X77175251Y-16075841D01*
X77214316Y-16096722D01*
X77214642Y-16096940D01*
X77248883Y-16125040D01*
X77249160Y-16125317D01*
X77277260Y-16159558D01*
X77277478Y-16159884D01*
X77298359Y-16198949D01*
X77298509Y-16199311D01*
X77311368Y-16241702D01*
X77311444Y-16242087D01*
X77316390Y-16292307D01*
X77316400Y-16292503D01*
X77316400Y-16372300D01*
X77315400Y-16374032D01*
X77313400Y-16374032D01*
X77312410Y-16372496D01*
X77306425Y-16311729D01*
X77288755Y-16253480D01*
X77260063Y-16199800D01*
X77221450Y-16152750D01*
X77174400Y-16114137D01*
X77120720Y-16085445D01*
X77062471Y-16067775D01*
X77001704Y-16061790D01*
X77000078Y-16060625D01*
X77000274Y-16058635D01*
X77001900Y-16057800D01*
X77081697Y-16057800D01*
X77081893Y-16057810D01*
G37*
G36*
X66375990Y-13519005D02*
G01*
X66378372Y-13543192D01*
X66385372Y-13566267D01*
X66396737Y-13587531D01*
X66412032Y-13606168D01*
X66430669Y-13621463D01*
X66451933Y-13632828D01*
X66475008Y-13639828D01*
X66499195Y-13642210D01*
X66500821Y-13643375D01*
X66500625Y-13645365D01*
X66498999Y-13646200D01*
X65876000Y-13646200D01*
X65876000Y-13719199D01*
X65875000Y-13720931D01*
X65873000Y-13720931D01*
X65872010Y-13719395D01*
X65869628Y-13695208D01*
X65862628Y-13672133D01*
X65851263Y-13650869D01*
X65835968Y-13632232D01*
X65817331Y-13616937D01*
X65796067Y-13605572D01*
X65772992Y-13598572D01*
X65748805Y-13596190D01*
X65747179Y-13595025D01*
X65747375Y-13593035D01*
X65749001Y-13592200D01*
X66372000Y-13592200D01*
X66372000Y-13519201D01*
X66373000Y-13517469D01*
X66375000Y-13517469D01*
X66375990Y-13519005D01*
G37*
G36*
X65875165Y-12067575D02*
G01*
X65876000Y-12069201D01*
X65876000Y-12142200D01*
X66498999Y-12142200D01*
X66500731Y-12143200D01*
X66500731Y-12145200D01*
X66499195Y-12146190D01*
X66475008Y-12148572D01*
X66451933Y-12155572D01*
X66430669Y-12166937D01*
X66412032Y-12182232D01*
X66396737Y-12200869D01*
X66385372Y-12222133D01*
X66378372Y-12245208D01*
X66375990Y-12269395D01*
X66374825Y-12271021D01*
X66372835Y-12270825D01*
X66372000Y-12269199D01*
X66372000Y-12196200D01*
X65749001Y-12196200D01*
X65747269Y-12195200D01*
X65747269Y-12193200D01*
X65748805Y-12192210D01*
X65772992Y-12189828D01*
X65796067Y-12182828D01*
X65817331Y-12171463D01*
X65835968Y-12156168D01*
X65851263Y-12137531D01*
X65862628Y-12116267D01*
X65869628Y-12093192D01*
X65872010Y-12069005D01*
X65873175Y-12067379D01*
X65875165Y-12067575D01*
G37*
G36*
X51394290Y-4888546D02*
G01*
X51396672Y-4912733D01*
X51403672Y-4935808D01*
X51415037Y-4957072D01*
X51430332Y-4975709D01*
X51448969Y-4991004D01*
X51470233Y-5002369D01*
X51493308Y-5009369D01*
X51517299Y-5011732D01*
X51541290Y-5009369D01*
X51564365Y-5002369D01*
X51585629Y-4991004D01*
X51604266Y-4975709D01*
X51619561Y-4957072D01*
X51628124Y-4941050D01*
X51629823Y-4939994D01*
X51631586Y-4940937D01*
X51631736Y-4942758D01*
X51617454Y-4977240D01*
X51598408Y-5072990D01*
X51598408Y-5170610D01*
X51617454Y-5266360D01*
X51631736Y-5300842D01*
X51631475Y-5302825D01*
X51629627Y-5303590D01*
X51628124Y-5302550D01*
X51619561Y-5286528D01*
X51604265Y-5267891D01*
X51585628Y-5252596D01*
X51564364Y-5241231D01*
X51541289Y-5234231D01*
X51517298Y-5231868D01*
X51493307Y-5234231D01*
X51470232Y-5241231D01*
X51448969Y-5252596D01*
X51430332Y-5267892D01*
X51415037Y-5286529D01*
X51403672Y-5307793D01*
X51396672Y-5330868D01*
X51394290Y-5355054D01*
X51393125Y-5356680D01*
X51391135Y-5356484D01*
X51390300Y-5354858D01*
X51390300Y-4888742D01*
X51391300Y-4887010D01*
X51393300Y-4887010D01*
X51394290Y-4888546D01*
G37*
G36*
X78925565Y-4436074D02*
G01*
X78926400Y-4437700D01*
X78926400Y-4517497D01*
X78926390Y-4517693D01*
X78921444Y-4567913D01*
X78921368Y-4568298D01*
X78908509Y-4610689D01*
X78908359Y-4611051D01*
X78887478Y-4650116D01*
X78887260Y-4650442D01*
X78859160Y-4684683D01*
X78858883Y-4684960D01*
X78824642Y-4713060D01*
X78824316Y-4713278D01*
X78785251Y-4734159D01*
X78784889Y-4734309D01*
X78742498Y-4747168D01*
X78742113Y-4747244D01*
X78691893Y-4752190D01*
X78691697Y-4752200D01*
X78611900Y-4752200D01*
X78610168Y-4751200D01*
X78610168Y-4749200D01*
X78611704Y-4748210D01*
X78672471Y-4742225D01*
X78730720Y-4724555D01*
X78784400Y-4695863D01*
X78831450Y-4657250D01*
X78870063Y-4610200D01*
X78898755Y-4556520D01*
X78916425Y-4498271D01*
X78922410Y-4437504D01*
X78923575Y-4435878D01*
X78925565Y-4436074D01*
G37*
G36*
X75526390Y-4437504D02*
G01*
X75532375Y-4498271D01*
X75550045Y-4556520D01*
X75578737Y-4610200D01*
X75617350Y-4657250D01*
X75664400Y-4695863D01*
X75718080Y-4724555D01*
X75776329Y-4742225D01*
X75837096Y-4748210D01*
X75838722Y-4749375D01*
X75838526Y-4751365D01*
X75836900Y-4752200D01*
X75757103Y-4752200D01*
X75756907Y-4752190D01*
X75706687Y-4747244D01*
X75706302Y-4747168D01*
X75663911Y-4734309D01*
X75663549Y-4734159D01*
X75624484Y-4713278D01*
X75624158Y-4713060D01*
X75589917Y-4684960D01*
X75589640Y-4684683D01*
X75561540Y-4650442D01*
X75561322Y-4650116D01*
X75540441Y-4611051D01*
X75540291Y-4610689D01*
X75527432Y-4568298D01*
X75527356Y-4567913D01*
X75522410Y-4517693D01*
X75522400Y-4517497D01*
X75522400Y-4437700D01*
X75523400Y-4435968D01*
X75525400Y-4435968D01*
X75526390Y-4437504D01*
G37*
G36*
X79926390Y-4437504D02*
G01*
X79932375Y-4498271D01*
X79950045Y-4556520D01*
X79978737Y-4610200D01*
X80017350Y-4657250D01*
X80064400Y-4695863D01*
X80118080Y-4724555D01*
X80176329Y-4742225D01*
X80237096Y-4748210D01*
X80238722Y-4749375D01*
X80238526Y-4751365D01*
X80236900Y-4752200D01*
X80157103Y-4752200D01*
X80156907Y-4752190D01*
X80106687Y-4747244D01*
X80106302Y-4747168D01*
X80063911Y-4734309D01*
X80063549Y-4734159D01*
X80024484Y-4713278D01*
X80024158Y-4713060D01*
X79989917Y-4684960D01*
X79989640Y-4684683D01*
X79961540Y-4650442D01*
X79961322Y-4650116D01*
X79940441Y-4611051D01*
X79940291Y-4610689D01*
X79927432Y-4568298D01*
X79927356Y-4567913D01*
X79922410Y-4517693D01*
X79922400Y-4517497D01*
X79922400Y-4437700D01*
X79923400Y-4435968D01*
X79925400Y-4435968D01*
X79926390Y-4437504D01*
G37*
G36*
X83325565Y-4436074D02*
G01*
X83326400Y-4437700D01*
X83326400Y-4517497D01*
X83326390Y-4517693D01*
X83321444Y-4567913D01*
X83321368Y-4568298D01*
X83308509Y-4610689D01*
X83308359Y-4611051D01*
X83287478Y-4650116D01*
X83287260Y-4650442D01*
X83259160Y-4684683D01*
X83258883Y-4684960D01*
X83224642Y-4713060D01*
X83224316Y-4713278D01*
X83185251Y-4734159D01*
X83184889Y-4734309D01*
X83142498Y-4747168D01*
X83142113Y-4747244D01*
X83091893Y-4752190D01*
X83091697Y-4752200D01*
X83011900Y-4752200D01*
X83010168Y-4751200D01*
X83010168Y-4749200D01*
X83011704Y-4748210D01*
X83072471Y-4742225D01*
X83130720Y-4724555D01*
X83184400Y-4695863D01*
X83231450Y-4657250D01*
X83270063Y-4610200D01*
X83298755Y-4556520D01*
X83316425Y-4498271D01*
X83322410Y-4437504D01*
X83323575Y-4435878D01*
X83325565Y-4436074D01*
G37*
G36*
X75838632Y-2749200D02*
G01*
X75838632Y-2751200D01*
X75837096Y-2752190D01*
X75776329Y-2758175D01*
X75718080Y-2775845D01*
X75664400Y-2804537D01*
X75617350Y-2843150D01*
X75578737Y-2890200D01*
X75550045Y-2943880D01*
X75532375Y-3002129D01*
X75526390Y-3062896D01*
X75525225Y-3064522D01*
X75523235Y-3064326D01*
X75522400Y-3062700D01*
X75522400Y-2982903D01*
X75522410Y-2982707D01*
X75527356Y-2932487D01*
X75527432Y-2932102D01*
X75540291Y-2889711D01*
X75540441Y-2889349D01*
X75561322Y-2850284D01*
X75561540Y-2849958D01*
X75589640Y-2815717D01*
X75589917Y-2815440D01*
X75624158Y-2787340D01*
X75624484Y-2787122D01*
X75663549Y-2766241D01*
X75663911Y-2766091D01*
X75706302Y-2753232D01*
X75706687Y-2753156D01*
X75756907Y-2748210D01*
X75757103Y-2748200D01*
X75836900Y-2748200D01*
X75838632Y-2749200D01*
G37*
G36*
X80238632Y-2749200D02*
G01*
X80238632Y-2751200D01*
X80237096Y-2752190D01*
X80176329Y-2758175D01*
X80118080Y-2775845D01*
X80064400Y-2804537D01*
X80017350Y-2843150D01*
X79978737Y-2890200D01*
X79950045Y-2943880D01*
X79932375Y-3002129D01*
X79926390Y-3062896D01*
X79925225Y-3064522D01*
X79923235Y-3064326D01*
X79922400Y-3062700D01*
X79922400Y-2982903D01*
X79922410Y-2982707D01*
X79927356Y-2932487D01*
X79927432Y-2932102D01*
X79940291Y-2889711D01*
X79940441Y-2889349D01*
X79961322Y-2850284D01*
X79961540Y-2849958D01*
X79989640Y-2815717D01*
X79989917Y-2815440D01*
X80024158Y-2787340D01*
X80024484Y-2787122D01*
X80063549Y-2766241D01*
X80063911Y-2766091D01*
X80106302Y-2753232D01*
X80106687Y-2753156D01*
X80156907Y-2748210D01*
X80157103Y-2748200D01*
X80236900Y-2748200D01*
X80238632Y-2749200D01*
G37*
G36*
X78691893Y-2748210D02*
G01*
X78742113Y-2753156D01*
X78742498Y-2753232D01*
X78784889Y-2766091D01*
X78785251Y-2766241D01*
X78824316Y-2787122D01*
X78824642Y-2787340D01*
X78858883Y-2815440D01*
X78859160Y-2815717D01*
X78887260Y-2849958D01*
X78887478Y-2850284D01*
X78908359Y-2889349D01*
X78908509Y-2889711D01*
X78921368Y-2932102D01*
X78921444Y-2932487D01*
X78926390Y-2982707D01*
X78926400Y-2982903D01*
X78926400Y-3062700D01*
X78925400Y-3064432D01*
X78923400Y-3064432D01*
X78922410Y-3062896D01*
X78916425Y-3002129D01*
X78898755Y-2943880D01*
X78870063Y-2890200D01*
X78831450Y-2843150D01*
X78784400Y-2804537D01*
X78730720Y-2775845D01*
X78672471Y-2758175D01*
X78611704Y-2752190D01*
X78610078Y-2751025D01*
X78610274Y-2749035D01*
X78611900Y-2748200D01*
X78691697Y-2748200D01*
X78691893Y-2748210D01*
G37*
G36*
X83091893Y-2748210D02*
G01*
X83142113Y-2753156D01*
X83142498Y-2753232D01*
X83184889Y-2766091D01*
X83185251Y-2766241D01*
X83224316Y-2787122D01*
X83224642Y-2787340D01*
X83258883Y-2815440D01*
X83259160Y-2815717D01*
X83287260Y-2849958D01*
X83287478Y-2850284D01*
X83308359Y-2889349D01*
X83308509Y-2889711D01*
X83321368Y-2932102D01*
X83321444Y-2932487D01*
X83326390Y-2982707D01*
X83326400Y-2982903D01*
X83326400Y-3062700D01*
X83325400Y-3064432D01*
X83323400Y-3064432D01*
X83322410Y-3062896D01*
X83316425Y-3002129D01*
X83298755Y-2943880D01*
X83270063Y-2890200D01*
X83231450Y-2843150D01*
X83184400Y-2804537D01*
X83130720Y-2775845D01*
X83072471Y-2758175D01*
X83011704Y-2752190D01*
X83010078Y-2751025D01*
X83010274Y-2749035D01*
X83011900Y-2748200D01*
X83091697Y-2748200D01*
X83091893Y-2748210D01*
G37*
M02*
