G04 #@! TF.GenerationSoftware,KiCad,Pcbnew,5.1.10-88a1d61d58~90~ubuntu20.04.1*
G04 #@! TF.CreationDate,2021-09-05T16:54:04+01:00*
G04 #@! TF.ProjectId,hl2_6xvtr,686c325f-3678-4767-9472-2e6b69636164,1*
G04 #@! TF.SameCoordinates,PX3dfd240PY3473bc0*
G04 #@! TF.FileFunction,Soldermask,Bot*
G04 #@! TF.FilePolarity,Negative*
%FSLAX46Y46*%
G04 Gerber Fmt 4.6, Leading zero omitted, Abs format (unit mm)*
G04 Created by KiCad (PCBNEW 5.1.10-88a1d61d58~90~ubuntu20.04.1) date 2021-09-05 16:54:04*
%MOMM*%
%LPD*%
G01*
G04 APERTURE LIST*
%ADD10C,0.100000*%
%ADD11C,2.400000*%
%ADD12O,2.100000X2.100000*%
%ADD13C,4.600000*%
%ADD14C,3.900000*%
%ADD15C,2.880000*%
%ADD16C,2.800000*%
%ADD17C,1.000000*%
%ADD18C,0.200000*%
G04 APERTURE END LIST*
D10*
G36*
X35361368Y-36874500D02*
G01*
X34479016Y-35624500D01*
X37450984Y-35624500D01*
X36568632Y-36874500D01*
X35361368Y-36874500D01*
G37*
G36*
G01*
X33765000Y-32852500D02*
X33765000Y-31352500D01*
G75*
G02*
X33965000Y-31152500I200000J0D01*
G01*
X34965000Y-31152500D01*
G75*
G02*
X35165000Y-31352500I0J-200000D01*
G01*
X35165000Y-32852500D01*
G75*
G02*
X34965000Y-33052500I-200000J0D01*
G01*
X33965000Y-33052500D01*
G75*
G02*
X33765000Y-32852500I0J200000D01*
G01*
G37*
G36*
G01*
X35265000Y-33149000D02*
X35265000Y-31349000D01*
G75*
G02*
X35465000Y-31149000I200000J0D01*
G01*
X36465000Y-31149000D01*
G75*
G02*
X36665000Y-31349000I0J-200000D01*
G01*
X36665000Y-33149000D01*
G75*
G02*
X36465000Y-33349000I-200000J0D01*
G01*
X35465000Y-33349000D01*
G75*
G02*
X35265000Y-33149000I0J200000D01*
G01*
G37*
G36*
G01*
X36765000Y-32852500D02*
X36765000Y-31352500D01*
G75*
G02*
X36965000Y-31152500I200000J0D01*
G01*
X37965000Y-31152500D01*
G75*
G02*
X38165000Y-31352500I0J-200000D01*
G01*
X38165000Y-32852500D01*
G75*
G02*
X37965000Y-33052500I-200000J0D01*
G01*
X36965000Y-33052500D01*
G75*
G02*
X36765000Y-32852500I0J200000D01*
G01*
G37*
G36*
G01*
X34665000Y-35836000D02*
X34665000Y-33996000D01*
G75*
G02*
X34865000Y-33796000I200000J0D01*
G01*
X37065000Y-33796000D01*
G75*
G02*
X37265000Y-33996000I0J-200000D01*
G01*
X37265000Y-35836000D01*
G75*
G02*
X37065000Y-36036000I-200000J0D01*
G01*
X34865000Y-36036000D01*
G75*
G02*
X34665000Y-35836000I0J200000D01*
G01*
G37*
G36*
X36469131Y-32806300D02*
G01*
X37449131Y-34206300D01*
X34480869Y-34206300D01*
X35460869Y-32806300D01*
X36469131Y-32806300D01*
G37*
G36*
G01*
X81739000Y-28502501D02*
X81739000Y-27105499D01*
G75*
G02*
X81938999Y-26905500I199999J0D01*
G01*
X82828001Y-26905500D01*
G75*
G02*
X83028000Y-27105499I0J-199999D01*
G01*
X83028000Y-28502501D01*
G75*
G02*
X82828001Y-28702500I-199999J0D01*
G01*
X81938999Y-28702500D01*
G75*
G02*
X81739000Y-28502501I0J199999D01*
G01*
G37*
G36*
G01*
X79834000Y-28502501D02*
X79834000Y-27105499D01*
G75*
G02*
X80033999Y-26905500I199999J0D01*
G01*
X80923001Y-26905500D01*
G75*
G02*
X81123000Y-27105499I0J-199999D01*
G01*
X81123000Y-28502501D01*
G75*
G02*
X80923001Y-28702500I-199999J0D01*
G01*
X80033999Y-28702500D01*
G75*
G02*
X79834000Y-28502501I0J199999D01*
G01*
G37*
G36*
G01*
X57926500Y-15040500D02*
X57926500Y-13897500D01*
G75*
G02*
X58126500Y-13697500I200000J0D01*
G01*
X58761500Y-13697500D01*
G75*
G02*
X58961500Y-13897500I0J-200000D01*
G01*
X58961500Y-15040500D01*
G75*
G02*
X58761500Y-15240500I-200000J0D01*
G01*
X58126500Y-15240500D01*
G75*
G02*
X57926500Y-15040500I0J200000D01*
G01*
G37*
G36*
G01*
X56402500Y-15040500D02*
X56402500Y-13897500D01*
G75*
G02*
X56602500Y-13697500I200000J0D01*
G01*
X57237500Y-13697500D01*
G75*
G02*
X57437500Y-13897500I0J-200000D01*
G01*
X57437500Y-15040500D01*
G75*
G02*
X57237500Y-15240500I-200000J0D01*
G01*
X56602500Y-15240500D01*
G75*
G02*
X56402500Y-15040500I0J200000D01*
G01*
G37*
G36*
G01*
X28418000Y-38472000D02*
X28418000Y-39615000D01*
G75*
G02*
X28218000Y-39815000I-200000J0D01*
G01*
X27583000Y-39815000D01*
G75*
G02*
X27383000Y-39615000I0J200000D01*
G01*
X27383000Y-38472000D01*
G75*
G02*
X27583000Y-38272000I200000J0D01*
G01*
X28218000Y-38272000D01*
G75*
G02*
X28418000Y-38472000I0J-200000D01*
G01*
G37*
G36*
G01*
X29942000Y-38472000D02*
X29942000Y-39615000D01*
G75*
G02*
X29742000Y-39815000I-200000J0D01*
G01*
X29107000Y-39815000D01*
G75*
G02*
X28907000Y-39615000I0J200000D01*
G01*
X28907000Y-38472000D01*
G75*
G02*
X29107000Y-38272000I200000J0D01*
G01*
X29742000Y-38272000D01*
G75*
G02*
X29942000Y-38472000I0J-200000D01*
G01*
G37*
G36*
G01*
X31456500Y-40050000D02*
X32599500Y-40050000D01*
G75*
G02*
X32799500Y-40250000I0J-200000D01*
G01*
X32799500Y-40885000D01*
G75*
G02*
X32599500Y-41085000I-200000J0D01*
G01*
X31456500Y-41085000D01*
G75*
G02*
X31256500Y-40885000I0J200000D01*
G01*
X31256500Y-40250000D01*
G75*
G02*
X31456500Y-40050000I200000J0D01*
G01*
G37*
G36*
G01*
X31456500Y-38526000D02*
X32599500Y-38526000D01*
G75*
G02*
X32799500Y-38726000I0J-200000D01*
G01*
X32799500Y-39361000D01*
G75*
G02*
X32599500Y-39561000I-200000J0D01*
G01*
X31456500Y-39561000D01*
G75*
G02*
X31256500Y-39361000I0J200000D01*
G01*
X31256500Y-38726000D01*
G75*
G02*
X31456500Y-38526000I200000J0D01*
G01*
G37*
G36*
G01*
X32599500Y-36005000D02*
X31456500Y-36005000D01*
G75*
G02*
X31256500Y-35805000I0J200000D01*
G01*
X31256500Y-35170000D01*
G75*
G02*
X31456500Y-34970000I200000J0D01*
G01*
X32599500Y-34970000D01*
G75*
G02*
X32799500Y-35170000I0J-200000D01*
G01*
X32799500Y-35805000D01*
G75*
G02*
X32599500Y-36005000I-200000J0D01*
G01*
G37*
G36*
G01*
X32599500Y-37529000D02*
X31456500Y-37529000D01*
G75*
G02*
X31256500Y-37329000I0J200000D01*
G01*
X31256500Y-36694000D01*
G75*
G02*
X31456500Y-36494000I200000J0D01*
G01*
X32599500Y-36494000D01*
G75*
G02*
X32799500Y-36694000I0J-200000D01*
G01*
X32799500Y-37329000D01*
G75*
G02*
X32599500Y-37529000I-200000J0D01*
G01*
G37*
G36*
G01*
X29234000Y-31941000D02*
X28091000Y-31941000D01*
G75*
G02*
X27891000Y-31741000I0J200000D01*
G01*
X27891000Y-31106000D01*
G75*
G02*
X28091000Y-30906000I200000J0D01*
G01*
X29234000Y-30906000D01*
G75*
G02*
X29434000Y-31106000I0J-200000D01*
G01*
X29434000Y-31741000D01*
G75*
G02*
X29234000Y-31941000I-200000J0D01*
G01*
G37*
G36*
G01*
X29234000Y-33465000D02*
X28091000Y-33465000D01*
G75*
G02*
X27891000Y-33265000I0J200000D01*
G01*
X27891000Y-32630000D01*
G75*
G02*
X28091000Y-32430000I200000J0D01*
G01*
X29234000Y-32430000D01*
G75*
G02*
X29434000Y-32630000I0J-200000D01*
G01*
X29434000Y-33265000D01*
G75*
G02*
X29234000Y-33465000I-200000J0D01*
G01*
G37*
G36*
G01*
X31456500Y-32938000D02*
X32599500Y-32938000D01*
G75*
G02*
X32799500Y-33138000I0J-200000D01*
G01*
X32799500Y-33773000D01*
G75*
G02*
X32599500Y-33973000I-200000J0D01*
G01*
X31456500Y-33973000D01*
G75*
G02*
X31256500Y-33773000I0J200000D01*
G01*
X31256500Y-33138000D01*
G75*
G02*
X31456500Y-32938000I200000J0D01*
G01*
G37*
G36*
G01*
X31456500Y-31414000D02*
X32599500Y-31414000D01*
G75*
G02*
X32799500Y-31614000I0J-200000D01*
G01*
X32799500Y-32249000D01*
G75*
G02*
X32599500Y-32449000I-200000J0D01*
G01*
X31456500Y-32449000D01*
G75*
G02*
X31256500Y-32249000I0J200000D01*
G01*
X31256500Y-31614000D01*
G75*
G02*
X31456500Y-31414000I200000J0D01*
G01*
G37*
G36*
G01*
X77548000Y-30407500D02*
X77548000Y-29264500D01*
G75*
G02*
X77748000Y-29064500I200000J0D01*
G01*
X78383000Y-29064500D01*
G75*
G02*
X78583000Y-29264500I0J-200000D01*
G01*
X78583000Y-30407500D01*
G75*
G02*
X78383000Y-30607500I-200000J0D01*
G01*
X77748000Y-30607500D01*
G75*
G02*
X77548000Y-30407500I0J200000D01*
G01*
G37*
G36*
G01*
X76024000Y-30407500D02*
X76024000Y-29264500D01*
G75*
G02*
X76224000Y-29064500I200000J0D01*
G01*
X76859000Y-29064500D01*
G75*
G02*
X77059000Y-29264500I0J-200000D01*
G01*
X77059000Y-30407500D01*
G75*
G02*
X76859000Y-30607500I-200000J0D01*
G01*
X76224000Y-30607500D01*
G75*
G02*
X76024000Y-30407500I0J200000D01*
G01*
G37*
G36*
G01*
X72858500Y-26778500D02*
X74001500Y-26778500D01*
G75*
G02*
X74201500Y-26978500I0J-200000D01*
G01*
X74201500Y-27613500D01*
G75*
G02*
X74001500Y-27813500I-200000J0D01*
G01*
X72858500Y-27813500D01*
G75*
G02*
X72658500Y-27613500I0J200000D01*
G01*
X72658500Y-26978500D01*
G75*
G02*
X72858500Y-26778500I200000J0D01*
G01*
G37*
G36*
G01*
X72858500Y-25254500D02*
X74001500Y-25254500D01*
G75*
G02*
X74201500Y-25454500I0J-200000D01*
G01*
X74201500Y-26089500D01*
G75*
G02*
X74001500Y-26289500I-200000J0D01*
G01*
X72858500Y-26289500D01*
G75*
G02*
X72658500Y-26089500I0J200000D01*
G01*
X72658500Y-25454500D01*
G75*
G02*
X72858500Y-25254500I200000J0D01*
G01*
G37*
G36*
G01*
X68550000Y-29264500D02*
X68550000Y-30407500D01*
G75*
G02*
X68350000Y-30607500I-200000J0D01*
G01*
X67715000Y-30607500D01*
G75*
G02*
X67515000Y-30407500I0J200000D01*
G01*
X67515000Y-29264500D01*
G75*
G02*
X67715000Y-29064500I200000J0D01*
G01*
X68350000Y-29064500D01*
G75*
G02*
X68550000Y-29264500I0J-200000D01*
G01*
G37*
G36*
G01*
X70074000Y-29264500D02*
X70074000Y-30407500D01*
G75*
G02*
X69874000Y-30607500I-200000J0D01*
G01*
X69239000Y-30607500D01*
G75*
G02*
X69039000Y-30407500I0J200000D01*
G01*
X69039000Y-29264500D01*
G75*
G02*
X69239000Y-29064500I200000J0D01*
G01*
X69874000Y-29064500D01*
G75*
G02*
X70074000Y-29264500I0J-200000D01*
G01*
G37*
G36*
G01*
X67016500Y-26289500D02*
X65873500Y-26289500D01*
G75*
G02*
X65673500Y-26089500I0J200000D01*
G01*
X65673500Y-25454500D01*
G75*
G02*
X65873500Y-25254500I200000J0D01*
G01*
X67016500Y-25254500D01*
G75*
G02*
X67216500Y-25454500I0J-200000D01*
G01*
X67216500Y-26089500D01*
G75*
G02*
X67016500Y-26289500I-200000J0D01*
G01*
G37*
G36*
G01*
X67016500Y-27813500D02*
X65873500Y-27813500D01*
G75*
G02*
X65673500Y-27613500I0J200000D01*
G01*
X65673500Y-26978500D01*
G75*
G02*
X65873500Y-26778500I200000J0D01*
G01*
X67016500Y-26778500D01*
G75*
G02*
X67216500Y-26978500I0J-200000D01*
G01*
X67216500Y-27613500D01*
G75*
G02*
X67016500Y-27813500I-200000J0D01*
G01*
G37*
G36*
G01*
X64857500Y-26289500D02*
X63714500Y-26289500D01*
G75*
G02*
X63514500Y-26089500I0J200000D01*
G01*
X63514500Y-25454500D01*
G75*
G02*
X63714500Y-25254500I200000J0D01*
G01*
X64857500Y-25254500D01*
G75*
G02*
X65057500Y-25454500I0J-200000D01*
G01*
X65057500Y-26089500D01*
G75*
G02*
X64857500Y-26289500I-200000J0D01*
G01*
G37*
G36*
G01*
X64857500Y-27813500D02*
X63714500Y-27813500D01*
G75*
G02*
X63514500Y-27613500I0J200000D01*
G01*
X63514500Y-26978500D01*
G75*
G02*
X63714500Y-26778500I200000J0D01*
G01*
X64857500Y-26778500D01*
G75*
G02*
X65057500Y-26978500I0J-200000D01*
G01*
X65057500Y-27613500D01*
G75*
G02*
X64857500Y-27813500I-200000J0D01*
G01*
G37*
G36*
G01*
X59387000Y-30407500D02*
X59387000Y-29264500D01*
G75*
G02*
X59587000Y-29064500I200000J0D01*
G01*
X60222000Y-29064500D01*
G75*
G02*
X60422000Y-29264500I0J-200000D01*
G01*
X60422000Y-30407500D01*
G75*
G02*
X60222000Y-30607500I-200000J0D01*
G01*
X59587000Y-30607500D01*
G75*
G02*
X59387000Y-30407500I0J200000D01*
G01*
G37*
G36*
G01*
X57863000Y-30407500D02*
X57863000Y-29264500D01*
G75*
G02*
X58063000Y-29064500I200000J0D01*
G01*
X58698000Y-29064500D01*
G75*
G02*
X58898000Y-29264500I0J-200000D01*
G01*
X58898000Y-30407500D01*
G75*
G02*
X58698000Y-30607500I-200000J0D01*
G01*
X58063000Y-30607500D01*
G75*
G02*
X57863000Y-30407500I0J200000D01*
G01*
G37*
G36*
G01*
X54570500Y-26778500D02*
X55713500Y-26778500D01*
G75*
G02*
X55913500Y-26978500I0J-200000D01*
G01*
X55913500Y-27613500D01*
G75*
G02*
X55713500Y-27813500I-200000J0D01*
G01*
X54570500Y-27813500D01*
G75*
G02*
X54370500Y-27613500I0J200000D01*
G01*
X54370500Y-26978500D01*
G75*
G02*
X54570500Y-26778500I200000J0D01*
G01*
G37*
G36*
G01*
X54570500Y-25254500D02*
X55713500Y-25254500D01*
G75*
G02*
X55913500Y-25454500I0J-200000D01*
G01*
X55913500Y-26089500D01*
G75*
G02*
X55713500Y-26289500I-200000J0D01*
G01*
X54570500Y-26289500D01*
G75*
G02*
X54370500Y-26089500I0J200000D01*
G01*
X54370500Y-25454500D01*
G75*
G02*
X54570500Y-25254500I200000J0D01*
G01*
G37*
G36*
G01*
X50731900Y-29264500D02*
X50731900Y-30407500D01*
G75*
G02*
X50531900Y-30607500I-200000J0D01*
G01*
X49896900Y-30607500D01*
G75*
G02*
X49696900Y-30407500I0J200000D01*
G01*
X49696900Y-29264500D01*
G75*
G02*
X49896900Y-29064500I200000J0D01*
G01*
X50531900Y-29064500D01*
G75*
G02*
X50731900Y-29264500I0J-200000D01*
G01*
G37*
G36*
G01*
X52255900Y-29264500D02*
X52255900Y-30407500D01*
G75*
G02*
X52055900Y-30607500I-200000J0D01*
G01*
X51420900Y-30607500D01*
G75*
G02*
X51220900Y-30407500I0J200000D01*
G01*
X51220900Y-29264500D01*
G75*
G02*
X51420900Y-29064500I200000J0D01*
G01*
X52055900Y-29064500D01*
G75*
G02*
X52255900Y-29264500I0J-200000D01*
G01*
G37*
D11*
X59642000Y-25336000D03*
X55142000Y-29836000D03*
D12*
X85378000Y-1134000D03*
X87918000Y-1134000D03*
G36*
G01*
X89608000Y-84000D02*
X91308000Y-84000D01*
G75*
G02*
X91508000Y-284000I0J-200000D01*
G01*
X91508000Y-1984000D01*
G75*
G02*
X91308000Y-2184000I-200000J0D01*
G01*
X89608000Y-2184000D01*
G75*
G02*
X89408000Y-1984000I0J200000D01*
G01*
X89408000Y-284000D01*
G75*
G02*
X89608000Y-84000I200000J0D01*
G01*
G37*
X57428000Y-1134000D03*
X54888000Y-1134000D03*
X52348000Y-1134000D03*
X49808000Y-1134000D03*
X47268000Y-1134000D03*
X44728000Y-1134000D03*
X42188000Y-1134000D03*
X39648000Y-1134000D03*
X37108000Y-1134000D03*
X34568000Y-1134000D03*
X32028000Y-1134000D03*
X29488000Y-1134000D03*
X26948000Y-1134000D03*
X24408000Y-1134000D03*
X21868000Y-1134000D03*
X19328000Y-1134000D03*
X16788000Y-1134000D03*
X14248000Y-1134000D03*
X11708000Y-1134000D03*
G36*
G01*
X10018000Y-2184000D02*
X8318000Y-2184000D01*
G75*
G02*
X8118000Y-1984000I0J200000D01*
G01*
X8118000Y-284000D01*
G75*
G02*
X8318000Y-84000I200000J0D01*
G01*
X10018000Y-84000D01*
G75*
G02*
X10218000Y-284000I0J-200000D01*
G01*
X10218000Y-1984000D01*
G75*
G02*
X10018000Y-2184000I-200000J0D01*
G01*
G37*
D11*
X35465500Y-39098500D03*
X39965500Y-34598500D03*
X28717500Y-35479000D03*
X24217500Y-30979000D03*
G36*
G01*
X63000000Y-47600000D02*
X63000000Y-42400000D01*
G75*
G02*
X63200000Y-42200000I200000J0D01*
G01*
X64800000Y-42200000D01*
G75*
G02*
X65000000Y-42400000I0J-200000D01*
G01*
X65000000Y-47600000D01*
G75*
G02*
X64800000Y-47800000I-200000J0D01*
G01*
X63200000Y-47800000D01*
G75*
G02*
X63000000Y-47600000I0J200000D01*
G01*
G37*
G36*
G01*
X57800000Y-47600000D02*
X57800000Y-42400000D01*
G75*
G02*
X58000000Y-42200000I200000J0D01*
G01*
X62400000Y-42200000D01*
G75*
G02*
X62600000Y-42400000I0J-200000D01*
G01*
X62600000Y-47600000D01*
G75*
G02*
X62400000Y-47800000I-200000J0D01*
G01*
X58000000Y-47800000D01*
G75*
G02*
X57800000Y-47600000I0J200000D01*
G01*
G37*
G36*
G01*
X65400000Y-47600000D02*
X65400000Y-42400000D01*
G75*
G02*
X65600000Y-42200000I200000J0D01*
G01*
X70000000Y-42200000D01*
G75*
G02*
X70200000Y-42400000I0J-200000D01*
G01*
X70200000Y-47600000D01*
G75*
G02*
X70000000Y-47800000I-200000J0D01*
G01*
X65600000Y-47800000D01*
G75*
G02*
X65400000Y-47600000I0J200000D01*
G01*
G37*
G36*
G01*
X31000000Y-47600000D02*
X31000000Y-42400000D01*
G75*
G02*
X31200000Y-42200000I200000J0D01*
G01*
X32800000Y-42200000D01*
G75*
G02*
X33000000Y-42400000I0J-200000D01*
G01*
X33000000Y-47600000D01*
G75*
G02*
X32800000Y-47800000I-200000J0D01*
G01*
X31200000Y-47800000D01*
G75*
G02*
X31000000Y-47600000I0J200000D01*
G01*
G37*
G36*
G01*
X25800000Y-47600000D02*
X25800000Y-42400000D01*
G75*
G02*
X26000000Y-42200000I200000J0D01*
G01*
X30400000Y-42200000D01*
G75*
G02*
X30600000Y-42400000I0J-200000D01*
G01*
X30600000Y-47600000D01*
G75*
G02*
X30400000Y-47800000I-200000J0D01*
G01*
X26000000Y-47800000D01*
G75*
G02*
X25800000Y-47600000I0J200000D01*
G01*
G37*
G36*
G01*
X33400000Y-47600000D02*
X33400000Y-42400000D01*
G75*
G02*
X33600000Y-42200000I200000J0D01*
G01*
X38000000Y-42200000D01*
G75*
G02*
X38200000Y-42400000I0J-200000D01*
G01*
X38200000Y-47600000D01*
G75*
G02*
X38000000Y-47800000I-200000J0D01*
G01*
X33600000Y-47800000D01*
G75*
G02*
X33400000Y-47600000I0J200000D01*
G01*
G37*
X77930000Y-25336000D03*
X73430000Y-29836000D03*
X68786000Y-25336000D03*
X64286000Y-29836000D03*
G36*
G01*
X31028000Y-5258000D02*
X31028000Y-58000D01*
G75*
G02*
X31228000Y142000I200000J0D01*
G01*
X32828000Y142000D01*
G75*
G02*
X33028000Y-58000I0J-200000D01*
G01*
X33028000Y-5258000D01*
G75*
G02*
X32828000Y-5458000I-200000J0D01*
G01*
X31228000Y-5458000D01*
G75*
G02*
X31028000Y-5258000I0J200000D01*
G01*
G37*
G36*
G01*
X25828000Y-5258000D02*
X25828000Y-58000D01*
G75*
G02*
X26028000Y142000I200000J0D01*
G01*
X30428000Y142000D01*
G75*
G02*
X30628000Y-58000I0J-200000D01*
G01*
X30628000Y-5258000D01*
G75*
G02*
X30428000Y-5458000I-200000J0D01*
G01*
X26028000Y-5458000D01*
G75*
G02*
X25828000Y-5258000I0J200000D01*
G01*
G37*
G36*
G01*
X33428000Y-5258000D02*
X33428000Y-58000D01*
G75*
G02*
X33628000Y142000I200000J0D01*
G01*
X38028000Y142000D01*
G75*
G02*
X38228000Y-58000I0J-200000D01*
G01*
X38228000Y-5258000D01*
G75*
G02*
X38028000Y-5458000I-200000J0D01*
G01*
X33628000Y-5458000D01*
G75*
G02*
X33428000Y-5258000I0J200000D01*
G01*
G37*
G36*
G01*
X20868000Y-5258000D02*
X20868000Y-58000D01*
G75*
G02*
X21068000Y142000I200000J0D01*
G01*
X22668000Y142000D01*
G75*
G02*
X22868000Y-58000I0J-200000D01*
G01*
X22868000Y-5258000D01*
G75*
G02*
X22668000Y-5458000I-200000J0D01*
G01*
X21068000Y-5458000D01*
G75*
G02*
X20868000Y-5258000I0J200000D01*
G01*
G37*
G36*
G01*
X15668000Y-5258000D02*
X15668000Y-58000D01*
G75*
G02*
X15868000Y142000I200000J0D01*
G01*
X20268000Y142000D01*
G75*
G02*
X20468000Y-58000I0J-200000D01*
G01*
X20468000Y-5258000D01*
G75*
G02*
X20268000Y-5458000I-200000J0D01*
G01*
X15868000Y-5458000D01*
G75*
G02*
X15668000Y-5258000I0J200000D01*
G01*
G37*
G36*
G01*
X23268000Y-5258000D02*
X23268000Y-58000D01*
G75*
G02*
X23468000Y142000I200000J0D01*
G01*
X27868000Y142000D01*
G75*
G02*
X28068000Y-58000I0J-200000D01*
G01*
X28068000Y-5258000D01*
G75*
G02*
X27868000Y-5458000I-200000J0D01*
G01*
X23468000Y-5458000D01*
G75*
G02*
X23268000Y-5258000I0J200000D01*
G01*
G37*
D13*
X12000000Y-44400000D03*
D14*
X12000000Y-39900000D03*
D15*
X16250000Y-47550000D03*
D16*
X7750000Y-47550000D03*
D17*
X87400000Y-3420000D03*
X88670000Y-3420000D03*
X89940000Y-3420000D03*
X91210000Y-3420000D03*
X92480000Y-3420000D03*
X93750000Y-3420000D03*
X95020000Y-3420000D03*
X96290000Y-3420000D03*
X97560000Y-3420000D03*
X86130000Y-3420000D03*
X84860000Y-3420000D03*
X84860000Y-4690000D03*
X84860000Y-5960000D03*
X84860000Y-9770000D03*
X83590000Y-9770000D03*
X83590000Y-11040000D03*
X84860000Y-11040000D03*
X84860000Y-14850000D03*
X84860000Y-16120000D03*
X87400000Y-17390000D03*
X88670000Y-17390000D03*
X89940000Y-17390000D03*
X91210000Y-17390000D03*
X92480000Y-17390000D03*
X93750000Y-17390000D03*
X95020000Y-17390000D03*
X96290000Y-17390000D03*
X97560000Y-17390000D03*
X97560000Y-18660000D03*
X96290000Y-18660000D03*
X95020000Y-18660000D03*
X93750000Y-18660000D03*
X92480000Y-18660000D03*
X91210000Y-18660000D03*
X89940000Y-18660000D03*
X88670000Y-18660000D03*
X93750000Y-2150000D03*
X95020000Y-2150000D03*
X97560000Y-2150000D03*
X96290000Y-2150000D03*
X97560000Y-4690000D03*
X97560000Y-5960000D03*
X97560000Y-7230000D03*
X97560000Y-8500000D03*
X97560000Y-9770000D03*
X97560000Y-11040000D03*
X97560000Y-12310000D03*
X97560000Y-13580000D03*
X97560000Y-14850000D03*
X97560000Y-16120000D03*
X86130000Y-17390000D03*
X84860000Y-17390000D03*
X84860000Y-18660000D03*
X86130000Y-18660000D03*
X87400000Y-18660000D03*
X62508000Y-17136000D03*
X62000000Y-18406000D03*
X60984000Y-18914000D03*
X59968000Y-18914000D03*
X58952000Y-18914000D03*
X28726000Y-21200000D03*
X28726000Y-22216000D03*
X28726000Y-23232000D03*
X28218000Y-23994000D03*
X25424000Y-21200000D03*
X25424000Y-22216000D03*
X25678000Y-23232000D03*
X25932000Y-23994000D03*
X26694000Y-24502000D03*
X27710000Y-24502000D03*
X34314000Y-33900000D03*
X34314000Y-34916000D03*
X34314000Y-35932000D03*
X34822000Y-36694000D03*
X37108000Y-36694000D03*
X37616000Y-35932000D03*
X37616000Y-34916000D03*
X37616000Y-33900000D03*
X88670000Y-34154000D03*
X89432000Y-34154000D03*
X90194000Y-34154000D03*
X90956000Y-34408000D03*
X91718000Y-34916000D03*
X91718000Y-35678000D03*
X91718000Y-36440000D03*
X90956000Y-36948000D03*
X90194000Y-37202000D03*
X89432000Y-37202000D03*
X88670000Y-37202000D03*
X62000000Y-16120000D03*
X62000000Y-16120000D03*
X60984000Y-15612000D03*
X59968000Y-15612000D03*
X71652000Y-11929000D03*
X68985000Y-15358000D03*
X59460000Y-14469000D03*
X26821000Y-15129400D03*
X15619600Y-19549000D03*
X47191800Y-37049600D03*
X31875600Y-27550000D03*
X62076200Y-2505600D03*
X79551400Y-29836000D03*
X41172000Y-15637400D03*
X72693400Y-2023000D03*
X91464000Y-25010000D03*
X47344200Y-29836000D03*
X38771700Y-31931500D03*
X12266800Y-8550800D03*
X47532200Y-9373800D03*
X55888800Y-7011600D03*
X52094000Y-5121800D03*
X70077200Y-8550800D03*
D18*
X2900000Y-49800000D02*
X100000Y-49800000D01*
X100000Y-100000D01*
X2900000Y-100000D01*
X2900000Y-49800000D01*
D10*
G36*
X2900000Y-49800000D02*
G01*
X100000Y-49800000D01*
X100000Y-100000D01*
X2900000Y-100000D01*
X2900000Y-49800000D01*
G37*
D18*
X99900000Y-49800000D02*
X97100000Y-49800000D01*
X97100000Y-100000D01*
X99900000Y-100000D01*
X99900000Y-49800000D01*
D10*
G36*
X99900000Y-49800000D02*
G01*
X97100000Y-49800000D01*
X97100000Y-100000D01*
X99900000Y-100000D01*
X99900000Y-49800000D01*
G37*
G36*
X37266414Y-35267288D02*
G01*
X37300077Y-35300951D01*
X37381249Y-35355188D01*
X37471440Y-35392546D01*
X37567190Y-35411592D01*
X37664810Y-35411592D01*
X37760560Y-35392546D01*
X37850751Y-35355188D01*
X37899970Y-35322301D01*
X37901966Y-35322170D01*
X37903077Y-35323833D01*
X37902350Y-35325510D01*
X37888309Y-35337033D01*
X37873014Y-35355670D01*
X37861649Y-35376934D01*
X37854649Y-35400009D01*
X37852286Y-35424000D01*
X37854649Y-35447991D01*
X37861649Y-35471066D01*
X37873014Y-35492330D01*
X37888309Y-35510967D01*
X37902350Y-35522490D01*
X37903054Y-35524362D01*
X37901785Y-35525908D01*
X37899970Y-35525699D01*
X37850751Y-35492812D01*
X37760560Y-35455454D01*
X37664810Y-35436408D01*
X37567190Y-35436408D01*
X37471440Y-35455454D01*
X37381249Y-35492812D01*
X37300077Y-35547049D01*
X37266414Y-35580712D01*
X37264482Y-35581230D01*
X37263000Y-35579298D01*
X37263000Y-35268702D01*
X37264000Y-35266970D01*
X37266414Y-35267288D01*
G37*
G36*
X34667000Y-35268702D02*
G01*
X34667000Y-35579298D01*
X34666000Y-35581030D01*
X34663586Y-35580712D01*
X34629923Y-35547049D01*
X34548751Y-35492812D01*
X34458560Y-35455454D01*
X34362810Y-35436408D01*
X34265190Y-35436408D01*
X34169440Y-35455454D01*
X34079249Y-35492812D01*
X34030030Y-35525699D01*
X34028034Y-35525830D01*
X34026923Y-35524167D01*
X34027650Y-35522490D01*
X34041691Y-35510967D01*
X34056986Y-35492330D01*
X34068351Y-35471066D01*
X34075351Y-35447991D01*
X34077714Y-35424000D01*
X34075351Y-35400009D01*
X34068351Y-35376934D01*
X34056986Y-35355670D01*
X34041691Y-35337033D01*
X34027650Y-35325510D01*
X34026946Y-35323638D01*
X34028215Y-35322092D01*
X34030030Y-35322301D01*
X34079249Y-35355188D01*
X34169440Y-35392546D01*
X34265190Y-35411592D01*
X34362810Y-35411592D01*
X34458560Y-35392546D01*
X34548751Y-35355188D01*
X34629923Y-35300951D01*
X34663586Y-35267288D01*
X34665518Y-35266770D01*
X34667000Y-35268702D01*
G37*
G36*
X37266414Y-34251288D02*
G01*
X37300077Y-34284951D01*
X37381249Y-34339188D01*
X37471440Y-34376546D01*
X37567190Y-34395592D01*
X37664810Y-34395592D01*
X37760560Y-34376546D01*
X37850751Y-34339188D01*
X37899970Y-34306301D01*
X37901966Y-34306170D01*
X37903077Y-34307833D01*
X37902350Y-34309510D01*
X37888309Y-34321033D01*
X37873014Y-34339670D01*
X37861649Y-34360934D01*
X37854649Y-34384009D01*
X37852286Y-34408000D01*
X37854649Y-34431991D01*
X37861649Y-34455066D01*
X37873014Y-34476330D01*
X37888309Y-34494967D01*
X37902350Y-34506490D01*
X37903054Y-34508362D01*
X37901785Y-34509908D01*
X37899970Y-34509699D01*
X37850751Y-34476812D01*
X37760560Y-34439454D01*
X37664810Y-34420408D01*
X37567190Y-34420408D01*
X37471440Y-34439454D01*
X37381249Y-34476812D01*
X37300077Y-34531049D01*
X37266414Y-34564712D01*
X37264482Y-34565230D01*
X37263000Y-34563298D01*
X37263000Y-34252702D01*
X37264000Y-34250970D01*
X37266414Y-34251288D01*
G37*
G36*
X34667000Y-34252702D02*
G01*
X34667000Y-34563298D01*
X34666000Y-34565030D01*
X34663586Y-34564712D01*
X34629923Y-34531049D01*
X34548751Y-34476812D01*
X34458560Y-34439454D01*
X34362810Y-34420408D01*
X34265190Y-34420408D01*
X34169440Y-34439454D01*
X34079249Y-34476812D01*
X34030030Y-34509699D01*
X34028034Y-34509830D01*
X34026923Y-34508167D01*
X34027650Y-34506490D01*
X34041691Y-34494967D01*
X34056986Y-34476330D01*
X34068351Y-34455066D01*
X34075351Y-34431991D01*
X34077714Y-34408000D01*
X34075351Y-34384009D01*
X34068351Y-34360934D01*
X34056986Y-34339670D01*
X34041691Y-34321033D01*
X34027650Y-34309510D01*
X34026946Y-34307638D01*
X34028215Y-34306092D01*
X34030030Y-34306301D01*
X34079249Y-34339188D01*
X34169440Y-34376546D01*
X34265190Y-34395592D01*
X34362810Y-34395592D01*
X34458560Y-34376546D01*
X34548751Y-34339188D01*
X34629923Y-34284951D01*
X34663586Y-34251288D01*
X34665518Y-34250770D01*
X34667000Y-34252702D01*
G37*
G36*
X36762574Y-31147086D02*
G01*
X36766008Y-31148128D01*
X36790195Y-31150510D01*
X36791821Y-31151675D01*
X36791625Y-31153665D01*
X36789999Y-31154500D01*
X36767000Y-31154500D01*
X36767000Y-33050500D01*
X36881551Y-33050500D01*
X36883283Y-33051500D01*
X36883283Y-33053500D01*
X36881747Y-33054490D01*
X36857560Y-33056872D01*
X36834485Y-33063872D01*
X36813221Y-33075237D01*
X36794584Y-33090532D01*
X36779289Y-33109169D01*
X36767924Y-33130433D01*
X36760924Y-33153508D01*
X36758561Y-33177499D01*
X36760924Y-33201490D01*
X36767920Y-33224553D01*
X36780902Y-33248219D01*
X36780858Y-33250219D01*
X36779104Y-33251181D01*
X36777510Y-33250328D01*
X36663362Y-33087260D01*
X36663000Y-33086113D01*
X36663000Y-31149000D01*
X36664000Y-31147268D01*
X36665000Y-31147000D01*
X36761993Y-31147000D01*
X36762574Y-31147086D01*
G37*
G36*
X35266732Y-31148000D02*
G01*
X35267000Y-31149000D01*
X35267000Y-33086113D01*
X35266638Y-33087260D01*
X35152490Y-33250328D01*
X35150678Y-33251173D01*
X35149040Y-33250026D01*
X35149109Y-33248200D01*
X35161029Y-33227017D01*
X35168526Y-33204103D01*
X35171410Y-33180162D01*
X35169567Y-33156126D01*
X35163070Y-33132906D01*
X35152168Y-33111402D01*
X35137281Y-33092438D01*
X35118979Y-33076743D01*
X35097967Y-33064919D01*
X35075061Y-33057424D01*
X35048231Y-33054488D01*
X35046618Y-33053306D01*
X35046836Y-33051318D01*
X35048449Y-33050500D01*
X35163000Y-33050500D01*
X35163000Y-31154500D01*
X35140001Y-31154500D01*
X35138269Y-31153500D01*
X35138269Y-31151500D01*
X35139805Y-31150510D01*
X35163992Y-31148128D01*
X35167426Y-31147086D01*
X35168007Y-31147000D01*
X35265000Y-31147000D01*
X35266732Y-31148000D01*
G37*
G36*
X38166990Y-31533379D02*
G01*
X38169372Y-31557566D01*
X38176372Y-31580641D01*
X38187737Y-31601905D01*
X38203032Y-31620542D01*
X38221669Y-31635837D01*
X38242933Y-31647202D01*
X38266008Y-31654202D01*
X38289999Y-31656565D01*
X38313990Y-31654202D01*
X38337065Y-31647202D01*
X38358329Y-31635837D01*
X38377046Y-31620476D01*
X38382065Y-31615457D01*
X38383997Y-31614939D01*
X38385411Y-31616353D01*
X38385142Y-31617982D01*
X38332512Y-31696749D01*
X38295154Y-31786940D01*
X38276108Y-31882690D01*
X38276108Y-31980310D01*
X38295154Y-32076060D01*
X38332512Y-32166251D01*
X38385142Y-32245018D01*
X38385273Y-32247014D01*
X38383610Y-32248125D01*
X38382065Y-32247543D01*
X38377046Y-32242524D01*
X38358329Y-32227163D01*
X38337065Y-32215798D01*
X38313990Y-32208798D01*
X38289999Y-32206435D01*
X38266008Y-32208798D01*
X38242933Y-32215798D01*
X38221669Y-32227163D01*
X38203032Y-32242458D01*
X38187737Y-32261095D01*
X38176372Y-32282359D01*
X38169372Y-32305434D01*
X38166990Y-32329621D01*
X38165825Y-32331247D01*
X38163835Y-32331051D01*
X38163000Y-32329425D01*
X38163000Y-31533575D01*
X38164000Y-31531843D01*
X38166000Y-31531843D01*
X38166990Y-31533379D01*
G37*
G36*
X27103510Y-24215650D02*
G01*
X27115033Y-24229691D01*
X27133670Y-24244986D01*
X27154934Y-24256351D01*
X27178009Y-24263351D01*
X27202000Y-24265714D01*
X27225991Y-24263351D01*
X27249066Y-24256351D01*
X27270330Y-24244986D01*
X27288967Y-24229691D01*
X27300490Y-24215650D01*
X27302362Y-24214946D01*
X27303908Y-24216215D01*
X27303699Y-24218030D01*
X27270812Y-24267249D01*
X27233454Y-24357440D01*
X27214408Y-24453190D01*
X27214408Y-24550810D01*
X27233454Y-24646560D01*
X27270812Y-24736751D01*
X27303699Y-24785970D01*
X27303830Y-24787966D01*
X27302167Y-24789077D01*
X27300490Y-24788350D01*
X27288967Y-24774309D01*
X27270330Y-24759014D01*
X27249066Y-24747649D01*
X27225991Y-24740649D01*
X27202000Y-24738286D01*
X27178009Y-24740649D01*
X27154934Y-24747649D01*
X27133670Y-24759014D01*
X27115033Y-24774309D01*
X27103510Y-24788350D01*
X27101638Y-24789054D01*
X27100092Y-24787785D01*
X27100301Y-24785970D01*
X27133188Y-24736751D01*
X27170546Y-24646560D01*
X27189592Y-24550810D01*
X27189592Y-24453190D01*
X27170546Y-24357440D01*
X27133188Y-24267249D01*
X27100301Y-24218030D01*
X27100170Y-24216034D01*
X27101833Y-24214923D01*
X27103510Y-24215650D01*
G37*
G36*
X25787659Y-22557457D02*
G01*
X25787273Y-22559244D01*
X25775752Y-22573282D01*
X25764387Y-22594546D01*
X25757387Y-22617621D01*
X25755024Y-22641612D01*
X25757387Y-22665603D01*
X25764387Y-22688678D01*
X25775752Y-22709942D01*
X25791047Y-22728579D01*
X25809684Y-22743874D01*
X25825708Y-22752438D01*
X25826764Y-22754137D01*
X25825821Y-22755900D01*
X25824000Y-22756050D01*
X25822560Y-22755454D01*
X25726810Y-22736408D01*
X25629190Y-22736408D01*
X25533440Y-22755454D01*
X25443249Y-22792812D01*
X25362077Y-22847049D01*
X25317687Y-22891439D01*
X25315755Y-22891957D01*
X25314341Y-22890543D01*
X25314727Y-22888756D01*
X25326248Y-22874718D01*
X25337613Y-22853454D01*
X25344613Y-22830379D01*
X25346976Y-22806388D01*
X25344613Y-22782397D01*
X25337613Y-22759322D01*
X25326248Y-22738058D01*
X25310953Y-22719421D01*
X25292316Y-22704126D01*
X25276292Y-22695562D01*
X25275236Y-22693863D01*
X25276179Y-22692100D01*
X25278000Y-22691950D01*
X25279440Y-22692546D01*
X25375190Y-22711592D01*
X25472810Y-22711592D01*
X25568560Y-22692546D01*
X25658751Y-22655188D01*
X25739923Y-22600951D01*
X25784313Y-22556561D01*
X25786245Y-22556043D01*
X25787659Y-22557457D01*
G37*
G36*
X28442030Y-22622301D02*
G01*
X28491249Y-22655188D01*
X28581440Y-22692546D01*
X28677190Y-22711592D01*
X28774810Y-22711592D01*
X28870560Y-22692546D01*
X28960751Y-22655188D01*
X29009970Y-22622301D01*
X29011966Y-22622170D01*
X29013077Y-22623833D01*
X29012350Y-22625510D01*
X28998309Y-22637033D01*
X28983014Y-22655670D01*
X28971649Y-22676934D01*
X28964649Y-22700009D01*
X28962286Y-22724000D01*
X28964649Y-22747991D01*
X28971649Y-22771066D01*
X28983014Y-22792330D01*
X28998309Y-22810967D01*
X29012350Y-22822490D01*
X29013054Y-22824362D01*
X29011785Y-22825908D01*
X29009970Y-22825699D01*
X28960751Y-22792812D01*
X28870560Y-22755454D01*
X28774810Y-22736408D01*
X28677190Y-22736408D01*
X28581440Y-22755454D01*
X28491249Y-22792812D01*
X28442030Y-22825699D01*
X28440034Y-22825830D01*
X28438923Y-22824167D01*
X28439650Y-22822490D01*
X28453691Y-22810967D01*
X28468986Y-22792330D01*
X28480351Y-22771066D01*
X28487351Y-22747991D01*
X28489714Y-22724000D01*
X28487351Y-22700009D01*
X28480351Y-22676934D01*
X28468986Y-22655670D01*
X28453691Y-22637033D01*
X28439650Y-22625510D01*
X28438946Y-22623638D01*
X28440215Y-22622092D01*
X28442030Y-22622301D01*
G37*
G36*
X25140030Y-21606301D02*
G01*
X25189249Y-21639188D01*
X25279440Y-21676546D01*
X25375190Y-21695592D01*
X25472810Y-21695592D01*
X25568560Y-21676546D01*
X25658751Y-21639188D01*
X25707970Y-21606301D01*
X25709966Y-21606170D01*
X25711077Y-21607833D01*
X25710350Y-21609510D01*
X25696309Y-21621033D01*
X25681014Y-21639670D01*
X25669649Y-21660934D01*
X25662649Y-21684009D01*
X25660286Y-21708000D01*
X25662649Y-21731991D01*
X25669649Y-21755066D01*
X25681014Y-21776330D01*
X25696309Y-21794967D01*
X25710350Y-21806490D01*
X25711054Y-21808362D01*
X25709785Y-21809908D01*
X25707970Y-21809699D01*
X25658751Y-21776812D01*
X25568560Y-21739454D01*
X25472810Y-21720408D01*
X25375190Y-21720408D01*
X25279440Y-21739454D01*
X25189249Y-21776812D01*
X25140030Y-21809699D01*
X25138034Y-21809830D01*
X25136923Y-21808167D01*
X25137650Y-21806490D01*
X25151691Y-21794967D01*
X25166986Y-21776330D01*
X25178351Y-21755066D01*
X25185351Y-21731991D01*
X25187714Y-21708000D01*
X25185351Y-21684009D01*
X25178351Y-21660934D01*
X25166986Y-21639670D01*
X25151691Y-21621033D01*
X25137650Y-21609510D01*
X25136946Y-21607638D01*
X25138215Y-21606092D01*
X25140030Y-21606301D01*
G37*
G36*
X28442030Y-21606301D02*
G01*
X28491249Y-21639188D01*
X28581440Y-21676546D01*
X28677190Y-21695592D01*
X28774810Y-21695592D01*
X28870560Y-21676546D01*
X28960751Y-21639188D01*
X29009970Y-21606301D01*
X29011966Y-21606170D01*
X29013077Y-21607833D01*
X29012350Y-21609510D01*
X28998309Y-21621033D01*
X28983014Y-21639670D01*
X28971649Y-21660934D01*
X28964649Y-21684009D01*
X28962286Y-21708000D01*
X28964649Y-21731991D01*
X28971649Y-21755066D01*
X28983014Y-21776330D01*
X28998309Y-21794967D01*
X29012350Y-21806490D01*
X29013054Y-21808362D01*
X29011785Y-21809908D01*
X29009970Y-21809699D01*
X28960751Y-21776812D01*
X28870560Y-21739454D01*
X28774810Y-21720408D01*
X28677190Y-21720408D01*
X28581440Y-21739454D01*
X28491249Y-21776812D01*
X28442030Y-21809699D01*
X28440034Y-21809830D01*
X28438923Y-21808167D01*
X28439650Y-21806490D01*
X28453691Y-21794967D01*
X28468986Y-21776330D01*
X28480351Y-21755066D01*
X28487351Y-21731991D01*
X28489714Y-21708000D01*
X28487351Y-21684009D01*
X28480351Y-21660934D01*
X28468986Y-21639670D01*
X28453691Y-21621033D01*
X28439650Y-21609510D01*
X28438946Y-21607638D01*
X28440215Y-21606092D01*
X28442030Y-21606301D01*
G37*
G36*
X60377510Y-18627650D02*
G01*
X60389033Y-18641691D01*
X60407670Y-18656986D01*
X60428934Y-18668351D01*
X60452009Y-18675351D01*
X60476000Y-18677714D01*
X60499991Y-18675351D01*
X60523066Y-18668351D01*
X60544330Y-18656986D01*
X60562967Y-18641691D01*
X60574490Y-18627650D01*
X60576362Y-18626946D01*
X60577908Y-18628215D01*
X60577699Y-18630030D01*
X60544812Y-18679249D01*
X60507454Y-18769440D01*
X60488408Y-18865190D01*
X60488408Y-18962810D01*
X60507454Y-19058560D01*
X60544812Y-19148751D01*
X60577699Y-19197970D01*
X60577830Y-19199966D01*
X60576167Y-19201077D01*
X60574490Y-19200350D01*
X60562967Y-19186309D01*
X60544330Y-19171014D01*
X60523066Y-19159649D01*
X60499991Y-19152649D01*
X60476000Y-19150286D01*
X60452009Y-19152649D01*
X60428934Y-19159649D01*
X60407670Y-19171014D01*
X60389033Y-19186309D01*
X60377510Y-19200350D01*
X60375638Y-19201054D01*
X60374092Y-19199785D01*
X60374301Y-19197970D01*
X60407188Y-19148751D01*
X60444546Y-19058560D01*
X60463592Y-18962810D01*
X60463592Y-18865190D01*
X60444546Y-18769440D01*
X60407188Y-18679249D01*
X60374301Y-18630030D01*
X60374170Y-18628034D01*
X60375833Y-18626923D01*
X60377510Y-18627650D01*
G37*
G36*
X59361510Y-18627650D02*
G01*
X59373033Y-18641691D01*
X59391670Y-18656986D01*
X59412934Y-18668351D01*
X59436009Y-18675351D01*
X59460000Y-18677714D01*
X59483991Y-18675351D01*
X59507066Y-18668351D01*
X59528330Y-18656986D01*
X59546967Y-18641691D01*
X59558490Y-18627650D01*
X59560362Y-18626946D01*
X59561908Y-18628215D01*
X59561699Y-18630030D01*
X59528812Y-18679249D01*
X59491454Y-18769440D01*
X59472408Y-18865190D01*
X59472408Y-18962810D01*
X59491454Y-19058560D01*
X59528812Y-19148751D01*
X59561699Y-19197970D01*
X59561830Y-19199966D01*
X59560167Y-19201077D01*
X59558490Y-19200350D01*
X59546967Y-19186309D01*
X59528330Y-19171014D01*
X59507066Y-19159649D01*
X59483991Y-19152649D01*
X59460000Y-19150286D01*
X59436009Y-19152649D01*
X59412934Y-19159649D01*
X59391670Y-19171014D01*
X59373033Y-19186309D01*
X59361510Y-19200350D01*
X59359638Y-19201054D01*
X59358092Y-19199785D01*
X59358301Y-19197970D01*
X59391188Y-19148751D01*
X59428546Y-19058560D01*
X59447592Y-18962810D01*
X59447592Y-18865190D01*
X59428546Y-18769440D01*
X59391188Y-18679249D01*
X59358301Y-18630030D01*
X59358170Y-18628034D01*
X59359833Y-18626923D01*
X59361510Y-18627650D01*
G37*
G36*
X61503573Y-18433695D02*
G01*
X61504408Y-18435321D01*
X61504408Y-18454810D01*
X61523454Y-18550560D01*
X61560812Y-18640751D01*
X61615049Y-18721923D01*
X61682037Y-18788911D01*
X61682555Y-18790843D01*
X61681141Y-18792257D01*
X61679512Y-18791988D01*
X61674407Y-18788577D01*
X61653055Y-18777164D01*
X61629980Y-18770164D01*
X61605988Y-18767801D01*
X61581997Y-18770164D01*
X61558922Y-18777164D01*
X61537659Y-18788529D01*
X61519022Y-18803825D01*
X61503727Y-18822462D01*
X61492362Y-18843725D01*
X61485362Y-18866800D01*
X61483582Y-18884875D01*
X61482417Y-18886501D01*
X61480427Y-18886305D01*
X61479592Y-18884679D01*
X61479592Y-18865190D01*
X61460546Y-18769440D01*
X61423188Y-18679249D01*
X61368951Y-18598077D01*
X61301963Y-18531089D01*
X61301445Y-18529157D01*
X61302859Y-18527743D01*
X61304488Y-18528012D01*
X61309593Y-18531423D01*
X61330945Y-18542836D01*
X61354020Y-18549836D01*
X61378012Y-18552199D01*
X61402003Y-18549836D01*
X61425078Y-18542836D01*
X61446341Y-18531471D01*
X61464978Y-18516175D01*
X61480273Y-18497538D01*
X61491638Y-18476275D01*
X61498638Y-18453200D01*
X61500418Y-18435125D01*
X61501583Y-18433499D01*
X61503573Y-18433695D01*
G37*
G36*
X97001165Y-18445354D02*
G01*
X97002000Y-18446980D01*
X97002000Y-18873020D01*
X97001000Y-18874752D01*
X96999000Y-18874752D01*
X96998010Y-18873216D01*
X96995628Y-18849029D01*
X96988628Y-18825954D01*
X96977263Y-18804690D01*
X96961968Y-18786053D01*
X96943331Y-18770758D01*
X96922067Y-18759393D01*
X96898992Y-18752393D01*
X96875001Y-18750030D01*
X96851010Y-18752393D01*
X96827935Y-18759393D01*
X96806671Y-18770758D01*
X96788034Y-18786053D01*
X96772739Y-18804690D01*
X96764174Y-18820716D01*
X96762475Y-18821772D01*
X96760712Y-18820829D01*
X96760562Y-18819008D01*
X96766546Y-18804560D01*
X96785592Y-18708810D01*
X96785592Y-18611190D01*
X96766546Y-18515440D01*
X96760562Y-18500992D01*
X96760823Y-18499009D01*
X96762671Y-18498244D01*
X96764174Y-18499284D01*
X96772739Y-18515310D01*
X96788035Y-18533947D01*
X96806672Y-18549242D01*
X96827935Y-18560607D01*
X96851010Y-18567607D01*
X96875001Y-18569970D01*
X96898993Y-18567607D01*
X96922067Y-18560607D01*
X96943331Y-18549242D01*
X96961968Y-18533946D01*
X96977263Y-18515309D01*
X96988628Y-18494046D01*
X96995628Y-18470971D01*
X96998010Y-18446784D01*
X96999175Y-18445158D01*
X97001165Y-18445354D01*
G37*
G36*
X97001165Y-17175354D02*
G01*
X97002000Y-17176980D01*
X97002000Y-17603020D01*
X97001000Y-17604752D01*
X96999000Y-17604752D01*
X96998010Y-17603216D01*
X96995628Y-17579029D01*
X96988628Y-17555954D01*
X96977263Y-17534690D01*
X96961968Y-17516053D01*
X96943331Y-17500758D01*
X96922067Y-17489393D01*
X96898992Y-17482393D01*
X96875001Y-17480030D01*
X96851010Y-17482393D01*
X96827935Y-17489393D01*
X96806671Y-17500758D01*
X96788034Y-17516053D01*
X96772739Y-17534690D01*
X96764174Y-17550716D01*
X96762475Y-17551772D01*
X96760712Y-17550829D01*
X96760562Y-17549008D01*
X96766546Y-17534560D01*
X96785592Y-17438810D01*
X96785592Y-17341190D01*
X96766546Y-17245440D01*
X96760562Y-17230992D01*
X96760823Y-17229009D01*
X96762671Y-17228244D01*
X96764174Y-17229284D01*
X96772739Y-17245310D01*
X96788035Y-17263947D01*
X96806672Y-17279242D01*
X96827935Y-17290607D01*
X96851010Y-17297607D01*
X96875001Y-17299970D01*
X96898993Y-17297607D01*
X96922067Y-17290607D01*
X96943331Y-17279242D01*
X96961968Y-17263946D01*
X96977263Y-17245309D01*
X96988628Y-17224046D01*
X96995628Y-17200971D01*
X96998010Y-17176784D01*
X96999175Y-17175158D01*
X97001165Y-17175354D01*
G37*
G36*
X62386257Y-16438859D02*
G01*
X62385988Y-16440488D01*
X62382577Y-16445593D01*
X62371164Y-16466945D01*
X62364164Y-16490020D01*
X62361801Y-16514012D01*
X62364164Y-16538003D01*
X62371164Y-16561078D01*
X62382529Y-16582341D01*
X62397825Y-16600978D01*
X62416462Y-16616273D01*
X62437725Y-16627638D01*
X62460800Y-16634638D01*
X62478875Y-16636418D01*
X62480501Y-16637583D01*
X62480305Y-16639573D01*
X62478679Y-16640408D01*
X62459190Y-16640408D01*
X62363440Y-16659454D01*
X62273249Y-16696812D01*
X62192077Y-16751049D01*
X62125089Y-16818037D01*
X62123157Y-16818555D01*
X62121743Y-16817141D01*
X62122012Y-16815512D01*
X62125423Y-16810407D01*
X62136836Y-16789055D01*
X62143836Y-16765980D01*
X62146199Y-16741988D01*
X62143836Y-16717997D01*
X62136836Y-16694922D01*
X62125471Y-16673659D01*
X62110175Y-16655022D01*
X62091538Y-16639727D01*
X62070275Y-16628362D01*
X62047200Y-16621362D01*
X62029125Y-16619582D01*
X62027499Y-16618417D01*
X62027695Y-16616427D01*
X62029321Y-16615592D01*
X62048810Y-16615592D01*
X62144560Y-16596546D01*
X62234751Y-16559188D01*
X62315923Y-16504951D01*
X62382911Y-16437963D01*
X62384843Y-16437445D01*
X62386257Y-16438859D01*
G37*
G36*
X61483582Y-15641125D02*
G01*
X61485362Y-15659200D01*
X61492362Y-15682275D01*
X61503727Y-15703539D01*
X61519022Y-15722176D01*
X61537659Y-15737471D01*
X61558923Y-15748836D01*
X61581998Y-15755836D01*
X61605989Y-15758199D01*
X61629980Y-15755836D01*
X61653055Y-15748836D01*
X61674407Y-15737423D01*
X61679512Y-15734012D01*
X61681508Y-15733881D01*
X61682619Y-15735544D01*
X61682037Y-15737089D01*
X61615049Y-15804077D01*
X61560812Y-15885249D01*
X61523454Y-15975440D01*
X61504408Y-16071190D01*
X61504408Y-16090679D01*
X61503408Y-16092411D01*
X61501408Y-16092411D01*
X61500418Y-16090875D01*
X61498638Y-16072800D01*
X61491638Y-16049725D01*
X61480273Y-16028461D01*
X61464978Y-16009824D01*
X61446341Y-15994529D01*
X61425077Y-15983164D01*
X61402002Y-15976164D01*
X61378011Y-15973801D01*
X61354020Y-15976164D01*
X61330945Y-15983164D01*
X61309593Y-15994577D01*
X61304488Y-15997988D01*
X61302492Y-15998119D01*
X61301381Y-15996456D01*
X61301963Y-15994911D01*
X61368951Y-15927923D01*
X61423188Y-15846751D01*
X61460546Y-15756560D01*
X61479592Y-15660810D01*
X61479592Y-15641321D01*
X61480592Y-15639589D01*
X61482592Y-15639589D01*
X61483582Y-15641125D01*
G37*
G36*
X60377510Y-15325650D02*
G01*
X60389033Y-15339691D01*
X60407670Y-15354986D01*
X60428934Y-15366351D01*
X60452009Y-15373351D01*
X60476000Y-15375714D01*
X60499991Y-15373351D01*
X60523066Y-15366351D01*
X60544330Y-15354986D01*
X60562967Y-15339691D01*
X60574490Y-15325650D01*
X60576362Y-15324946D01*
X60577908Y-15326215D01*
X60577699Y-15328030D01*
X60544812Y-15377249D01*
X60507454Y-15467440D01*
X60488408Y-15563190D01*
X60488408Y-15660810D01*
X60507454Y-15756560D01*
X60544812Y-15846751D01*
X60577699Y-15895970D01*
X60577830Y-15897966D01*
X60576167Y-15899077D01*
X60574490Y-15898350D01*
X60562967Y-15884309D01*
X60544330Y-15869014D01*
X60523066Y-15857649D01*
X60499991Y-15850649D01*
X60476000Y-15848286D01*
X60452009Y-15850649D01*
X60428934Y-15857649D01*
X60407670Y-15869014D01*
X60389033Y-15884309D01*
X60377510Y-15898350D01*
X60375638Y-15899054D01*
X60374092Y-15897785D01*
X60374301Y-15895970D01*
X60407188Y-15846751D01*
X60444546Y-15756560D01*
X60463592Y-15660810D01*
X60463592Y-15563190D01*
X60444546Y-15467440D01*
X60407188Y-15377249D01*
X60374301Y-15328030D01*
X60374170Y-15326034D01*
X60375833Y-15324923D01*
X60377510Y-15325650D01*
G37*
G36*
X58963490Y-13970309D02*
G01*
X58965872Y-13994496D01*
X58972872Y-14017571D01*
X58984237Y-14038835D01*
X58999532Y-14057472D01*
X59018169Y-14072767D01*
X59039433Y-14084132D01*
X59062508Y-14091132D01*
X59086499Y-14093495D01*
X59110490Y-14091132D01*
X59133565Y-14084132D01*
X59149588Y-14075568D01*
X59151587Y-14075634D01*
X59152530Y-14077397D01*
X59151642Y-14078995D01*
X59144077Y-14084049D01*
X59075049Y-14153077D01*
X59020812Y-14234249D01*
X58983454Y-14324440D01*
X58964408Y-14420190D01*
X58964408Y-14517810D01*
X58983454Y-14613560D01*
X59020812Y-14703751D01*
X59075049Y-14784923D01*
X59144077Y-14853951D01*
X59151642Y-14859005D01*
X59152527Y-14860799D01*
X59151416Y-14862462D01*
X59149588Y-14862432D01*
X59133565Y-14853868D01*
X59110490Y-14846868D01*
X59086499Y-14844505D01*
X59062508Y-14846868D01*
X59039433Y-14853868D01*
X59018169Y-14865233D01*
X58999532Y-14880529D01*
X58984237Y-14899166D01*
X58972872Y-14920429D01*
X58965872Y-14943504D01*
X58963490Y-14967691D01*
X58962325Y-14969317D01*
X58960335Y-14969121D01*
X58959500Y-14967495D01*
X58959500Y-13970505D01*
X58960500Y-13968773D01*
X58962500Y-13968773D01*
X58963490Y-13970309D01*
G37*
G36*
X97001165Y-3205354D02*
G01*
X97002000Y-3206980D01*
X97002000Y-3633020D01*
X97001000Y-3634752D01*
X96999000Y-3634752D01*
X96998010Y-3633216D01*
X96995628Y-3609029D01*
X96988628Y-3585954D01*
X96977263Y-3564690D01*
X96961968Y-3546053D01*
X96943331Y-3530758D01*
X96922067Y-3519393D01*
X96898992Y-3512393D01*
X96875001Y-3510030D01*
X96851010Y-3512393D01*
X96827935Y-3519393D01*
X96806671Y-3530758D01*
X96788034Y-3546053D01*
X96772739Y-3564690D01*
X96764174Y-3580716D01*
X96762475Y-3581772D01*
X96760712Y-3580829D01*
X96760562Y-3579008D01*
X96766546Y-3564560D01*
X96785592Y-3468810D01*
X96785592Y-3371190D01*
X96766546Y-3275440D01*
X96760562Y-3260992D01*
X96760823Y-3259009D01*
X96762671Y-3258244D01*
X96764174Y-3259284D01*
X96772739Y-3275310D01*
X96788035Y-3293947D01*
X96806672Y-3309242D01*
X96827935Y-3320607D01*
X96851010Y-3327607D01*
X96875001Y-3329970D01*
X96898993Y-3327607D01*
X96922067Y-3320607D01*
X96943331Y-3309242D01*
X96961968Y-3293946D01*
X96977263Y-3275309D01*
X96988628Y-3254046D01*
X96995628Y-3230971D01*
X96998010Y-3206784D01*
X96999175Y-3205158D01*
X97001165Y-3205354D01*
G37*
G36*
X97001165Y-1935354D02*
G01*
X97002000Y-1936980D01*
X97002000Y-2363020D01*
X97001000Y-2364752D01*
X96999000Y-2364752D01*
X96998010Y-2363216D01*
X96995628Y-2339029D01*
X96988628Y-2315954D01*
X96977263Y-2294690D01*
X96961968Y-2276053D01*
X96943331Y-2260758D01*
X96922067Y-2249393D01*
X96898992Y-2242393D01*
X96875001Y-2240030D01*
X96851010Y-2242393D01*
X96827935Y-2249393D01*
X96806671Y-2260758D01*
X96788034Y-2276053D01*
X96772739Y-2294690D01*
X96764174Y-2310716D01*
X96762475Y-2311772D01*
X96760712Y-2310829D01*
X96760562Y-2309008D01*
X96766546Y-2294560D01*
X96785592Y-2198810D01*
X96785592Y-2101190D01*
X96766546Y-2005440D01*
X96760562Y-1990992D01*
X96760823Y-1989009D01*
X96762671Y-1988244D01*
X96764174Y-1989284D01*
X96772739Y-2005310D01*
X96788035Y-2023947D01*
X96806672Y-2039242D01*
X96827935Y-2050607D01*
X96851010Y-2057607D01*
X96875001Y-2059970D01*
X96898993Y-2057607D01*
X96922067Y-2050607D01*
X96943331Y-2039242D01*
X96961968Y-2023946D01*
X96977263Y-2005309D01*
X96988628Y-1984046D01*
X96995628Y-1960971D01*
X96998010Y-1936784D01*
X96999175Y-1935158D01*
X97001165Y-1935354D01*
G37*
M02*
